/* XPM */
static char *result[] = {
/* columns rows colors chars-per-pixel */
"64 64 244 2 ",
"   c #10172B",
".  c #161C2E",
"X  c #191E2F",
"o  c #171E30",
"O  c #1B212E",
"+  c #1B2233",
"@  c #1D2637",
"#  c #222533",
"$  c #242A35",
"%  c #2B2933",
"&  c #2A2C37",
"*  c #242C3C",
"=  c #26313C",
"-  c #2A353B",
";  c #35363B",
":  c #453B3B",
">  c #3A473A",
",  c #45483B",
"<  c #574F3E",
"1  c #4A593E",
"2  c #56673D",
"3  c #5E713F",
"4  c #1F3042",
"5  c #232B43",
"6  c #273647",
"7  c #2E3C44",
"8  c #363C44",
"9  c #2A3953",
"0  c #323D5D",
"q  c #443E41",
"w  c #374645",
"e  c #34444B",
"r  c #334B4C",
"t  c #3B4A4C",
"y  c #2A4858",
"u  c #354954",
"i  c #3A4C52",
"p  c #3A5258",
"a  c #3D545B",
"s  c #374768",
"d  c #2E5568",
"f  c #375766",
"g  c #395673",
"h  c #356577",
"j  c #3A6D75",
"k  c #484847",
"l  c #554B47",
"z  c #465946",
"x  c #575649",
"c  c #424E53",
"v  c #455657",
"b  c #435A5D",
"n  c #555A56",
"m  c #675747",
"M  c #6E584A",
"N  c #665953",
"B  c #4B6448",
"V  c #576845",
"C  c #5B764D",
"Z  c #4C6457",
"A  c #536558",
"S  c #5B7C52",
"D  c #597858",
"F  c #667847",
"G  c #70744F",
"H  c #6C6457",
"J  c #77675B",
"K  c #435B62",
"L  c #485F61",
"P  c #4A5772",
"I  c #4A6364",
"U  c #4A676B",
"Y  c #596866",
"T  c #526B6B",
"R  c #54726C",
"E  c #4A6B71",
"W  c #4E7479",
"Q  c #537374",
"!  c #57797A",
"~  c #557A7B",
"^  c #6D756A",
"/  c #87664C",
"(  c #897458",
")  c #A77A54",
"_  c #867863",
"`  c #82756A",
"'  c #957F69",
"]  c #6D8344",
"[  c #69844B",
"{  c #718643",
"}  c #738944",
"|  c #7A8A47",
" . c #7C9548",
".. c #678657",
"X. c #708C56",
"o. c #749856",
"O. c #7DA45D",
"+. c #7EAA5E",
"@. c #5A836A",
"#. c #658869",
"$. c #6D976E",
"%. c #769969",
"&. c #749A6C",
"*. c #7B9A6D",
"=. c #718E76",
"-. c #6B9372",
";. c #699379",
":. c #76A563",
">. c #79A662",
",. c #7BA861",
"<. c #7DA47F",
"1. c #85874B",
"2. c #859A4A",
"3. c #909154",
"4. c #AB8E55",
"5. c #8AA54B",
"6. c #94AB4D",
"7. c #96B54E",
"8. c #99B74E",
"9. c #9BB84D",
"0. c #8CAE55",
"q. c #82A559",
"w. c #84AD5B",
"e. c #8AAE5A",
"r. c #98AC57",
"t. c #94AE5E",
"y. c #8DB155",
"u. c #8BB058",
"i. c #93B452",
"p. c #9BB652",
"a. c #9CB654",
"s. c #9BB15C",
"d. c #A0B34F",
"f. c #A1B84F",
"g. c #A8AA54",
"h. c #B4AB53",
"j. c #A2B653",
"k. c #ACB655",
"l. c #A4B851",
"z. c #ABB953",
"x. c #A3B25C",
"c. c #ABB35D",
"v. c #B4B556",
"b. c #B3B956",
"n. c #B3B55C",
"m. c #BAB65B",
"M. c #B7B959",
"N. c #BCB95A",
"B. c #8F8B6F",
"V. c #9A8769",
"C. c #869868",
"Z. c #839D6C",
"A. c #96957B",
"S. c #A2896E",
"D. c #AF9471",
"F. c #A89576",
"G. c #87A565",
"H. c #83AA61",
"J. c #94A665",
"K. c #9CAA64",
"L. c #96AC75",
"P. c #A5AD62",
"I. c #AAAD62",
"U. c #ACB362",
"Y. c #B6AA75",
"T. c #C7AB55",
"R. c #C1BA5A",
"E. c #C3B86B",
"W. c #C7A87D",
"Q. c #CACD46",
"!. c #D6D06D",
"~. c #E7E76A",
"^. c #3D6A84",
"/. c #3C778B",
"(. c #3D7F93",
"). c #467D8B",
"_. c #587E83",
"`. c #3D8496",
"'. c #3E8799",
"]. c #5B8384",
"[. c #5A8587",
"{. c #508B8E",
"}. c #5D8B8C",
"|. c #448B98",
" X c #4A9699",
".X c #589798",
"XX c #678C89",
"oX c #628C8C",
"OX c #6D968B",
"+X c #638D92",
"@X c #639494",
"#X c #6A9695",
"$X c #659C9C",
"%X c #6A9D9D",
"&X c #749B97",
"*X c #51A09B",
"=X c #6EA19D",
"-X c #77A29C",
";X c #4B9BA1",
":X c #6E9EA1",
">X c #53A8A6",
",X c #58B1AC",
"<X c #6CA2A2",
"1X c #73AAAA",
"2X c #78A8A8",
"3X c #7DAFB3",
"4X c #7CB2B3",
"5X c #7FB7B8",
"6X c #879886",
"7X c #939388",
"8X c #9F9D91",
"9X c #8EAA97",
"0X c #B4AC89",
"qX c #8BB2A8",
"wX c #8CB6AB",
"eX c #86B9B9",
"rX c #84BBBB",
"tX c #B0B4B1",
"yX c #C9B58A",
"uX c #C9B48C",
"iX c #D3B482",
"pX c #D8BA87",
"aX c #C2BCA1",
"sX c #AAC087",
"dX c #99C4B7",
"fX c #A9C8B1",
"gX c #CBC990",
"hX c #DBC693",
"jX c #E2CC98",
"kX c #E5D29D",
"lX c #EDEB95",
"zX c #D1CAAD",
"xX c #EADBA8",
"cX c #EDDCB8",
"vX c #EEE2A9",
"bX c #EFE3AD",
"nX c #F1E5BB",
"mX c #87BFC1",
"MX c #B9BCC6",
"NX c #8BC2C3",
"BX c #92C3C1",
"VX c #D8D5C6",
"CX c #F2EACF",
"ZX c #F8F5E8",
/* pixels */
"H.H.x.M.b.j.z.s.u.i.i.9.9.9.9.9.9.9.9.9.9.9.9.9.9.9.9.9.y.r.s.r.t.:.e.k.n.k.x.j.u.y.7.7.9.9.9.9.9.9.9.9.8.8.8.8.9.9.7.9.7.t.s.s.",
",.>.,.,.,.,.,.,.:.,.,.,.u.w.u.u.8.8.8.9.9.9.8.9.8.8.y.u.o.S ] [ S S S O.,.,.,.,.:.:.+.+.w.+.w.y.i.9.8.9.8.8.9.9.9.9.p.y.+.+.y.7.",
"p.w.,.e.u.,.,.+.,.+.+.u.y.y.i.i.8.9.8.8.9.i.0. .o.2 C B r w K ~ R I r w z F S X.o.+.>.w.u.u.y.9.9.9.9.9.8.8.i.i.8.p.i.y.i.7.9.9.",
"z.e.e.9.8.i.7.i.y.i.9.9.9.9.9.9.9.9.8.p.w...v p _.p +X1X<XoX}.<X$X$X@X! [.' L.W t F 6.9.9.9.9.9.9.9.9.9.i.*.*.-.,.i.&.&.&.y.9.l.",
"N.M.a.8.8.8.9.z.z.b.m.M.9.8.y.,.H.0.O.o.D t _.4X3X+X2X<X=X$X@X$X%X<X<X$X<XQ XXeX$XI x g.p.8.p.q.+.w.i.>.&.J.n.K.*.-.G.M.U.J.a.N.",
"N.R.b.f.8.z.M.N.N.m.M.j.u.e.&.Z.&.@.t w = I .XdXqXOX6X5X5X1X@.2X5XmXrX3X2XoX<XrX3XoXe > , V %.&.*.-.-.C.=.J.R.R.N.P.N.N.R.N.m.N.",
"c.N.R.b.z.f.f.f.9.l.p.q.*.G.Z.h.G w U U * I }.wXdXgXY.@X<X$X@X@X1XmXeXeXT ! eXdX<X@.p 6 W a r 3.M.J.P.N.m.P.m.N.N.R.N.m.z.z.N.R.",
"H.m.N.m.z.l.8.8.l.b.c.J.U.m.n.G b u #XR 8 b Q %X=X*.H }.<X%X$X<X<X%XoX2X! ! &X&X}.K u e +X@.u Z 5.R.m.v.k.M.n.H.,.K.b.z.9.9.j.s.",
",.i.f.9.9.9.9.b.b.b.N.R.N.b.} t $XR 6XW.H }.#X<X[.T I XX1X1X1X$X~ ].2XrXOX3.E.9X%X+X_.I $X~ ].[.> g.b.7.w.,.+.:.,.w.8.9.i.w.,.,.",
"w.+.y.7.9.9.l.z.9.7.f.z.f.| t i }.K %.I.n #XNXNXoXi r ! 1X5XdX9XY ! 1X%XZ 4.vXgXeXrXXXT }.I Q Q w 1 6.+.>.,.>.>.,.,.,.u.w.:.,.y.",
"9.i.7.9.9.9.i.y.i.9.9.8.5.> Z Z t k k - p oXwXwX3XK r _.>X<X<X2X-X~ $X$X_.m h.L.4X2X~ u 8 e t u T r B O.w.8.w.+.w.,.,.:.+.+.+.9.",
"9.9.7.y.p.8.w.,.+.7.7.] > 8 b f E F.J.e R .X$XoXW f a U }.$X$X$X}.a $X$XW K I [.$X$XoXb 8 u E E p v - t 5.9.i.i.9.i.u.u.i.9.y.i.",
"9.8.u.:.,.+.,.,.+.u.2.t K i = :X1XsX3.m V.R d * y h 6 e w f }.@XQ r oX2XeXmXdX&XU W f I W <XNXmXI 5 b v V l.9.8.9.9.i.y.i.9.9.9.",
"y.w.,.:.,.>.:.,.:.O.Z b I 7 K &XdX2X%.gX!., O 6 ^.;X X|.j y e a p = L XXqXwX2X+XL e Z @XrXNXdXrX@.u 7 T v X.e.0.+.+.,.:.,.u.+.+.",
"-.-.,.u.w.w.:.:.:.S t b 7 u T @X<XdXU.!.H * h `. X>X>X X>X>X`.p ! 2X3X+XQ $X$X+XU G 4.8X2X5X<X<X].T 6 k Z 1 O.+.+.:.:.:.:.:.,.,.",
"-.;.-.&.*.w.*.*.@.- 7 - + e I ].<X<XOX1 @ d `.'.>X,X,X,X*X,X,X{.f -XwXoXI $X=.A.v h.~.lX<.<X<X@XQ v - G C.= 2 +.,.:.,.:.,.:.$.$.",
"s.$.*.P.P.G.U.m.B e I e i Q %XoXI [.@X6 9 ^.|.(./.|.*X,X>X X>X>Xj u $XE f _.G !.< 4.!.~.G @XW E &X+XI w A I - [ +.w.:.:.:.$.-.G.",
"R.K.n.N.N.N.m.4.k n G n b +XNXNX2X:X2X0 s /.^.6 @ o 5 j >X>Xj  X>Xy }._.-XrXXX9X}.> m C.<X4X#XrXNXrXQ 7 I U t , 5.7.e.e.G.*.K.N.",
"M.N.N.M.m.N.b.G n B.!.3.! 4XNXNXmXmX3Xu g (.^.0 0 9 o X h >X{.d *Xd W qXwX1X<X1X#Xp i :XNXNXNXNXBXrX:Xb i I i n ] 7.k.z.m.n.N.R.",
"9.b.k.l.9.z.5.V n F T.M _.:X1X4XdXfXwXu 9 ^.(.g P P 9 X X h *Xy j g f @X.X$X$X}.R t p Q 9XdXfXfXwX2X$XW @ = t A ] 5.9.8.l.j.b.m.",
"9.l.9.9.9.5.} , t - v b [..X$X$X=X=X#Xb 5 9 g s s 0 5 u @ 9 ).f /.s f $X2X$X:X@XT i p T ! =X-X=XC.6X$XU a 6 e w 2 } 6.8.8.9.9.l.",
"9.9.i.7.9.2.3 w 8 7 Q }.+X1X<X%X%X$X$XE 6 + $ * # $ I XXp 4 g 9 h * n ^ _.^ Y Y x N - b }.@X&XA V.gXOXXXoXb k c > ] 2.d.b.l.9.9.",
"y.u.+.+.7.5.> w - i T ! 2XmXmXrX1X$X@XI 6 ; M m < : m m & 6 0 0 s # < ) ) M M T.4./ - u ! B.R.S.V L.2X&XT H E.H * V r.m.N.m.M.j.",
"+.u.7.u.q. .> - U ! R ^ V.B.&XqX1X_.U Y I 8 / ) M & H J 5 6 X   8 B.Y l / m l ) ) m i T v ( lXlXP.OX7XF.Y I L.k - z o.s.M.j.s.u.",
"7.i.u.+. .] > E 1XmX2XgX~.Q.i OX=.E 8 U e % ) / % & 7XzXMXMXtXtXMXCX7XO : M < ) ) M & v u m T.b.1.' uXF.&XeXmX}.p > F 2.8.e.i.i.",
"+.,.:.O...B r }.1XdX*.Q.~.T., Y.3.K +X&XK * % # % N q 0XCXnXnXcXcXxX0X' ; # % : : % 7 ! &X#X9X9XA.aXzXY wXmXrX%XR - A ..>.&.*.:.",
"+.w.+.+.} t a $X$X<X}.<.4.x 7 X.Y qXdX&XT i & X l ' uXjXxXnXnXCXZXZXCXjX( % : : : ; b ! wXfXeX! 0XZXMXc &XqX<X$X[.w F R %.n.P.Z.",
"k.f.7.5.} - a $X$X$X$X$X+Xn u +X$X<X%X#X! i % # ` ' iXhXbXnXnXnXCXzXaXcXuX: l M / ; T oX$X-X&XJ VXZXaXi {.@X$X%X}.= F G 3.z.b.m.",
"b.b.8.} ] - p $X4X<X<X%X6XY., W %X$X$X$X[.K X ; ( ' iXpXjXcXbXxXCX7Xk pXxXN q ) / ; Y #X%X#X7XzXZXcXuXu +X.X1X4X{.> t [ | 6.8.l.",
"e.w.5. .2 > ;.$X5XdXrXNXfXgX> I $X$X$X}.E 8 o q ` iXiXiXpXjXkXcXZX8X# S.cX` : ) M & I.7X@X! Y CXVXhXF.P 3XrXNX1X}.K > [ ..:.u.i.",
"t.s.q.{ > i }.$X<XwX9XwXwXXXU =X+X%XeX#XQ u . N ' iXiXiXiXiXjXcXZX8XX N kXaXq ) m & U.0X<Xp 6XcXpXyXn XXqX9X2X$X.XW = t S o.,.+.",
"N.N.g.F > t U }..X.X.X@X$X}.2X].8 i +XmXmXE . N ' iXiXiXiXiXjXcXCXXXX 5 S.S.; / : f #XeX+Xv kXjXiXV.9 oXXX.X$X.X[.Z e z [ q.9.z.",
"x.s.k.1.G 2 2 w a @X$X>X].T 9XY ; J c _.#Xu o & M D.0XD.J x n n n 5 . . . X # l - K @X%Xu B.xXyXW.k r @X%X%X@.r > 2 2 ] } 6.b.n.",
">.,.H.o.| X.F C C #.}.;.i w ! f + k D.l u K o % ` D.W.iXuX` l & # + . . q 7Xl # r I [.U v 0XB.iX_ $ = E XX;...] ] } { ] o.+.w.u.",
"e.,.,.O.o...S S [ S ..B V t a p y y k F.l # o X M ' D.iXpXpXjXuXzXtX5 # ' xXF.X e > r - A.0XN W., $ > 3 F } { | } } } q.e.u.9.9.",
"l.w.+.7.i.X.[ [ ..[ [ ] } } C > h `.^.Y V.J q O q ` ' uXiXiXjXxXcXCX0 q jXCX0XX > C , , gXJ V.' - 2 F ] { [ ..S [ } X.>.H.9.9.9.",
"m.s.u.8.9.7.5.8.5.2.2.2.} } ] , d `.'.).=.S.S._ N q J ' iXiXpXxXbXcXc ( cXbX` X 7 1 , ^ F.H Y.k 2 ] | } S D C.%.#.%.&.J.G.G.p.b.",
"N.R.z.9.9.f.b.M.b.b.M.h.6.6.S w h `.|.|.0XV.m x J 0X` 5 D.pXiXjXbXcXtXzXxXhX; 9  Xy ; D.q ' V.- Z D %.#.#.J.R.m.K.*.c.R.R.I.c.R.",
"N.R.N.z.9.f.z.z.z.k.l.t.&.%.%.m h `. X*X0XhXW.S.l N _ X 8 N F.kXbXnXCXCXhXH 6 j d y J _ q S.l F x.&.*.I.K.J.m.N.R.m.N.N.m.N.N.N.",
"t.N.N.m.M.f.9.9.9.j.a.>.J.P.r.V h `.'.>XzXkXpXpXS.l _ X o o @ H 0XxXcXxX^ 6 y >Xd * ( q H N - 3.v.n.m.N.N.N.m.U.s.n.m.b.f.f.M.M.",
"H.z.z.z.9.9.9.l.M.N.m.n.N.N.d.2 U |.'. XdXjXhXE.D.l ` o 0 6 @ o & l B.n 6 s 9 h |.h 4 + N 8 @ 1 6.N.M.l.y.s.t.,.>.e.l.9.8.i.u.,.",
",.u.9.9.9.9.l.M.l.9.b.N.z.l.7.2 ' 8XOX{.9XhXjXpXW.J ( o ^.^.s 0 5 o . 5 g ^.9 o 9 h h 9 5 @ s y V l.z.u.,.:.,.:.:.w.y.i.y.,.:.w.",
"y.u.y.9.9.9.l.9.7.9.9.f.8.8.8.1 ' W.hXfX9XyXiXiXW.' ` @ g (./.^.s 0 9 s ^.g # k N q 9 0 s @ @ @ F y.u.,.+.u.H.,.,.:.:.,.,.,.,.8.",
"7.7.7.7.9.7.i.H.u.8.8.8.8.9.8.2 H W.hXvXfX#X0XiXD.' ( o ^.(.'.(.).^.^.^.^.5 X H 0XyXl # 5 0 6 2 5.y.w.,.y.9.y.w.8.0.+.,.w.i.w.i.",
"8.8.y.+.u.y.,.,.,.i.8.8.9.9.f.F q W.pXkXsX>X X-X^ N _ # g ).'.'.(.(.`.^.4 . O N W.iXiXx + ; > 1.z.9.9.j.l.9.9.9.9.9.8.i.i.9.8.8.",
"9.i.+.,.,.:.,.:.>.+.w.y.i.z.R.h.: ' !.W.8X;X X|.h 8 H # 0 s d g s ^.s 4 $ t - $ / ' V.> B 5.g.m.N.N.m.R.M.s.i.i.y.u.w.+.u.i.i.y.",
">.:.>.,.,.,.:.:.:.>.+.0.7.8.z.N.1., S.W.yX{.'.'.h k l . o + $ $ o o o > [ ..= 9 o @ $ >  .p.j.b.N.N.N.c.u.w.+.+.,.,.:.:.:.,.,.,.",
";.;.%.,.w.u.:.$.$.:.i.9.l.b.b.N.N.( > V.yXOX'.(.K l # . . w Z B @ o 5 X.O.[ = 9 5 n [ 7.9.z.M.M.N.N.l.i.i.9.y.u.,.:.,.:.:.:.:.:.",
"*.-.-.Z.Z.&.L.I.*.-.t.k.b.b.b.R.m.9.] > S.7X/.9 - - B - X - T B X X c D G #.B < G #.%.x.b.b.M.N.N.b.9.9.9.9.i.w.,.,.,.,.:.:.;.;.",
"m.C.J.N.m.I.m.R.n.I.n.l.9.8.9.b.N.b.k.{ , T y k - B V - X - G 1 X & z | 3.1.1.g.n.U.c.k.9.9.9.l.N.N.z.z.9.9.9.7.y.y.,.,.:.$.Z.U.",
"N.n.m.N.N.Q.N.N.N.R.N.b.b.l.8.9.l.M.l.l.] $ $ , 3 { 1 , , 1 1.x , , x 1.1.1.1.1.g.R.Q.U.M.z.9.9.9.z.b.l.l.9.9.9.9.9.z.x.I.K.n.N.",
"l.m.m.z.z.M.z.z.R.N.N.R.R.b.9.b.z.9.8.8.8.{ > 3 { | }  .1.1.1.1.| 1.1.1.| 1.1.| h.m.R.N.N.R.l.l.b.l.9.9.9.9.9.9.9.9.l.9.z.b.m.N.",
"9.z.l.8.9.9.9.9.N.N.N.M.N.m.M.N.N.z.z.z.z.f.2. .{ { ] } ] } 1.| } } | { } }  .5.j.m.N.b.M.N.M.N.N.M.z.z.z.z.9.9.9.9.9.8.8.8.f.b.",
"8.f.9.8.9.9.9.9.f.l.9.9.l.l.l.f.9.y.u.w.w.y.7.0.5.2. . .} } { | } } |  . .5.6.9.l.l.l.9.9.l.l.l.l.9.u.w.w.w.i.y.7.9.9.8.l.9.9.9.",
"8.i.w.y.9.9.9.9.8.9.8.9.8.8.9.8.w.+.,.,.:.O.+.:.w.j.z.h.g.6.6.5.5.5.q.w.i.8.9.9.8.8.9.8.9.9.9.7.u.w.,.,.:.,.,.,.,.p.l.M.N.b.l.l.",
"+.w.y.+.y.9.7.y.u.i.8.i.8.8.y.w.,.w.y.y.+.,.+.+.+.e.x.m.N.c.c.e.+.w.y.w.w.i.9.i.w.u.9.9.7.9.7.u.,.,.u.y.u.,.,.+.,.H.t.n.N.n.c.s.",
"i.i.7.u.y.9.y.,.,.,.w.+.w.y.y.i.i.p.8.8.i.w.8.p.i.i.i.j.j.i.y.i.y.y.7.y.y.7.7.+.:.,.+.+.+.y.y.y.y.p.8.8.i.u.u.9.y.y.i.p.l.9.i.i.",
"u.w.+.,.w.i.,.,.y.u.+.+.y.i.7.9.i.u.i.i.y.p.9.a.G.>.%.i.H.>.u.,.+.u.w.,.,.y.y.,.u.y.w.+.u.y.i.9.8.e.i.a.i.i.9.9.t.H.*.0.0.%.w.w.",
":.+.,.,.,.,.,.u.9.9.9.9.9.9.7.w.*.*.-.&.&.%.b.m.n.J.;.-.*.K.$.,.+.,.,.,.+.,.,.+.9.9.9.9.9.9.9.t.%.*.&.$.*.$.s.M.m.P.Z.-.$.J.Z.&.",
"t.y.i.i.7.u.,.w.w.w.y.7.a.>.H.K.n.m.P.U.n.P.N.N.n.N.P.*.U.n.U.n.c.u.i.y.7.i.,.,.w.w.u.i.p.u.H.G.c.m.n.K.n.I.M.N.n.b.n.*.G.m.b.P.",
"N.M.l.9.9.u.H.H.s.x.x.x.x.x.M.R.M.s.s.M.m.n.n.t.:.t.n.x.z.9.b.M.N.N.z.9.9.7.+.w.t.x.P.x.c.K.k.N.N.x.t.n.M.M.n.U.H.,.x.c.U.l.l.N.",
"9.a.8.9.8.i.9.j.l.z.l.z.p.9.9.j.i.y.H.e.H.,.,.,.>.>.,.w.u.i.8.9.p.a.a.8.9.i.i.l.l.l.l.l.l.9.9.f.a.i.u.,.t.H.,.,.,.,.,.,.e.y.9.9.",
",.H.u.9.9.9.9.8.8.9.9.f.z.z.9.9.9.9.8.i.y.u.,.,.+.>.>.>.:.,.w.w.,.w.w.8.9.9.9.9.9.9.9.9.z.b.9.9.9.9.8.8.i.w.w.,.,.,.,.,.:.,.,.w.",
"c.M.l.9.9.8.9.8.8.z.b.N.m.m.b.z.9.i.y.u.w.w.+.y.8.y.:.>.,.u.u.y.s.M.c.a.9.9.9.9.9.f.l.M.N.N.N.z.l.9.y.y.u.w.,.w.i.i.+.:.,.+.u.i."
};
