/* XPM */
static char *result[] = {
/* columns rows colors chars-per-pixel */
"64 64 242 2 ",
"   c #10172B",
".  c #161C2E",
"X  c #191E2F",
"o  c #171E31",
"O  c #1B212F",
"+  c #1B2233",
"@  c #1E2738",
"#  c #20232F",
"$  c #222634",
"%  c #252A35",
"&  c #232C3B",
"*  c #2B2C38",
"=  c #312E35",
"-  c #26323D",
";  c #2A353B",
":  c #36373A",
">  c #433939",
",  c #3A473A",
"<  c #46473C",
"1  c #55493E",
"2  c #4A593E",
"3  c #57683E",
"4  c #576A3E",
"5  c #1F3042",
"6  c #232C43",
"7  c #263547",
"8  c #2D3B44",
"9  c #363C43",
"0  c #2B3954",
"q  c #323E5E",
"w  c #453D41",
"e  c #2C444F",
"r  c #394747",
"t  c #33444C",
"y  c #3D534A",
"u  c #294758",
"i  c #354854",
"p  c #3A4C52",
"a  c #3B5257",
"s  c #3D555C",
"d  c #374768",
"f  c #345667",
"g  c #30546A",
"h  c #385774",
"j  c #356577",
"k  c #396C74",
"l  c #474847",
"z  c #534B47",
"x  c #455845",
"c  c #57564A",
"v  c #465758",
"b  c #435A5D",
"n  c #565955",
"m  c #675646",
"M  c #755B4B",
"N  c #675A53",
"B  c #4B6346",
"V  c #556746",
"C  c #5A744B",
"Z  c #4A6357",
"A  c #57655A",
"S  c #5A7C52",
"D  c #587658",
"F  c #686A46",
"G  c #677945",
"H  c #747A49",
"J  c #6C6557",
"K  c #77675B",
"L  c #6F7554",
"P  c #435C63",
"I  c #455F65",
"U  c #495672",
"Y  c #4A6364",
"T  c #486569",
"R  c #4D6A6B",
"E  c #556B69",
"W  c #53726D",
"Q  c #4A6B72",
"!  c #4F7478",
"~  c #537374",
"^  c #567A7B",
"/  c #587979",
"(  c #70766A",
")  c #88664D",
"_  c #8D7552",
"`  c #9B7352",
"'  c #A87B54",
"]  c #867863",
"[  c #82756A",
"{  c #957F68",
"}  c #6C8344",
"|  c #69844B",
" . c #718743",
".. c #738A44",
"X. c #7A8748",
"o. c #7C9649",
"O. c #658757",
"+. c #708E56",
"@. c #759955",
"#. c #7CA35B",
"$. c #7EAA5E",
"%. c #5B826A",
"&. c #6D976E",
"*. c #769969",
"=. c #749A6C",
"-. c #7B9A6D",
";. c #6E8C72",
":. c #6B9372",
">. c #699379",
",. c #76A563",
"<. c #79A662",
"1. c #7BA861",
"2. c #85884A",
"3. c #859849",
"4. c #919055",
"5. c #AB8957",
"6. c #8BA74B",
"7. c #92AC4D",
"8. c #96B54E",
"9. c #99B74E",
"0. c #9BB84D",
"q. c #88AA57",
"w. c #84AD5B",
"e. c #8AAE5A",
"r. c #98AC57",
"t. c #94AE5E",
"y. c #8DB155",
"u. c #8BB058",
"i. c #93B452",
"p. c #9BB652",
"a. c #9CB654",
"s. c #9BB15C",
"d. c #A1B84F",
"f. c #A6A854",
"g. c #B5AA51",
"h. c #A2B653",
"j. c #ACB555",
"k. c #A4B851",
"l. c #ABB953",
"z. c #A3B25C",
"x. c #ABB35C",
"c. c #B5B557",
"v. c #B3B956",
"b. c #B3B55C",
"n. c #BAB65B",
"m. c #B7B959",
"M. c #BCB95A",
"N. c #9A8769",
"B. c #8A9C64",
"V. c #839D6C",
"C. c #918E70",
"Z. c #AB9171",
"A. c #87A565",
"S. c #83AA61",
"D. c #94A665",
"F. c #9CAA64",
"G. c #95AB75",
"H. c #A5AD62",
"J. c #AAAD60",
"K. c #B1AB71",
"L. c #C7A95B",
"P. c #C1BA5A",
"I. c #C6A87D",
"U. c #C4B670",
"Y. c #B1C076",
"T. c #C9C952",
"R. c #E8E46E",
"E. c #3C6A84",
"W. c #3C778B",
"Q. c #437288",
"!. c #587E81",
"~. c #3D8496",
"^. c #3E8799",
"/. c #46888A",
"(. c #5B8484",
"). c #5A8487",
"_. c #5E8B8C",
"`. c #448B98",
"'. c #5B8D91",
"]. c #4A9699",
"[. c #589798",
"{. c #648B8A",
"}. c #6E948B",
"|. c #638D92",
" X c #639494",
".X c #6A9595",
"XX c #659C9C",
"oX c #6A9D9D",
"OX c #749B96",
"+X c #51A09B",
"@X c #6DA19E",
"#X c #75A49E",
"$X c #4B9BA1",
"%X c #6C9EA1",
"&X c #54A8A6",
"*X c #58B2AC",
"=X c #6CA2A2",
"-X c #73A4A5",
";X c #74AAAB",
":X c #7AABAA",
">X c #7CAFB5",
",X c #7DB2B3",
"<X c #7FB7B8",
"1X c #879885",
"2X c #929289",
"3X c #9F9D91",
"4X c #8EAA98",
"5X c #B6AA86",
"6X c #B1B08A",
"7X c #8DB3A7",
"8X c #8BB5AA",
"9X c #85BABA",
"0X c #84BABB",
"qX c #B3B7B0",
"wX c #C8B68A",
"eX c #C9B48C",
"rX c #D3B482",
"tX c #D8BA88",
"yX c #C3B9A1",
"uX c #92C0B6",
"iX c #9AC4B7",
"pX c #A9C7A6",
"aX c #A8CBB8",
"sX c #CBC891",
"dX c #DBC693",
"fX c #E2CC98",
"gX c #E5D299",
"hX c #EDEB95",
"jX c #D1CAAD",
"kX c #EADBA8",
"lX c #EDDCB8",
"zX c #EFE1AB",
"xX c #EFE3AD",
"cX c #F1E5BB",
"vX c #87BEC1",
"bX c #B9BCC6",
"nX c #8BC2C3",
"mX c #8FC7C8",
"MX c #96C5C1",
"NX c #D8D5C7",
"BX c #F2EACF",
"VX c #F8F5E8",
/* pixels */
"S.S.z.m.v.h.h.s.u.i.9.9.9.0.0.0.0.0.0.0.0.0.0.0.0.9.0.0.y.u.s.t.t.1.e.b.b.x.h.a.y.y.9.i.0.0.0.0.0.0.0.0.0.0.9.0.9.0.9.0.9.t.s.s.",
"1.<.1.1.1.1.S.<.,.1.1.$.w.w.u.u.8.0.0.8.0.0.p.p.9.9.y.w.O.| } | S S S #.1.1.S.1.,.,.1.1.w.w.w.u.i.0.0.0.9.9.0.9.0.0.8.y.$.$.y.i.",
"p.w.1.e.y.$.$.$.1.1.$.u.u.y.i.9.0.0.9.0.0.y.7.o.o.4 C B r t Z ~ W Y y r n G S +.@.#.$.w.y.y.y.0.0.0.0.0.9.9.i.i.9.p.p.y.i.9.0.0.",
"l.e.e.0.0.y.i.i.y.9.9.0.0.0.0.0.0.0.0.8.q.O.x s ).s '.;X@X X_.@XXXXX'.^ (.] G.! y C 7.0.9.0.0.0.0.0.0.0.t.,.-.:.1.i.&.=.=.u.0.k.",
"M.m.a.9.9.9.d.l.l.v.n.n.d.0.u.1.w.y.S.*.D r ^ 9X>X'.;X-X@X=X XXX%X=X-X X=X/ }.9X.XT c f.f.0.i.S.$.w.7.S.=.B.b.F.-.:.A.m.b.D.a.n.",
"M.P.v.k.9.l.m.n.M.n.m.h.w.u.=.V.=.W r r 6 Z XX9X:X1X1X<X<X=X(.-X<XvX<X;X;X).oX9X>X'.t , 2 V *.=.-.:.:.V.-.D.M.P.n.H.n.M.M.M.n.M.",
"x.M.P.v.l.0.d.d.0.d.p.#.-.V.V.c.H r Q R - Y _.8XiXsXK..X-X=X'.'.;XvX9X9XQ ~ 9XiX=X%.a - ! a r 4.n.D.H.n.b.H.M.M.n.P.P.n.v.l.M.P.",
"S.n.M.n.l.k.9.0.d.v.x.D.b.n.x.H b i .XW 9 b ~ oX@X-.J _.=XXX@X@X=X%X|.:X/ ;.}.oX_.Z p t '.^ i Z 6.P.n.c.x.m.b.A.S.s.v.k.9.0.h.s.",
"1.a.0.0.0.0.0.l.v.v.M.P.M.v...y XX~ 1XU.J ).oX=X).W Y {.:X;X-XoX!.).-X9X{.4.P.4X@X X!.T  X!.(.)., f.v.8.$.1.1.,.<.w.i.0.9.w.1.,.",
"w.1.y.0.0.0.l.l.d.9.d.l.d...r p ).P *.K.n .XnXuX).p i / ,X9X9X-XE ~ ;X=XZ g.xXyX9XuX{.R _.P / ~ r 2 7.$.1.1.1.,.<.1.1.u.$.1.1.y.",
"9.i.i.0.0.0.0.y.i.9.9.8.3., Z I p l l - a {.8X9X,XI t !.XXXX=X8XOX~ XXXX^ m f.G.,X=X^ t 9 r r p R p B #.w.9.w.$.w.1.1.,.$.$.$.0.",
"0.0.0.y.i.9.w.,.$.9.8.} , 9 b b ~ Z.D.t W [.XX@X|.Q W ^  XXXXXXX_.P .X[.T t s Q '..X{.I 9 p ~ Q p v ; y 6.0.8.8.0.p.u.u.i.0.y.i.",
"0.0.w.1.1.1.1.1.1.y.o.l Y p - %X,XY.B.m { ( Q ! 9XmXvX.X{./  X.X~ p T s u 7 k u & s s P ! =XnXvXT & b b V j.0.9.0.0.y.u.i.0.0.0.",
"y.w.,.1.,.1.1.1.,.1.Z b Y 8 P OXnX:XV.eXR.4.p R .X<XMXaXaX}.i Y p @ e k /.+X$XW.0 + 7 ).0XnXvX0X%.i 8 R v O.q.u.$.$.1.,.$.u.$.$.",
"&.&.1.w.w.w.<.&.,.S r b 8 i E  X=X8XY.R.dX_ p E ).XX-X8X7X/ P ~ a /.&X&X].&X&X$X~.g 5 x -X<X=X=X!.Y 8 l Z 2 #.$.1.,.,.1.,.1.1.1.",
">.>.&.=.-.A.<.A.%.; 8 ; @ t Y (.@X=X-.H 2.< a ~ |.XXXXXXXXs p f `.*X*X$X*X*X*X&X~.~.g & b XX=X X/ P * H B.- 4 $.1.1.,.1.1.,.&.&.",
"F.=.-.H.H.A.b.n.c t T t a ~ =X{.T ).oXI v 8 t ! XXXXXXXX Xv ; k *X&X].&X*X+X`.Q.W.^.E.0 6 ).Q Q OX|.I 9 A Z ; | $.$.,.,.,.&.:.A.",
"M.F.b.M.M.M.P.4.r n L n b {.nXnX-X%X9X.XP % P .X_. XXX XE 4.u &X].k +X*Xk 7 o o 0 W.W.d i -X.X0XmX9X~ t I R p < 6.9.e.t.A.=.H.n.",
"c.M.M.n.n.P.c.H n C.R.4./ ,XnXnXvXmXvX9X!.8 ~ 9X9X:X:XOX/ A f &Xs ~.&Xh o o 0 q u E.Q.h i ,XuXnXMXnXoXb p Y v v } 8.j.k.n.b.n.n.",
"0.v.l.k.0.x.6.V n F g.m !.=X-X,XMXaX8X}.E 8 P / :XaXaXaXqXT h k e &Xj X o 0 E.U E.W.Q.0 b 8XaXaX8X-XXX~ @ & r A } 6.0.0.k.h.v.M.",
"0.d.0.0.0.6...< p ; v b !.[.XXoX=X@X.XE R 7 p / '.=X-X#XoXT d E.g ~.7 @ p 6 q d d d q 6 T oX#XOX-.C.XXT s 8 r r 2 o.7.9.9.9.0.k.",
"0.8.i.8.0.3.4 r 9 8 ~ {.|.;X%XoXXXXXXX~ p * m J ( {.}.OX1Xn 6 h 7 j 5 t E v % $ + 6 o 9 (. XOXY C.sX.X{._.b r l , } 3.k.v.k.0.0.",
"y.y.$.$.8.6., r = p E / 7XvXvX9X;XXX.XT 8 : 5.5.5.z ' 5.5.: = u u u 5 * m > > m m z & p ~ C.P.N.F G.-X{.R J U.K ; 3 r.M.P.M.v.h.",
"$.y.8.w.q.o., ; U !.E ( K.5X#X,X;X!.T R T 9 ) ' ` w ' ` w E 2X9   . 0 & K N : ) ` m p E v _ hXhXF.|./ R R b G.l - x +.s.v.h.t.t.",
"9.i.y.$.@. ., R ;XnX:XsXrXeX[ ;.;.Q 9 Y 9 * ` ' ` > ` 1 % 2XBXbXqXqXbXqXjX2X= = ) m - v p m L.T. .a E / .X9XvX'.a , G 3.p.e.i.i.",
"$.,.1.,.O.2 r _.;XuX&.T.K jXtXwX4.P |.OXP & = > = X = : { K.fXlXlXlXBXBX5Xz N = $ $ 9 ~ OX.X4X#XW t OX9XMXMX0XXXW ; Z O.<.&.-.,.",
"$.q.w.$.| y b  XXX=X%.%.l aXVX5Xl 7XaX.XR p > > w w # ] fXBXVXVXVXcXlXkXfXrX{ w X * I ~ 7XaXiX,X/ v |.:X7X:X@XXX).r G D =.b.H.A.",
"x.d.8.6...: s oXXXXXXX[.l qXVXNX( OX%X.X!.p > M ) M w eXkXqXNXBXlXBXxXzXfXrX{ [ $ % Y _.%X@X=XXX~ 7 I XXXXXXXXXX X- F L 4.l.b.n.",
"v.c.7...} ; f oX,X=XXX'.l 6XlXVXjX2XoXXX_.b : ` ' m N lXeXz 2XBXzXzXlXfXtXrXZ.[ = @ E .XXXXX[.C.J.K P |.=XXX;X,X%.e x | +.7.0.l.",
"w.w.7.o.3 t %.XX<XnX0X>Xv 5XtXBXBXJ ! _.W t = ` ` > K lXC.$ 3XVXlXkXfXrXrXrXI.[ w + N.G.[.XX)._ R.K.9XvXnX0XnX;X[.s , C O.#.u.i.",
"t.s.3. ., p _.@X@X8X4X8X{.n eXtXBXC.a |.~ f * ` ) z yXfXN o 3XVXlXfXrXrXrXrXI.{ N o 4.6X-X9X|.l N.D -X9X7X4X:XXXXX^ - x O.+.$.$.",
"M.P.r. ., y T _.[.XX'. X_.8 { rXdXjXv |.nX=X8 ) M = C.Z.= o 2XNXkXfXrXrXrXrXrX{ N o T 9XvX|.p 8 !..X.X@X X'.XX'.).P t 2 S #.k.k.",
"z.s.j.2.H 3 2 r Z +XXX@X(.t z K.eXkXC.e .X/ t 1 m % + . . . 6 n N z z K Z.I.Z.N = o I .X!.v K 9 E ;.Q |.@X@X%.r y 3 4 }  .8.b.b.",
"<.<.S.@.X.+.| C S O._.).p 8 7 N.rXC.6Xv T / I l > z 2Xw . . + # $ n [ eXrXrXZ.[ $ o P i z Z.l . b Y 6 R {.>.O.G } }  . .@.$.w.u.",
"e.<.,.#.@.O.S S S S O.B V y r l I.N 5XC.- r x r = Z.kX{ $ 6 qXqXeXfXfXtXrXZ.Z.N X X @ c Z.z 0 u i ; , 4 }  . .X.}  ...#.u.u.0.9.",
"k.w.w.9.y.+.| | O.| | } ..} 4 ; { N.K sXr x C ; $ 6XBXjXz w BXcXzXfXrXrXI.{ [ = $ 9 K { E j ~.j , 4 } ..X.G O.S  . .+.,.w.0.0.0.",
"M.s.u.0.0.8.6.8.7.3.3.4.......2 l K.M 3XL r r 7 o ( zXkX] w cXxXkXtXrXrX{ N z N ] Z.Z.[ ~.^.~.j , } ..| S D B.=.&.*.=.D.B.A.p.c.",
"M.P.l.0.0.d.v.M.v.c.g.j.7.7.S A ; N.N.> Z.< i ].0 : dXzXjXbXlXlXfXtXtXZ.= [ 5XK n m N.5X`.^.~.g r D @.;.;.F.P.n.r.-.J.P.n.x.x.M.",
"n.P.n.l.0.d.l.l.l.j.l.u.=.*.-.f.F z N.w ] K u u k 7 J dXcXBXlXkXfXZ.N > X ] n z Z.I.dX6X[.].~.j c &.-.x.D.D.n.n.n.n.M.M.n.n.M.M.",
"t.M.M.M.M.d.9.0.0.d.h.<.D.H.H.M.4.= N K l K - h &Xi 7 ( jXcXkXyXK $   . X [ n N.U.sXgXjX&X^.~.j 3 b.c.n.n.n.P.x.z.b.M.v.d.k.m.m.",
"S.l.l.l.0.0.0.d.v.M.m.b.M.M.k.7.V & 9 N + 6 h ^.j 0 d 7 n { z 6 . @ 7 q o [ z Z.rXdXfX7X].^.`.Q V c.M.k.i.t.t.1.,.w.d.d.9.y.u.1.",
"1.w.9.0.9.0.d.M.l.0.v.M.v.0.0.4 u d o & q h j u o 0 E.h 6 o o 6 q d E.h @ ) K I.rXdXfX4X`.}.5X] 3 h.l.y.1.1.,.1.<.w.u.i.y.$.1.w.",
"u.w.y.9.p.0.d.d.0.0.0.0.p.9.9.S - $ 6 d q 0 r N w & h W.d 6 q d E.W.^.E.+ [ N.eXrXrXI.6XpXdXrX] 3 q.w.1.$.w.1.1.1.<.<.$.,.$.$.p.",
"0.0.0.0.8.0.i.w.w.p.0.0.0.0.9.7.2 7 0 7 $ z K.I.K o & j W.E.E.Q.W.^.^.h $ ] { Z.wX6XoXpXzXfXI.J 2 q.w.1.i.0.y.w.i.e.$.<.w.y.w.i.",
"8.0.i.$.w.y.$.,.1.9.9.0.9.9.d.c.3.: , + N rXrXrXn O X 5 E.W.^.^.^.^.Q.h o ] N ( oX[.&XpXfXrXI.< H 0.0.a.k.0.0.0.0.0.i.i.9.0.9.9.",
"9.i.$.<.1.,.,.1.,.$.w.y.y.l.M.M.g.f.f.F w N.{ N % - 2 @ & g h g h h d u $ N w j ^.].].3XI.tX] < g.v.n.P.m.s.i.p.y.y.w.$.u.i.i.y.",
"<.,.,.<.1.1.1.,.<.,.$.u.p.0.l.M.M.n.x.3., ; $ o 0 - O.O., o o O @ @ O . o z w j ^.^.].wXU.N.< 2.M.M.n.x.u.w.$.$.1.1.,.1.,.1.1.,.",
">.>.=.w.w.u.,.&.&.,.i.0.k.v.v.M.P.v.8.i.8...V 6 0 @ O.,.+.- . % s Z r . o $ z P W.^.}.rXZ.< 2.n.M.M.k.8.8.0.y.w.$.,.1.,.,.,.,.,.",
"-.;.;.V.A.=.D.J.-.>.t.l.v.v.M.M.M.k.0.0.9.9.q.C y B O.O.O.y o o Z D 8 X : v = : u W.2XN.< X.l.M.M.v.9.0.0.9.i.w.,.1.1.1.<.,.>.:.",
"n.V.D.M.M.x.n.P.n.J.x.l.0.9.0.l.M.v.l.k.9.9.0.7.o.| S O.D y % o 1 H * # , F F = l i W < G 0.9.k.n.M.l.v.0.0.9.9.i.y.1.1.,.>.V.x.",
"M.b.M.M.P.P.M.M.M.P.M.v.v.k.0.0.k.v.l.k.0.0.0.6.} X.| ..H 2 < < F 2.3 < < 3 2.H r $ = X.v.v.0.9.0.v.l.k.k.0.0.0.0.0.z.h.H.F.b.P.",
"k.v.M.l.l.v.l.l.M.M.P.M.M.v.k.v.l.0.9.9.0.0.0.8...X.....2.2.4.2. .2.2.2.X.2.2...F < 2.n.M.M.d.l.v.k.0.0.0.0.0.0.0.0.k.0.l.m.n.M.",
"0.l.k.9.9.0.0.0.M.M.M.v.M.n.v.M.n.l.l.l.l.k.0.9.6... . . . .2.X. . .2. . . ... .3.f.g.c.M.M.v.M.M.v.l.l.l.l.0.0.0.9.0.0.p.9.d.v.",
"9.k.9.9.0.0.0.0.k.k.0.0.k.k.k.k.0.y.u.w.w.u.8.y.p.8.6.3.3...|  . ... . ...o.3.6.8.d.k.0.0.d.k.k.k.0.u.w.$.w.9.y.i.0.0.0.k.0.9.0.",
"8.i.w.y.0.0.0.0.0.0.0.0.0.0.0.9.w.$.1.1.<.1.$.,.w.k.v.n.v.d.7.6.6.6.6.@.7.8.0.0.0.0.0.0.9.9.0.0.i.$.1.1.,.,.$.1.1.9.k.v.M.v.k.k.",
"w.w.u.$.y.9.0.u.w.i.0.i.9.9.y.$.$.w.y.u.w.1.$.$.1.S.z.n.n.x.x.e.1.w.w.w.$.8.0.i.w.y.0.8.9.9.8.w.1.1.y.y.y.1.1.$.1.S.t.b.M.b.x.s.",
"y.9.9.y.y.0.y.1.1.1.w.$.w.y.y.i.i.a.0.p.y.w.p.p.i.i.i.h.k.t.i.i.y.y.9.y.y.i.0.$.1.1.$.$.$.y.y.y.y.9.0.p.0.u.y.0.i.i.i.a.h.a.p.i.",
"y.w.1.,.w.i.1.1.y.u.$.$.y.i.0.0.u.u.i.9.y.9.0.a.A.-.<.i.S.<.w.1.$.y.w.1.1.u.u.1.w.i.w.1.w.i.p.a.9.y.y.a.i.u.0.0.t.<.,.e.e.*.w.w.",
"1.1.1.1.1.1.1.y.0.0.0.0.9.0.i.w.-.-.&.-.=.,.m.M.b.D.:.:.-.F.=.1.1.<.1.1.$.$.1.$.0.0.0.9.0.0.0.i.,.-.=.&.-.&.s.m.n.J.V.:.&.D.V.=.",
"t.y.i.i.0.w.<.w.w.w.y.9.p.A.<.F.b.n.H.H.b.H.M.n.b.n.F.-.x.m.z.b.x.u.9.y.8.y.1.$.w.w.w.i.p.u.S.A.J.n.b.F.b.J.b.M.b.b.b.-.D.n.b.z.",
"M.m.d.0.0.w.S.S.s.x.z.z.z.H.m.M.b.t.s.m.n.m.b.t.,.t.x.x.l.0.v.M.m.P.l.0.0.8.$.w.t.z.s.s.x.s.x.M.n.x.t.b.M.m.b.x.S.1.x.x.x.d.k.M.",
"a.a.0.0.0.i.0.k.k.d.l.l.0.0.0.d.i.y.w.e.e.1.1.1.1.<.1.w.w.i.0.0.p.a.a.9.0.i.p.k.k.l.l.l.k.0.0.d.h.u.u.1.t.1.1.1.1.,.1.1.w.u.8.0.",
"1.S.y.0.0.0.9.0.9.9.0.d.v.l.0.0.0.0.9.9.u.w.1.1.1.1.<.,.1.1.w.w.1.w.w.9.0.0.9.9.0.0.0.0.l.v.k.0.0.0.0.p.i.w.w.,.1.1.,.1.<.<.$.w.",
"b.m.k.0.0.0.0.0.0.l.v.m.m.n.v.l.0.p.u.u.w.w.$.y.9.u.,.<.$.w.u.u.s.M.x.0.0.9.9.0.0.d.l.v.M.m.v.v.0.0.y.y.u.w.$.w.i.9.$.,.$.$.e.i."
};
