/* XPM */
static char *result[] = {
/* columns rows colors chars-per-pixel */
"64 64 246 2 ",
"   c #0F162A",
".  c #161C2E",
"X  c #181E2F",
"o  c #171E31",
"O  c #1C2333",
"+  c #1D2633",
"@  c #1D273B",
"#  c #232633",
"$  c #242A34",
"%  c #2B2A34",
"&  c #232D3B",
"*  c #2B2E3A",
"=  c #302D37",
"-  c #26323D",
";  c #293739",
":  c #2B333C",
">  c #33343C",
",  c #38393A",
"<  c #443A3A",
"1  c #2F413B",
"2  c #3A463A",
"3  c #45483B",
"4  c #48583D",
"5  c #565A3E",
"6  c #58693D",
"7  c #1C3147",
"8  c #242D45",
"9  c #263746",
"0  c #2D3B45",
"q  c #353C45",
"w  c #2B3954",
"e  c #313D5B",
"r  c #423D42",
"t  c #374646",
"y  c #34444C",
"u  c #3C4B4C",
"i  c #3D5344",
"p  c #2C4651",
"a  c #294757",
"s  c #334855",
"d  c #3A4C52",
"f  c #3D5455",
"g  c #3C555C",
"h  c #39486A",
"j  c #2D5868",
"k  c #39566A",
"l  c #3C5878",
"z  c #38667A",
"x  c #3C7277",
"c  c #484848",
"v  c #564C47",
"b  c #534C49",
"n  c #455846",
"m  c #58574A",
"M  c #464B54",
"N  c #445758",
"B  c #445A5C",
"V  c #555955",
"C  c #675847",
"Z  c #6F594B",
"A  c #665953",
"S  c #4B6649",
"D  c #556747",
"F  c #59754C",
"G  c #4C6658",
"H  c #546558",
"J  c #4F705F",
"K  c #597B53",
"L  c #577558",
"P  c #697A45",
"I  c #747949",
"U  c #6A6559",
"Y  c #77665A",
"T  c #6A7251",
"R  c #757A55",
"E  c #445C62",
"W  c #415577",
"Q  c #4A6364",
"!  c #4A676A",
"~  c #596865",
"^  c #516C6B",
"/  c #547469",
"(  c #4B6B72",
")  c #526D71",
"_  c #4E7378",
"`  c #537374",
"'  c #577A7A",
"]  c #6C736A",
"[  c #8C7550",
"{  c #A77A54",
"}  c #897763",
"|  c #927A67",
" . c #5E8555",
".. c #6D8444",
"X. c #68844B",
"o. c #778546",
"O. c #748A44",
"+. c #7B9548",
"@. c #668857",
"#. c #748655",
"$. c #6C945A",
"%. c #759A56",
"&. c #7CA35D",
"*. c #7EAA5E",
"=. c #6D976E",
"-. c #769968",
";. c #749A6C",
":. c #7B9B6D",
">. c #6B8A79",
",. c #738F70",
"<. c #669074",
"1. c #6B9372",
"2. c #76A563",
"3. c #79A662",
"4. c #7BA861",
"5. c #7DA47F",
"6. c #85884B",
"7. c #869B49",
"8. c #929152",
"9. c #AA8E57",
"0. c #8BA54A",
"q. c #93AA4D",
"w. c #96B54E",
"e. c #99B74E",
"r. c #9BB84D",
"t. c #88AB57",
"y. c #84AD5B",
"u. c #8AAE5A",
"i. c #94AE5E",
"p. c #99AB58",
"a. c #8DB155",
"s. c #8BB058",
"d. c #93B452",
"f. c #9BB652",
"g. c #9CB654",
"h. c #9BB15C",
"j. c #A1B84F",
"k. c #A8AA54",
"l. c #B4AD55",
"z. c #A3B653",
"x. c #ABB655",
"c. c #A4B851",
"v. c #ABB953",
"b. c #A3B25C",
"n. c #ABB35D",
"m. c #B6B557",
"M. c #B3B956",
"N. c #B3B55C",
"B. c #BAB65A",
"V. c #B7B959",
"C. c #BCB95A",
"Z. c #988769",
"A. c #918E6F",
"S. c #82946B",
"D. c #839D6C",
"F. c #A28A6E",
"G. c #A69270",
"H. c #B79C78",
"J. c #88A565",
"K. c #83AA61",
"L. c #98A865",
"P. c #95AB74",
"I. c #A5AD62",
"U. c #AAAD60",
"Y. c #AFAF6D",
"T. c #BAA479",
"R. c #C7AB55",
"E. c #C0BA5A",
"W. c #C3B86B",
"Q. c #C7A87D",
"!. c #CACD46",
"~. c #DDD564",
"^. c #EAE970",
"/. c #3E5F80",
"(. c #3E708A",
"). c #3B768B",
"_. c #567D82",
"`. c #7B7E87",
"'. c #3F808A",
"]. c #3D8395",
"[. c #3E8799",
"{. c #5B8484",
"}. c #598587",
"|. c #5E8B8C",
" X c #438B99",
".X c #538E90",
"XX c #49969C",
"oX c #658B8A",
"OX c #6A928A",
"+X c #638D92",
"@X c #639493",
"#X c #699595",
"$X c #659C9C",
"%X c #6A9D9D",
"&X c #739B99",
"*X c #50A09F",
"=X c #6EA19E",
"-X c #75A49D",
";X c #4C9BA1",
":X c #6E9EA1",
">X c #4EA1A4",
",X c #54A9A6",
"<X c #59B3AC",
"1X c #6CA2A2",
"2X c #73A4A5",
"3X c #78AAAA",
"4X c #75B2AA",
"5X c #7DB3B3",
"6X c #869886",
"7X c #929689",
"8X c #A49B88",
"9X c #8EA795",
"0X c #B2AF8E",
"qX c #8BB5AA",
"wX c #86B9B9",
"eX c #84BABB",
"rX c #B5B3AC",
"tX c #C5AD83",
"yX c #D3B382",
"uX c #D8BB88",
"iX c #C8B892",
"pX c #C0BBA2",
"aX c #B7C29B",
"sX c #8DC1BF",
"dX c #9AC4B8",
"fX c #B1CFA8",
"gX c #A8C9B4",
"hX c #CFC78F",
"jX c #DAC695",
"kX c #E2CC97",
"lX c #E3D397",
"zX c #EDEB95",
"xX c #D3CBAE",
"cX c #EADAA5",
"vX c #E5DAB8",
"bX c #EDE3A8",
"nX c #EEE4B9",
"mX c #F2E6B7",
"MX c #88BFC1",
"NX c #8CC3C4",
"BX c #96C5C1",
"VX c #D6D2C9",
"CX c #EADDC3",
"ZX c #F3EAC7",
"AX c #F0EBD7",
"SX c #F6F3E9",
/* pixels */
"K.K.b.V.N.z.z.h.s.a.d.r.r.r.r.r.r.r.r.r.r.e.r.r.r.r.r.r.a.h.h.p.i.*.y.N.N.x.z.z.s.a.d.d.r.r.r.r.r.r.r.r.r.e.r.e.r.e.r.r.d.i.h.h.",
"4.3.4.4.4.4.K.3.3.*.4.*.y.s.s.s.w.r.r.r.d.r.r.w.r.w.a.t.$.F ..X.K K K &.4.4.4.4.2.4.*.4.y.y.y.a.d.r.r.r.r.r.e.r.e.r.d.s.y.*.a.d.",
"d.y.4.u.s.*.*.*.*.*.*.s.s.a.d.r.r.r.r.r.r.d.a.7.+.D F S u y G ' ^ G p t S T K $.$.3.&.y.a.a.a.r.r.r.r.r.r.r.d.g.e.r.d.d.d.r.r.r.",
"M.s.u.r.r.d.d.a.a.w.d.r.r.r.r.r.r.r.r.r.y.@.N f }.s @X2X1X|.|.$X=X$X@X' {.| P.) i P q.r.r.r.r.r.r.r.r.r.i.4.,.=.3.a.;.;.;.a.r.c.",
"C.V.d.r.r.r.j.v.x.M.C.V.r.r.a.4.J.s.&.$.L i ' 5X5X+X3X1X1X1X@X$X$X1X1X$X1X` OXwX$XQ m k.k.w.d.y.*.y.d.J.=.J.N.L.:.1.J.N.n.L.p.B.",
"E.C.V.j.r.v.B.C.B.C.M.z.y.u.;.D.1. .u u - Q $XsX3X6X7X5X5X1X{.1X5XNXeX3X3X|.:XwX3X|.t 2 3 D -.;.J.<.1.J.,.L.C.E.B.I.E.C.C.E.B.C.",
"n.C.C.V.v.r.j.r.r.j.f.&.:.D.D.l.R t ! ! & ! |.qXdXhXY.OX2X1X@X@X3XNXeXwX( ' wXwX2X' f - _ f u 8.N.L.L.C.B.I.C.C.B.E.E.V.v.M.C.E.",
"K.B.C.B.v.c.r.r.j.V.n.L.N.B.x.R g s @X] 0 B ` $X-X5.H oX1X$X$X1X1X%XoX3X' ] &X-X|.E d p .X<.s G 8.C.C.M.n.V.N.K.K.h.M.c.r.e.z.h.",
"4.f.r.r.r.r.r.M.V.M.C.E.C.M.O.u $X) 6XQ.T }.#X1X}.( E |.4X2X=X=X' {.2X5XOX8.E.9X1X+X' ! $X' {.}.3 k.M.w.*.4.4.3.2.y.r.r.f.y.4.4.",
"*.4.a.r.r.r.v.v.r.r.j.v.j.O.i d |.E ,.U.V #XsXsXoXd d _ 4X4X{.E 0 s ! k t 9.bXaXwXNXoX^ |.E ` ` t n q.*.4.4.3.3.3.4.*.y.*.2.4.a.",
"r.d.w.r.r.r.e.a.w.e.e.w.0.2 Q B u c c * N |.qXwX5XE y <._.w - 9 a j j a - ; 6.P.5X2X' u t t u d ! f S &.y.e.y.&.y.*.4.4.*.*.*.r.",
"r.r.e.a.d.e.y.3.*.w.w...2 q B N ) P.G.q ) @X=X=X+X( ( g @ 7 '.*XXX X[.].).a $ ` %X%X{.E 0 s ) ( f u ; i 0.r.w.w.r.f.s.y.d.r.a.d.",
"r.r.y.4.4.4.4.2.3.s.7.i E d - :X4XY.L.m Z.] _ ` eXNX2X8 9 '.*X,X,X,X>X[.[.].a w ! _ g Q _ 2XNXNX! & N f D x.j.r.r.r.d.a.d.r.r.r.",
"a.y.4.3.3.2.4.4.3.2.G B Q 0 B &XsX4X:.hX^.8.u ! #X5XoXa '.<X<X>X;X<X<X>Xz ].l 7 y p B @X5XNXNX5X>.p 0 ^ N @.y.a.4.4.4.2.*.s.*.4.",
"1.=.3.y.y.t.&.-.-.K u B 0 s ^ @X1XqXn.^.jX[ u ^ }.$X` z <X<X,XXX,X<X<Xx + z ).9 9 I 9.7X5X5X2X1X{.~ 9 c G 4 %.*.4.4.4.2.2.4.4.4.",
"<.<.=.;.-.y.3.:.<.; 0 : O y Q {.=X=X&Xo.[ 3 d ' @X#X( p *X<X,X[.<X<X,X9 . j ).w % k.^.zX5.=X1X@X` N 8 I J.- 6 *.4.4.2.4.2.2.=.=.",
"I.;.:.I.I.J.Y.C.D y Q y d ` :X+XE }.%XE E 0 y _ $X$X( O x <X*Xx <X<X>X9 h (.W e # 9.~.~.T +X) ( %X+XQ t H Q , X.*.*.2.2.2.=.1.J.",
"E.L.N.E.C.C.E.8.c N R V B +XNXNX2X:XwXOXB & E +XoX@X}.@ j <X.Xp ,X<XXX9 h /.l 8 y q P S.%XwX#XeXNXwX` q B ! u i 0.w.u.i.J.:.L.B.",
"V.C.C.B.C.E.M.R V Z.~.8.' 3XNXMXNXNXNXwX' 0 ` wXwX5X3X( w XX.Xj XX<X X7 e W s 8 ` f d &XNXNXNXNXBXwX:XB d Q f V ..w.M.j.C.N.C.E.",
"r.M.v.r.j.v.0.D V I l.C _.1X3X5XBXgXdXoX^ 0 E _.3XdXgXgXf j >Xj .X<Xz o @ 8 @ s ^ y N ` -XgXgXgXqX3X$X_ @ & u G P 0.r.r.c.c.v.C.",
"r.c.r.r.r.0.O.3 u : N B _.$X$X1X=X2X#X^ ^ 0 d ' #X-X2X#Xs O (./.z  Xa . o w g {.^ s f ^ ' =X-X%X,.A.$X! g 9 t t 6 O.q.e.r.r.r.c.",
"r.r.d.d.r.+.D 2 q 0 ` +X+X1X1X%X$X$X$X) d = C ~ ] oX>.q : c c l 9 w / m > q E ~ A C - B }.$X&XH A.hX+XoXoXB c M 1 ..7.c.M.c.r.r.",
"s.y.*.y.d.0.3 1 8 d ^ ' 3XMXMXwX3X$X+X! q = { 9.{ 3 v # b 8XvXrX6X7XxXtX> . < 9.9.[ - u ` A.E.Z.T P.3XOX! U W.U : D q.E.C.C.V.z.",
"y.a.r.y.t.+.2 ; E >.^ ] Z.A.&XqX3X_.! ~ Q q [ { [ , # v , v rXCXAXSXSXxX} A % Z { C f ! N [ zXbXh.+X' ! ^ B P.b : 4 $.p.V.b.h.u.",
"d.d.a.*.+...2 ^ 2XNX-XlX^.!.c OX>.) y Q y % { { [ % r H.Q.| Z.8XiXkXcXjXyX| r < { Z % N d C R.!.o.f ~ ' %XeXMX+Xf 2 X.7.f.a.d.d.",
"*.4.4.2.@.S p |.4XMX=.!.~.R.3 Y.8.E +X#XB 8 = , = X Z H.yXuXZXVXU rXZXuXtXH.[ % , % q _ &X#X9X-X) y &XwXBXMXeX$X) ; H K 3.,.:.2.",
"4.t.y.*.X.n g $X$X1X|.:.L.m y #.~ qXgX&X~ s < < = 8 | Q.yXcXSXrX8 rXAXcXuXyX| r % > E ` qXgXdX5X' d +X3XqX9X:X$XoXN Z.Y.D.N.I.D.",
"N.j.w.0.O.; g $X$X$X=X1X@XV y +X$X2X%X@X' y < Z = Z Q.yXuXcXmXpX= 0XmXcXkXuXtXA = > Q |.$X-X:X$X` 0 l $X$X$X$X+X7XT.iXT.8.v.M.B.",
"M.M.q.O...; s $X5X1X1X$X6XT.3 _ $X$X$X$X|.E , C # Z H.yXkXmXSX`.o `.AXmXcXuXyX| % & ~ #X$X$X$XA.U.Y E +X:X:XOXA.xXAX7XD #.w.r.c.",
"y.t.q.+.6 t <.$X5XNXMXNXfXhX, 9 ' $X$XoX) q % < = | H.tXuXvXVXr   r xXkXjXtXtX} $ % G.P.$X$X_.[ ^.Y.MXMXMX0X0XVXSXAXV S @.*.t.w.",
"L.h.0...2 f |.=X1XqX9XqX5X}.@ q d +X5X#X_ g & < 8 { yXA q 8 8 X o o 8 8 8 A H.} * $ L.0X3X5X2XV L.L 2XqX) 8XAXSXCXpX: i K $.*.*.",
"V.C.p...2 u ! |.@X*X.X#X=X<.- c } V _.eXNX1Xp = < | uX8XU * # X . o o 8 Y tX{ | q 9 +XMXNXNXMXeXMX#X+XW M xXZXxXiX| $ n  .0.f.v.",
"b.h.k.6.I D 6 t g $X=X$X<.Q - @ v G.m s }.` y # % } Q.kXcXpX] O . X } iXCXkXH.} > 0 |.=X3X3XdXdXgX>.p M hXcXyXuXZ.c 4 ..O.d.N.N.",
"4.4.K.%.#.X.I F K  .|.}.a t 7 z a V G.A 0 d g * . A H.kXcXZXvXq . r VXAXbXkXyX| , y {.+X@X@X-X2X#Xu c aXlXuXyX] , 6 ..O.%.*.y.s.",
"u.4.4.&.&. .K K  .K K F S i 7 ).[.).~ | } b , * # } Q.uXkXcXmX]   U CXmXcXuXyX| ; 1 p E _ _ @X.Xg n 0XA.T.yX} > 6 ..O.0.s.a.w.r.",
"c.y.y.r.d.X.X.X. .X.......X.; '.[.[.|.F.Z.| A.Y U r } uXcXmXmXrX8 8XCXmXcXuXQ.Y + 6 4 2 p p f 2 M 0XG.} Q.} ; S O.O.$.-.y.r.r.r.",
"V.b.s.r.r.w.0.w.w.7.7.8.O...; ).[.XX@XtXZ.Y c V 0Xb q H.kXcXZXAXrXCXCXcXjXH.v # 4 ..3 a x x O c T.A.A Q.} , R ;.,.-.,.L.D.D.r.M.",
"C.E.z.e.r.c.v.C.m.m.m.k.q.7.; ).[.XX-XkXuXyXH.r F.v   b tXcXmXAXAXnXbXcXQ.v X 3 [ o.i XXa 9 < F.V b Q.} , #.E.N.p.:.n.E.E.n.n.E.",
"C.E.C.v.r.c.v.v.v.v.c.a.;.,.; (.[.[.4XxXjXyXyXA Z.b o o c 8XcXcXbXbXjXA.c O # 6.v.j.f [.j O } U > | | , #.J.C.C.C.N.C.C.C.C.C.C.",
"i.C.C.C.M.c.r.r.r.j.e.D.L.p.t OXXX[.,XaXcXuXyX} | b @ W 8 X c 8XcX0Xc X 8 w # ..w.O.; j ).p & r } Y 3 8.C.B.C.n.h.N.C.M.r.c.M.V.",
"K.x.v.v.r.r.r.c.M.B.B.N.C.l.3 H.0X6X$X0XhXuXyXZ.G.b 7 /.h e 8 & V * 8 e /.z 8 ..6., c v j /.8 r v $ D r.a.i.i.4.3.u.j.j.r.d.u.4.",
"4.y.d.r.r.r.v.V.v.r.M.V.M.w.2 T.uXlXfX0XQ.yXyXG.H.b w ].)./.h w . 8 h /.[.j , q.P = } F.b a h 8 & w 2 +.4.2.4.4.2.y.a.d.a.4.4.y.",
"a.y.a.r.r.r.j.r.r.r.r.r.r.q.2 } uXkXcX4X#X9XtX} H.c 7 ).[.[.)./.h /._.).].h 2 0.3 r G.yXF.$ w h # a p K 4.s.4.4.3.3.2.4.3.3.4.r.",
"r.r.r.r.r.r.a.y.y.r.r.r.r.w.6 b Q.hXhX-X>XXX+XM } M 7 _.[.[.[.).).).[.).h - 2 X.* # | yXuXb X 0 e @ 2 $.a.r.a.y.d.a.*.3.y.d.y.d.",
"r.r.d.*.y.a.4.4.4.d.e.r.r.r.7.< G.Q.Q.9XXX X].a U c @ h l z z z /./.l a @ &  .2 8 8 $ A Y , $ % $ 3 0.b.c.r.r.r.r.r.d.d.e.r.e.r.",
"r.a.*.3.4.3.3.3.4.*.y.s.a.x.m.6.3 G.Q.8X X].).g A : . o o # @ O @ @ O . + S 2.2 & - ; ; $ 2 8.l.I k.C.E.V.h.d.f.a.a.y.*.y.d.d.a.",
"3.2.4.4.4.4.3.3.3.2.*.s.d.r.v.M.6.< Z.iX.X Xj M , 1 . . , S S S S S i + + F *.$.D S $.&.%.w.r.M.C.C.C.b.u.y.*.*.4.4.3.4.2.4.4.3.",
"<.<.;.4.y.a.2.1.=.2.d.r.c.V.m.C.m.o., Z.|.j : & i K ;   t  .K L Q J J & X F y.=.1.2.K.e.r.v.M.M.C.C.j.w.r.r.a.y.4.2.3.3.2.2.2.2.",
":.<.1.D.J.;.L.U.:.<.i.v.M.M.V.C.B.r...1 p c c 4 F F 1 o + G J L T J u X O S ,.b.L.1.2.b.M.M.M.C.E.M.r.r.r.r.a.y.3.3.4.3.3.2.<.1.",
"B.D.L.E.C.n.C.C.B.U.n.v.r.r.r.M.B.M.v.I + % 4 ....n 1 1 2 G #.6.6.I ; # X 3 6.l.C.n.U.n.j.r.r.c.C.C.v.x.r.r.r.r.d.s.4.4.2.=.D.U.",
"C.N.E.C.C.E.C.C.C.E.C.N.V.c.r.r.c.M.c.c...6 ..O.O.o.o.o.R R 6.8.6.6.I I 5 5 [ k.C.E.!.N.M.v.r.r.r.v.M.c.c.r.r.r.r.r.b.z.n.L.N.E.",
"c.B.B.x.v.V.v.v.C.E.C.C.E.M.r.M.v.r.r.d.w.0.O.O.O.o.O.o.6.6.6.6.o.6.6.6.o.6.q.j.N.E.E.C.C.E.j.v.M.c.r.r.r.r.r.r.r.r.v.r.v.N.C.C.",
"r.v.j.r.r.r.e.r.V.C.V.M.C.B.V.C.C.v.v.v.x.c.w.0.+.O.O.O.O.O.o.O.O.O.6.+.7.0.r.r.v.E.C.V.V.C.V.C.C.V.v.v.v.v.r.r.r.r.r.r.e.e.c.M.",
"r.r.r.r.r.r.r.r.c.c.c.r.j.j.c.j.r.d.t.y.y.s.d.d.w.w.q.q.0.0.0.0.0.0.w.w.r.r.r.r.f.c.j.r.r.c.c.c.c.r.a.*.y.y.e.a.d.r.r.r.c.r.r.r.",
"f.d.y.s.r.r.r.r.r.r.e.r.r.r.r.r.*.*.*.4.2.4.4.3.y.c.v.V.C.v.j.f.d.r.a.y.d.r.r.r.r.r.r.r.r.r.r.r.a.y.3.*.2.3.*.4.4.f.z.V.C.V.c.r.",
"*.y.s.*.s.r.r.a.y.d.r.d.e.e.s.y.*.y.s.a.y.2.y.4.4.J.b.B.B.n.n.y.*.*.t.t.*.w.r.d.y.u.r.r.d.r.d.y.4.4.s.a.s.3.3.*.4.K.i.N.C.N.n.h.",
"a.r.w.s.a.r.a.4.3.*.y.*.y.a.a.d.a.d.r.r.d.t.e.e.d.a.d.c.c.h.d.d.a.d.d.d.s.d.r.*.4.4.*.*.*.d.a.a.a.d.e.e.r.s.d.r.d.a.d.d.c.r.d.d.",
"s.y.*.4.*.d.*.4.a.y.*.*.a.d.r.r.h.u.d.d.d.d.r.g.J.:.3.d.4.3.u.4.*.s.y.4.4.s.a.4.y.d.*.*.y.d.f.e.e.i.a.f.a.a.r.g.i.4.3.u.i.-.y.y.",
"2.4.4.4.*.4.3.s.r.r.r.r.r.r.w.*.:.:.1.2.;.:.M.V.N.L.<.1.:.L.=.4.4.3.4.3.*.4.3.*.r.r.r.r.r.r.r.d.3.:.:.=.;.;.h.C.C.I.D.1.;.J.D.;.",
"s.d.w.d.r.y.2.y.s.y.a.e.d.K.K.L.N.B.I.I.N.I.C.B.n.C.I.:.n.B.n.n.x.u.d.d.w.d.4.*.y.y.y.a.d.s.J.J.I.C.N.L.N.I.N.C.N.N.N.:.L.C.N.I.",
"C.V.c.r.e.y.K.K.h.b.b.b.n.L.B.E.N.h.b.V.B.N.N.i.3.i.N.b.v.r.V.C.C.C.v.r.r.d.*.y.i.b.b.b.n.I.v.C.C.b.L.n.C.V.V.b.K.K.b.n.n.c.c.C.",
"f.z.r.r.e.d.c.c.v.c.v.v.r.r.j.j.f.a.*.u.u.4.4.4.3.3.4.y.y.d.r.r.f.g.f.r.r.d.f.c.c.c.z.v.c.r.r.j.z.d.a.*.i.4.4.4.4.3.3.4.y.a.d.r.",
"4.K.s.r.r.r.r.r.e.r.r.j.M.c.r.r.r.r.d.e.s.y.4.4.*.4.3.3.4.4.y.y.4.y.*.r.r.r.r.r.r.r.r.r.v.v.r.r.r.r.r.e.d.y.y.4.4.4.4.3.2.4.&.t.",
"N.V.g.r.r.r.r.r.r.c.v.C.C.C.M.v.r.d.a.a.y.y.*.s.w.a.2.3.*.y.s.s.h.V.n.r.r.r.r.r.r.c.v.V.C.B.V.M.r.r.a.a.s.y.*.y.d.d.*.2.4.y.s.s."
};
