/* XPM */
static char *result[] = {
/* columns rows colors chars-per-pixel */
"64 64 240 2 ",
"   c #161C2D",
".  c #171D32",
"X  c #1E252F",
"o  c #1C2333",
"O  c #1D253A",
"+  c #1E293A",
"@  c #232B35",
"#  c #262A36",
"$  c #302D34",
"%  c #2A343A",
"&  c #34323B",
"*  c #37383A",
"=  c #443A3A",
"-  c #3A4639",
";  c #3E513D",
":  c #4F4F3D",
">  c #48563C",
",  c #615F39",
"<  c #57673D",
"1  c #5F723E",
"2  c #1F3043",
"3  c #242C46",
"4  c #2D3B45",
"5  c #273748",
"6  c #353C43",
"7  c #2B3753",
"8  c #323D5B",
"9  c #423D42",
"0  c #394847",
"q  c #34444B",
"w  c #314B4F",
"e  c #284657",
"r  c #344953",
"t  c #3A4C52",
"y  c #3B5357",
"u  c #3D545B",
"i  c #384669",
"p  c #385766",
"a  c #3E4B72",
"s  c #3D5779",
"d  c #39686F",
"f  c #356678",
"g  c #494747",
"h  c #554A49",
"j  c #455946",
"k  c #585649",
"l  c #455759",
"z  c #445A5C",
"x  c #5A5955",
"c  c #675846",
"v  c #6F594C",
"b  c #645652",
"n  c #4C6549",
"m  c #566846",
"M  c #5B764C",
"N  c #4B6357",
"B  c #576757",
"V  c #597A54",
"C  c #697B45",
"Z  c #777D4A",
"A  c #686256",
"S  c #79675C",
"D  c #6B7250",
"F  c #445D63",
"G  c #4A6364",
"H  c #476569",
"J  c #4D6A6B",
"K  c #586666",
"L  c #516C6B",
"P  c #547467",
"I  c #4A6B72",
"U  c #516E72",
"Y  c #4D7478",
"T  c #537374",
"R  c #577A7A",
"E  c #757266",
"W  c #6A7770",
"Q  c #8C734F",
"!  c #A97B54",
"~  c #846D62",
"^  c #8A7564",
"/  c #967A6A",
"(  c #967B6A",
")  c #5D8254",
"_  c #6C8343",
"`  c #69844B",
"'  c #718743",
"]  c #7A8747",
"[  c #748A44",
"{  c #7A9549",
"}  c #668857",
"|  c #708E55",
" . c #749856",
".. c #7CA45D",
"X. c #7EAA5E",
"o. c #5A8170",
"O. c #6D966E",
"+. c #6D996D",
"@. c #769968",
"#. c #749A6C",
"$. c #7B9B6D",
"%. c #6D8C72",
"&. c #6B9372",
"*. c #699379",
"=. c #76A563",
"-. c #79A662",
";. c #7BA861",
":. c #7AA06B",
">. c #7DA47F",
",. c #86874B",
"<. c #859B4A",
"1. c #889755",
"2. c #959152",
"3. c #AC8B56",
"4. c #8AA54B",
"5. c #93A94D",
"6. c #96B54E",
"7. c #99B74E",
"8. c #9BB84D",
"9. c #8CAE55",
"0. c #82A558",
"q. c #84AD5B",
"w. c #8AAE5A",
"e. c #99AA57",
"r. c #94AE5E",
"t. c #8DB155",
"y. c #8BB058",
"u. c #93B452",
"i. c #9BB652",
"p. c #9BB555",
"a. c #9CB15D",
"s. c #A1B84F",
"d. c #A8AA56",
"f. c #B1AC53",
"g. c #A2B653",
"h. c #ACB655",
"j. c #A4B851",
"k. c #ABB953",
"l. c #A3B25C",
"z. c #AFB65B",
"x. c #ABB35C",
"c. c #B5B557",
"v. c #B3B956",
"b. c #B3B55C",
"n. c #BAB65B",
"m. c #B7B959",
"M. c #BCB95A",
"N. c #9A846A",
"B. c #928F6F",
"V. c #849C6B",
"C. c #A3886E",
"Z. c #BC9661",
"A. c #A98C71",
"S. c #AB9473",
"D. c #B79A77",
"F. c #88A565",
"G. c #83AA61",
"H. c #94A665",
"J. c #9CAA64",
"K. c #95AB75",
"L. c #A5AD62",
"P. c #AAAD60",
"I. c #B1AC6F",
"U. c #C7A95B",
"Y. c #C1BA5A",
"T. c #C4B66F",
"R. c #C8A97D",
"E. c #D1CE5C",
"W. c #E9E76E",
"Q. c #3E6883",
"!. c #3A7689",
"~. c #3D7D91",
"^. c #537D83",
"/. c #3E8496",
"(. c #3D8698",
"). c #468789",
"_. c #5B8384",
"`. c #5B8588",
"'. c #5D8B8B",
"]. c #498C97",
"[. c #489499",
"{. c #5F9193",
"}. c #668B89",
"|. c #638C8D",
" X c #669190",
".X c #639493",
"XX c #699697",
"oX c #659C9C",
"OX c #6A9D9D",
"+X c #749B98",
"@X c #6EA19E",
"#X c #77A49D",
"$X c #4C9CA2",
"%X c #6F9EA1",
"&X c #4EA1A4",
"*X c #55ABA8",
"=X c #59B2AB",
"-X c #67A0A0",
";X c #6CA2A2",
":X c #73A5A6",
">X c #77ABAA",
",X c #7CB0B0",
"<X c #7DB3B4",
"1X c #8A9783",
"2X c #A29F8D",
"3X c #89A997",
"4X c #ADAA8B",
"5X c #8AB3A8",
"6X c #8CB6AA",
"7X c #85B9BA",
"8X c #85BBBB",
"9X c #B9B7A9",
"0X c #CEAF80",
"qX c #CAB88C",
"wX c #D3B583",
"eX c #D6BA89",
"rX c #DABE8B",
"tX c #C8BA97",
"yX c #8DC1BF",
"uX c #99C4B8",
"iX c #A7CAB5",
"pX c #D2C591",
"aX c #DEC793",
"sX c #E3CE97",
"dX c #EDEB95",
"fX c #D0CBAB",
"gX c #EADBA7",
"hX c #E9DCBA",
"jX c #EEE2AB",
"kX c #EFE3B4",
"lX c #F0E5B2",
"zX c #87BEC0",
"xX c #8BC2C3",
"cX c #96C5C1",
"vX c #CDCDCB",
"bX c #F3E9C3",
"nX c #F3EDD8",
"mX c #F2EBE0",
"MX c #F9F6E8",
"NX c #FCFAF3",
/* pixels */
"G.G.l.m.v.g.k.a.y.u.7.7.8.8.8.8.8.8.8.8.8.8.8.8.8.8.8.8.t.u.a.r.r...G.v.b.x.g.g.y.t.7.7.8.8.8.8.8.8.8.8.8.8.8.8.8.8.8.8.u.r.a.a.",
";.-.;.;.;.-.;.;.-.-.;.;.q.q.y.y.6.8.8.8.8.8.8.8.7.7.t.q.| ) _ ` V V V ..;.;.G.;.=.=.;.;.q.X.q.t.u.8.8.8.8.7.8.i.8.7.u.9.q.X.t.u.",
"u.q.;.w.y.X.X.X.-.X.X.y.y.t.u.8.8.8.8.8.6.6.9.{ { m M n 0 0 F T P G w - n D V |  .;...q.t.t.t.8.8.8.8.8.7.6.u.u.7.7.u.u.u.8.8.8.",
"v.y.w.8.8.t.u.u.t.7.7.8.8.8.8.8.8.8.8.6.X.} j u `.r {.>X@X{.'.@XoXoX.XR _.^ K.Y 0 C 5.8.8.8.8.8.8.8.8.8.u.$.$.&.-.t.#.#.#.9.8.j.",
"M.m.p.7.8.8.s.k.k.m.n.n.8.8.t.G.0.9.0.@.V 0 R <X,X{.>X:X-X-X.XoXoX;X;XoX;XT }.8XoXH < d.d.6.u.q.X.X.t.G.O.H.b.J.$.&.H.b.x.H.p.M.",
"Y.M.m.s.8.j.m.n.M.m.m.g.q.y.O.V.O.o.0 0 % G oXyX>X1X1X<X<X;X_.:X8XzX8X>X>X'.@X8X,X'.q * > m @.$.:.O.&.F.#.H.Y.Y.n.L.n.M.M.Y.n.M.",
"x.M.M.m.k.s.8.s.8.s.p.;.$.F.V.f.Z q I H % H '.6XuXpXI.XX>X-X{..X>XzX7X7XJ R 7XuX@XR u % Y y 0 1.n.J.J.M.b.L.M.M.n.Y.M.n.k.k.M.Y.",
"G.n.M.n.k.j.8.8.s.v.P.H.b.n.x.Z F r XXK 6 F T oX:X$.A '.;X@XoX-X-XOX|.>XR W +X@X'.G t q '.R r N 2.M.M.k.x.n.b.G.;.a.v.k.8.i.g.a.",
"-.p.8.8.8.8.8.k.m.v.M.Y.M.v.[ t oXL 1XT.A `.XX;X'.J G }.>X>X:XXXR _.:X7X}.3.Y.3X@X{.R H XX^._.`.; d.v.u.X.X.-.-.;.q.7.8.7.X.;.;.",
"X.q.t.7.8.8.k.k.8.8.s.k.s.[ ; t |.F @.I.l XXxXxX`.t w P :X,X,X#XK Y ;X;Xz f.lXtX8XyX}.J '.F T T q > 5.q.-.-.-.-.-.;.;.q.X.;.;.t.",
"7.u.u.8.8.8.7.t.6.7.8.6.4.- G z t 0 g % l '.6X6X<XF q d y w w y t q I {.R c f.K.7X:XR r q 0 0 t G t n =.y.u.q.X.q.;.;.-.X.X.X.8.",
"8.8.7.t.u.7.y.-.X.6.6._ - 6 z l U S.J.q T .X@X@X|.H w 5 p f d ).f e 2 r p z J `.oXoX'.z 6 r U J y l % ; 4.8.6.u.8.7.y.y.u.8.t.u.",
"8.8.q.;.;.X.-.;.-.y.<.0 G t % %X,XI.H.k ^ W I T 7X`.5 ).*Xf d =X=X=X).2 5 .XcX+XH Y u G Y :XxXxXG % z l c s.8.7.8.8.t.t.u.8.8.8.",
"t.q.-.;.=.=.-.-.-.=.B z G 5 z OXyX>X@.pXW.2.t J Y 7 ).=Xo.+ (.=X*X$X(.f + t +X.XG q F XX7XxXxX8Xo.r 4 J l | w.9.;.X.;.=.X.y.X.X.",
"&.&.-.y.q.w.;.:.F.} 0 z 6 t L .X@X6Xz.W.sXQ t L r e =X=Xf ).=X=X[.!.!.!.i 5 _..XJ Z 3.1X,X7X;X;X^.G 4 g N j ..X.;.;.;.=.=.=.;.;.",
"&.*.O.#.#.q.V.K.0X^ 6 4 o q G ^.@X@X+X' Q : t H 5 f *X*X(.&X=X&X(.!.e /.s 5 P B.l f.W.dX>.oX@X{.R F # Z F.+ < X.;.;.=.;.;.=.+.+.",
"a.&.$.L.L.F.b.2.4XtX^ t u U %X|.H `.%XF F 4 q F q ).*X*X$X*X=X$X(.!.7 !.s @ A E.g 3.E.E.D {.Y J OX|.F 0 B G * ` q.X.;.-.=.+.&.F.",
"Y.J.b.M.M.M.n., W mXtXA l  XxXxX:X%X7X Xz # F ^.q [.=X*X&X*X=X&X(.~.e f e 5 R 3X}.g Z V.OX7XXX7XcX7XR 6 F L 0 0 4.7.G.w.F.$.L.n.",
"m.M.M.n.c.n.f.g E mXmXE U 5XzXzXzXxXxX7X^.6 T %Xr f *X=X*X=X=X*X(.!.2 !.2 p oX:XXXl 0 %XxXxXcXxXcXxX%Xu r F l N _ 6.h.k.M.b.n.M.",
"8.v.k.s.s.k.4.- E bXNXfX2XOX>X<XcXiXuX}.L 6 F ^.Y 5 !.&X&X&X$X(./.2 e p 5 {.oX'.L q l T #XiXiXiX6X:X-XU # # 0 N _ 4.8.7.s.j.x.M.",
"8.s.8.8.8.5.[ $ A sXhXnX9X}.oXOX@X:XXXL L 5 t R `.q 2 e !.!.!.a 2 2 i 2 H OX-X.XU w u L o.@X#X@X@.1X.XI u 5 6 q > { 5.7.8.8.8.s.",
"8.8.t.7.8.{ 1 % h qXrXhX9Xr XXoXoXoXoXU t $ v B W U l @ o 2 # O 2 a 7 . l R K K b c % z _.XX+XG B.qX X|.|.l : l - _ <.g.v.k.8.8.",
"t.y.X.X.6.4.; - o A wXpXgXx `.7X:XOX.XH 4 & ! 3.! : k & E 6 # 7 i 7 W x $ 9 c Z.3.Q @ t R B.T.2.D K.:X XJ A T.A % m 5.M.Y.m.m.g.",
"q.y.6.9.X.{ - % u 6 S.eXgXB.u :X:X_.H K G 6 Q ! Q $ X # 9XfX^.x 2X9XfXE $ $ 9 ! ! c y L l Q dXdXl.}.T L J z K.h % j  .e.m.l.a.w.",
"6.u.y.X.{ _ ; J @XI S wX4XpX0 U *.I 6 F q # Q ! v X h h K 9XvXmXmXnXtX~ S $ * ! ! c # l t c U.Y.] y J T OX8X8X{.y - ` 4.6.9.u.u.",
"X.-.-...} n w '.;XOXh R.N.S.B.D 2.F |.+XF # $ = $ = / C.C.S.4XhXbXgXwXD./ h   = = @ q T +XXX3X#XT q +XyXcXxX<X@XL % N D =.O.$.=.",
"X.q.q.X.[ 0 z oXoX{.q N.D.B.pXg l 5XiX+XK t = = X b / R.rXjXlXjXjXgXrXR.C.~ $   # & G T 6XiXuX<XR t .X,X6X5X-XoX'.0 D P #.b.L.V.",
"b.8.6.4.[ % u oXoX@Xd g T.E 9Xb i |.I ^.R 8 = : $ / D.wXaXkXMXNXNXbXsXwXD./ h # g @ z '.XX#X;XoXT 4 H {.{.oXoXoX{.% , | 1.h.v.M.",
"v.v.5.[ ' % u OX<X-X{.4 N.C.x N.# 5 p w Y z * = h A.0XwXaXgXnXNXMXkXgXrX0X/ ~ 6 ( S % R oXoX-XB.d.E F |.@XoX:X,X_.4 j C ] 5.8.k.",
"q.q.5.{ < - o.oX<XyX8X^.A S.& C.k 5 ).e 5 q # X 9 / A.wXrXaXgXMXbXkXgXrXD./ ^ = & N.S * p {.).Q W.I.7XzXyX8XxX>X{.H % V } -.q.u.",
"r.a.1.' - t '.oX;X6X3XXX4 S h k N.@ 5 ).w 4 O @ ~ / 0XaXbXnXmXNXNXbXgXrX0XR.~ # # x N.~ 9 q I h B.W :X8X5X5X>X@XoXT % n V  .X.q.",
"M.Y.e._ ; w H {.{.oX{.I O g S # % e !.[.d '.5 @ ~ A.0XrXkXnXMXMXnXjXgXrXwXD.^ 6 & ^ S N.S.^ k l }.R |.OX'.{.@X{.`.u 4 n ) <.i.k.",
"l.a.d.,.Z m < - z {.o.e 7 # 6 3 e ~.!.e G R % # ^ / 0XrXjXjXlXjXjXjXgXrX0X/ / 9 & / / / v b A.N.2Xq r {.@X@Xo.w ; < m _ ' i.b.b.",
";.;.G. .` ` ` M M o.H + O O i i i e g # u R r o b C.0XrXgXnXMXbXgXsXrXeX0X0X/ 9 & / / / ~ S h 9 A.g o J }.*.} C _ _ _ _  .X.q.t.",
"y.-.-... .) V V ) V B @ O 7 7 2 0 ^ C.h o q * . h A.0XwXsXnXNXNXbXsXsXaX0X0X/ 9 6 / / / / / / 9 N.g @ 1 C ' ' ' ' [ [ 4.w.t.7.8.",
"j.q.q.u.p. .` ` ) ` C - . O   : D.eXR.A @ n m X b / / D.sXjXmXMXbXgXgXwX0XA.~ 9 b / / / / / / 9 ~ g - _ ' C } } ` [ | =.q.7.8.8.",
"m.a.y.8.8.6.4.6.6.<.<.] > > X k D.R.~ & @ B B @ 9 ^ / A.0XrXgXhXhXsXrXA.0X/ b # ~ / / / / / / S ^ g - ' M V V.@.%.@.O.H.V.F.i.c.",
"Y.Y.k.8.8.s.v.M.v.c.c.f.5.4.j @ * g @ O % Z ,.D # 9 ~ D.0XwXgXgXsXwX0X/ ~ b O . b / / / / / / ^ C.: 0 %.o.H.Y.m.e.V.x.Y.Y.x.x.M.",
"M.Y.M.k.8.s.v.h.k.k.j.9.$.$.$.1.k @ O 7 # ,.M.f.c   9 ~ A.0XeXtXwXeX/ b 9 O 7 3 & ~ / / / / / ^ D.g 0 d.J.H.n.M.M.n.M.M.n.M.M.M.",
"r.M.M.n.M.8.8.8.8.j.i.V.H.L.J.M.m.,.: @ : d.b.1.: O O O 9 h h g h 9 6 . O i a 8 O b / / / / / b N.g < c.M.M.M.x.l.b.M.v.8.s.m.m.",
";.k.k.k.8.8.8.j.v.m.M.b.M.M.k.8.k.Y.g.[ 1.a.G.) + r i 8 3 3 3 3 3 3 8 i i a a 7 . 9 / / / / / g A g , 7.y.r.r.;.=.q.j.s.8.u.y.;.",
";.y.7.8.8.8.j.m.k.8.m.m.k.j.8.8.s.v.8.X.-.-.-.n O a Q.~.Q.^.Q.Q.Q.Q.a a s Q.Q.i . 3 / / / / / h b * k t.;.;.;.;.=.q.t.u.t.-.;.q.",
"y.q.t.7.8.8.j.8.8.8.8.8.8.8.8.t.t.y.X.;.q.X.-.V @ i !.(.~.(.(.(.~.~.^.~.^.Q.Q.i # & ~ / / / ~ b k -  .-.X.q.X.;.;.=.=.;.-.-.;.8.",
"8.8.8.8.6.8.u.G.q.8.8.8.8.8.8.7.u.9.X.X.8.8.q.0.; 8 s (.~.(.~.(.].(.~.~.!.s a 8 3 9 9 / / ~ * 9 - | q.;.t.8.t.q.u.y.q.=.q.u.q.u.",
"8.8.u.X.q.t.X.-.;.u.8.8.8.8.j.v.k.8.8.g.s.8.7.7.1 X 4 Q.~.~././.(.~./.].Q.a i + j | - h ~ h & - 2.s.8.i.j.8.8.7.8.8.u.u.7.8.u.8.",
"8.u.;.-.-.-.-.-.-.;.q.t.t.k.m.Y.n.m.M.Y.g.a.7.t.X.; o 7 Q.^.!.~.~.~.!.s a i 5 % V X.} - # 0 , 2.Y.m.m.Y.m.a.u.i.t.t.q.;.y.u.u.t.",
"-.=.=.-.-.-.-.-.-.-.X.y.u.j.k.M.M.M.k.a.y.q.X.X.=.; X   . 3 4 4 7 3 3 3 3 + % } -.-...| - * <.v.M.M.M.x.y.q.X.X.;.;.-.=.-.-.;.;.",
"*.*.#.q.q.t.=.&.+.=.u.8.j.v.v.M.Y.m.7.t.7.t.9.q.} @ . + t V P V i r 4 . o %  .+.+.#.q.7.4.5.c.M.Y.M.s.6.u.8.t.y.;.=.-.=.-.=.=.=.",
"$.&.%.$.V.$.H.P.$.&.r.k.v.v.n.M.M.j.8.8.8.7.y.X.=.n o - } o.P V V V y   @ l | e.H.*.$.g.v.v.v.M.Y.m.8.8.8.7.t.q.-.;.;.;.-.=.*.&.",
"n.V.H.Y.M.x.M.M.m.P.x.k.8.8.8.v.m.m.v.j.8.8.8.u.4.m + . j P C ,.,.Z -   * Z ,.2.2.d.x.h.8.8.8.j.m.n.v.k.8.8.8.8.u.t.;.;.:.+.$.P.",
"M.m.M.M.Y.Y.M.M.M.Y.M.v.m.j.8.8.j.m.j.j.8.8.8.u.[ - % @ g ] ,.,.,.,.: $ $ : ,.,.,.2.m.m.v.v.8.8.8.v.k.j.j.8.8.8.8.8.l.g.L.J.b.Y.",
"j.m.n.k.k.m.k.j.M.Y.M.M.M.v.8.v.k.8.8.8.8.8.8.6.{ _ _ _ ] ,.,.,.] ,.,.Z _ ] ,.[ ,.2.f.M.M.M.s.k.v.s.8.8.8.8.8.8.8.8.j.8.k.v.M.M.",
"8.k.s.8.8.8.8.8.m.Y.m.m.M.n.M.M.m.k.k.k.k.k.8.6.<.[ ' ' ' ' ,.[ ' [ ] ' ' ' [ ' ] 2.c.M.M.M.v.M.M.v.k.k.k.k.8.8.8.8.8.8.8.8.j.v.",
"7.s.8.8.8.8.8.8.j.j.8.8.j.s.s.s.8.u.w.q.q.t.u.u.6.4.{ { ] ' ' _ ' ' [ ' [ [ [ { 4.8.s.8.8.s.j.j.j.8.t.q.q.q.u.u.u.7.8.8.j.8.8.8.",
"i.u.q.y.8.8.8.8.8.8.8.8.8.8.8.7.q.X.-.X.=.X.X.-.9.8.h.f.d.5.<.<.{ { | | { 5.5.6.6.8.8.8.8.8.7.7.u.q.-.-.-.-.;.;.;.u.j.m.M.m.j.8.",
"X.q.y.X.t.8.8.y.q.7.8.u.7.8.t.X...q.t.t.X.=.X.X...q.g.n.M.x.x.0.X...9.q.X.6.8.6.q.9.8.8.u.8.u.y.-.-.y.t.y.-.;.X.;.G.r.b.M.b.x.a.",
"u.7.u.t.t.8.t.;.-.;.q.;.y.t.u.t.u.u.7.8.p.q.7.i.t.u.u.g.g.u.u.u.t.6.7.u.y.u.8.X.-.-.X.X.X.t.t.t.t.u.8.8.8.q.t.8.u.u.u.u.j.i.u.t.",
"y.q.X.=.X.u.;.;.t.y.X.X.y.t.8.8.u.w.u.u.t.6.8.i.F.$.-.u.G.:.w.;.X.y.q.;.=.y.y.X.y.t.X.X.y.u.6.8.7.r.y.p.u.u.8.i.r.;.$.w.u.$.q.q.",
"=.;.;.;.X.;.;.y.8.8.8.8.8.8.u.q.:.$.&.:.O.$.v.M.c.H.*.&.:.H.#.;.;.-.X.-.X.X.=.X.8.8.8.8.8.8.8.r.=.$.#.O.:.O.a.m.n.L.V.&.O.H.V.#.",
"r.t.u.u.7.y.;.q.q.q.t.7.i.;.G.J.b.n.L.x.b.P.M.m.b.M.L.$.x.n.l.x.x.w.7.t.7.t.X.;.q.q.q.u.7.w.G.F.P.n.b.J.b.P.b.M.b.m.b.$.H.n.b.l.",
"m.m.j.8.8.y.G.G.a.l.l.l.d.J.m.Y.m.r.l.m.m.b.m.r.-.r.b.l.k.8.v.m.m.Y.k.8.8.u.X.q.r.a.l.l.x.l.x.m.M.l.r.b.m.m.b.x.G.;.x.x.x.s.j.M.",
"8.j.7.8.8.t.p.j.k.j.k.j.8.8.8.j.u.t.G.G.w.;.;.-.=.-.;.q.y.u.i.8.i.p.i.7.8.u.7.j.j.k.k.j.j.8.8.s.g.u.y.;.r.X.;.;.;.-.;.;.q.t.8.8.",
"G.;.y.8.8.8.8.8.8.8.8.j.v.k.8.8.8.8.7.7.y.w.-.;.X.-.-.-.;.;.q.q.;.q.q.7.8.8.7.8.8.8.8.8.k.k.s.8.8.8.8.8.t.y.q.;.;.;.-.-.-.-.;.q.",
"b.m.j.8.8.8.8.8.8.j.v.M.m.m.v.k.8.u.t.y.q.G.X.y.7.y.-.-.X.q.t.y.a.M.x.8.8.8.7.8.8.s.k.m.M.n.m.v.8.8.t.t.y.q.X.X.u.7.X.-.-.X.y.u."
};
