/* XPM */
static char *result[] = {
/* columns rows colors chars-per-pixel */
"64 64 233 2 ",
"   c #0F172B",
".  c #161C2E",
"X  c #1C1F2F",
"o  c #1C202F",
"O  c #1E2633",
"+  c #262A35",
"@  c #322E35",
"#  c #26323D",
"$  c #2B3739",
"%  c #2A333D",
"&  c #373539",
"*  c #403738",
"=  c #453B3A",
"-  c #3A473A",
";  c #46463A",
":  c #57483E",
">  c #48583D",
",  c #56673D",
"<  c #5E723F",
"1  c #2A3642",
"2  c #2D3B45",
"3  c #313D45",
"4  c #4E3F40",
"5  c #344344",
"6  c #3A4B44",
"7  c #34444C",
"8  c #384648",
"9  c #394E49",
"0  c #3C4B4C",
"q  c #354A52",
"w  c #3A4C52",
"e  c #3D5256",
"r  c #3D555B",
"t  c #3C5A63",
"y  c #474A47",
"u  c #594941",
"i  c #445845",
"p  c #585948",
"a  c #455859",
"s  c #435A5D",
"d  c #515A57",
"f  c #624D43",
"g  c #685645",
"h  c #775C48",
"j  c #4B6347",
"k  c #556946",
"l  c #5A754C",
"z  c #4B6357",
"x  c #55675A",
"c  c #5A7B52",
"v  c #577458",
"b  c #686448",
"n  c #756C4B",
"m  c #677A44",
"M  c #757C4B",
"N  c #716E55",
"B  c #647956",
"V  c #435C62",
"C  c #485F61",
"Z  c #4A6364",
"A  c #486469",
"S  c #4E6A6B",
"D  c #596966",
"F  c #516C6B",
"G  c #557568",
"H  c #4A6B72",
"J  c #516E72",
"K  c #4E7478",
"L  c #537374",
"P  c #577776",
"I  c #567A7B",
"U  c #5A7D7C",
"Y  c #647567",
"T  c #6C786D",
"R  c #89684D",
"E  c #946F4F",
"W  c #8E734F",
"Q  c #98744D",
"!  c #9C7452",
"~  c #A17653",
"^  c #A47A54",
"/  c #AB7D55",
"(  c #5E8555",
")  c #6C8444",
"_  c #66834B",
"`  c #6B824C",
"'  c #6F8A49",
"]  c #718743",
"[  c #738A44",
"{  c #7A8648",
"}  c #7C9549",
"|  c #678756",
" . c #728654",
".. c #6D965A",
"X. c #759955",
"o. c #7CA35D",
"O. c #7EAA5E",
"+. c #58807F",
"@. c #668A69",
"#. c #6D956E",
"$. c #6D9A6C",
"%. c #759765",
"&. c #7A9F66",
"*. c #73966E",
"=. c #749A6B",
"-. c #7B9B6D",
";. c #678A78",
":. c #768A75",
">. c #679276",
",. c #6B9372",
"<. c #769773",
"1. c #76A563",
"2. c #79A662",
"3. c #7BA861",
"4. c #73A068",
"5. c #85874B",
"6. c #8A884C",
"7. c #859A4A",
"8. c #919054",
"9. c #AA8459",
"0. c #B28355",
"q. c #B58B5B",
"w. c #AD9655",
"e. c #8BA54A",
"r. c #93AD4E",
"t. c #96B54F",
"y. c #99B74E",
"u. c #9BB84D",
"i. c #8CAE55",
"p. c #82A55B",
"a. c #84AD5B",
"s. c #8AAE5A",
"d. c #98AC57",
"f. c #94AE5E",
"g. c #8DB155",
"h. c #8BB058",
"j. c #93B452",
"k. c #9BB652",
"l. c #99B357",
"z. c #9CB15D",
"x. c #A1B84F",
"c. c #A7AA54",
"v. c #B6AB51",
"b. c #A2B653",
"n. c #ADB656",
"m. c #A4B851",
"M. c #ABB953",
"N. c #A3B35C",
"B. c #ABB35C",
"V. c #B6B557",
"C. c #B3B956",
"Z. c #B3B55C",
"A. c #BAB65B",
"S. c #B7B959",
"D. c #BCB95A",
"F. c #948F6D",
"G. c #869868",
"H. c #839D6B",
"J. c #B79864",
"K. c #83A462",
"L. c #8AA566",
"P. c #83AA61",
"I. c #94A665",
"U. c #94A666",
"Y. c #9CAA64",
"T. c #95AB75",
"R. c #A4AD62",
"E. c #AAAC62",
"W. c #ABB060",
"Q. c #AFBF6C",
"!. c #B5AE70",
"~. c #C7AB55",
"^. c #C0BA5A",
"/. c #C39A63",
"(. c #C4B36A",
"). c #B1C076",
"_. c #CACD46",
"`. c #D7CD6C",
"'. c #E1DE61",
"]. c #EAE970",
"[. c #587E82",
"{. c #5B8484",
"}. c #598487",
"|. c #5E8B8B",
" X c #5E8F90",
".X c #5F9192",
"XX c #678C88",
"oX c #638C8C",
"OX c #6F9388",
"+X c #648D91",
"@X c #639493",
"#X c #6A9393",
"$X c #659C9C",
"%X c #689898",
"&X c #6A9D9D",
"*X c #739C99",
"=X c #6EA19E",
"-X c #73A49F",
";X c #7FA49B",
":X c #6E9EA1",
">X c #67A0A0",
",X c #6CA2A2",
"<X c #73A4A5",
"1X c #79A9A7",
"2X c #74AAAB",
"3X c #7BADAD",
"4X c #7CB2B3",
"5X c #7FB7B8",
"6X c #859785",
"7X c #989B82",
"8X c #94AB8D",
"9X c #87A99B",
"0X c #B8BE97",
"qX c #85ADA6",
"wX c #8BB6AA",
"eX c #93BAAC",
"rX c #81B5B6",
"tX c #87B8B5",
"yX c #84BABB",
"uX c #89BEBD",
"iX c #AAC187",
"pX c #8DC1BF",
"aX c #9AC5B9",
"sX c #A3CCA7",
"dX c #A7CBB7",
"fX c #CACC8F",
"gX c #E4D284",
"hX c #EDEB95",
"jX c #EDECA4",
"kX c #87BEC1",
"lX c #8BC3C4",
"zX c #8FC7C8",
"xX c #95C5C1",
/* pixels */
"P.P.N.S.Z.b.b.l.s.j.y.y.u.u.u.u.u.u.u.u.u.u.y.y.y.u.u.u.g.f.z.z.I.O.s.B.Z.n.b.b.g.g.y.j.u.u.u.u.u.u.u.u.y.u.u.y.u.u.u.u.j.f.z.z.",
"3.2.2.3.3.3.P.3.2.3.3.3.a.s.h.h.t.u.u.u.u.u.y.y.y.u.g.a...c ) m ( c ( o.3.3.P.2.2.2.3.3.a.a.a.g.g.u.u.u.u.y.u.y.u.u.j.g.a.O.g.j.",
"k.a.3.s.s.O.O.2.2.O.O.h.h.g.j.u.u.u.y.y.y.j.i.7.} k l j 9 5 z P S z q 5 j x B | ..O.3.p.g.a.j.u.u.u.u.u.y.y.j.l.y.u.k.j.j.u.u.u.",
"M.h.s.u.u.j.j.j.g.y.y.u.u.u.u.u.u.u.u.t.p.| i r }.r +X2X>X X|.=X$X$X@XI [.8.T.K 9 m r.u.u.u.u.u.u.u.u.u.j.&.*.,.2.i.=.*.=.s.u.m.",
"D.A.l.t.u.u.u.M.M.C.A.A.u.u.g.3.P.g.o.%.v 6 I rX3X X2X<X&X>X@X%X$X,X2X%X<XP XXuX%XA p c.y.u.y.K.O.h.j.2.*.U.Z.Y.-.,.L.Z.B.I.l.D.",
"D.D.C.m.u.m.D.D.D.D.C.b.a.s.*.H.*.G 6 6 # Z %XuX3X6X6X5X5X<X{.<XyXkX5X4X1XoX:XtX3X|.5 - > k %.*.-.>.,.G.<.U.^.^.A.R.D.D.^.D.A.^.",
"B.D.^.C.M.x.x.u.u.x.k.o.-.H.H.V.M 7 H A # Z |.wXaXfX(.#X<X>X.X+X2XkXyXrXS P rXaX,XU w 1 K r 0 8.D.Y.Y.^.Z.R.D.D.D.^.D.D.M.M.D.^.",
"P.D.D.D.M.m.u.u.x.C.B.I.Z.A.B.M V q @XY 3 s L &X=X<.x oX&X>X>X>X&X&XoX1XP U *X*X|.C w 7  XI 7 z 7.^.D.C.n.V.Z.P.3.z.C.M.u.y.b.z.",
"3.j.u.u.u.u.u.M.C.C.D.^.D.C.[ 9 $XJ 6X(.Y }.%X,X}.F C oX3X2X<X*X[.{.2XyXOX8.^.9X<X#XU Z $X[.[.}.- c.C.u.O.3.O.2.2.a.t.y.y.O.O.1.",
"P.O.g.u.u.u.M.M.x.u.x.M.x.[ 6 w |.C %.J.d %XpXpXoXq q I 3XyXrXqXD P 2X&XZ w.jX0XtXkXXXF |.C P L 5 > t.O.2.O.1.2.2.3.O.s.O.3.3.j.",
"u.j.j.u.u.u.u.g.j.y.u.u.7.- Z d w y y % r }.wXuX4XV 7 {.$X>X<X3X*XI $X$XI g v.T.4X<XU 3 5 8 7 w S w 9 o.a.y.p.O.a.3.3.2.O.O.O.t.",
"u.u.u.g.j.u.a.3.O.t.t.m - 5 s r J 7Xw.3 G %X&X,X+XH J I .X$X$X$X|.r $X$XK t S }.:X&XoXC 3 q J S e e - 6 e.u.t.t.u.k.g.s.j.u.g.j.",
"u.u.a.3.O.O.2.1.2.h.7.6 Z w # :X3X).F.p W T K L yXzXkX%XXX[.+X@XP q {.4XrXxXaX*XH K t V K <XlXpXA # a a k n.u.u.t.u.j.g.j.u.t.u.",
"g.a.2.2.2.2.1.3.1.1.x s Z 2 s *XlXqX-.fXgX8.0 S %X4XxXdXdXOXq Z e # V oXwXwX1X%XV 3 V +XyXkXlX5X+.8 2 F a  .s.s.O.3.3.1.O.h.O.O.",
"#.,.3.a.a.s.O.$.4.c 0 s 2 q F @X,XwXQ.].gXW w F }.$X<XwXeXP V +X+X1XqX#XL %X$X+XS N w.T.qXyX,X=X{.S 1 y z i X.a.3.3.1.3.1.1.3.3.",
">.>.$.=.-.p.&.-.@.$ 2 # + 7 Z [.$X=XOX{ 6.y w I +X%X$X$X@Xs V :X5XuXeXoXA $X;.F.a v.].jXOX=X=X$XL s % n L.# , O.3.1.1.3.3.1.$.$.",
"R.*.-.R.R.L.W.D.p 7 Z 7 w L :XoXV }.:XV C 2 7 K $X$X$X$X.Xx C |.$X&X&XH t [.B `.; 9.`.'.B @XK H *X+XZ 5 x C $ _ O.a.2.1.1.$.,.H.",
"D.Y.Z.D.D.D.S.w.y d N d a #XlXlX2X:XrX#Xs + V +XoX@X$X@XD J.F.}.|.2X2X[.:XyXXX8XXXy b G.*X4X#XtXzXyXP 3 C F 0 y e.t.s.s.L.-.Y.D.",
"C.D.D.S.A.D.n.M z F.`.6.P 4XkXlXlXlXlXuX[.2 I 4XuX3X3X*X;.7X@.V w #X4XtXwX<X,X2X*Xe q -XlXlXlXlXxXpX&Xr q Z a a ) t.M.M.D.Z.D.^.",
"u.C.M.m.u.B.e.k d M ~.g [.>X2X4XaXdXeXXXF 2 C [.3XaXdXdXdX2X&XZ q [.$X$X$X$X$X+XF q e L ;XdXdXdXwX1X$XL O # 8 x m e.u.u.m.m.M.D.",
"u.m.u.u.u.e.[ ; w 1 a s [.$X$X&X=X<X%XF F 1 q I +X*X<X;X:X:X}.d y H |.>X>X$X>X@XF q r F I =X-X*X:.H.@XH r 2 7 7 > } e.y.y.u.u.m.",
"y.y.t.t.y.7.< 5 3 1 L +X X2X,X$X$X$X%XJ w @ g D ;.XXOX*X6XY N 9.^ p Y T T ;.S D p b # s }.@X*Xx F.fX#X}.|.a 4 w - ] 7.m.C.m.u.u.",
"g.a.O.O.t.e.- 5 1 y D L 2XkXkXyX2X$X@XZ 1 & / q.9.y / J.J.f q./.J.h R q./ h g J.q.R # q P F.!.w.b T.<X#XS b (.N + k d.A.D.D.C.b.",
"O.g.t.h.a.} - % C [.F T F.F.*X4X<X{.F F Z 1 E ^ E 4 ! ^ / u E ^ ^ u h 9.^ g f / ~ f a F a W hXhXR.+XI F F d 8Xy $ i X.d.C.N.z.s.",
"t.j.a.a.X.] - S 2XlX;XfX]._.0 :.:.H 7 Z 3 + ! ^ ! = / 0.^ f E / q.f h / ~ h f / / g % a w g ~.C.] a Z P %XyXyX Xa - m 7.j.s.j.j.",
"O.O.2.o.( > 9 |.2XpX$.'.].~.; !.8.V +X*XV + @ = @ X & = & o @ * = + @ = @ o + = * + 3 P *X#X9X9XJ 7 *XuXxXzX5X=XF $ z | 2.<.-.2.",
"K.a.a.O.' 9 r .X$X,X{.4.w.d 2  .Y qXaX*XF q & 4 4 4 o . . . . . . . . . . @ = * 4 % Z P eXdXuXrXU w @X3XwXqX>X>X{.8 B v *.Z.R.H.",
"B.u.t.e.' - r =X$X$X$X>X@Xd q  X$X,X*X@X[.w = h R E & . . . . . . . . . . f f R R & Z |.$X:X-X%XJ 3 A .X$X%X>X.X.X# b M 8.n.M.D.",
"C.C.r.[ ) $ e %X4X,X$X&X6X!.; I $X$X$X$X|.C & ~ ^ / u . . . . . . . . . X R ~ ~ R 1 D %X$X$X$XF.E.N V +X=X=X2X4X+.2 i _ { t.u.M.",
"s.a.r.} , 3 +.=X5XlXkXlXsXfX& A $X$X$X}.S 7 @ ! ~ / f   . . . . . . . . o / 0./ h @ J.6X.X$X}.W ].!.kXkXpXpXpX2X@XZ $ v ( 3.s.j.",
"f.z.7.] - e oX$X=XwXqXwXtXXXS 2X5XrX5X*XK t + ! E q.h   . . . . . . . . + q.0.q.u # E.iX2X5X:Xd F.Y <XuXqX9X3X$X$XP # j c ..O.O.",
"D.D.d.] - 9 A  X.X$X|.@X&XoXqXlXlXlXlXzXlX,X7 h ~ /.R . . . . . . . . . @ q.! / 4 t #XyXzXzXzXyXpX#X@X%X.X.X$X.X}.s $ j _ o.m.m.",
"N.f.c.6.M p , 6 s .X.X=X[.S 8XdXaXtX1X2X&XI 7 : 0./.Q o . . . . . . . . = 0.9.Q $ z @X<X1X1XaXaXdXOXS @X=X=X+.6 - , k ) [ t.Z.Z.",
"3.O.I.X.' ' B l c @..X+.e 7 {.<X-X=X@X.XoXU Z y 0.0.E X O + $ $ O + O . = 9./ R q Z |..X%X@X=X<X*XZ # S XX>._ ) ) ' ) ) X.o.a.g.",
"s.O.2.1.o.( c c ( c ( l k 9 t .X$X$X=X.Xq 9 i 0 E ^ Q + O , ) m k > + . : ^ ~ f 7 6 q t .X$X$X.X}.$ - < m ] [ [ ) ] [ e.s.g.y.u.",
"x.O.a.y.j.' _ _ ( _ _ ) ] [ m k B #. ._ k l l $ f R R ; O - , m m > - + : h E : - l , m ` @.@.l j < m ) ] ) | B ' ] ..1.p.y.u.k.",
"D.l.g.u.u.t.e.t.r.7.7.7.[ [ [ ) ] ) ) _ v B x 5 - ; n p i m { 6.5.M , > , , , , ] ] 5.{ { [ [ ' [ ' } ) B v G.<.@.%.*.U.L.L.y.C.",
"D.^.N.u.u.x.C.D.C.C.V.v.r.r.| v v c v x v 6.6.W B B 6.6.5. .5.6.6.5.5.] [ [ 5.6.6.6.6.6.{ ) _ v v c %.@.@.I.^.Z.Y.H.W.^.D.W.B.^.",
"D.^.D.M.u.x.M.M.M.M.M.i.=.4.<.W.L.,.L.B.G.W.D.D.D.D.^.D.D.D.^.D.V.^.^.V.x.x.M.M.M.M.M.b.3.&.#.U.R.<.<.B.I.U.A.D.D.A.D.D.D.D.D.D.",
"f.D.D.D.V.x.u.u.u.x.k.H.U.W.R.D.D.Z.D.D.D.D.Z.N.B.A.D.b.x.M.S.N.P.V.^.D.V.M.u.u.y.u.m.s.H.W.U.Z.D.A.A.D.^.D.D.B.N.Z.S.C.u.m.S.V.",
"3.M.M.M.u.u.u.M.C.S.A.S.A.^.M.u.Z.D.M.l.g.z.P.3.3.j.m.u.j.h.a.3.1.l.n.M.m.u.u.u.M.D.D.Z.S.^.S.m.M.D.S.u.l.f.f.3.2.a.m.u.u.g.h.P.",
"3.h.j.u.u.u.x.C.m.u.C.S.C.m.u.u.x.C.u.a.3.3.2.2.3.h.j.j.O.3.O.O.O.3.j.u.u.u.x.C.C.x.m.D.C.M.u.u.u.M.M.j.3.1.3.3.2.a.g.y.g.3.3.O.",
"g.s.g.y.y.y.m.u.u.u.u.u.u.y.u.g.g.g.O.3.a.a.3.3.3.1.3.3.3.3.g.u.g.h.a.j.u.y.u.u.y.u.y.u.y.u.u.y.j.h.h.3.3.a.3.3.3.1.1.3.2.3.O.y.",
"u.u.u.y.y.u.j.a.h.u.u.u.u.u.u.y.j.s.3.a.y.y.a.h.j.a.3.O.j.h.a.u.u.u.u.u.y.u.u.h.O.j.u.u.u.u.y.u.j.h.O.3.j.u.g.h.j.g.O.2.a.j.a.j.",
"u.u.j.O.s.g.3.3.3.j.u.u.u.u.m.S.M.u.k.m.m.u.u.u.u.t.j.j.y.y.y.u.u.u.y.a.O.g.a.3.2.a.y.u.u.u.u.M.M.m.u.k.m.u.u.y.u.u.j.j.u.u.y.u.",
"u.j.3.2.2.2.2.2.1.O.O.g.g.M.S.D.S.S.S.^.W.f.j.j.h.h.O.O.g.y.h.j.u.u.a.1.2.2.1.2.3.O.a.a.g.y.S.^.D.S.Z._.S.l.l.j.g.g.O.O.a.j.j.g.",
"2.4.1.2.3.3.1.1.2.2.O.s.j.u.M.D._.A.C.f.s.O.O.O.1.1.3.3.3.3.3.3.2.4.o.o.O.O.2.2.1.2.2.a.h.y.m.C.^.D.A.W.h.a.O.3.3.3.1.3.3.3.3.3.",
";.>.&.3.a.h.1.$.$.1.j.u.M.S.A.A.A.Z.t.j.u.j.h.a.3.3.1.3.3.1.4.4.>.>.,.O.O.a.a.$.#.4.a.y.u.M.S.S.D.D.m.g.t.u.g.h.3.3.3.1.1.3.4.4.",
"-.,.,.H.L.*.U.W.-.,.f.M.C.C.C.^.D.M.u.u.u.t.g.O.1.O.1.1.1.$.>.<.H.<.>.<.L.-.H.E.I.,.4.b.C.C.C.D.^.S.u.u.u.y.j.a.1.3.3.3.3.4.>.,.",
"D.H.I.D.A.Z.A.D.Z.W.B.M.u.u.u.C.S.C.M.M.u.u.u.j.j.O.3.3.4.<.U.Z.^.W.-.Z.D.Z.Z.D.D.Z.W.C.u.u.u.M.A.A.M.C.u.u.y.y.j.h.3.3.1.$.H.W.",
"D.Z.^.D.D.D.D.D.D.^.D.Z.C.m.u.u.x.C.m.M.u.u.u.u.u.m.b.N.z.Y.S.^.D.D.S.^.D.D.^.^.^.D.^.C.C.C.u.u.u.C.C.m.m.u.u.u.u.u.N.N.W.Y.Z.D.",
"b.D.D.M.M.D.M.M.D.^.D.D.^.C.u.C.M.u.u.u.u.u.u.u.y.M.u.m.S.S.^.S.x.C.D.C.b.V.C.x.A.^.D.D.D.D.u.M.C.u.u.y.u.u.u.u.u.u.M.u.M.S.A.D.",
"u.M.u.u.u.u.u.u.D.^.D.Z.D.D.C.D.S.C.M.M.n.m.u.u.u.u.u.u.u.u.M.m.u.u.M.u.y.u.u.y.M.D.D.C.D.D.C.D.^.C.M.M.M.m.u.u.u.u.u.u.y.u.m.M.",
"y.u.u.u.u.u.u.u.x.x.u.u.m.x.m.m.u.j.s.O.a.j.j.j.j.u.u.x.x.u.u.u.u.u.u.u.u.u.u.u.u.b.x.u.u.m.m.m.m.u.h.O.a.a.y.g.j.u.y.u.m.u.u.u.",
"k.j.a.g.u.u.y.u.u.u.u.u.u.u.u.j.a.O.2.3.1.3.3.2.h.k.C.S.S.M.m.k.j.j.g.a.j.y.u.u.u.y.u.u.u.u.u.u.g.O.3.3.3.3.3.3.3.j.m.S.D.S.m.u.",
"O.a.g.O.g.u.y.g.a.j.u.j.y.y.g.a.2.a.g.g.a.2.O.O.3.s.R.A.S.W.B.s.O.a.g.a.a.t.u.j.a.g.u.k.j.u.t.a.3.3.h.j.h.3.3.O.3.P.f.Z.D.S.W.z.",
"j.t.j.g.g.u.g.3.3.O.a.O.a.j.g.j.j.j.y.u.j.a.k.y.j.g.j.m.b.l.j.g.j.g.y.g.h.j.y.O.3.3.O.O.O.j.j.g.j.j.u.y.y.h.g.u.j.j.j.j.m.k.j.j.",
"h.a.O.2.a.j.3.3.g.s.O.O.g.g.y.u.j.g.j.j.g.y.u.l.K.-.2.j.K.2.h.P.a.g.a.3.3.g.g.3.a.j.O.O.a.g.j.u.j.g.g.y.g.l.u.u.f.2.-.s.g.&.a.a.",
"1.O.3.O.O.3.3.h.u.u.u.y.u.u.t.a.<.-.<.4.<.2.V.A.V.Y.,.,.-.I.$.3.3.1.3.3.O.3.2.O.u.u.u.u.u.u.u.g.2.-.<.#.=.$.l.A.A.E.H.,.*.L.H.=.",
"f.g.j.j.y.a.3.a.a.a.g.y.k.3.K.Y.Z.A.R.R.Z.R.D.D.Z.A.Y.-.W.D.R.Z.B.s.y.g.y.j.2.O.a.a.a.j.u.h.P.L.E.A.Z.Y.Z.W.Z.^.Z.S.Z.-.U.D.Z.R.",
"S.C.m.u.y.s.P.P.z.N.N.N.N.R.V.D.Z.f.z.S.A.Z.C.f.1.I.C.N.M.k.C.S.S.A.M.u.u.t.O.P.I.z.N.z.B.N.B.D.^.W.f.Z.D.A.Z.W.P.3.B.B.B.x.m.D.",
"k.m.y.u.y.j.u.b.b.M.m.M.u.u.u.m.k.g.a.s.s.3.3.1.2.3.3.P.h.j.u.u.k.m.k.y.u.j.j.m.m.M.M.M.m.u.u.x.b.g.h.3.s.3.3.3.2.2.3.3.a.g.t.u.",
"P.P.h.u.u.y.u.u.u.u.u.m.M.M.u.u.u.u.y.k.h.a.3.3.3.3.3.2.3.3.a.a.3.a.a.y.u.u.u.u.u.u.u.u.M.M.u.u.u.u.u.u.j.h.a.3.3.3.3.2.2.2.O.a.",
"Z.Z.m.u.u.y.u.u.u.M.M.D.D.D.C.M.u.j.h.h.a.a.O.g.u.g.2.2.3.s.h.h.l.D.B.u.u.u.u.u.u.m.M.C.D.D.S.C.u.u.g.g.h.O.O.a.j.y.O.1.3.O.h.j."
};
