/* XPM */
static char *result[] = {
/* columns rows colors chars-per-pixel */
"64 64 235 2 ",
"   c #1D2433",
".  c #262831",
"X  c #262B37",
"o  c #29333C",
"O  c #37393B",
"+  c #453A3D",
"@  c #3A4A3B",
"#  c #3E513E",
"$  c #474338",
"%  c #55493D",
"&  c #48563B",
"*  c #565A35",
"=  c #685B3E",
"-  c #59673C",
";  c #6A6D37",
":  c #2B3741",
">  c #2D3A44",
",  c #323D45",
"<  c #4C3E40",
"1  c #2F404A",
"2  c #364546",
"3  c #3B4B43",
"4  c #33444C",
"5  c #3B4B4B",
"6  c #3D5246",
"7  c #364B55",
"8  c #3B4D52",
"9  c #3D5155",
"0  c #3D545A",
"q  c #3D595C",
"w  c #3F5C64",
"e  c #434A48",
"r  c #574B42",
"t  c #475646",
"y  c #585647",
"u  c #475856",
"i  c #41575A",
"p  c #445A5D",
"a  c #585D56",
"s  c #624F42",
"d  c #695844",
"f  c #7A5D48",
"g  c #4C654D",
"h  c #566745",
"j  c #5B734A",
"k  c #5A7C52",
"l  c #577359",
"z  c #67644B",
"x  c #756448",
"c  c #657A44",
"v  c #686756",
"b  c #667957",
"n  c #797650",
"m  c #455E61",
"M  c #485C60",
"N  c #4B6465",
"B  c #496568",
"V  c #4D696B",
"C  c #566865",
"Z  c #516B6A",
"A  c #54716E",
"S  c #4C6C73",
"D  c #526E73",
"F  c #4D7276",
"G  c #537372",
"H  c #557B7D",
"J  c #587B7B",
"K  c #6C7668",
"L  c #697868",
"P  c #6A7D76",
"I  c #89674B",
"U  c #8D704D",
"Y  c #9A7452",
"T  c #A57A54",
"R  c #A87B54",
"E  c #847D64",
"W  c #5D8056",
"Q  c #6D8444",
"!  c #69834B",
"~  c #718743",
"^  c #738A44",
"/  c #7B8749",
"(  c #7B9649",
")  c #688857",
"_  c #768652",
"`  c #6C9359",
"'  c #73995A",
"]  c #7CA45B",
"[  c #7EAA5E",
"{  c #59807F",
"}  c #688B68",
"|  c #6D956E",
" . c #6D9A6C",
".. c #7A9E65",
"X. c #72956A",
"o. c #749A6C",
"O. c #7B9B6D",
"+. c #6E8B78",
"@. c #669174",
"#. c #6B9372",
"$. c #759673",
"%. c #76A563",
"&. c #79A662",
"*. c #7BA861",
"=. c #73A068",
"-. c #8C903B",
";. c #9FA63C",
":. c #B5BB3F",
">. c #88894C",
",. c #87994A",
"<. c #90914D",
"1. c #899657",
"2. c #979B53",
"3. c #AA8456",
"4. c #B38557",
"5. c #AF9650",
"6. c #B7935A",
"7. c #89A54B",
"8. c #93AC4C",
"9. c #96B64F",
"0. c #99B74E",
"q. c #9BB84D",
"w. c #8CAD55",
"e. c #83A65C",
"r. c #84AD5B",
"t. c #8AAE5A",
"y. c #97AE56",
"u. c #94AE5E",
"i. c #8DB155",
"p. c #8BB058",
"a. c #93B452",
"s. c #9BB652",
"d. c #99B357",
"f. c #9CB15D",
"g. c #B2AE46",
"h. c #A1B84F",
"j. c #A8AB57",
"k. c #B8AC54",
"l. c #A2B653",
"z. c #ACB655",
"x. c #A4B851",
"c. c #ABB953",
"v. c #A3B35C",
"b. c #ABB35D",
"n. c #B8B655",
"m. c #B3B956",
"M. c #B3B55C",
"N. c #BAB65B",
"B. c #B7B959",
"V. c #BCB95A",
"C. c #889864",
"Z. c #839D6C",
"A. c #909371",
"S. c #AD976D",
"D. c #88A565",
"F. c #83AA61",
"G. c #94A665",
"H. c #9CAA64",
"J. c #99AF6D",
"K. c #A4AD62",
"L. c #A9AB63",
"P. c #ABB060",
"I. c #B1AE72",
"U. c #C09E56",
"Y. c #CCA654",
"T. c #C1BA5A",
"R. c #D0B451",
"E. c #C49C63",
"W. c #C6A967",
"Q. c #B3C364",
"!. c #C8CA4A",
"~. c #D7C44C",
"^. c #D8D846",
"/. c #E2DB4C",
"(. c #DDE252",
"). c #E5E943",
"_. c #EBF245",
"`. c #ECF04B",
"'. c #EAF057",
"]. c #D5CC72",
"[. c #E1DF6E",
"{. c #EBEF6D",
"}. c #587D83",
"|. c #5B8383",
" X c #5E8787",
".X c #5D8B8C",
"XX c #5E8D90",
"oX c #5E9193",
"OX c #668986",
"+X c #648B8C",
"@X c #68938A",
"#X c #77978A",
"$X c #668D90",
"%X c #629494",
"&X c #689597",
"*X c #659C9C",
"=X c #6A9D9C",
"-X c #719A95",
";X c #739D9C",
":X c #6BA09E",
">X c #72A39E",
",X c #7BA59D",
"<X c #709FA0",
"1X c #67A2A1",
"2X c #6CA2A2",
"3X c #72A4A4",
"4X c #75ABAB",
"5X c #7AAAA9",
"6X c #77B0AF",
"7X c #7BAFB1",
"8X c #7DB3B3",
"9X c #839B8B",
"0X c #93A688",
"qX c #85A79C",
"wX c #B0AE84",
"eX c #82ACA5",
"rX c #88B4AB",
"tX c #92BCAE",
"yX c #86B9B8",
"uX c #85BBBC",
"iX c #B7C78C",
"pX c #96C6AF",
"aX c #99C4B9",
"sX c #A8CBB8",
"dX c #CBCC8A",
"fX c #DBD694",
"gX c #F0F092",
"hX c #F1F3A6",
"jX c #89BFC1",
"kX c #8BC2C4",
"lX c #8EC7C8",
"zX c #95C6C1",
"xX c #A6CEC0",
"cX c #FAFBD0",
"vX c #FCFDEC",
/* pixels */
"F.F.v.B.M.l.x.d.t.a.9.9.q.q.q.q.q.q.q.q.q.q.q.q.q.q.q.q.i.d.f.f.G.[ r.b.m.b.x.l.t.i.9.9.q.q.q.q.q.q.q.q.q.q.q.9.q.q.q.q.a.u.f.f.",
"*.&.&.*.*.*.F.*.%.*.*.F.r.t.t.p.9.q.q.q.q.q.9.9.9.q.i.r.' W Q c W k k ' *.*.*.*.%.&.[ [ r.r.r.i.a.q.9.q.q.q.q.q.q.q.a.i.r.[ i.a.",
"s.r.*.t.t.[ [ *.*.*.[ p.p.i.a.q.q.q.9.9.q.a.8.7.( j j g 3 2 i J Z V 8 @ t j b ` ` &.[ r.i.r.a.9.q.q.q.q.0.9.d.d.9.s.a.a.a.q.q.q.",
"z.p.t.q.q.a.a.a.i.9.q.q.q.q.q.q.q.q.q.9.] ` u 9 +X7  X3X2X%X X*X*X*X%X{ |.K I.}.3 j 7.h.0.q.q.q.q.q.q.q.y.%.o.#.&.a.o.| o.t.q.c.",
"V.B.d.0.q.q.h.c.c.m.V.B.q.q.i.F.D.w.e.X.} e F 4XyXXX4X2X1X1X*X&X*X1X3X*X1XOX+.8X>XF & 2.j.8.0.F.[ r.8.F.| G.M.H.O.#.G.M.b.G.s.V.",
"V.T.m.x.q.c.B.B.V.V.B.l.r.t.| Z.#.} t 5 o 8 %X8X8X#XA.7XyX4X X=XyXjXjX4X7X}.*X8X8X%X8 O & h ' $.Z.| | Z.$.G.V.T.N.K.N.T.V.V.V.N.",
"b.T.V.B.c.h.q.h.q.h.s.] O.Z.Z.N._ 3 B F X p  X5XsXiX].#X2X2X&X$X2XjXjXyX}.M 7XaX5X Xm : F w 4 / M.G.H.N.M.K.V.V.N.V.V.B.z.m.V.T.",
"F.B.V.B.z.h.q.q.h.m.b.G.M.N.z.>.m > .XP 2 p V %X2X#Xv H 2X*X*X1X*X1X$X5X}.G #X=X%XB 7 > |..X> m >.N.V.m.z.N.M.F.F.f.m.x.q.0.l.f.",
"*.9.h.q.q.q.h.c.m.m.V.T.V.m.,.# &XH +.dXn }.%X2X+XD N J 6X4X4X3X}.}.;XuX-Xn !.qX<X&X}.N %X XD &X@ 2.m.9.r.*.*.%.%.r.q.q.a.r.[ %.",
"[ [ i.9.q.h.x.c.h.0.x.c.h.,.# 4 }.m L I.z  XuXaX&Xi 4 D 3XuXuXeXP V 3X2XS U hXfXrXjX;XZ  XB V }.5 6 ,.r.&.*.*.*.%.*.[ r.[ %.*.a.",
"q.a.a.q.q.q.q.i.a.q.q.q.8.& 0 N 5 e e O 7 }.eXaXyX}.: G *X*X2X5X,XJ *X*X Xy 5.K.7X4X}.i , 5 4 7 N 0 6 ' r.9.r.[ t.*.*.%.[ [ [ q.",
"q.q.q.i.a.q.r.[ [ 9.9.^ @ O p 9 D A.I.O N +X*X:X%XS S J XX*X*X*X%Xi .X*X|.q V H 1X*X$XV , , D D 9 u > # ( q.a.a.q.9.i.p.a.q.p.a.",
"q.q.r.%.[ [ %.%.*.i.7.t p i X  X8XJ.I.y E P H V 7XlXkX3XOX}. X&X}.4 G 7XyXjXaXeXS S m m S *XlXlX}.X 9 p t j.0.q.q.q.a.p.a.q.9.q.",
"i.r.*.%.%.%.%.%.%.%.l u V 4 9 +XkXrX#XiXfXk.e N $X6XuXxXxXqX4 B p o 7 OXeXtX5X-XZ 4 i +X8XjXjXjX+X8 : Z u k r.p.*.*.*.%.[ p.[ [ ",
"| #.*.p.t.t.&.o.=.) 3 p 4 4 Z .X2XrXwX'.[.3.5 A |.%X3XeXtX+.7 +X+X4X7X;XD %X=X&XV v 5.A.eX8X4X2X+XZ 4 2 a 3 ` [ *.*.*.%.%.%.*.*.",
"@.@. .o.O.e.....@.3 > o   > m J *X1X%X_ >.s 4 A XX&X=X=X*XB 4 =X8XuXtX-Xm *XOXA.M <.'.hXJ.*X1X*X|.m > % G.@ # ] [ *.%.*.*.%. . .",
"K. .O.K.K.Z.M.V.v > N 5 4 V *X&XB }.=XS p 7 , V %X*X1X*X%XA u .X*X*X*X}.0 +Xh ].y U R.(.>.XX}.B &X*XN 5 u C O h [ [ &.%.%. .#.Z.",
"T.H.M.V.V.V.T.j.y u K v 8 |.kXkX7X&XyX;XB X 7 $X+X%X*X%XG 5.S.|..X4X4X X&XjX&X9X;Xi z C.%X8X&XrXkXkXOX8 i V 9 2 ( 9.t.p.D.O.J.T.",
"B.V.V.V.N.N.M.>.C n ].5.C 3XkXkXjXzXkXuX$X, B 4XuXeX6X3X X9XA.N 4 +X8XrXrX4X2X2X3XB , +XjXkXlXkXzXzX3XB 4 N 9 u c 9.c.c.V.N.V.V.",
"q.m.z.q.s.z.8.c u h n.U S *X4X6XjXsXsX$XG 4 i D 3XaXsXsXsX8X=XG , G %X&X*X*X*X&XD i 7 Z @XsXsXsXtX5X*X|.o X 2 N ; ( q.q.q.x.c.V.",
"q.h.q.q.q.9.( & 5 , e M F %X*X*X2X>X=XG Z 4 4 D +X*X3X>X3X*XoXC e N  X1X*X*X1X&XD i 4 C S *X<X;X+.A.&XH 0 4 , 5 & ^ 7.0.q.q.q.x.",
"q.q.9.9.q.,.; O , : V XXXX3X2X*X*X*X*XH i X r v P OX#X#X9XP v R 3.a v K P $XZ C y v X i }.*X-XD n fX#X+XXXV < e O ; ( l.m.c.q.q.",
"i.p.[ [ a.8.- : : , Z C ;XjXuXuX4X:X&XS , X Y 6.4.y Y E.E.d U W.S.I d E.R U r 6.6.Y o , D A.N.S.z J.<X3XD a W.E o t 2.n.T.V.m.l.",
"[ p.9.p.[ 7.# o M }.C K A.A.-X6X4X.XV Z V 4 f T T % I R 4.s = R T d s 4.T I r R R f , Z M f [.hXQ.$XH Z V p 0Xj o # ` y.m.v.u.p.",
"9.9.p.[ ] Q # q *XkX4XiXgX^.& J A.H , N 8 X I R R % U U.g.= f 4.Y.x = Y.3.I % 4.4.I . 8 p r U.!.<.8 N G $X8XkX*Xw @ c ( 9.t.d.a.",
"[ %.%.[ ) - @ { 1XaX+X!.{.R.= S.P.i }.3XB : X + $ . . * * * % % ; * - ; & . . $ + X : V ;X&X;XqX+.: +XyXaXzXjX2XH : g W %.| O.%.",
"*.r.r.r.( g 8 %X*X1X.X#.L.v o b b <XsXeXD i O < < r . ;.^.^.(.^.^.[.(.^.;.. O + < : p Z qXsXaXyX%X4  X5XrXeX2X*X%X8 h C | M.K.D.",
"m.x.q.7.^ # 1 *X*X*X*X1X%XC 1 |.&X<X<X&X}.i O I I Y % :._.gXcXcXgX'.'._.:.$ f = I + p }.*X;X>X*X|.> q oX*X*X*X*X*X4 & n 1.z.z.N.",
"m.m.0.( Q @ 5 oX8X2X*X:X#XI.z B 1X*X*X*XoXN : Y Y 4.; -._.gXvXvXcXhX`._.-.I 5.T T : C +X*X*X&X9XL.E M }.*X*X2X8XoX5 @ ! / 7.q.c.",
"r.r.i.,.; o F oX8XkXuXkXaXdXd 7 *X*X*X$XG 8 . I T 4.-.-._.{.{.gXhXgX`._.; ;.Y.T I X 3.wXXX*XXXf /.I.yXjXkXaXkX6X%XA o g k ] t.a.",
"u.f.w.^ & 1 { *X*XrXqXrXaX-XB =X8XyX8X<XH w : f I 6.;.; _._._.`.{.{.).).& g.5.3.f X <.iX<X8X7XM C.K ;XtXrXqX8X*X1X|.1 6 k ` ] [ ",
"V.V.j.^ & 4 N .XoX*XoX%X*XoX;XkXkXkXlXlXlX6X7 r T E.R.- _.)./.)._.`.).).* n.3.R r 7 +XyXlXlXjXjXyX;X%X=X%XXX*XoX XB 4 6 ! ( s.c.",
"v.u.M.<./ h - 3 8 oX1X1X.XV 9XsXaXtX5X5X>X|.8 O R Y.~.; ).^./.R.R.R.).^.= R.3.T O 9  X>X5X5XpXaXsX9XV .X*X*XXX9 3 * h c ~ 8.M.M.",
"&.%.w.' _ _ c k k W @.{ m > A >X3X:X%X%X%X|.Z 5 T R 5.; ^./.~.R.R.~.).:.$ 5.4.Y 2 m |.%X%X%X:X>X>XG : p @.@X) Q ! ~ ^ ~ ` ] r.i.",
"t.[ %.[ ' ) k k k k W j h g q .X%X*X=X&X0 5 6 9 I R Y = )./.~.Y.Y.Y.R.g.% R T = > 2 2 q .X*X*XoX.X5 o - c ^ ~ ~ ~ ~ ^ ( r.p.0.q.",
"x.r.r.9.9.' ! ! W ! ! Q Q Q c h k | ` ) h j j 6 + I Y = :.^.n.k.T.U.R.; % f Y = @ j - j c } | l g - c ^ ~ c ) b Q ^ ) %.e.q.q.q.",
"B.f.t.q.q.9.8.8.9.7.,.,.^ / ~ Q Q Q Q ! l b v 3 $ e f x g w.c.V.V.m.u.7.; - - - ~ ^ >./ / ~ ^ ^ ^ ^ ~ ^ k l C.X.X.X.| G.D.D.s.m.",
"V.T.c.q.q.h.c.B.m.V.k.n.w.8.) l l k l l b >.>.n b b >.k.M.v.N.V.V.V.B.q.8.( / >.>.>.>.>./ ~ ! l l l X.| } u.T.N.H.O.P.T.T.P.z.V.",
"V.V.V.c.q.h.c.c.c.m.x.w.o...O.1._ C _ 2.b _ >.>.>.>.2.B.V.V.V.V.B.V.V.n.h.8.,.>./ / / ^ ` ) l C.1.} O.P.G.G.N.N.V.N.V.V.B.V.N.T.",
"H.V.T.B.n.h.q.0.0.x.f.&.G.K.K.V.b.L.M.N.k.j.<.n _ <.M.x.q.c.V.v.F.M.T.T.n.c.7.~ ^ ^ ,.1.O.L.D.M.B.M.N.V.T.N.N.b.f.M.V.m.h.x.B.M.",
"[ x.z.c.q.q.q.x.m.V.N.M.V.V.c.q.z.T.z.a.d.f.` k W 7.q.q.9.i.t.%.*.u.m.c.h.h.0.( / >.g.M.N.T.B.x.x.T.B.x.i.f.u.[ &.t.x.q.q.i.p.F.",
"*.t.9.q.q.q.c.B.x.q.m.V.c.x.q.q.x.m.s.r.%.' ` W ) r.i.9.[ ] [ r.*.*.a.q.q.q.q.j.>.8.s.N.B.x.q.q.q.c.c.i.&.[ %.%.%.r.i.9.i.*.%.r.",
"i.r.i.9.q.q.h.q.q.q.q.q.q.q.q.i.i.i.r.*.] ` ` k ] %.%.*.%.*.i.q.a.t.r.9.q.q.q.q.,.( ,.8.q.q.q.q.i.i.p.*.[ r.*.%.] %.%.*.*.%.*.q.",
"q.q.q.q.q.q.i.r.t.q.q.q.q.q.q.9.a.r.&.r.7.7.' ( i.r.*.[ i.i.r.q.q.q.q.q.0.q.q.r.] ( ,.( q.q.q.q.q.p.r.%.a.q.i.r.a.i.[ *.t.a.r.a.",
"q.q.a.[ r.i.[ *.[ a.q.q.q.q.h.m.c.q.s.x.8.0.9.0.q.9.a.a.q.q.a.q.q.q.q.r.r.i.r.%.[ ] q.8.q.q.q.c.m.q.q.l.x.q.q.q.q.q.9.a.9.q.9.q.",
"q.i.[ %.*.%.%.%.%.[ r.i.i.c.V.T.V.B.N.T.z.u.9.a.i.p.[ r.i.q.i.a.q.9.r.%.[ %.[ %.[ [ [ p.p.9.m.V.V.Q.B.T.B.f.d.q.i.i.r.[ t.a.a.i.",
"&.=.&.*.*.*.*.%.%.%.[ t.a.q.z.V.V.V.z.f.r.r.] *.*.%.*.%.*.*.*.*.%.%.%.%.%.[ %.%.%.%.[ [ p.q.h.m.T.V.B.z.p.r.[ [ %.%.%.*.%.*.%.%.",
"@.@.o.F.e.w.%. . .%.a.q.c.m.m.V.V.B.q.a.q.a.t.r.%.*.%.%.*.%.=.=.@.@.#.[ [ t.r.o.| =.[ 9.q.c.m.V.V.V.x.a.9.q.p.p.[ *.%.*.%.%.%.%.",
"Z.#.#.Z.D.$.G.P.O.#.u.z.m.m.B.V.V.x.q.q.q.9.p.*.*.%.*.%.%. .@.$.Z.| @.$.Z.O...P.H.#.%.l.m.m.m.V.T.B.q.q.q.q.a.F.*.%.*.*.%.=.#.#.",
"N.Z.H.V.V.b.V.V.M.P.M.x.q.q.q.m.V.m.c.x.q.q.q.a.a.r.*.&.=.#.H.M.T.P.Z.M.T.M.M.V.V.P.P.m.q.q.q.x.N.B.c.z.q.q.q.9.a.i.*.*.%. .O.P.",
"T.M.N.V.V.T.V.V.V.V.V.m.B.x.q.q.x.m.x.x.q.q.q.q.q.l.v.c.K.H.V.V.T.V.M.T.T.T.T.T.V.V.T.m.m.m.q.q.q.c.m.x.x.q.q.q.q.q.v.v.P.H.M.T.",
"x.B.B.c.c.V.c.c.V.T.T.V.V.m.q.m.c.q.q.q.q.q.q.q.q.c.q.x.m.B.T.B.x.m.V.m.x.B.m.h.N.T.T.V.V.V.x.x.m.x.q.q.q.q.q.q.q.q.c.q.c.B.V.V.",
"q.z.x.9.q.q.q.q.B.T.B.m.V.B.m.V.V.c.c.c.z.x.q.q.q.q.q.q.q.q.z.x.9.q.z.q.q.q.q.q.c.V.V.B.B.V.B.V.V.B.c.c.c.x.q.q.q.q.q.q.9.q.x.c.",
"0.x.q.9.q.q.q.q.h.x.h.q.x.x.x.x.q.a.t.r.r.i.a.a.9.q.q.h.h.q.q.q.q.q.q.q.9.q.q.q.q.x.x.q.q.x.x.x.x.q.p.r.r.r.a.a.a.q.9.q.x.q.q.q.",
"a.a.r.i.9.q.q.q.q.q.q.9.q.q.q.a.r.[ %.*.*.*.[ %.r.s.c.Q.B.c.x.s.a.q.i.t.a.q.q.q.q.q.q.q.q.q.q.9.i.r.*.*.*.%.*.%.*.9.x.B.V.m.x.x.",
"r.r.i.[ i.q.9.i.r.a.q.a.s.q.i.r.%.t.i.i.r.%.[ [ &.u.K.V.B.M.v.t.[ [ t.r.r.a.q.a.r.p.q.a.9.q.9.t.*.*.p.i.p.*.*.r.*.F.u.M.V.M.b.f.",
"i.9.9.i.i.q.i.*.*.[ r.[ r.i.a.i.i.9.q.q.a.r.s.s.y.a.a.x.l.d.a.a.i.a.9.a.p.a.q.[ %.%.r.[ [ a.i.i.i.9.q.q.q.r.i.q.a.a.d.d.x.s.a.i.",
"i.r.[ %.[ a.[ *.i.t.[ [ i.a.q.q.u.a.a.9.i.9.q.s.F...&.a.F.%.p.*.[ p.r.*.%.i.i.*.p.i.[ [ p.i.9.q.9.i.p.s.a.a.q.s.u.&.%.t.w...e.r.",
"%.[ *.[ [ *.*.p.q.q.q.9.q.q.9.r.$.O. .o.$.=.m.B.M.G.@.#.$.H. .*.*.*.*.*.[ [ %.[ q.q.q.q.q.q.q.u.%.O.$.o.O. .d.B.N.P.O.#.#.G.D.o.",
"u.i.a.9.9.r.%.r.t.r.i.9.a.F.D.G.M.N.K.P.M.P.V.V.M.N.K.O.P.B.P.M.b.p.9.i.q.a.%.[ r.r.t.i.9.p.F.D.P.N.P.K.M.K.B.T.M.N.M.O.G.B.M.K.",
"V.B.x.q.9.p.F.F.f.f.v.v.v.f.N.T.M.u.v.B.N.N.M.u.%.G.m.v.c.q.m.B.V.V.c.q.q.a.[ r.u.f.v.v.b.H.m.V.V.v.u.M.V.B.B.P.F.*.b.b.b.x.x.V.",
"s.l.q.q.q.a.x.l.c.c.x.c.h.q.q.x.9.i.[ t.t.*.*.*.&.&.*.r.r.s.q.q.s.s.s.q.q.a.a.x.x.c.x.c.h.q.q.h.l.u.p.[ u.*.%.&.*.%.*.*.r.i.q.q.",
"F.F.p.q.q.q.q.q.q.q.q.h.m.c.q.0.q.q.q.q.p.r.*.*.*.*.*.%.&.*.r.r.*.r.r.s.q.q.q.q.q.q.q.q.z.c.q.q.q.q.q.9.a.r.r.%.*.*.*.%.%.&.[ r.",
"b.B.s.q.q.0.q.q.q.x.m.V.B.B.m.c.q.a.p.p.r.F.[ p.q.p.%.*.[ r.p.p.f.B.b.q.q.q.q.q.q.x.c.m.V.V.V.c.h.q.i.i.p.r.[ r.a.q.[ %.*.r.p.i."
};
