/* XPM */
static char *result[] = {
/* columns rows colors chars-per-pixel */
"64 64 232 2 ",
"   c #10172B",
".  c #161C2E",
"X  c #191F2F",
"o  c #171E31",
"O  c #1B212E",
"+  c #1B2233",
"@  c #1E2737",
"#  c #20232F",
"$  c #222533",
"%  c #232A33",
"&  c #272B36",
"*  c #232C3B",
"=  c #2D2F3A",
"-  c #2B3434",
";  c #293639",
":  c #34373A",
">  c #394739",
",  c #3D453A",
"<  c #374A3C",
"1  c #43443D",
"2  c #454B3B",
"3  c #4A573B",
"4  c #545B3E",
"5  c #53643E",
"6  c #5B6E3F",
"7  c #5E713F",
"8  c #62773E",
"9  c #1F3042",
"0  c #232B43",
"q  c #263648",
"w  c #3C3B42",
"e  c #293A53",
"r  c #2D3954",
"t  c #323D5D",
"y  c #423E41",
"u  c #3A4842",
"i  c #2E4B53",
"p  c #294758",
"a  c #385557",
"s  c #354463",
"d  c #3A4B6C",
"f  c #2E5768",
"g  c #2E556A",
"h  c #335668",
"j  c #395673",
"k  c #37666B",
"l  c #326273",
"z  c #366679",
"x  c #3C737A",
"c  c #4A4747",
"v  c #4C4B45",
"b  c #544C4B",
"n  c #485745",
"m  c #585747",
"M  c #55524D",
"N  c #565652",
"B  c #665A53",
"V  c #695B54",
"C  c #4B6448",
"Z  c #596945",
"A  c #4D6856",
"S  c #587951",
"D  c #667845",
"F  c #71724E",
"G  c #6E6358",
"H  c #77685B",
"J  c #455574",
"K  c #546E6A",
"L  c #716F66",
"P  c #82725E",
"I  c #847661",
"U  c #887A64",
"Y  c #82756A",
"T  c #967E68",
"R  c #5C825F",
"E  c #6A8347",
"W  c #718643",
"Q  c #738944",
"!  c #7A8B46",
"~  c #798649",
"^  c #7A9448",
"/  c #678753",
"(  c #6D9558",
")  c #749857",
"_  c #7DA35B",
"`  c #7EAA5E",
"'  c #668869",
"]  c #6D966F",
"[  c #6E9A6D",
"{  c #779F67",
"}  c #799E66",
"|  c #73976E",
" . c #749A6C",
".. c #7A9A6D",
"X. c #648F76",
"o. c #679074",
"O. c #6B9371",
"+. c #729670",
"@. c #76A663",
"#. c #79A662",
"$. c #7BA861",
"%. c #83854C",
"&. c #89864C",
"*. c #82884A",
"=. c #8A884C",
"-. c #86994A",
";. c #8B9054",
":. c #A29E53",
">. c #8AA64B",
",. c #8BA74C",
"<. c #99A74E",
"1. c #94AB4D",
"2. c #96B54E",
"3. c #99B74E",
"4. c #9BB84D",
"5. c #8BAE56",
"6. c #84A65A",
"7. c #84AD5B",
"8. c #8AAE5A",
"9. c #94A957",
"0. c #94AE5E",
"q. c #9AAF5E",
"w. c #8DB155",
"e. c #8AB058",
"r. c #93B452",
"t. c #9BB652",
"y. c #9EB850",
"u. c #96B05B",
"i. c #9CB15C",
"p. c #A0B34F",
"a. c #A1B84F",
"s. c #A9A954",
"d. c #B0AC57",
"f. c #A2B653",
"g. c #ABB755",
"h. c #A4B851",
"j. c #ABB954",
"k. c #A4B25C",
"l. c #ABB35D",
"z. c #B5B657",
"x. c #B3B956",
"c. c #B3B55C",
"v. c #BAB65B",
"b. c #B6B858",
"n. c #BCB95A",
"m. c #948266",
"M. c #9A846A",
"N. c #9D896A",
"B. c #839360",
"V. c #829D6C",
"C. c #908D73",
"Z. c #A28A6E",
"A. c #AA926F",
"S. c #A98D72",
"D. c #A99475",
"F. c #B69A76",
"G. c #82A462",
"H. c #83AA61",
"J. c #8BAC60",
"K. c #8BA169",
"L. c #88A268",
"P. c #94A666",
"I. c #9CAA64",
"U. c #A4AD62",
"Y. c #A9AF61",
"T. c #ABAF69",
"R. c #ACB060",
"E. c #B5A970",
"W. c #C1BA5A",
"Q. c #C3A57B",
"!. c #CAAB7E",
"~. c #C2B672",
"^. c #3C6A84",
"/. c #3C778B",
"(. c #3D7F93",
"). c #437388",
"_. c #3D8496",
"`. c #3D8699",
"'. c #3E889A",
"]. c #498B8D",
"[. c #448B98",
"{. c #4A979B",
"}. c #529C9D",
"|. c #729992",
" X c #51A09B",
".X c #4B9BA0",
"XX c #53A5A4",
"oX c #54AAA6",
"OX c #55ABA8",
"+X c #56ADAA",
"@X c #5AB5AD",
"#X c #888886",
"$X c #95988F",
"%X c #9F9D91",
"&X c #96AC94",
"*X c #ABA586",
"=X c #B4A985",
"-X c #BEB58F",
";X c #ACB3AC",
":X c #B6B7B9",
">X c #C4B58E",
",X c #C9B68A",
"<X c #D3B482",
"1X c #D8BA88",
"2X c #C3BAA1",
"3X c #99C0A4",
"4X c #A9C7A6",
"5X c #DCC591",
"6X c #D2C897",
"7X c #D8C89A",
"8X c #E2CB96",
"9X c #E2CD9A",
"0X c #E5D29D",
"qX c #D3CAAA",
"wX c #C5C2BC",
"eX c #E8D9A5",
"rX c #ECDEAA",
"tX c #EDDCB8",
"yX c #EFE1AB",
"uX c #F0E1A8",
"iX c #EDE1B4",
"pX c #F1E5B7",
"aX c #F1E5BC",
"sX c #B9BCC6",
"dX c #D2D0C9",
"fX c #E6DFC1",
"gX c #ECE5C6",
"hX c #F6ECC8",
"jX c #EDE7D5",
"kX c #F4EDD8",
"lX c #F7F0D5",
"zX c #F8F5E8",
/* pixels */
"J.$.k.b.c.f.g.u.e.r.2.2.4.4.4.4.3.3.4.4.3.3.4.4.3.4.4.4.w.q.q.i.0.G.0.c.x.l.g.t.e.w.3.r.3.3.4.3.4.4.4.4.4.4.t.4.2.3.3.4.2.u.i.i.",
"$.@.$.$.$.$.$.$.@.` $.` 7.7.e.w.3.4.4.4.4.4.4.4.4.3.w.e.` 7.2.w.` $.@.$.#.$.$.$.$.@.` ` 7.7.e.w.w.4.4.4.4.4.4.4.3.3.2.5.` ` e.r.",
"t.7.$.8.e.` ` #.$.` ` e.e.w.2.3.3.3.4.4.4.r.r.r.4.3.r.r.r.4.4.4.t.w.$.7.e.7.$.$.@.` ` 7.e.w.w.4.4.4.4.4.4.4.2.u.3.4.t.r.r.4.4.4.",
"x.8.8.4.4.w.2.r.w.3.t.4.4.4.4.4.4.3.4.t.7.{ | | w.G.| | G.r.y.x.x.h.H.r.4.2.r.t.e.2.t.a.4.4.4.4.4.4.4.4.r.} | O.$.w. .|  .w.4.h.",
"n.b.u.4.4.4.a.j.j.x.n.b.y.3.w.$.G.r.7.{ | R.R.K.] | Y.c.U.J.x.n.n.n.f.2.4.4.4.h.j.j.n.b.j.3.t.H.` 7.w.G.| K.c.I...O.K.c.l.P.t.n.",
"n.n.x.h.4.h.x.n.n.n.b.f.e.8.| V.+.o.| V...c.W.n.R.c.n.n.W.n.n.n.W.n.n.j.4.y.b.b.n.n.b.x.0.7.#.....] ] V...P.n.W.v.U.n.n.W.n.b.n.",
"l.n.n.x.j.a.a.a.3.a.t._ ..L.V.W.l.P.R.n.R.c.n.v.n.W.n.x.g.x.W.n.k.v.n.n.j.j.4.a.a.4.4.2. .K.[ R.n.I.I.n.c.U.W.b.v.W.n.n.j.j.W.W.",
"J.b.n.n.j.a.4.4.a.x.l.P.c.v.c.x.n.n.n.j.c.v.i.7.J.f.x.y.t.y.k.J.$.U.n.n.b.j.4.4.4.j.b.I.I.n.c.j.x.n.n.x.g.b.c.J.$.i.x.j.4.4.f.I.",
"$.t.4.y.4.4.4.x.x.x.n.W.n.x.4.4.h.n.h.w.$.H.@.@.` 2.4.4.w.` @.@.@.e.y.y.4.4.4.h.n.x.b.W.n.x.j.4.4.x.x.2.` ` $.@.#.7.4.4.r.7.$.@.",
"$.` w.4.4.4.h.j.4.3.h.j.a.4.4.4.3.h.w.$.$.$.@.` $.` ` ` ` ` ` r.7.$.7.r.4.4.4.j.a.4.a.j.j.4.4.4.4.y.y.7.$.$.$.$.#.$.$.e.` $.$.r.",
"4.2.2.4.4.4.4.w.r.3.3.4.4.4.4.w.7.7.$.$.r.w.` ` ` ` @.@.` ` w.4.4.2.r.4.3.3.3.r.w.4.4.4.4.4.4.3.e.7.$.$.e.r.e.$.7.` $.$.` ` ` 2.",
"4.4.3.w.r.4.7.@.` 3.4.3.4.4.4.h.3.r.5.r.3.3.w.>.^ ( / ^ ,.2.w.4.4.4.4.r.w.3.r.$.` w.4.4.4.4.4.a.h.r.w.e.r.4.r.r.4.t.w.7.r.4.w.r.",
"4.3.7.$.$.` $.$.$.e.r.4.4.4.j.n.x.j.j.b.j.4.5 > p l 9 < 3 Q 2.4.2.4.r.$.$.$.$.$.@.` w.3.4.4.h.n.n.j.j.b.b.j.y.4.2.2.r.w.r.4.4.4.",
"w.7.@.$.@.$.@.$.$.@.` ` e.j.b.n.W.W.n.c.6.< O p x .X X{.k a 3 ( w.e.$.$.@.$.@.@.@.$.@.` 7.t.x.b.n.n.n.n.i.7.7.e.` ` $.@.` e.` ` ",
"O.O.$.7.7.7.#. .@.@.e.r.4.h.j.n.n.b.t.6.3 ; f _.{.oXoX{.oXXX].a R o.[ 7.7.7.7. .@.@.` r.r.4.j.x.n.W.j.u.w.r.e.7.$.$.$.@.@.@.$.$.",
"O.o.O.{ ..L.#.#.O.[ r.h.x.W.n.n.b.j.2.6 @ f _.`.oX@X@XoXXX+X@X].i R o.[ @.#.G.V.| O.` 4.j.b.n.n.W.n.y.4.2.2.e.` $.$.@.$.@.@.[ [ ",
"U.+...Y.U.K.R.W.I.L.I.x.h.h.j.n.b.h.1.> q ^.[._./.].XX@XOX{.oX+Xx u ' P.Y.P.I.n.v.V.K.g.j.a.h.x.n.b.y.h.4.4.4.w.` ` @.@.@.[ O.L.",
"n.I.c.n.n.n.W.n.n.n.v.h.h.3.4.h.x.n.s.1 d /.^.q @ o 9 k +XXXk {.}.i ;.W.W.n.n.W.W.n.b.x.h.h.4.4.h.n.n.j.h.4.4.4.4.4.J.u.H...I.n.",
"b.n.n.b.b.n.n.b.n.n.n.b.n.j.3.h.4.a.,., j (.z p s t o . k OX].f }.h F v.z.n.n.b.n.n.n.n.n.n.4.4.h.h.a.4.y.4.4.4.4.4.x.h.n.c.n.n.",
"4.x.j.h.y.j.y.h.n.W.W.n.W.b.j.n.b.j.p.3 r ).^.^.d J q . o l XXp ).h Z 3.4.h.a.4.x.W.n.W.W.n.j.x.W.j.h.h.h.h.y.4.4.4.4.4.y.h.j.n.",
"4.h.4.4.3.4.4.4.j.b.j.y.x.b.x.x.j.h.t.W q t d d d t = 2 @ e /.g ^.g Z 2.2.4.4.4.h.x.x.h.j.x.x.x.x.h.y.i.t.t.y.4.4.4.4.4.4.4.4.y.",
"4.4.r.2.3.4.4.4.4.4.4.4.4.3.3.3.r.7.@.@.S - * * * - D <.4 9 z e l : ^ 2.4.4.4.4.4.4.4.4.4.4.4.4.4.w.` @.@.$.e.7.7.4.4.h.x.j.4.4.",
"e.e.` ` 2.4.4.3.r.4.4.4.3.4.3.w.$.$.` 7.@.( S C C D D V - q t t p - Z ( e.4.3.3.r.2.4.4.3.4.3.w.` $.7.0.` $.@.@.$.u.l.n.W.W.b.k.",
"` e.4.7.e.3.3.` $.w.r.7.r.2.7.7.7.w.3.3.e.` 5.5.E 1 G H * q o   w C.K 3 ( r.3.e.$.` w.5.5.4.w.7.` e.T.~.t.` H.w.7.` 7.t.x.k.u.e.",
"r.r.w.` e.4.7.` ` ` @.@.7.5.r.3.3.4.4.4.2.r.3.Q - = $XqXwXsX:X:XdXjX#X* 3 >.5.#.$.` $.@.$.e.r.t.f.c.1XE.4.r.t.4.r.e.8.r.t.8.u.r.",
"` $.$.$.` ` @.7.3.2.r.w.2.4.3.r.#.{ G.8.} 9.1.1 - B y *XaXhXtXtXtX7XF.T u / ` ` r.3.w.r.r.3.4.r.T.7XwXm ( #.t.j.Y.L.+.@.#.| } @.",
"$.7.7.7.w.` $.w.r.t.2.4.4.r.8.G.P.U...V.9.V.;.& b T <X9XuXtXaXkXzXkXhX8XU C ) ` r.r.r.4.3.r.5.Z -XkXwXu B.V.k.n.n.n.U.O...c.U.V.",
"c.h.4.4.4.e.@.$.H.H.e.w.q.K.U.c.n.c.c.W.W.z.F & P T <X8XuXtXpXpXlXdX:XrX,Xn / @.$.J.J.e.t.P.P.H dXzX2Xb s.v.n.n.i.u.n.I.U.j.x.n.",
"x.b.y.4.4.e.u.i.b.b.b.b.j.h.a.x.q.8.` i.k.8.3 ; Y S.<X1X8XtXuXrXgX$Xb 1XrXG C i.l.z.z.b.x.f.T.qXzXfX>Xc <.0.0.J.#.#.8.0.t.t.4.h.",
"e.7.r.4.4.2.4.4.3.3.4.4.4.y.4.4.2.r.w.w.7.( % c P =X<X<X1X8XuXtXzX%X@ M.tXL 2 4.4.4.3.3.y.Q G lXjX1X*Xn _ ` _ @.#.#.@.@.#.7.8.r.",
"0.k.w.4.4.4.4.4.4.y.y.x.b.b.h.2.^ -.2.2.6./ # B T <X<X<X<X<X8XtXkX$Xo B 0X2X3 1.4.4.a.h.z.2 #XgX1X,Xm D w.7.7.$.7.e.$.$.#.#.` ` ",
"b.n.b.y.4.4.4.4.4.j.x.b.j.x.n.F : 1 E 6.5.Z O B T <X<X<X<X<X8XrXjX#Xo = Z.C.- W 4.a.g.n.~ M 7X9X<XT < >.e.e.w.w.3.4.8.` 7.w.y.j.",
"k.0.b.x.x.h.h.4.3.4.4.a.3.2.p.5 : H n D >.7 X = B S.<XS.H M N B K 0 . . . # # 8 w.2.4.2.> C.eX,X!.v 7 4.4.4.4.4.4.4.4.r.4.f.c.c.",
"$.$.J.u.u.0.u.7.` 7.e.e.2.2.1.5 X v A.M 3 D $ & P Z.<X<X=XY M $ # o   . : $XM : _ ` e.D n -Xm.<Xm.> ,.4.a.4.4.4.4.4.4.r.w.$.7.e.",
"e.$.@.$.$.@.@.@.@.@.@.` ` ` 6.5 p p c A.m - X X V S.F.<X1X8X9X>X2X;X0 # m.tXD.< _ @.( u C.E.G !.3 8 4.4.4.4.4.4.4.2.4.r.w.w.t.4.",
"h.7.7.4.3.7.w.7.` e.e.2.3.3.2.5 l _.^.B T P y $ 0 P T Q.<X<X8XuXhXjXr b 7XhX*X> ( 7./ c 6XL M.U , ,.4.4.3.w.#.} w.4.6.} 7.3.3.a.",
"b.k.e.t.4.3.4.4.3.a.j.j.4.4.1.C l _.`.).+.S.S.I V b V T <X<X<XeXiXfXc I rXrXI + u 6 5 I D.G F.c D 2.2.r.G...P...+.#.| P.K.G.t.x.",
"n.W.j.4.3.a.x.b.n.n.W.b.t.r.} n l _.[.{.E.m.M N H =XY = F.1X<X0XyXtX:XqXyX7X: p {.p , A.u M.M.u '  .#.| o.I.W.c.I.V.R.W.n.R.l.n.",
"n.W.b.j.4.a.x.j.j.j.a.r...} ..m j _.{.}.-X5X!.S.b N U X w V S.7XyXaXkXpX6XG q x f i H U : Z.v F k.| ..Y.I.P.v.n.W.v.n.n.n.n.n.n.",
"0.n.W.b.n.4.4.3.3.a.i.G.P.s.q.Z l _.[.XXqX0X<X1XZ.M I X . . $ L -XeXaXeXL 0 p XXh * P y G V - ;.b.c.v.n.n.n.n.l.i.c.b.x.a.a.b.b.",
"$.j.j.j.y.4.4.a.x.b.n.c.n.n.p.5 K `._.{.3X7X5X1XS.B P o t 0 o o * b C.M q d r j '.l 9 X M w * m 1.b.n.y.u.u.u.$.@.8.h.y.4.w.w.H.",
"#.e.3.4.4.4.h.b.j.a.x.n.j.a.2.5 m.*X|.[.&X6X5X<XF.P P o ^.^.d t 0 .   0 j ^.r o p l j t 0 $ s p Z g.j.r.$.$.@.@.#.7.w.2.w.$.$.` ",
"w.7.w.4.3.4.a.a.4.4.4.4.4.4.1.5 m.<X6X4X&X,X<X<XQ.T I + j './.^.J t e d ).d $ c V c e s s 0 @ & D w.7.` ` 7.$.@.#.#.@.$.$.@.` 2.",
"t.4.4.3.3.3.r.` 7.3.4.4.4.4.2.5 B ,X5XeX4X|.*X<XF.T I + ^.).'.`./.j ^.^.^.0 o G F.Q.M + 0 t q 3 ,.e.7.@.r.4.r.7.r.e.$.$.7.r.7.2.",
"3.3.r.` 7.w.` @.` r.3.4.4.4.a.F 1 !.1X8X3XOX.X|.' V P + j /.`.'.(.(.(.^.9 o O V <X1X!.m + > > -.j.a.4.t.j.y.3.3.4.4.3.r.3.4.3.3.",
"4.w.` @.$.$.@.$.@.` 7.e.1.j.W.s.2 m.!.1X*X.X.X'.z : G # t d h j j j p 9 + n & & H T N.1 C -.s.c.n.b.b.W.b.i.r.3.w.e.7.$.e.r.r.e.",
"#.@.@.$.$.$.$.@.@.@.` e.2.4.j.n.&.1 N.!.,X].`.'.k c b . . + @ % o o o > S / q r o + & > ^ r.h.x.n.n.n.l.e.7.` ` $.@.$.@.@.$.$.@.",
"X.X.{ G.7.e.#.] [ @.2.4.a.x.z.n.n.%., N.!.|._._.J b $ . . u A n @ o q ) $./ - r * A / 1.h.j.x.n.W.n.h.r.r.4.w.e.$.$.@.#.@.@.@.@.",
"V.O.O.V.L...P.Y...O.u.j.x.x.x.W.n.a.W 1 N.$X/.e = ; C ; . < A A o + n S F ' n 4 F ' @.h.x.x.x.n.W.b.3.4.4.3.r.` $.@.$.$.@.@.o.O.",
"v.V.I.W.n.l.n.n.c.R.l.g.3.3.4.x.n.x.g.D 2 K i c - C C ; . ; F n O * n *.;.%.;.:.R.l.Y.x.4.4.4.h.b.n.x.j.4.4.4.3.r.w.$.$.@.O.V.R.",
"n.c.n.n.n.n.W.n.n.W.n.x.x.h.3.4.a.x.j.h.E - # 1 7 ~ 5 2 2 m =.m 2 2 4 P =.=.&.&.d.n.W.b.b.x.4.3.a.j.j.h.h.4.4.4.4.4.f.k.R.I.R.W.",
"h.n.c.g.j.n.j.j.n.n.W.n.n.x.a.x.j.4.3.3.2.W > 6 Q ! Q ! *.*.=.&.! *.=.*.! *.*.! d.n.n.n.n.n.a.j.x.h.4.4.4.4.4.4.4.4.j.y.j.b.n.n.",
"4.g.a.3.4.4.4.4.b.W.b.b.n.b.b.W.n.j.j.j.g.a.-.^ W W W W W W ~ ! W W ~ Q W W ^ >.h.n.W.z.b.n.b.n.n.b.j.j.j.j.4.4.4.4.4.4.4.4.h.j.",
"4.a.4.3.4.4.4.4.a.h.a.4.a.h.h.a.4.r.7.7.7.w.2.5.,.^ ^ ^ Q W Q Q Q Q ! ^ -.,.2.2.4.h.h.4.4.h.h.h.h.4.w.` 7.7.3.w.r.4.4.4.h.4.4.4.",
"2.r.7.w.3.4.4.4.4.4.4.4.3.3.4.4.7.` ` @.@.` $.$.7.h.j.c.s.<.1.,.>.>.6.7.r.3.4.3.3.3.4.4.3.3.4.3.w.` $.` @.$.$.$.$.r.h.b.b.b.h.y.",
"` 7.e.` w.3.3.w.7.2.3.r.3.2.e.7.@.7.w.w.7.@.` 7.$.e.Y.v.n.l.l.8.` 7.e.7.7.2.3.2.7.5.4.r.3.3.2.7.$.$.w.w.e.$.$.` $.H.0.c.n.c.c.i.",
"r.2.2.w.w.4.w.$.$.$.7.$.7.r.w.r.r.t.2.4.r.7.3.r.w.r.r.h.g.r.r.r.w.w.3.r.7.r.3.` @.$.7.` ` w.w.r.w.r.4.y.3.e.r.4.r.w.r.t.h.y.r.r.",
"e.7.` @.7.w.` ` w.e.` 7.w.w.3.4.r.w.r.r.w.2.4.i.L.} } r.$.$.7.$.7.w.` $.$.w.w.` w.w.` ` 7.r.r.4.2.w.w.2.w.w.3.y.0.$.} 8.8.} 6.7.",
"@.$.` $.` $.#.e.4.4.4.4.4.4.3.7.....O...| #.x.n.c.I.O.O...I.[ $.$.@.$.$.` $.@.` 3.4.3.t.4.4.4.r.#..... ...[ i.b.v.Y.V.O.[ K.V. .",
"J.r.r.r.4.7.@.7.7.7.w.3.r.H.L.P.c.b.U.Y.R.R.n.n.l.n.I...l.n.U.c.l.e.2.r.3.r.$.` 7.7.7.r.t.e.H.K.Y.n.R.U.R.R.c.n.b.c.c...P.n.c.Y.",
"b.b.y.y.3.e.H.H.i.k.k.k.k.q.n.n.c.0.i.b.n.c.x.0.$.0.l.l.j.y.x.n.b.n.j.4.4.2.` H.0.k.i.k.l.i.x.n.n.k.0.c.n.b.b.R.H.$.k.l.l.a.h.n.",
"h.h.3.4.3.r.h.h.h.j.h.j.a.4.4.h.t.w.7.J.J.$.$.$.@.$.$.7.7.r.y.4.t.y.t.4.4.r.t.h.h.j.j.h.h.3.3.a.f.u.7.` J.H.$.$.$.$.$.` 7.w.3.4.",
"$.H.e.4.3.4.3.3.4.4.4.h.j.j.4.4.4.4.3.t.e.7.` @.$.$.#.#.$.$.7.7.$.H.7.3.4.4.4.4.4.3.4.4.j.x.4.4.4.4.4.3.r.7.7.$.$.$.@.@.@.` ` 7.",
"c.c.h.4.4.3.3.y.4.h.j.n.n.n.x.j.4.2.w.e.7.7.` e.3.e.@.$.` 7.w.w.u.n.l.3.4.4.3.4.4.h.j.x.n.b.n.j.a.4.w.w.e.7.$.7.r.2.` @.` ` e.u."
};
