/* XPM */
static char *result[] = {
/* columns rows colors chars-per-pixel */
"64 64 225 2 ",
"   c #10172B",
".  c #161C2E",
"X  c #191F2F",
"o  c #171E31",
"O  c #1A212F",
"+  c #1B2333",
"@  c #1E2736",
"#  c #20232F",
"$  c #222533",
"%  c #242A33",
"&  c #232C3B",
"*  c #2B2D3A",
"=  c #2B3535",
"-  c #293439",
";  c #34373A",
":  c #384638",
">  c #43443C",
",  c #434B3B",
"<  c #494C3B",
"1  c #46563B",
"2  c #56593E",
"3  c #4F623D",
"4  c #54643E",
"5  c #596A3E",
"6  c #60743F",
"7  c #1F3042",
"8  c #232B43",
"9  c #263548",
"0  c #3B3B42",
"q  c #293A54",
"w  c #2D3954",
"e  c #323E5D",
"r  c #413C41",
"t  c #364443",
"y  c #3E544A",
"u  c #2A4752",
"i  c #294758",
"p  c #384854",
"a  c #375557",
"s  c #374768",
"d  c #2E5768",
"f  c #2E556A",
"g  c #335668",
"h  c #395673",
"j  c #37666B",
"k  c #326373",
"l  c #376679",
"z  c #3C737A",
"x  c #494546",
"c  c #4B4B45",
"v  c #544C4B",
"b  c #485644",
"n  c #57564A",
"m  c #515752",
"M  c #665952",
"N  c #665A53",
"B  c #4F684B",
"V  c #546845",
"C  c #587756",
"Z  c #676B43",
"A  c #6A7745",
"S  c #747747",
"D  c #6C6557",
"F  c #74635A",
"G  c #786A5B",
"H  c #637750",
"J  c #7A735A",
"K  c #455574",
"L  c #556F69",
"P  c #716F67",
"I  c #82725E",
"U  c #816A60",
"Y  c #847661",
"T  c #887A64",
"R  c #967E68",
"E  c #5F8455",
"W  c #6A8447",
"Q  c #718743",
"!  c #748A44",
"~  c #7A8848",
"^  c #7C9649",
"/  c #628856",
"(  c #6E9359",
")  c #759A55",
"_  c #7EA359",
"`  c #7EAA5E",
"'  c #64896D",
"]  c #6D966F",
"[  c #6E9A6D",
"{  c #7A9F66",
"}  c #72966E",
"|  c #749A6C",
" . c #7A9A6D",
".. c #669074",
"X. c #6B9372",
"o. c #739670",
"O. c #76A663",
"+. c #79A662",
"@. c #7BA861",
"#. c #86864B",
"$. c #83884A",
"%. c #839748",
"&. c #959C4F",
"*. c #899B54",
"=. c #85A44C",
"-. c #8AA64B",
";. c #8EAB4D",
":. c #94AA4C",
">. c #96B54E",
",. c #99B74E",
"<. c #9BB84D",
"1. c #8CAE56",
"2. c #84A758",
"3. c #84AD5B",
"4. c #8AAE5A",
"5. c #90AF57",
"6. c #94AE5E",
"7. c #9AAF5F",
"8. c #8DB155",
"9. c #8BB058",
"0. c #93B452",
"q. c #9BB653",
"w. c #9EB850",
"e. c #96B05C",
"r. c #9CB15C",
"t. c #A1B84F",
"y. c #A6A855",
"u. c #A2B653",
"i. c #ACB655",
"p. c #A4B851",
"a. c #ABB954",
"s. c #A3B25C",
"d. c #ABB35C",
"f. c #B6B757",
"g. c #B3B956",
"h. c #B3B55C",
"j. c #BAB75B",
"k. c #B6B958",
"l. c #BCB95A",
"z. c #948266",
"x. c #9A846A",
"c. c #9D896A",
"v. c #829D6C",
"b. c #898672",
"n. c #908B76",
"m. c #A28A6E",
"M. c #AA926F",
"N. c #A98D72",
"B. c #A99475",
"V. c #B69A76",
"C. c #83A562",
"Z. c #83AA61",
"A. c #8CAC60",
"S. c #87A268",
"D. c #8BA169",
"F. c #94A665",
"G. c #95AA63",
"H. c #9CAA64",
"J. c #91A468",
"K. c #A4AD62",
"L. c #A9AF61",
"P. c #ACB061",
"I. c #AAA275",
"U. c #B7AB70",
"Y. c #C1BA5A",
"T. c #C3A57B",
"R. c #CAAB7E",
"E. c #C1B573",
"W. c #3C6A84",
"Q. c #3C778B",
"!. c #3D7F93",
"~. c #447388",
"^. c #3D8496",
"/. c #3D8699",
"(. c #3E889A",
"). c #498B8D",
"_. c #448B98",
"`. c #4A979B",
"'. c #529C9D",
"]. c #729992",
"[. c #51A09B",
"{. c #4B9BA0",
"}. c #53A5A4",
"|. c #54AAA6",
" X c #55ABA8",
".X c #56ADAA",
"XX c #5AB5AD",
"oX c #8F918B",
"OX c #9F9D91",
"+X c #96AC94",
"@X c #ABA586",
"#X c #B4A985",
"$X c #BEB58F",
"%X c #ACB3AC",
"&X c #B6B7B9",
"*X c #C6B288",
"=X c #C9B68A",
"-X c #D3B482",
";X c #D8BA88",
":X c #C2BDA1",
">X c #99C0A4",
",X c #A9C7A6",
"<X c #DCC591",
"1X c #D2C897",
"2X c #D9C89A",
"3X c #E2CB96",
"4X c #E2CD9A",
"5X c #E5D29D",
"6X c #D3CAAA",
"7X c #E8D9A5",
"8X c #EDDEAA",
"9X c #EDDCB8",
"0X c #EFE1AB",
"qX c #F0E1A8",
"wX c #EDE1B4",
"eX c #F1E5B7",
"rX c #F1E5BC",
"tX c #B9BCC6",
"yX c #D1D0C9",
"uX c #E6DFC1",
"iX c #ECE5C6",
"pX c #F6ECC8",
"aX c #EDE7D5",
"sX c #F4EDD8",
"dX c #F8F5E8",
/* pixels */
"A.@.d.k.k.u.u.e.9.0.,.,.<.,.<.w.,.<.<.<.<.>.,.<.<.<.<.,.1.7.r.r.6.Z.6.h.k.i.s.w.8.8.>.>.,.<.>.<.<.<.<.,.<.<.,.<.<.,.,.<.>.6.r.r.",
"+.O.+.+.@.@.Z.@.O.@.@.` 3.9.9.9.>.<.<.<.<.<.<.<.,.<.8.9.` 4.0.8.` +.O.+.@.@.@.@.O.+.@.@.3.9.9.8.0.<.<.<.<.<.<.,.,.<.0.1.3.` 8.0.",
"q.` ` 9.8.` ` +.@.@.@.9.9.8.0.>.<.<.q.q.<.0.0.0.,.,.0.0.0.,.,.<.q.8.+.3.9.3.@.@.+.` ` 4.9.9.8.,.<.<.<.,.<.,.0.0.,.,.0.0.0.>.,.,.",
"a.9.4.<.<.8.>.0.8.,.w.<.<.<.<.<.<.,.<.q.3.{ o.[ 8.C.o.| +.,.p.k.k.p.3.0.,.,.0.q.8.0.0.<.<.<.<.<.<.<.<.<.6.+.o.X.C.8.| | { 9.<.a.",
"l.j.q.,.,.,.<.a.a.g.l.k.<.,.8.@.@.0.Z.O.o.P.P.D.o.| L.h.K.A.i.l.l.l.u.>.<.<.<.p.g.a.k.l.a.,.,.Z.` 4.0.+.} J.h.H. .X.D.h.P.G.q.j.",
"Y.l.g.t.,.a.l.l.j.j.k.u.9.4.} v.o.X. .v. .h.Y.Y.L.d.l.l.Y.j.l.l.Y.l.l.a.q.<.g.l.l.l.k.g.e.Z.+. .S...X.S.o.F.l.Y.l.K.l.l.l.l.j.l.",
"d.l.l.g.a.t.<.t.<.t.q._  .D.D.l.P.J.P.Y.P.P.Y.k.l.Y.l.g.a.g.Y.k.K.l.l.l.a.a.<.t.<.<.<.0.| D.| P.j.G.H.l.j.K.l.l.l.Y.l.j.a.a.l.Y.",
"Z.j.l.l.a.p.,.<.t.g.d.J.h.j.h.a.k.Y.k.a.g.l.r.` A.i.k.,.q.w.d.A.O.s.l.l.g.a.<.<.t.a.g.H.H.l.k.a.g.j.l.g.i.h.h.A.@.r.g.a.<.q.u.r.",
"@.q.<.<.<.<.<.g.g.g.l.Y.l.g.<.<.p.l.p.9.` Z.@.O.` 8.,.<.8.` ` @.O.9.w.w.<.<.<.t.g.g.g.Y.Y.l.p.<.<.k.g.0.` ` ` O.@.3.,.w.0.3.` O.",
"` 3.8.<.<.w.p.a.t.,.p.a.t.<.<.<.<.p.8.` @.@.@.@.@.` ` 8.@.O.` 0.3.@.3.,.<.<.<.p.a.<.t.a.p.<.<.<.<.t.w.3.@.@.O.O.@.+.@.9.` O.O.0.",
",.0.0.<.<.<.,.9.0.<.<.,.<.<.<.8.9.@.@.` 8.0.@.` ` @.@.O.` ` 8.<.<.0.0.,.>.<.<.8.8.<.<.<.,.<.<.,.9.` @.@.9.0.9.@.3.@.+.O.` ` ` ,.",
"<.<.,.8.0.,.9.O.` >.<.<.<.<.<.p.w.0.9.9.<.<.8.<.<.0.3.8.<.>.8.<.,.,.,.8.^ ! ) / ( 8.<.<.<.,.,.t.p.,.9.9.,.<.0.0.<.,.8.9.0.<.8.>.",
"<.<.3.O.@.@.@.O.@.9.0.,.<.w.a.l.k.p.a.k.a.t.<.<.,.>.8.0.,.<.,.,.,.>.Q : : 9 k i : B ` >.<.<.t.l.l.a.a.g.k.a.<.<.,.,.0.8.0.<.<.<.",
"8.3.O.@.O.@.@.@.O.O.@.3.9.p.l.l.l.Y.Y.k.6.3.8.3.` @.O.O.` 9.` ` ^ 3 a j ).[.{.z u O : O.` 0.g.l.l.l.l.l.r.3.3.9.` ` O.O.` 9.` ` ",
"] X.@.9.3.3.+.| O.O.9.0.<.p.a.l.l.l.w.9.0.8.9.` @.O.O.O.O.O.O./ a ).}.|.{.|.}.{.^.d & 1 ;.<.t.g.Y.l.a.q.8.0.8.3.@.@.O.@.O.O.@.O.",
"....[ | | C.S.+.[ [ 0.t.g.l.l.l.l.a.<.<.<.8.` ` O.@.O.@.O.[ E a ^.XX|.}..XXXXX|.^.^.d @ 6 g.l.l.Y.k.w.<.<.>.9.` @.O.@.@.O.O.[ [ ",
"K.o. .K.K.D.h.l.H.v.7.g.p.p.a.l.l.p.p.t.<.<.,.9.3.` O.O.O.' p z .X|.`.}.XX[.).!.^./.W.w , :.p.g.Y.k.w.p.<.<.<.9.3.` @.@.O.[ X.S.",
"l.H.h.l.l.l.l.l.Y.Y.j.p.p.w.<.w.g.l.g.a.<.<.,.,.,.8.4.A.{ ' i {.'.l }. Xl 7 @ o 9 W.Q.s : :.,.<.a.k.k.a.p.<.<.<.<.0.3.6.Z. .H.j.",
"k.l.l.k.k.l.l.l.l.l.l.l.l.a.w.p.<.p.<.<.<.<.<.<.<.a.a.g.h.S g }.a )..Xj O + w e i W.Q.h > y.<.t.t.p.p.,.<.<.<.<.<.t.a.p.k.h.j.Y.",
"<.g.a.p.w.a.p.w.l.l.l.l.l.k.a.l.k.a.p.p.p.t.<.,.<.<.<.,.:.5 g L u }.k o o 9 K K K Q.~.w 2 f.a.g.l.g.p.p.p.p.w.<.<.<.t.<.w.u.g.l.",
"<.p.<.<.,.<.<.<.a.k.a.p.g.g.g.k.a.p.q.w.q.w.<.,.,.,.,.,.>.V s ~.f Q.q @ 1 - e s h h w ; ~ g.g.g.g.p.w.q.r.w.<.<.,.,.w.w.w.w.w.t.",
"<.,.0.,.,.,.<.,.<.,.<.<.,.<.,.>.0.3.O.O.O.3.9.3.0.<.p.a.a.%.- h 9 l 7 1 %.6 = % $ 8 ; W >.,.,.<.<.8.` O.O.O.9.3.3.,.w.p.g.p.w.<.",
"8.9.` ` 0.<.<.,.0.<.<.w.p.w.,.9.@.@.` ` @.@.O.O.C.r.h.l.y.6 = i i i 9 % V 6 W 4 3 W -.,.,.<.,.0.` O.` ` ` @.O.O.O.q.u.l.l.l.g.u.",
"` 8.0.9.9.,.,.` @.9.8.6.E.P.9.Z.` 0.<.<.9.@.9.9.3.3.4.&.n F oXr   O q & F D : W ` ` 0.1.8.>.8.3.` 9.<.,.,.` ` 0.3.` 9.r.k.s.e.9.",
"0.0.8.` 8.,.9.O.` ` O.@.I.;XU.w.<.w.,.,.,.0.,.q.9.4.=.1 % oXiXtX&X&XtX&X6XOX* * / 2.+.+.` 9.0.>.,.<.<.w.<.0.w.<.8.8.4.q.q.4.0.0.",
"` @.@.O.O.3.O.3.<.0.8.=.m yX2XP.+.O.@.4.{ 4.p.i.H.| C 0 R #X4X9X9XuXpXpX@Xx M * : ;.8.8.0.,.,.,.4. .+.4.+.@.,.a.L.S.X.+.+.}  .+.",
"@.3.9.3.8.@.@.8.0.0.>.-.< :XdX*XD F.v.v.J.S.j.l.l.h.m Y 3XpXdXdXaXrXwX8X4X-XR v $ ! >.,.,.,.8.C.D.H.J.o.F.v.K.l.l.l.K.X. .h.K.v.",
"h.p.<.,.<.9.O.O.Z.A.Z.=.< &XdXyXJ y.h.j.l.Y.Y.d.4.*.n =XqX%XyXsXrXrXeX0X3XR.N.F $ B 2.5.q.J.H.P.l.j.h.j.Y.j.Y.l.r.e.l.H.K.a.g.j.",
"g.g.w.,.,.9.q.r.g.k.f.y.< $X9XdX6XI.Z.r.P.6.9.Z.+.b D 8X;Xc oXaX8XqX8X3X;X-XN.Y ; 2 i.f.a.p.p.a.i.6.` 4.d.r.6.9.+.+.4.6.q.q.,.a.",
"3.9.0.<.,.,.<.<.,.,.<.;.b I.<XiXaXD W 9.3.@.O.` +.t P 9Xn.$ OXdX9X8X5X;X-X-X*XU r = %.t.t.t.>.,.q.,.0.8.9.` O.O.+.O.O.O.+.3.3.>.",
"6.r.e.,.<.<.<.<.<.<.p.a.#.n =X;XiXn.: 8.9.` @.` 2.b :X4XM X OXaX9X3X-X-X-X-XT.R M % ~ i.l.f.&.^ >.<.q.,.8.3.` @.9.9.` O.O.+.` ` ",
"l.l.g.w.,.<.<.<.<.a.g.j.:.< R -X4X6Xb W 9.9.9.0.! = n.m.* X oXiXqX3X-X-X-X-X-XR M # 6 f.i.~ < ; 6 ,.8.9.8.8.8.8.<.>.4.+.4.0.<.a.",
"s.r.k.g.g.t.t.q.0.>.t.<.<.6 b R.;X7Xn.: :.,.,.>.6 % $ X . . 8 N N v v D V.T.N.N ; . 6 :.A n J 0 2 >.,.,.<.<.<.<.<.<.,.>.,.u.h.h.",
"+.O.A.e.r.e.e.3.` 9.9.8.,.-.: I R.b.$Xb Q ,.,.>.: v oX; . o o + $ v T *X-X-XN.U $ @ V 1 n M.c + 4 ,.,.<.<.<.<.<.<.<.,.q.8.@.3.8.",
"9.@.O.` ` O.O.O.O.O.O.` ` ` A x E.D @Xn.1 -.,.>.: B.9Xx.o 8 %X:X:X4X3X;X*XV.N.F o O * m M.v u i 3 >.,.<.>.,.<.<.<.<.,.8.8.8.q.<.",
"p.3.3.>.0.3.9.4.` 8.9.,.>.>.-., I m.J 1Xc H ) ( : #XpX6Xx x aXiXqX3X-X-XT.R G ; $ r G z.L k !.d 4 >.<.<.q.9.*.+.8.<.3.+.@.<.<.w.",
"l.r.8.,.<.,.<.<.,.p.a.a.<.<.>.A c V.F B.Y b m t + J wX8XY r aX0X5X;X-X;XR N v N T N.N.T !./.!.k 3 >.,.>.v.| J. . .{ | J.D.C.w.k.",
"l.l.u.w.<.p.g.k.l.l.Y.g.q.<.{ ' t c.x.: M.> d `.u ; 1XqX6X&X9X0X5X-X;XV.* T #XF n n x.@X_.(./.k y [ {  .X.H.Y.h.H.+.P.Y.l.d.i.l.",
"l.Y.l.a.<.t.a.a.a.g.p.0.| {  .s.H v m.r Y G i i L 9 D <XrXsXpX9X5XM.N ; o Y N v m.E.1X$X'._./.k n }  .y.F.J.l.l.j.j.l.l.l.l.l.l.",
"e.l.l.l.g.t.<.,.,.p.r.+.F.K.H.j.&.= M F 0 J 7 k |.i 9 P 4XrX7X=XG $   o o Y m c.;X;X5X6X}._./.k 5 h.f.j.Y.l.l.d.K.h.l.g.t.p.h.h.",
"@.a.a.a.p.<.<.t.g.l.h.h.l.l.p.;.n % 0 v $ 9 k ^.l q s 8 m R r 8 . @ 9 e $ U n M.;X3X3X>X`./._.L 5 f.k.p.8.r.e.@.O.3.p.w.<.8.9.Z.",
"@.3.>.<.,.<.a.g.a.w.g.l.a.p.>.5 i s @ $ e h k q o w ~.h 8 o o 8 e s W.W.$ U G V.;X<X<X+X).].@XT 4 p.a.8.@.@.O.O.O.3.9.,.8.@.@.` ",
"8.9.8.,.<.<.t.<.,.,.<.<.<.,.>.A & & & s s 9 x D x $ h Q.s w e s W.Q.!.h $ U R T.<XR.*X+X,X<XR.R V =.9.@.` 9.@.@.@.O.O.@.@.O.` >.",
"<.,.q.,.,.<.8.3.9.,.<.<.<.<.,.>.1 9 e 8 + v T.#XF . & l Q.W.W.W.!.!.!.W.$ I R V.R.@X].%XqX3XR.D 4 2.3.O.8.w.8.3.,.9.@.@.9.0.3.0.",
",.,.0.` 9.8.` +.+.,.>.<.<.,.<.f.%.: : + M R.-XR.N + X 7 l !.^.(.(.!.Q.h o U n o.].[.|.>X5X;XR.> S <.<.u.p.w.,.,.<.<.,.0.,.,.0.,.",
"<.0.+.O.O.O.@.O.O.` 3.8.1.a.l.l.j.y.&.Z r x.x.F % - b @ 8 f h g h h s i + F r l (.`.`.@X;X-XI > y.l.j.Y.k.r.0.q.8.9.3.@.9.0.0.8.",
"+.O.O.O.@.@.O.O.O.+.2.3.>.t.a.l.Y.j.i.*.: % $ + q - E C : . o + @ @ @ . o v r l (.^.).*XR.c.> ~ l.l.j.i.9.9.` ` O.@.O.@.O.@.@.O.",
"....{ 3.C.8.+.[ [ O.0.<.p.f.f.l.Y.f.<.8.0.! V * q & / O.( - X @ a m t O o $ v K ^.^.].-Xm., $.f.l.l.p.8.0.<.8.9.` O.O.@.O.O.O.O.",
" .X.X.v.S.| G.P. .X.6.a.g.g.j.l.l.p.<.<.<.,._ V b B / / E y + O B L : O 0 b * ; u Q.oXm.> ~ a.l.Y.g.,.<.<.,.8.3.O.O.@.+.@.O...X.",
"j.v.H.Y.l.d.l.l.h.L.h.u.,.,.<.g.l.g.a.p.<.,.<.0.^ / E E C y % o 2 S - O ; S Z ; x i L > A ,.,.a.j.l.a.g.<.<.<.<.0.8.@.@.O.X.v.P.",
"j.h.j.Y.l.Y.l.l.Y.l.l.k.g.p.,.<.p.g.p.p.w.<.<.;.Q Q Q ~ J 1 < < n #.2 < , n #.S x $ = ~ g.a.<.<.<.g.a.p.p.<.<.<.<.<.a.u.P.H.P.Y.",
"u.k.l.i.a.l.a.a.l.Y.Y.l.Y.g.<.g.a.<.<.q.<.<.<.;.! ~ Q ! $.$.#.$.~ $.$.$.~ $.$.! 6 > #.j.Y.l.<.a.g.t.<.<.<.<.<.<.<.<.p.w.a.k.l.j.",
"<.a.t.,.<.<.,.<.j.l.l.g.l.l.k.l.l.a.a.a.a.p.,.,.-.~ Q Q Q Q $.~ Q ! ~ Q Q Q Q Q $.y.h.f.l.l.g.l.l.g.a.a.a.a.w.<.<.<.<.<.q.,.p.a.",
",.p.<.,.<.<.<.<.t.p.t.<.t.t.p.t.<.0.9.3.3.0.0.0.,.>.-.%.%.! Q ! ! ! ! ! ! ^ %.;.<.p.t.<.<.p.p.p.p.<.8.3.3.3.0.0.0.<.<.<.p.<.<.<.",
"0.0.3.9.,.<.<.<.<.,.<.<.,.<.<.,.3.@.@.+.O.+.+.+.2.p.a.k.j.q.:.=.=.-.^ _ ;.,.,.,.,.,.<.<.<.<.,.q.0.3.O.@.O.@.@.O.@.q.u.k.l.g.p.p.",
"3.3.9.` 8.,.<.8.9.,.<.0.,.0.8.3.O.9.8.8.3.+.` 3.@.A.s.l.l.d.d.A.` ` 9.3.3.,.<.,.2.1.<.>.>.<.0.3.+.+.8.8.9.O.@.3.@.Z.e.h.l.h.d.e.",
"0.,.0.8.8.<.8.@.O.@.3.` 3.8.0.8.0.q.,.q.0.3.0.>.8.0.0.u.u.0.0.0.0.0.>.0.9.0.,.` O.@.` ` @.0.8.0.8.0.,.q.,.9.9.,.0.8.0.0.p.q.0.0.",
"9.3.` O.` 0.` @.9.9.` ` 8.0.,.<.0.9.0.0.8.,.q.q.C.{ +.0.Z.+.3.` ` 9.3.@.O.8.8.@.9.8.3.` 9.8.0.,.,.8.8.q.8.0.<.t.6.@.{ 4.5.{ 2.3.",
"O.@.@.` ` @.@.9.<.<.,.<.<.<.>.3. . .[ | o.+.k.l.h.H.X.X. .H.[ @.@.O.@.@.` @.O.` <.<.<.,.,.<.<.0.+. . .| O.o.r.k.j.L.v.X.[ J.v.| ",
"e.8.0.0.>.9.O.3.9.3.8.0.q.C.C.G.h.j.K.L.h.K.l.j.h.j.H. .P.l.P.P.a.A.,.8.,.0.@.` 3.3.3.0.,.9.Z.D.L.l.P.H.h.K.h.l.h.k.h. .J.l.h.K.",
"l.g.p.,.,.9.Z.Z.r.r.s.d.s.K.k.l.k.e.r.j.j.k.k.e.+.G.h.L.a.,.g.l.k.l.a.<.,.>.` 3.6.r.s.s.d.K.i.l.l.K.e.P.l.k.h.P.3.@.d.d.d.t.a.l.",
"w.w.,.w.>.0.w.p.a.a.p.p.<.<.<.p.,.8.3.Z.A.@.@.@.O.+.+.3.9.0.,.<.<.w.w.<.<.0.<.p.p.a.p.a.w.<.w.t.u.0.9.3.6.` @.@.@.O.@.` 3.8.>.,.",
"@.Z.9.<.<.<.<.,.,.,.<.t.a.a.<.<.<.<.,.w.9.3.@.O.@.@.+.O.@.@.3.3.@.Z.` ,.<.<.w.,.<.<.<.<.a.a.t.<.<.<.,.,.0.3.3.@.@.@.O.O.+.+.` 9.",
"h.k.w.<.<.<.<.<.<.a.g.l.l.j.g.a.<.0.9.8.3.` ` 8.,.8.O.@.@.9.9.9.r.j.d.w.<.<.,.,.,.p.a.g.l.l.g.a.p.<.8.9.9.3.` ` 0.q.` O.` ` 9.8."
};
