/* XPM */
static char *result[] = {
/* columns rows colors chars-per-pixel */
"64 64 230 2 ",
"   c #151B2D",
".  c #181E2F",
"X  c #171E31",
"o  c #1A212E",
"O  c #1C2333",
"+  c #1C243B",
"@  c #1A2839",
"#  c #252936",
"$  c #232C34",
"%  c #2A2D35",
"&  c #222B3C",
"*  c #302F3A",
"=  c #2A3538",
"-  c #333B37",
";  c #34343B",
":  c #3B3A3E",
">  c #2F413E",
",  c #374539",
"<  c #3D453B",
"1  c #3C4B3C",
"2  c #43453C",
"3  c #444B3B",
"4  c #44533B",
"5  c #4A573B",
"6  c #505E3B",
"7  c #4E603B",
"8  c #58693E",
"9  c #5E723F",
"0  c #62753E",
"q  c #1A2E41",
"w  c #222B43",
"e  c #27374A",
"r  c #3A3A43",
"t  c #2D3955",
"y  c #303D5C",
"u  c #423E42",
"i  c #394946",
"p  c #314B4C",
"a  c #284858",
"s  c #2E505A",
"d  c #2E4A62",
"f  c #384568",
"g  c #2C5768",
"h  c #345C68",
"j  c #3D4B71",
"k  c #3B5473",
"l  c #3D5D7B",
"z  c #376A78",
"x  c #444343",
"c  c #4A4849",
"v  c #544D4A",
"b  c #465D4A",
"n  c #58544B",
"m  c #4F5253",
"M  c #62594F",
"N  c #665A53",
"B  c #4C6648",
"V  c #536D47",
"C  c #597347",
"Z  c #496453",
"A  c #576759",
"S  c #577758",
"D  c #667844",
"F  c #6B7D42",
"G  c #757A46",
"H  c #686458",
"J  c #76675A",
"K  c #677254",
"L  c #777B55",
"P  c #40587A",
"I  c #517370",
"U  c #666A67",
"Y  c #75746C",
"T  c #847759",
"R  c #816C60",
"E  c #8C7A65",
"W  c #947D67",
"Q  c #5E8254",
"!  c #6E8343",
"~  c #6A864A",
"^  c #728544",
"/  c #728944",
"(  c #788848",
")  c #7C9446",
"_  c #7B994C",
"`  c #668955",
"'  c #7C8A5A",
"]  c #6C9458",
"[  c #759A56",
"{  c #7AA45D",
"}  c #7EAA5E",
"|  c #6D966F",
" . c #6E9A6D",
".. c #779C64",
"X. c #799E66",
"o. c #73976E",
"O. c #749A6C",
"+. c #7B9A6D",
"@. c #658E74",
"#. c #7F847D",
"$. c #669074",
"%. c #6B9372",
"&. c #739670",
"*. c #76A663",
"=. c #79A662",
"-. c #7BA861",
";. c #83884A",
":. c #869D4A",
">. c #94964E",
",. c #939C52",
"<. c #8DA74B",
"1. c #96A84D",
"2. c #96B54E",
"3. c #99B74E",
"4. c #9BB84D",
"5. c #8BAE55",
"6. c #84A75A",
"7. c #84AD5B",
"8. c #8AAE5A",
"9. c #95AB54",
"0. c #93AE5E",
"q. c #9AAF5E",
"w. c #8DB155",
"e. c #8BB058",
"r. c #93B452",
"t. c #9BB553",
"y. c #9AB456",
"u. c #9CB15C",
"i. c #A1B84F",
"p. c #A6AB59",
"a. c #B1AE58",
"s. c #A3B653",
"d. c #ABB655",
"f. c #A4B851",
"g. c #ABB953",
"h. c #A4B25C",
"j. c #ABB35D",
"k. c #B5B757",
"l. c #B3B956",
"z. c #B3B55C",
"x. c #BAB75B",
"c. c #B6B858",
"v. c #BCB95A",
"b. c #98866B",
"n. c #8E9C62",
"m. c #839D6C",
"M. c #958C76",
"N. c #9D9C7D",
"B. c #A38B6D",
"V. c #A8926E",
"C. c #AA8F71",
"Z. c #AE9472",
"A. c #A69877",
"S. c #B69A77",
"D. c #83A462",
"F. c #84AA61",
"G. c #8BAC60",
"H. c #8BA169",
"J. c #89A268",
"K. c #94A665",
"L. c #96A964",
"P. c #9CAA64",
"I. c #91A468",
"U. c #A4AD62",
"Y. c #A9AF61",
"T. c #ABB060",
"R. c #A8B166",
"E. c #BBA479",
"W. c #BFB374",
"Q. c #C1BA5A",
"!. c #C4A67B",
"~. c #CAAC7E",
"^. c #CAB371",
"/. c #3D6984",
"(. c #387586",
"). c #3E738B",
"_. c #3D7E92",
"`. c #417887",
"'. c #3D8395",
"]. c #3E8698",
"[. c #3E8899",
"{. c #498689",
"}. c #468B96",
"|. c #428C9A",
" X c #4A959B",
".X c #549A99",
"XX c #6D9793",
"oX c #52A29E",
"OX c #4B9CA1",
"+X c #52A5A3",
"@X c #55AAA6",
"#X c #51A9A8",
"$X c #59B2AB",
"%X c #67A8A2",
"&X c #98968F",
"*X c #9A9F8A",
"=X c #A9A688",
"-X c #AEAD90",
";X c #979AA1",
":X c #89B7A3",
">X c #B6B4AA",
",X c #CCB183",
"<X c #CCB288",
"1X c #CCB689",
"2X c #D4B482",
"3X c #D6B986",
"4X c #D8BC89",
"5X c #C6BBAA",
"6X c #AFC8A4",
"7X c #DBC18D",
"8X c #CBC092",
"9X c #DCC795",
"0X c #E0C58F",
"qX c #E2CB97",
"wX c #E5D19C",
"eX c #D9CCA8",
"rX c #D7D6B2",
"tX c #E9DAA6",
"yX c #E5DABB",
"uX c #E8E0A7",
"iX c #EDE0AB",
"pX c #F1E2AB",
"aX c #EDE1B9",
"sX c #F2E6B6",
"dX c #D3D1C6",
"fX c #E8DBC3",
"gX c #F3EAC6",
"hX c #F0EAD3",
"jX c #F3EDD7",
"kX c #F1F0E7",
/* pixels */
"G.-.h.c.z.s.s.y.7.r.4.4.4.4.4.4.4.4.4.3.4.3.4.4.4.4.4.4.w.q.q.u.0.D.0.z.z.d.f.h.e.w.3.2.3.4.3.4.4.4.4.4.3.4.3.4.4.4.3.4.r.0.u.u.",
"-.*.-.-.-.-.F.-.-.-.-.-.7.7.e.e.3.4.4.4.4.4.4.4.4.4.w.7.} 7.2.w.} -.*.-.-.-.-.-.-.*.} -.7.7.e.w.w.4.4.4.4.3.4.4.3.4.2.w.7.} w.r.",
"3.} F.8.e.} } -.-.} } e.e.w.r.4.4.4.4.4.3.2.r.r.4.4.r.r.t.3.3.4.t.w.-.7.e.7.-.-.*.} } 7.e.w.w.3.4.4.4.4.4.3.r.y.t.4.r.r.r.3.4.4.",
"l.8.8.4.4.w.2.r.w.r.4.4.4.4.4.4.4.4.4.4.7.O.o.o.w.=.o.O.=.t.4.l.l.f.F.r.4.4.r.r.e.2.t.4.4.4.4.4.4.4.4.4.r.X.o.%.=.w.O.o.O.5.4.g.",
"v.c.y.3.4.4.i.g.g.l.v.c.4.4.w.D.D.r.7.O.O.R.R.H.o.o.Y.z.U.G.l.v.Q.v.h.r.4.4.4.f.g.l.c.v.g.3.r.G.} 8.w.D.o.I.z.P.+.&.H.z.j.L.y.v.",
"v.v.l.f.4.f.x.v.v.v.k.s.8.8.o.m.&.%.&.m.+.z.Q.Q.Y.z.Q.x.Q.x.v.Q.Q.v.v.g.4.4.l.v.v.v.c.l.0.8.=.+.=.$.%.m.+.K.x.Q.x.U.x.Q.v.v.c.v.",
"j.v.v.l.g.f.4.4.4.i.t.} +.J.J.v.j.I.R.v.R.z.Q.c.v.Q.x.l.g.c.Q.x.h.c.Q.v.g.f.4.f.4.4.i.r.O.J.O.T.x.P.P.v.z.U.x.x.x.v.Q.c.g.l.Q.Q.",
"G.c.v.x.g.f.4.4.i.l.j.K.T.x.z.g.v.v.v.d.l.v.u.} G.d.l.4.t.t.h.8.-.h.v.v.l.g.4.4.4.g.k.P.P.v.z.g.c.v.v.l.g.c.z.G.-.u.l.f.3.4.s.q.",
"-.y.4.4.4.4.4.g.l.l.v.Q.v.l.4.4.f.v.f.w.-.F.-.-.-.r.4.4.w.} { } *.8.4.f.4.4.4.i.c.l.l.Q.Q.c.f.4.4.c.l.4.} } -.*.=.7.4.4.3.7.} *.",
"} 7.w.4.4.4.g.g.i.3.f.g.i.4.4.4.3.f.w.} -.-.-.-.-.} } } -.*.} r.7.-.7.r.4.4.4.g.g.4.i.g.g.4.4.4.4.4.t.7.-.-.*.-.-.-.} 7.} *.-.w.",
"r.4.r.4.4.4.4.w.r.4.4.3.4.4.4.w.e.} -.} w.w.} } } -.*.` C V 9 9 0 ~ w.3.4.4.4.r.w.4.4.4.4.4.4.r.e.7.-.*.e.r.e.-.7.-.-.-.} 7.} 4.",
"4.4.3.w.r.4.7.*.} 2.4.4.4.4.4.f.4.r.e.w.4.4.w.4.4._ B @ = e s s p = 4 ) w.3.w.} { w.4.4.4.4.4.i.f.3.w.e.3.4.r.r.4.t.e.7.w.4.w.r.",
"4.3.7.-.} } -.-.-.e.r.4.4.4.l.v.l.f.g.c.g.4.4.2._ , @ z  X X X[.'.(.a $ ] { -.-.*.} w.r.4.4.f.l.v.g.g.l.c.g.4.4.4.4.w.e.4.4.4.2.",
"w.7.*.-.*.*.*.-.-.*.-.7.e.s.c.v.Q.Q.Q.z.w.w.} [ 1 @ z  X#X#X+XOX|.].'.e i ] *.*.*.-.*.} 7.y.l.v.v.v.Q.v.u.7.7.e.} } -.*.-.e.7.} ",
"%.| -.7.8.7.=.O.*.*.e.r.4.f.g.v.Q.c.t.w.r.r.w.] > z @X$X+X X$X$X+X'.'.l = C 7. .*.*.} r.3.4.g.l.Q.Q.g.0.w.r.e.7.} *.-.*.-.*.-.*.",
"$.$. .O.O.G.+.=.%. .r.i.l.v.v.v.Q.g.4.4.4.w.} ~ s oX$X$XOX#X$X$X{.q z (.e i =.D.O.%.F.4.g.l.v.v.v.c.i.4.2.2.e.} -.-.*.-.*.*. . .",
"U.o.+.U.U.H.T.Q.P.J.P.l.f.i.g.x.v.f.f.i.4.4.r.~ p oX$X@X[.$X$X$Xa   d `.t - n.v.z.J.J.d.g.f.f.l.Q.l.t.f.4.4.4.w.} } -.*.*. .%.H.",
"v.P.z.v.v.v.v.Q.v.v.x.f.f.4.4.f.l.v.l.g.4.4.4.) o z $X@Xz @X$X@Xe t /./.f 2 a.v.v.v.v.l.f.f.4.4.f.v.c.l.f.4.4.4.4.4.G.0.F.O.P.v.",
"l.Q.v.c.x.v.v.x.v.v.v.v.v.g.4.f.4.i.4.4.4.4.4.<.- p @XoXs oX$XoXe f `.P e 2 a.k.v.v.v.v.v.x.i.4.i.i.i.4.i.4.4.4.4.4.l.f.v.z.v.Q.",
"4.l.g.f.4.g.4.f.v.Q.v.v.Q.l.g.v.c.g.g.i.f.i.3.2.0 p }..Xa  X$XoXe y P f # 0 f.4.l.Q.Q.v.Q.v.g.l.Q.l.f.f.f.f.4.4.4.4.4.4.t.f.l.c.",
"4.f.4.4.4.4.4.4.g.l.g.f.l.l.l.l.g.i.t.y.y.4.4.4.<.1 h oXs `.$X_.q + e w , <.2.4.s.l.l.f.f.l.l.l.l.f.i.y.y.y.4.4.4.4.4.4.4.4.i.i.",
"4.4.r.4.4.4.4.4.4.4.4.4.3.4.4.4.r.7.-.*.*.7.8.7.<.8 = '.P z  Xh   X = - ) 4.2.4.4.4.4.4.4.4.4.4.3.w.} *.*.} w.} 7.4.i.i.l.f.4.4.",
"w.7.} } 3.4.4.r.r.4.4.4.4.4.r.w.-.-.} 7.} *.*.*.b $ % i P g t z x % 1 ] w.4.4.4.r.2.4.4.4.4.4.r.7.-.} } } -.-.-.-.0.j.v.Q.v.l.h.",
"} w.4.7.7.4.r.7.*.e.r.7.r.r.8.7.} r.3.3.e.} e.C % c b.5X;XU Y =X1Xc o V { w.4.e.*.} r.e.e.2.e.7.} 7.3.4.r.} } w.7.} 7.y.l.h.u.e.",
"3.r.e.} w.3.7.*.} } *.-.7.5.r.4.4.4.4.4.4.r.:.= ; * v 5XhXkXkXkXrXU N * K 2.r.=.-.7.*.*.-.e.r.3.3.4.i.4.4.r.4.4.r.e.8.r.t.5.r.r.",
"} -.-.-.-.} -.7.4.2.w.w.3.3.4.r.=.X.D.6.X.w.8 ; b.Z.J E =XeXeXyXqX,XW r - { } =.r.t.w.r.r.4.3.4.6.X.X.6.=.=.t.g.h.J.&.*.=.o.+.*.",
"-.7.7.7.w.} *.w.r.r.4.4.4.r.6.D.I.P.m.m.n.' u N S.2X7XsXgXM.>XsX4X,XC.J = ] =.7.r.r.r.4.4.r.w.D.J.P.I.&.K.m.h.v.v.Q.q.%.o.z.U.m.",
"z.f.4.4.4.e.*.-.7.F.7.y.q.H.U.k.Q.c.z.v.v.T * R S.2XqXjXdX- ;XjXtX4X3XZ.: 4 { *.-.G.8.8.y.I.P.j.Q.v.z.x.Q.Q.Q.^.W.R.v.P.U.l.l.v.",
"l.l.f.4.4.7.y.u.l.c.c.c.d.s.g.l.u.7.F.u.h.4 c Z.2X3XwXsXeX; &XsXtX0X4X~.N - :.q.s.c.c.c.l.f.g.g.j.0.} 8.p.R.^.8X1XF.G.0.y.3.4.g.",
"e.7.r.4.4.4.4.4.4.4.4.t.4.4.4.4.t.4.w.5.] @ M E.2X0XaXfX;X+ Y fXsXwX0X4XW ; D 3.4.4.3.4.4.4.4.4.4.4.t.6.' 5XfX>XK *.-.{ =.7.5.r.",
"0.u.y.4.4.4.4.4.4.4.f.1.T >.i.4.4.4.r.2.V # J C.~.9XyXkXU   r dXyXwX2X~.W ; 4 <.3.4.4.g.c.v.g.i.4.4.h.E.-XkXkX#.C 8.*.*.*.=.-.} ",
"v.v.l.r.4.4.4.4.4.f.z.5 - 3 >.v.t.2.w.5.8 % W ~.J u m m +   X r v c v !.E % 4 <.4.i.l.v.l.g.c.v.i.! b.aXkXhXrXn :.4.8.} 8.r.t.g.",
"u.u.c.l.l.i.f.4.2.4.2., x T n ^ 1.4.4.4.9 # W 2XC.m X           O c b.Z.W c 3 1.2.3.4.i.4.4.t.s.;.1 >XgXyX0XZ.6 r.3.3.3.3.s.z.z.",
"-.-.G.0.u.0.u.7.} e._ > . M Z.c 7 :.1.4.9 # E ~.0XtX=XU O     m &XfXtX!.W u 3 6.} } 7.e.r.4.2./ 1 A.uX7X3X=XH 0 3.3.3.3.e.} 7.w.",
"e.-.*.} *.*.*.*.*.*.*.= g a N V.n - 9 <.D   v Z.4XiXgXrXr   & >XhXsX9X2XB.c 1 ] { { *.*.} } Q , N.uX7X2XZ.x D 2.3.3.3.w.e.w.3.4.",
"f.7.7.2.4.7.e.7.} e.6., /._.z U W J 3 < 3 # H S.4XwXtXgXY X c yXaXtX7X3XC.i B 8.{ { [ e.2./ 1 N.=XS.2XZ.u C [ =.r.3.7.X.D.4.4.4.",
"v.u.e.4.4.3.3.4.4.f.s.1 (.'.'.`.b.V.b.b.H c c b.4XwXtXsX>Xw E aXpXtX4X~.E % / 4.! i = ^ ) 3 A.-XJ ~.Z.2 B o.n.+.&.*.O.K.J.D.4.c.",
"v.v.g.4.4.f.g.x.v.v.a., (.[.[..X!.E v H Y 1XH ; !.wXtXsXjX&XdXjXpXqX~.T : 3 s.G p g z = < b.-XN E.A.u Z @.P.Q.x.P.m.T.Q.v.j.j.v.",
"v.v.v.g.4.f.g.g.g.g.s., /.[. X%X7X7X~.B.x b.N   v <XiXsXjXjXsXtXpX3XJ o 3 :.f.b {.s a = E E x Z.Z.: A p.K.I.v.v.v.x.v.v.x.x.v.Q.",
"q.v.v.v.l.f.3.4.4.f.9.- (.].|.%XrXwX4X~.J b.N   + v =XtXiXiXiXtXA.J # o 0 d.1.b  Xh . J E ; R C.3 G a.k.v.v.v.j.U.z.v.l.4.f.c.c.",
"-.g.g.g.4.4.4.f.l.c.z.2 I |.|.OX6X9X7X3XE E M O f w # N -XsXeXY o + y X 0 3.<.- g (.a ; * J E 2 C c.c.t.0.y.0.*.*.7.i.i.4.w.e.F.",
"-.7.3.4.4.4.f.c.g.4.p.3 A.=XXXOX-X7X7X4XZ.B.N @ l j t X ; Y c X e j P w 9 <.1 : c h /.w r J % 2 3.g.g.r.} *.-.*.-.7.w.r.w.-.*.7.",
"e.7.w.3.4.4.f.4.3.3.2.1 Z.3X9X6X-X3X3X^.S.S.N q _.).P f w . & y l _./.= ) / # J W m d f w & e - :.5.e.-.} 7.-.-.-.*.*.-.-.} } 3.",
"4.4.4.4.3.4.r.F.5.4.<., T 4X7XtX%XXXW.-Xb.S.M q _.].'.).k y f /._.'.l = ;.6 ; B.~.B.# y f + d p C e.7.*.r.4.r.7.r.e.} -.7.w.7.r.",
"4.4.r.} 7.w.-.-.-.r.2.8 v 2X3XqX:XOXOXXXU W M @ ).'.].]._.).`._._.l t = ` 1 # E 2X2Xn X t t O - ;.i.4.s.f.4.4.3.4.4.r.r.4.4.r.4.",
"4.r.-.*.-.*.-.*.=.} 7._ , b.3X2X*XOX|.].g N n + k /.).).).).).).k w O B B & w ; J b.c . O & ; >.v.c.c.Q.z.u.y.3.w.w.7.} e.r.w.w.",
"=.*.=.-.-.-.*.*.*.*.} 5.C < V.2X-X|.'.'.h N r   @ & & q w w + + O X i { i @ e @ $ = & V ( V ;.l.v.v.c.j.e.7.} } -.-.-.*.*.*.} -.",
"@.@.X.=.7.w.=.|  .*.r.4.i.G : b.,XXX'./.m u = .   $ i 1 i 1 i i X O Z } ] 4 4 S S Q [ 2.4.g.l.c.Q.v.f.2.2.4.e.e.-.-.*.*.-.*.*.*.",
"+.%.%.m.J.O.L.Y.+.%.0.g.g.d.G 2 B.XXz e * < D = o > Q Q Q S I S = . i o.m.+.m.p.P.%.*.f.l.g.l.v.Q.l.4.4.4.4.w.7.*.-.-.-.=.*.$.%.",
"x.m.K.Q.v.j.v.v.z.Y.z.g.4.3.3.G 2 h i c - 0 ^ 7 o O B Q S A L D $ $ m p.v.z.z.v.x.T.Y.z.f.4.4.g.c.v.g.l.4.4.4.4.r.e.-.-.*.%.m.R.",
"Q.z.Q.x.Q.Q.v.v.Q.Q.v.j.l.i.2.1.F $ % 3 0 / 8 - % - D ( G ( T 2 O O 3 ;.a.Q.Q.Q.x.Q.Q.l.l.g.4.4.i.g.g.f.f.4.4.4.4.4.h.s.Y.P.z.Q.",
"f.c.x.j.g.c.g.g.x.Q.v.Q.Q.l.i.g.s.0 1 ! ) / ^ 0 ! ^ ^ / ;.;.;.D 6 < 2 G 1.k.k.i.x.x.v.v.Q.v.4.g.l.f.4.4.4.4.4.4.4.4.g.4.g.k.v.x.",
"4.g.i.4.4.4.4.4.c.v.x.l.v.c.c.Q.x.g.1.;.( ( / / / ^ / / / / ;.( ^ ^ ^ ) 2.3.4.4.g.Q.v.c.x.v.l.v.v.l.g.g.g.g.4.4.4.4.4.4.4.3.f.l.",
"4.i.4.4.4.4.4.4.i.i.i.4.i.f.f.f.4.r.7.[ ] ~ / ~ ! ^ ^ ( ^ / / / / ) :.2.3.4.3.3.4.i.i.4.4.f.f.f.f.4.e.7.7.7.r.r.r.3.4.4.f.4.4.4.",
"2.r.7.e.4.4.3.4.4.4.4.4.4.4.3.2.7.} -.-.{ { [ ..[ :.>.,.>.:.,.<.<.2.r.6.r.4.4.4.4.3.4.4.4.4.4.4.w.7.*.*.*.*.} -.} r.f.c.v.c.f.4.",
"} 7.w.} e.4.3.w.8.r.4.r.3.2.w.7.*.7.w.w.7.*.} } { 8.h.c.Q.z.j.7.-.} 5.5.7.r.4.r.7.w.3.3.3.4.r.7.-.-.e.r.e.-.-.} -.F.q.j.v.z.j.u.",
"w.4.2.e.w.4.w.-.-.} 7.} 7.w.r.w.r.r.3.4.r.8.t.2.w.r.r.f.s.r.r.r.w.r.r.r.e.r.4.} -.*.7.7.-.r.r.w.w.r.4.4.4.7.w.4.r.w.r.r.s.t.r.r.",
"w.} } -.7.w.} -.e.8.} } w.w.4.4.r.8.r.r.w.2.4.t.J.X.=.r.D.-.7.-.} w.7.-.-.e.e.-.e.w.} -.7.w.r.4.r.w.r.r.r.r.4.t.0.D.X.8.w.X.6.7.",
"*.} } -.} } *.e.4.4.4.3.4.4.4.7.+.+.| O.o.X.l.x.z.P.%.%.+.P.O.-.-.-.-.-.} } *.} 4.4.4.4.4.4.4.r.=.+.O.&.+.| y.c.c.Y.m.%.o.H.m.O.",
"0.r.2.w.4.7.-.F.5.7.w.2.r.D.D.L.z.v.R.R.z.U.v.v.z.c.P.+.j.x.R.T.j.e.r.r.4.w.-.} 7.7.7.r.4.8.D.H.Y.x.z.P.z.R.c.Q.z.c.z.+.I.x.z.T.",
"c.c.4.4.4.7.F.G.u.h.h.h.j.U.c.v.l.q.u.c.v.z.z.q.*.L.l.h.f.4.c.v.c.v.g.4.4.r.} F.0.h.h.u.j.U.g.v.Q.Y.L.l.v.c.z.R.F.-.j.j.j.i.f.v.",
"t.f.t.4.4.r.4.f.f.g.f.g.4.4.4.f.r.w.F.e.G.-.-.*.=.=.-.F.e.r.4.4.y.f.t.4.4.2.r.f.i.g.f.g.i.4.4.i.s.r.7.-.0.} -.-.-.-.-.-.7.w.4.4.",
"} F.w.4.4.3.4.3.4.4.4.f.g.g.4.4.4.4.4.r.w.7.} *.} -.-.*.*.-.7.7.-.7.7.3.4.4.4.4.4.4.4.4.g.g.i.4.4.4.4.4.r.7.7.-.-.-.-.*.*.-.} 7.",
"T.z.f.4.4.3.4.4.4.g.g.v.v.x.l.g.4.r.w.w.7.7.} e.3.e.*.-.-.e.w.e.u.v.j.4.4.4.4.4.4.i.g.c.v.x.c.g.i.4.w.e.e.7.} 7.r.r.} *.-.} e.r."
};
