/* XPM */
static char *result[] = {
/* columns rows colors chars-per-pixel */
"64 64 223 2 ",
"   c #161C2D",
".  c #1A1F2F",
"X  c #171E36",
"o  c #19212F",
"O  c #1C2333",
"+  c #1D283B",
"@  c #242B34",
"#  c #252938",
"$  c #2B3533",
"%  c #2A3637",
"&  c #26343B",
"*  c #34343B",
"=  c #333938",
"-  c #3C3A3E",
";  c #36453A",
":  c #3D503F",
">  c #42473A",
",  c #49563B",
"<  c #52593C",
"1  c #53643C",
"2  c #57693E",
"3  c #586C3B",
"4  c #60723F",
"5  c #1F2A43",
"6  c #1F3444",
"7  c #242C44",
"8  c #243749",
"9  c #29344D",
"0  c #3A3A41",
"q  c #2B3854",
"w  c #313C5B",
"e  c #323F62",
"r  c #453E43",
"t  c #3A5147",
"y  c #294758",
"u  c #334A52",
"i  c #31575D",
"p  c #364264",
"a  c #3B476C",
"s  c #2B5668",
"d  c #3E4C72",
"f  c #3C5577",
"g  c #3D5B7B",
"h  c #39676A",
"j  c #356676",
"k  c #3E7679",
"l  c #424043",
"z  c #4A4346",
"x  c #4C4749",
"c  c #554A4B",
"v  c #574E4C",
"b  c #455946",
"n  c #565549",
"m  c #4A4D56",
"M  c #5E5351",
"N  c #625651",
"B  c #675B54",
"V  c #6B5A55",
"C  c #4D6544",
"Z  c #5C7649",
"A  c #546759",
"S  c #597557",
"D  c #646E43",
"F  c #686C45",
"G  c #657642",
"H  c #787B47",
"J  c #686558",
"K  c #756659",
"L  c #7B665D",
"P  c #687952",
"I  c #707C54",
"U  c #40567A",
"Y  c #557866",
"T  c #77726B",
"R  c #807555",
"E  c #85745E",
"W  c #846D62",
"Q  c #8C7365",
"!  c #8A7C65",
"~  c #927967",
"^  c #967A6A",
"/  c #987C6B",
"(  c #5D8154",
")  c #6B864A",
"_  c #728643",
"`  c #738944",
"'  c #798948",
"]  c #7D9546",
"[  c #78944C",
"{  c #688756",
"}  c #7D8755",
"|  c #6C9458",
" . c #729557",
".. c #729D5D",
"X. c #7AA55D",
"o. c #7EAA5E",
"O. c #6B896B",
"+. c #6D966F",
"@. c #6D996D",
"#. c #759D64",
"$. c #799F66",
"%. c #73976E",
"&. c #749A6C",
"*. c #7A9A6D",
"=. c #679073",
"-. c #6B9372",
";. c #739670",
":. c #76A663",
">. c #79A662",
",. c #7BA861",
"<. c #85874C",
"1. c #8B894D",
"2. c #859849",
"3. c #97984E",
"4. c #8C8E51",
"5. c #9A9A53",
"6. c #A09B4F",
"7. c #86A14A",
"8. c #8BA44A",
"9. c #8DA94B",
"0. c #97A74E",
"q. c #92AD4B",
"w. c #96B64F",
"e. c #99B74E",
"r. c #9BB84D",
"t. c #84A654",
"y. c #8CAF56",
"u. c #82A65D",
"i. c #84AD5B",
"p. c #8AAE5A",
"a. c #96A858",
"s. c #94AE5E",
"d. c #9AAF5E",
"f. c #8DB155",
"g. c #8BB058",
"h. c #93B452",
"j. c #9BB653",
"k. c #99B357",
"l. c #9CB15C",
"z. c #A1B84F",
"x. c #A5A856",
"c. c #B4AE57",
"v. c #A2B653",
"b. c #ABB655",
"n. c #A4B851",
"m. c #ABB953",
"M. c #A3B25C",
"N. c #ABB35D",
"B. c #B5B757",
"V. c #B3B956",
"C. c #B3B55C",
"Z. c #BAB75B",
"A. c #B6B958",
"S. c #BCB95A",
"D. c #94866A",
"F. c #9D826C",
"G. c #839D6C",
"H. c #948F74",
"J. c #A3876F",
"K. c #A98C72",
"L. c #AC9674",
"P. c #B59A75",
"I. c #B69A77",
"U. c #83A462",
"Y. c #83AA61",
"T. c #8BAC60",
"R. c #87A268",
"E. c #8BA16A",
"W. c #94A665",
"Q. c #97A864",
"!. c #9CAA64",
"~. c #91A468",
"^. c #A4AD62",
"/. c #A9AF61",
"(. c #ABB060",
"). c #B7B16B",
"_. c #BBA67C",
"`. c #C1BA5A",
"'. c #C4A57C",
"]. c #C7A87D",
"[. c #CBAC7E",
"{. c #3E6884",
"}. c #3D758C",
"|. c #3B7A8A",
" X c #3D7E91",
".X c #406786",
"XX c #3D8396",
"oX c #3E8899",
"OX c #468B90",
"+X c #499499",
"@X c #53A29D",
"#X c #4B9BA1",
"$X c #52A6A4",
"%X c #57ADA8",
"&X c #56ACA9",
"*X c #56ADAA",
"=X c #59B2AB",
"-X c #949284",
";X c #B1AA88",
":X c #B0B2B1",
">X c #CEB787",
",X c #D3B382",
"<X c #D8BB89",
"1X c #CDBF99",
"2X c #D8C593",
"3X c #DBC695",
"4X c #E1C995",
"5X c #E3CC98",
"6X c #E7D49D",
"7X c #D5CFAE",
"8X c #E8D7A5",
"9X c #ECDDA9",
"0X c #E5D5B8",
"qX c #EEE1AB",
"wX c #F0E2AA",
"eX c #EFE4B6",
"rX c #F1E5B4",
"tX c #D6D4CD",
"yX c #ECE5CC",
"uX c #F4EAC8",
"iX c #F7F1D8",
"pX c #F9F5E8",
"aX c #FCFAF3",
/* pixels */
"T.,.N.A.C.v.v.k.g.h.w.w.r.e.r.r.r.r.r.r.r.e.r.r.r.w.r.r.y.d.l.l.s.Y.T.C.A.N.v.v.g.f.e.h.e.r.w.r.r.r.r.r.r.e.r.r.r.e.e.r.h.s.l.l.",
">.:.>.,.,.,.Y.,.:.,.,.o.i.g.g.f.e.r.r.e.r.r.r.e.r.r.f.g.o.i.w.f.,.>.,.,.,.,.,.Y.:.,.o.,.i.g.g.f.f.r.r.r.r.e.r.e.e.r.w.g.i.o.f.h.",
"j.o.,.g.g.,.X.X.,.,.,.g.g.g.h.w.r.r.e.e.e.w.h.w.e.e.h.f.j.e.e.r.r.f.,.i.g.i.,.,.,.o.o.i.g.g.f.r.r.r.r.r.e.e.h.k.e.e.h.h.h.e.e.r.",
"V.g.p.r.r.h.w.h.f.w.r.n.r.r.r.r.r.r.r.k.i.&.;.%.f.Y.;.&.>.j.r.A.A.v.u.h.e.e.h.h.g.h.e.r.e.r.r.r.r.r.r.r.h.$.&.-.Y.y.&.%.&.f.e.m.",
"S.A.k.e.e.r.z.m.m.A.S.A.z.r.f.,.Y.f.Y.:.*.(.(.E.;.&./.C.^.T.V.S.S.S.N.w.e.r.n.n.m.m.A.S.m.e.j.Y.X.g.f.U.%.E.C.!.*.-.~.C.N.W.j.S.",
"S.S.A.z.r.n.A.S.S.A.A.v.i.g.%.G.;.-.*.G.*.(.`.`.N.(.S.S.`.Z.S.`.S.S.S.m.r.r.V.S.S.S.S.V.s.p.>.*.R.=.-.R.*.W.S.S.Z.^.S.S.`.S.Z.S.",
"N.`.S.A.m.z.r.z.r.z.j.X.*.E.E.S.(.~.(.`.(.(.`.A.S.`.S.V.m.A.`.A.M.A.S.S.m.n.r.n.v.r.z.h.%.R.;.(.A.Q.!.S.C.^.S.S.Z.`.`.A.V.m.S.`.",
"Y.A.S.A.V.z.r.r.z.V.N.~.C.Z.C.m.A.`.A.m.V.S.l.o.T.b.V.j.j.j.M.p.:.M.S.S.V.m.r.r.r.n.A.Q.^.S.C.m.V.S.S.V.N.A.C.T.,.l.V.n.e.r.v.d.",
",.j.r.r.r.r.r.m.A.V.S.`.S.V.z.r.n.S.n.g.o.Y.,.,.o.h.r.r.f.o.:.X.:.i.r.v.r.r.r.z.V.V.V.`.`.S.n.r.r.V.V.w.o.,.,.:.,.i.e.e.w.i.,.,.",
"o.Y.f.r.r.r.m.m.r.e.n.m.z.r.r.r.r.n.f.,.,.,.,.,.X.o.o.o.,.X.o.q.i.,.g.w.r.r.z.m.m.r.z.m.n.r.r.r.r.z.j.i.,.,.,.,.,.,.,.g.o.:.o.g.",
"w.w.h.r.r.r.w.f.w.e.e.r.r.r.r.f.g.o.,.,.f.h.,.o.o.,.:...( : , 1 1 1 G 9.w.w.r.f.f.r.r.r.r.r.r.w.g.o.,.,.g.w.g.,.i.Y.,.:.o.i.o.e.",
"r.r.r.f.h.w.i.,.o.w.r.e.r.r.r.z.r.h.g.f.r.r.f.r.r.f.) ; u i h h k y & ; [ q.h.X.X.f.r.r.r.r.r.r.n.w.f.g.w.w.w.f.e.h.g.g.h.r.g.h.",
"r.r.i.,.,.,.,.,.,.g.h.r.r.n.m.S.V.n.m.A.m.r.r.r.r.] ; i @XOXi @X=X%X+X6 @ Z X.:.,.o.h.w.r.r.n.S.S.m.n.A.A.m.r.w.r.h.h.g.h.e.h.r.",
"f.i.,.,.:.:.,.,.,.:.,.o.g.n.A.S.`.`.`.C.h.o.h.o...: i @X@Xy h =X=X#XoX|.+ & | :.,.,.:.o.i.j.m.S.`.`.`.S.l.g.g.g.o.o.,.:.o.g.i.o.",
"-.-.:.g.i.g.:.:.>.Y.f.h.r.n.m.S.`.A.j.g.h.h.o.o.( & +X=X+Xi #X=X$XXX|.XXs # Z #.@.:.o.h.h.r.m.V.S.`.m.k.f.h.i.i.o.:.:.,.,.:.o.:.",
"=.=.-.&.*.Y.*.~._.;Xj.n.V.S.S.S.S.m.r.r.r.h.o.o.b 8 @X=X+X+X=X=X+X|.y XX}.9 S G.&.@.o.e.m.A.S.S.S.A.z.w.r.h.f.o.,.X.:.,.:.:.@.@.",
"^.@.*.^.^.E.(.C.L.2X).C.v.v.m.A.S.n.z.z.r.e.w.i.: i $X%X+X$X=X$XoXoXy j .X# P S.N.E.E.m.m.n.n.V.`.A.z.n.r.r.r.g.o.o.,.:.:.@.-.R.",
"`.!.C.`.S.S.`.6.J tX3X).v.r.r.v.A.S.V.m.z.e.r.w., k =X=X#X&X=X$XoXoXs y j O R S.S.S.S.V.n.z.r.r.m.A.A.m.n.r.r.r.r.h.g.s.Y.*.!.Z.",
"A.S.S.S.A.S.Z.3.n tXpX;X4.m.e.z.z.z.r.z.r.r.r.w., y $X=X&X*X=X*X+XoXy s s = 3.B.S.`.S.S.S.S.z.r.z.n.z.r.z.r.r.r.r.z.m.n.Z.C.Z.`.",
"r.V.m.r.z.m.j.2.n 7XpXtXP.A.m.S.A.n.n.n.n.z.r.r.] & |.$X&X$X$X#XoXs 7 g y _ n.e.V.S.S.`.`.S.m.V.S.m.n.m.n.n.r.r.r.r.z.r.j.n.m.S.",
"r.z.r.r.r.r.e.2.n >X0XpX7Xc.V.V.m.v.j.k.j.j.e.r.q.1 + y |.oXoX Xy 5 p q ; 9.r.r.n.A.V.n.m.V.V.V.A.n.z.k.k.j.r.r.r.r.r.r.z.r.r.n.",
"r.w.h.w.r.e.r.q.D ;X3X8XyXA 7.e.w.i.,.:.X.o.i.i.f.8.1 = + 8 8 7 + p p O , 9.r.r.e.e.e.e.e.e.r.r.w.g.,.:.,.,.g.i.g.w.z.n.V.n.r.r.",
"f.g.o.o.w.r.r.w.4 b [.<XqX! 2 g.,.,.i.o.,.,.X.:.u.k.5.> t -   # e r u c @ 1 q.e.h.e.r.e.e.e.e.h.i.,.,.o.,.,.,.,.:.k.N.S.`.S.A.n.",
"o.f.w.g.g.w.w.X.| % D.<X8X;X;  .i.f.e.e.g.,.f.f.u.| % . H.7XT u T @X1X;X; $ ` g.,.o.h.f.g.e.f.i.o.g.w.r.w.o.o.f.i.,.i.k.V.M.k.T.",
"w.h.g.i.g.e.g.,.o.C n <X>X2XS 3 e.r.r.r.e.h.r.w.t.> 0 r m :XtXtXyXpX0XT V r - ..o.u.,.,.X.g.h.e.r.r.r.r.r.h.w.r.f.f.p.h.j.p.h.h.",
"o.X.:.,.,.o.,.o.e.7., L.K.H.;Xb ..#.$.p.$.p.z.V.} # K / ~ ~ -X0XiX0X>X,X/ V $ S y.e.f.f.h.e.e.e.p.$.$.p.>.>.j.m./.R.;.:.>.;.*.>.",
",.g.i.i.f.,.,.f.w.h.1 J '.D.2XJ P !.G.G.~.G.A.Z.F 0 Q P.<X6XrXwXqX9X4X,XL.~ r ; 3 9.w.r.e.w.f.Y.E.Q.~.;.~.G.N.S.S.`.^.-.*.C.^.G.",
"N.n.r.r.e.g.:.,.Y.i.{ = _.D.;XH.< x.4.3.S.Z.S.a.$ N J.,X<X9XiXpXpXiX5X,X].F.B   * b X.y.k.W.!./.`.S.C.Z.`.`.S.S.k.s.Z.!.^.m.V.S.",
"V.A.v.r.w.f.k.M.V.V.x.2 L P.N H.r = t t } p.g.Z * ^ '.,X<X9XuXaXaXuXqX<X,XJ.Q - L R < 1.b.z.m.m.N.s.u.T.b.l.s.T.,.:.T.s.j.e.r.m.",
"g.i.h.r.r.w.r.r.e.j.e.] < P.z V L O OXk % | ..; * Q J.'.<X<X6XpXiXrXqX5X].J.^ c @ J.W * 4 8.r.r.e.e.e.g.g.o.,.:.:.,.:.:.>.u.g.h.",
"s.l.f.r.r.r.r.e.e.r.z.x.> V R r K.0 6 j h < { @ v ^ I.<X8XyXyXpXaXuXqX5X].,X/ r . r D.E - > G 0.e.e.e.h.f.i.o.,.g.g.,.,.:.>.,.o.",
"S.S.A.r.w.r.r.r.e.m.B.x.- * W r ; 0 y #Xh Z [ @ V / ].<X9XiXpXaXaXuX9X4X,X,X/ v . V R ~ K.E x < _ q.t.g.f.g.g.f.e.e.p.,.i.h.r.m.",
"^.k.S.V.V.z.n.r.w.e.q.3 7 7 r 0 5 j  Xj t q.] @ V / '.,X8X9XrXrXrX9X9X5X,XK.^ K . W ^ / W W K.F.D.J , 9.e.z.r.r.r.r.r.w.r.v.C.C.",
",.:.T.s.s.s.l.i.,.i.[ & 8 + 9 e a j u & , q.] $ v ^ '.,X8XuXiXuX9X8X4X<X,X'./ v . W ^ Q W c r r L.H.$ ] e.r.r.r.r.r.r.w.y.X.i.f.",
"g.,.:.,.X.:.:.:.:.:.#.t O 7 p q 5 n ~ V $ 4 ] $ * ^ ,X,X4XeXaXaXuX5X4X5X,X,XK.L O W ^ ^ ^ ^ Q r J ! $ 7.e.r.r.r.r.r.e.h.f.f.w.r.",
"n.i.i.w.w.g.g.i.i.g.y.) O 7 O O L >X[.F.= Z #.; x ^ / P.<XrXiXaXpX9X9X4X,XI./ N r Q ^ ^ ^ ^ ^ M J 4.$ 7.e.y.>.>.y.r.u.$.Y.e.r.r.",
"S.l.f.r.r.e.r.r.e.n.m.0.< : $ - _.[.P.N # P G.m * W / F._.3X5XeXeX8X5X,X'.'.Q * c ^ ^ ^ ^ ^ ^ W K ! $ ] o.*.~.*.&.*.&.~.E.U.r.A.",
"S.S.m.r.r.z.V.A.A.`.`.A.j.w.Z % * N l O # 4.`.5.- * W K.].,X4X9X8X<X,X/ / Q 0   r Q ^ ^ ^ ^ ^ Q D.W + O.=.!.S.Z.!.>.(.`.S.(.N.S.",
"S.S.S.n.r.z.m.m.m.V.n.s.&.$.&.4.b @ O q # F `.S.1.  0 L J.,X4X5X<X5X;XQ r # + 9 O W ^ ^ ^ ^ ^ Q K.E % 3.W.~.S.S.`.Z.S.S.S.S.S.S.",
"d.S.S.S.A.z.r.r.r.v.j.>.Q.^.^.S.Z.3.> @ $ <.C.l.F . X # x V K V L L r * # 9 U e 7 r ^ ^ ^ ^ ^ V ^ E = x.A.S.S.N.l.C.S.V.r.n.S.C.",
",.m.m.m.n.r.r.n.V.S.A.C.S.S.m.r.B.S.x.G ) l.Y...; 7 p q X X X X X X 5 q a d U w O # W ^ ^ ^ / M M W = 8.g.k.s.,.>.Y.n.r.r.h.g.,.",
",.i.w.r.r.r.n.A.m.r.V.S.V.v.r.r.j.B.r.o.:.:.:.{ # w {.}.{.U f .XU d a U f U U d 7 O W ^ ^ ^ / M z K $ [ ,.:.,.,.,.i.f.h.f.,.,.i.",
"f.i.f.e.r.r.n.r.e.w.r.z.e.r.r.f.y.f.u.,.i.i.:.| % w .XXXXXXXXX X X X.X.X.X{.{.f 7 O L ^ ^ ^ ~ B N - C >.,.i.o.:.,.,.:.,.,.,.,.e.",
"r.r.r.r.e.r.h.,.g.e.r.e.r.r.r.e.h.i.o.i.e.e.i.f.C 7 d  XoXXXOX XoXoXoXoX}..Xf a 9 % x ~ ^ ~ V x - 1 o.,.h.r.g.g.h.f.,.,.i.h.i.h.",
"e.e.h.o.g.f.,.,.,.h.e.e.r.r.z.A.m.r.j.v.v.e.e.e.] O 9 j XXoXoXoXoXoXXXXX}.g d 9 % ) > x ! B - @ D e.e.j.m.r.r.w.r.e.j.h.w.e.w.w.",
"r.h.,.:.:.:.:.,.,.,.i.g.h.m.A.S.A.A.S.`.M.k.e.f.t.C o 9 g }. X X.X X X}.U d p + b .. .: - * v F B.B.Z.`.C.k.k.w.g.f.i.,.i.j.h.f.",
">.:.>.,.,.,.:.:.:.>.o.g.h.r.m.S.`.S.m.l.i.i.o.o.:.( @ . + 9 y y p y q 9 q 9 @ b #.X.:. .; @ D c.S.S.S.N.g.i.o.o.,.:.:.,.:.,.,.,.",
"=.=.#.Y.Y.f.:.+.@.:.h.r.n.A.A.S.S.A.e.h.e.h.g.i...t   . % t C t u 8 % o     C +.+.@.i.w.0._ B.B.S.S.z.h.w.e.g.g.,.,.:.,.:.:.:.:.",
"*.-.-.G.R.&.Q./.*.-.s.m.V.A.A.S.S.n.r.r.r.w.f.,.:.Z @ + { O.Y P I Y A @ . = O.x.Q.=.$.v.V.V.V.S.`.V.e.r.r.e.h.i.,.:.,.,.:.:.=.-.",
"Z.G.Q.`.S.N.S.S.C./.C.v.r.e.r.V.S.V.m.n.r.r.r.w.f.{ ; o t A P <.1.<.b O @ F 1.4.5.x.N.V.r.e.e.m.S.S.m.m.r.r.e.e.h.g.:.,.:.-.G.(.",
"S.C.Z.`.S.`.S.S.`.`.S.V.A.z.e.r.n.V.m.n.r.r.r.r.8., @ O = I 1.<.1.1.1 @ @ > H 1.1.4.B.B.V.V.r.e.r.V.V.n.n.r.r.r.r.r.b.b./.!.C.S.",
"v.Z.Z.b.m.S.m.m.S.S.S.`.S.V.z.V.m.r.r.r.r.r.r.r.] _ 4 4 F ' 1.<.' <.H F D F ' ` 1.1.5.S.S.S.z.m.V.z.r.e.r.r.r.e.r.r.n.r.m.C.S.Z.",
"e.m.z.r.r.r.r.r.S.S.S.A.S.S.A.S.S.m.m.m.m.m.e.e.8._ _ ` _ ` ' ' ) ` ' _ ` ` _ ` ' <.x.B.S.S.V.S.S.A.m.m.m.m.r.r.r.r.r.r.r.r.n.m.",
"e.v.r.e.r.e.r.r.n.n.r.r.z.z.z.z.r.h.i.i.i.f.h.h.w.8.] ` _ ` _ _ _ _ ` _ ` ` _ ` 2.0.n.e.r.n.n.n.n.e.f.i.Y.i.h.h.h.e.r.r.n.r.r.r.",
"e.h.i.f.r.r.r.r.e.r.r.r.r.e.r.e.g.X.,.,.:.,.X.,.i.v.m.c.a.3.2.[ [ ` ) { ] 2.2.q.e.e.e.r.e.e.e.e.f.o.,.X.:.:.o.,.,.j.n.A.S.A.n.n.",
"o.i.g.o.g.r.r.g.g.h.e.w.e.e.f.u.:.i.f.f.i.:.o.o.,.p.M.A.S.N.x.u.X.o.t.i.o.w.r.h.i.y.e.e.e.r.h.i.X.o.g.f.g.,.,.o.,.Y.s.C.S.A.(.s.",
"h.w.e.g.f.e.g.,.:.o.i.o.g.h.f.h.h.h.e.r.h.i.e.j.f.h.h.v.v.f.h.h.h.f.h.h.g.e.e.o.:.,.o.o.,.f.f.h.f.j.r.r.w.g.f.r.h.f.s.h.n.j.h.h.",
"g.i.o.:.o.h.o.o.g.g.o.o.g.f.h.r.h.f.h.h.h.e.r.k.Y.*.>.h.Y.:.g.Y.o.f.i.,.:.g.g.,.g.f.i.o.g.h.h.r.w.f.f.j.f.h.r.z.s.,.:.f.y.$.i.u.",
":.o.o.o.o.o.:.g.r.r.r.e.e.r.w.i.*.*.-.:.%.$.V.Z.C.!.-.+.*.!.@.,.o.:.,.,.o.,.:.o.e.r.e.e.e.r.r.h.:.*.;.@.*.@.k.A.Z./.*.-.;.~.R.&.",
"s.g.f.w.e.i.:.g.i.i.f.e.h.Y.Y.Q.).Z.^./.C.^.S.S.C.Z.!.*.(.Z.(.(.b.p.h.h.e.h.X.o.i.i.g.h.w.p.Y.E./.Z.C.!.C./.C.`.C.A.Z.*.~.A.A.^.",
"S.A.n.e.e.g.i.Y.d.M.M.M.N.M.Z.S.C.d.l.C.S.C.C.s.>.T.C.N.n.r.V.A.S.S.m.z.e.w.o.Y.s.M.l.M.N.l.N.S.S.N.s.N.S.A.C.(.Y.,.N.N.b.v.n.S.",
"e.v.w.r.e.h.v.v.m.z.m.n.r.r.r.v.w.f.Y.g.T.,.,.,.>.>.>.i.g.h.r.r.w.j.j.w.e.w.j.n.m.n.m.n.z.r.r.z.v.s.g.i.T.Y.,.,.,.,.,.,.i.f.e.r.",
",.Y.g.r.r.r.r.e.e.r.r.n.V.m.e.e.e.r.e.e.g.g.,.,.,.,.>.,.,.,.i.i.o.Y.i.w.e.r.r.e.r.e.r.r.V.m.z.r.r.r.e.e.h.i.i.,.,.,.:.,.,.:.,.g.",
"N.A.n.r.e.r.r.e.e.m.V.S.A.A.V.m.r.w.g.g.i.o.o.g.e.g.:.,.o.i.s.f.k.S.N.r.r.r.r.r.r.z.m.A.`.A.V.V.r.r.f.g.f.o.o.i.h.h.o.:.,.u.g.f."
};
