/* XPM */
static char *f4d6209678764690fdcccfb84034c91fdb975YHzuMPHkU0m[] = {
/* columns rows colors chars-per-pixel */
"64 64 206 2 ",
"   c #161C2E",
".  c #181E2F",
"X  c #171E32",
"o  c #1C232F",
"O  c #1D2232",
"+  c #1F2932",
"@  c #1E263C",
"#  c #212733",
"$  c #242B32",
"%  c #2A2C36",
"&  c #232B3C",
"*  c #2B2F39",
"=  c #293435",
"-  c #2A3637",
";  c #323A36",
":  c #32353A",
">  c #3A3A3E",
",  c #2F403B",
"<  c #3C4739",
"1  c #444C3B",
"2  c #49563B",
"3  c #53553F",
"4  c #54623E",
"5  c #5A6D3E",
"6  c #212B44",
"7  c #233048",
"8  c #363940",
"9  c #3C3D43",
"0  c #2D3A57",
"q  c #343F60",
"w  c #413D41",
"e  c #3A4B40",
"r  c #3C5342",
"t  c #364666",
"y  c #3B4E71",
"u  c #3C5375",
"i  c #3E5B7B",
"p  c #474546",
"a  c #4A4A4A",
"s  c #534B49",
"d  c #465B48",
"f  c #58554A",
"g  c #5D5751",
"h  c #61584F",
"j  c #645953",
"k  c #4C6447",
"l  c #596B43",
"z  c #55744E",
"x  c #5C7649",
"c  c #526A56",
"v  c #5B7D52",
"b  c #656542",
"n  c #657843",
"m  c #676258",
"M  c #74695B",
"N  c #797757",
"B  c #6D6E6D",
"V  c #797665",
"C  c #85755F",
"Z  c #867664",
"A  c #8F7767",
"S  c #5F8254",
"D  c #6D8444",
"F  c #6F8847",
"G  c #64824C",
"H  c #6A854A",
"J  c #6C8B4E",
"K  c #718743",
"L  c #718944",
"P  c #7C9448",
"I  c #668955",
"U  c #728450",
"Y  c #6B935A",
"T  c #6F985B",
"R  c #779D59",
"E  c #7AA159",
"W  c #7CA45E",
"Q  c #7EAA5E",
"!  c #6D966F",
"~  c #6E996C",
"^  c #749E66",
"/  c #799F66",
"(  c #73976F",
")  c #739A6C",
"_  c #7B9A6D",
"`  c #648F75",
"'  c #669173",
"]  c #6B9372",
"[  c #739670",
"{  c #76A663",
"}  c #79A662",
"|  c #7BA861",
" . c #73A068",
".. c #898A4E",
"X. c #86994A",
"o. c #969B4E",
"O. c #919D5F",
"+. c #8CA74B",
"@. c #93AD4C",
"#. c #97B64F",
"$. c #99B74E",
"%. c #9BB84D",
"&. c #86A556",
"*. c #8DAE56",
"=. c #82A65E",
"-. c #84AD5B",
";. c #8AAE5A",
":. c #90AF57",
">. c #94AE5E",
",. c #9AAE5E",
"<. c #8DB155",
"1. c #8BB058",
"2. c #93B452",
"3. c #9BB552",
"4. c #9EB850",
"5. c #96B05B",
"6. c #9CB15C",
"7. c #A1B84F",
"8. c #A7AC56",
"9. c #B0AF55",
"0. c #A2B653",
"q. c #ACB756",
"w. c #A4B851",
"e. c #ABB953",
"r. c #A3B25C",
"t. c #ABB35D",
"y. c #B6B757",
"u. c #B3B956",
"i. c #B3B55C",
"p. c #BAB75B",
"a. c #B6B958",
"s. c #BAB959",
"d. c #BCB95A",
"f. c #BDB95A",
"g. c #BEB95A",
"h. c #948369",
"j. c #9B826B",
"k. c #839D6C",
"l. c #968D73",
"z. c #96937A",
"x. c #A1896D",
"c. c #A8916F",
"v. c #A98C72",
"b. c #A99474",
"n. c #B19375",
"m. c #B89B77",
"M. c #83A462",
"N. c #8AA466",
"B. c #83AA61",
"V. c #8BAC60",
"C. c #86A069",
"Z. c #8BA169",
"A. c #94A666",
"S. c #98A765",
"D. c #91AD60",
"F. c #9CA964",
"G. c #91A468",
"H. c #A4AD62",
"J. c #A9AF61",
"K. c #ABB060",
"L. c #B9A37B",
"P. c #C1BA5A",
"I. c #C2A37B",
"U. c #C7AA7E",
"Y. c #CCAC7F",
"T. c #3F6885",
"R. c #3F738C",
"E. c #3E7E93",
"W. c #415F80",
"Q. c #416685",
"!. c #3E8295",
"~. c #8A8984",
"^. c #B4AB87",
"/. c #CDAE80",
"(. c #C8B489",
"). c #D3B483",
"_. c #D7B986",
"`. c #D9BC89",
"'. c #C8BC92",
"]. c #DCC18E",
"[. c #CCC297",
"{. c #DCC490",
"}. c #D7C898",
"|. c #E1CB97",
" X c #E4CE9A",
".X c #E6D29E",
"XX c #E9D59F",
"oX c #D5CEAF",
"OX c #E5D6A2",
"+X c #E8D6A2",
"@X c #EBDBA5",
"#X c #EDDFA9",
"$X c #EEE1AB",
"%X c #F2E4AC",
"&X c #EFE2B1",
"*X c #F1E4B3",
"=X c #F6EAB0",
"-X c #F1E6BB",
";X c #C8C7C3",
":X c #E4DFC3",
">X c #F3E9C5",
",X c #F4ECCB",
"<X c #F6EFD3",
"1X c #F7F2DC",
"2X c #FAF6E6",
"3X c #FCFAF3",
/* pixels */
"V.| r.a.i.0.0.5.1.2.2.$.%.%.%.%.%.%.%.%.%.%.%.%.%.%.%.%.2.,.6.6.>.| >.i.i.t.0.0.1.<.2.2.%.%.%.%.%.%.%.%.%.%.%.%.%.%.%.%.2.>.5.6.",
"| { | | | | | | | | | Q ;.;.1.1.#.%.%.%.%.%.%.%.%.%.<.;.Q ;.2.<.| | | | | | | | | | | | -.;.;.1.2.%.%.%.%.%.%.%.%.%.2.1.-.Q <.2.",
"3.-.Q ;.;.| | | | Q Q ;.1.1.2.#.%.%.%.%.%.2.2.2.%.$.2.2.2.%.%.%.4.<.| -.1.-.| | | | | -.1.1.2.#.%.%.%.%.%.$.2.2.$.%.2.2.2.$.%.%.",
"u.;.;.%.%.2.2.2.<.3.3.%.%.%.%.%.%.%.%.$.-._ ( ( *.M.( ( } #.%.y.d.0.-.2.%.$.2.2.1.2.3.4.%.%.%.%.%.%.%.%.2.} ( ! } <.) ( ) ;.%.e.",
"d.a.5.%.%.%.%.e.e.u.d.a.%.%.*.| M.2.-./ ( t.J.C.[ ( J.i.F.>.q.d.d.d.r.2.%.%.%.w.e.e.d.d.e.%.$.=.} ;.<.M.( Z.i.F._ ] Z.i.t.A.3.d.",
"d.d.y.w.%.e.d.d.d.d.y.0.-.;.( k.[ ] ( k._ i.d.d.t.t.d.d.P.p.d.d.d.d.d.e.%.%.y.d.d.d.d.u.:.-.} _ k.] ] k.( A.d.d.p.H.d.d.d.d.d.d.",
"t.d.d.y.e.7.%.%.%.7.3.W _ C.C.d.t.A.t.P.J.i.d.d.d.P.d.u.e.y.P.d.r.d.d.d.e.w.%.%.%.%.7.2.( C.( K.d.F.F.d.i.H.d.d.d.P.P.d.e.e.d.P.",
"B.a.d.d.e.w.%.%.w.u.t.A.i.p.i.e.d.d.d.e.q.d.6.B.V.e.u.%.%.4.r.V.| r.d.d.y.e.%.%.%.e.a.F.F.d.i.e.u.d.d.u.q.a.i.V.B.5.u.w.%.$.0.5.",
"| 2.%.%.%.%.%.u.y.u.d.P.d.u.%.%.w.d.w.1.Q B.| | | <.$.%.<.Q { | | ;.4.7.%.%.%.w.y.u.y.P.P.a.e.%.%.y.y.#.Q B.| { | -.#.%.2.-.| { ",
"Q Q <.$.%.%.w.e.%.%.w.e.w.%.%.%.%.w.2.Q | | | | | Q -.;.| | -.2.;.| ;.2.%.%.w.e.e.%.%.e.e.%.%.%.%.%.0.;.| | | | | | Q ;.-.{ | <.",
"$.2.2.%.%.%.$.<.2.%.%.%.%.%.%.<.;.Q | | 2.2.| -.-.| | | -.Q <.%.%.2.2.$.%.%.%.2.<.#.%.%.%.%.%.2.1.-.Q { ;.2.;.Q ;.Q | { | -.Q $.",
"%.%.$.<.2.$.;.| Q #.%.%.%.%.%.w.%.2.1.<.%.%.<.$.$.2.;.1.$.2.<.%.%.%.%.2.<.#.2.Q { 1.%.%.%.%.%.7.w.2.<.;.2.%.2.2.%.2.1.;.2.%.1.2.",
"%.$.;.| | Q | | | 1.2.%.$.%.e.d.y.e.e.d.u.w.%.$.$.2.<.<.$.%.$.%.%.%.2.| | Q | | | -.<.2.%.%.w.a.d.e.e.y.a.e.%.%.$.$.2.<.2.%.%.%.",
"2.-.| | { { { | | { | -.1.e.a.d.d.d.d.i.>.-.1.-.Q Q { { -.1.-.-.<.<.| | { { | | | | { Q ;.2.u.d.d.d.d.d.r.B.-.1.Q Q | { | ;.;.Q ",
"] ] | ;.;.;.| ~  .| 1.2.$.w.e.d.d.d.3.1.2.<.;.-.| | | { { | | { ~ ] ~ ;.;.;.;.^ ^ { Q 2.2.%.w.u.d.d.e.5.<.2.;.;.| { | | | { { | ",
"' ' ! ) / =./ k.] ~ 2.7.u.d.d.d.d.e.%.%.%.<.-.Q | | { { { ^ ] ~ ] ' ' ( ) } } k._ ] -.%.e.d.d.d.d.d.%.%.%.2.;.-.| | | | { { ~ ! ",
"H.[ _ H.H.C.i.d.F.k.,.u.w.w.e.d.d.w.w.%.%.%.2.;.-.| { {  .' ( S.t.Z.] A.J.A.A.d.i.C.N.q.e.w.w.u.d.y.w.w.%.%.$.<.-.-.{ { { ~ ] C.",
"d.F.i.d.d.d.d.d.d.d.d.w.w.%.%.w.u.d.u.e.%.%.%.$.#.&.U k d d b b b ..O.p.d.d.d.d.d.d.d.e.w.w.%.%.e.d.y.u.w.%.%.%.%.2.;.;.N._ F.d.",
"y.d.d.a.d.d.d.d.d.d.d.d.d.e.%.w.7.w.%.%.%.%.%.#.P 3 $ 9 M V V V V p 3 ..9.d.d.y.d.d.d.d.d.d.%.%.w.w.7.%.%.%.%.%.%.7.u.e.d.i.d.d.",
"%.u.e.%.%.e.w.7.d.d.d.d.d.y.e.d.a.e.w.w.w.7.@.n = a ~.oX*X=X=X=X%X[.m ; K 3.0.%.e.d.d.d.d.d.e.y.d.u.w.w.w.w.%.%.%.%.%.%.7.w.e.d.",
"%.w.%.%.%.%.%.%.u.y.e.w.u.y.u.u.e.w.3.3.3.3.D # M oX2X-X#X#X$X$X#X%XOXz.; D #.$.w.y.u.w.e.y.y.y.y.w.4.3.3.3.%.%.%.%.%.%.%.%.%.w.",
"%.%.2.#.%.%.%.%.%.%.%.%.%.%.%.%.2.;.| { { J = s '.2X3X1X-X&X$X*X$X$X$X:XB , +.$.%.%.%.%.%.%.%.%.#.1.Q { { | 1.-.;.$.%.w.u.w.%.%.",
"1.;.-.-.2.%.%.2.2.%.%.%.%.%.$.<.| | -.-.{ z # x.+X2X1X1X1X<X-X1X&X-X>X>X;Xj 4 @.2.2.%.%.%.%.%.2.-.| Q -.Q | | { { 5.t.d.d.d.y.r.",
"-.1.#.;.;.%.2.-.| 1.2.;.2.2.;.-.-.2.%.$.E , > L.+X<X>X-X>X,X>X2X*X<X,X#X-X^.: J | Q 2.1.1.$.<.-.Q ;.#.%.2.Q -.<.;.-.-.6.y.r.5.;.",
"2.2.1.-.1.%.;.| -.Q | { ;.<.2.%.%.%.%.%.n : j ).+X$X+X+X$X$X$X*X$X-X&X#X%X'.> e W Q | { | 1.2.%.%.%.%.%.%.2.#.%.2.;.*.2.$.*.2.<.",
"Q | | | | -.| -.$.2.<.2.#.$.%.2.} / } R ; 9 j.).XX#X.X+X$X$X$X#X#X$X#X+X$X#Xg = *.$.2.<.2.%.%.$.;./ / ;.} } 3.e.t.C.] / } ( _ | ",
"| ;.;.;.1.Q | 1.2.2.#.%.$.2.;.C.A.F._ c # w v.).`.+X#X#X$X$X#X.X+X$X+X X$X%Xb.= F 2.2.%.%.2.<.M.C.F.G.[ G.k.r.d.d.d.H.] _ i.H.C.",
"i.0.%.%.%.;.{ } B.B.;.5.,.C.H.i.P.a.t.f O j v./.)..X+X+X$X$X#X.X+X$X#X+X#X#X{.a d =.-.;.6.A.F.K.d.d.i.p.d.d.P.d.5.>.d.F.H.u.u.d.",
"u.y.w.%.%.;.5.6.u.a.a.a.e.w.e.u.,.W x = f v.j.n.I.`.]..X#X#X#X].|.#X+X|.+X{._.m $ ..i.i.q.0.w.e.t.>.-.V.t.6.>.V.| | V.5.3.$.%.e.",
";.;.2.%.%.$.%.%.%.%.%.%.%.%.$.$.5 < e l.'.).n.A v.Y.).`.].|. X_.).].`._.]./.n.j.h < +.$.%.%.%.%.%.$.2.1.;.Q Q { | | { { | -.;.2.",
">.6.2.%.%.%.%.%.%.%.w.u.d.a.w.$.1 V '.@X@X].Y.I.n.m./.).U./.).).I.c.Z I.Y.I.n.Y.U.m < n o.p.e.%.%.%.2.2.<.-.-.| ;.1.| | | | Q Q ",
"d.d.u.%.%.%.%.%.%.w.y.d.e.e.d.y.4 g }.+X(.l.{.).).).).I.n.I.U.m.v.g % Z I.).).m.L.[.^.M 2 0.d.d.e.%.2.<.<.1.1.<.$.%.;.| ;.<.0.e.",
"r.,.a.u.u.7.7.%.2.%.%.7.%.%.w.e.X.; M c.f z..Xh.(.{.`.I.U.).).).n.:   w m.{. Xb.f h.^.f 5 $.w.e.e.%.%.%.%.%.%.%.%.%.$.#.%.0.i.i.",
"| | V.,.>.>.5.;.| ;.;.<.2.2.2.2.#.P 5 $ m (.V a }.%X X).{.XX.X[.M O 6 X p '.OX}.L.g # 2 +.#.2.2.$.%.%.%.%.%.%.%.%.%.$.#.1.| -.1.",
";.| { | | { { { | { { | Q Q 1.<.#.$.#.D < 9   a z.^.`.{.+X'.V 9 # 0 y t & 8 p a a * r Y Q Q -.1.2.%.%.%.%.%.%.%.%.%.$.<.1.<.$.%.",
"w.-.;.#.2.;.1.;.-.1.1.2.#.#.%.%.%.%.$.@.2 O O .   % w p a : . @ 0 i R.u q .   O O * H *.#.2.#.%.%.%.%.%.$.*.} } 2.%.-.} =.$.%.%.",
"d.6.;.%.%.$.%.%.4.w.e.e.%.%.$.2.2.$.2.H * p C s O & 6 6 6 7 0 y T.E.!.T.u 6 % C j.p 3 8.0.%.%.2.2.#.$.2.| _ G._ ( } ( G.C.M.3.y.",
"d.P.0.%.%.w.e.d.d.d.d.y.3.$.} ( ! } ) c 9 A I.L.: 0 Q.Q.W.R.R.R.E.!.!.R.t X M _.Y.M 1 8.0.#.*.( ( ) } ( ] F.P.i.F.k.K.P.d.t.t.d.",
"d.d.d.e.%.w.e.e.e.e.w.:.) / _ K.Z.] A.N > Z m.c.% @ 0 t u u u u u u u 0 O   > h.x.s l @.} / ! A.H.( _ K.F.G.d.d.d.p.d.d.d.d.d.d.",
">.d.d.d.y.w.%.%.%.7.3.} S.H.H.d.p.i.d.9.b p h > o     O & & & & & @ O . = n 2 : > < X.;.k.K.A.i.d.i.p.d.d.d.d.t.r.i.d.u.%.7.a.a.",
"| e.e.e.4.%.%.w.u.d.p.i.d.d.e.%.e.P.e.3.&.U e d r O   = l l l c r O . $ n +.+.X.o.8.p.i.p.P.y.w.w.d.d.w.2.5.>.| { -.7.%.%.<.;.B.",
"| ;.#.%.%.%.w.y.e.%.u.d.u.w.%.%.w.u.4.-.{ T I v z = . 1 G v v G z = o 2 L K P 8.y.7.w.d.y.e.%.%.%.e.e.<.| | | | | ;.<.2.<.| | -.",
"<.;.<.$.%.%.0.4.%.%.%.7.%.%.%.2.<.<.-.| R G v v v e + k v v G K F < $ l L K K X.$.$.$.%.%.%.%.2.<.1.;.| Q ;.Q | | { { | | | Q $.",
"%.%.%.$.$.%.2.Q ;.$.%.%.%.%.%.2.2.;.| -.+.L G H H k r z H G G K L 5 2 n L L K J W 2.$.$.%.%.%.$.2.1.-.| <.%.<.;.2.1.Q | ;.2.-.2.",
"%.%.2.Q ;.<.| | | 2.%.%.%.%.7.u.w.%.3.0.0.X.L L L K F F K K F L K K F G v H J T { ;.%.%.%.%.%.e.u.%.%.3.w.%.%.$.%.%.2.2.$.%.2.$.",
"%.2.| | | | | | | Q ;.<.<.e.d.d.d.a.d.P.r.5.+.P J H G n H F H H L L G S I Y { | | | -.1.<.3.y.d.d.d.a.P.a.5.2.#.<.<.-.Q ;.2.2.<.",
"}  .| | | | { { | | Q ;.2.0.e.d.d.d.i.6.;.-.Q | { { T Y Y T Y Y Y Y ^ W W | | { | | | -.1.3.w.y.d.d.d.t.;.;.Q Q | | | | | | | | ",
"` ` / =.-.<.} ] ~ { 2.%.w.y.y.d.d.y.$.2.%.2.;.;.| | | | | {  . .' ` ] | =.;.-.~ ! ^ -.%.7.e.y.d.d.d.w.2.2.%.1.;.Q | | | | |  . .",
"k.] ] k.k.) A.J._ ] :.e.u.u.a.d.d.w.%.%.%.2.1.Q | | | | { ~ ' _ k.[ ' _ k./ / J.A.] / 0.u.u.u.d.d.y.%.%.%.$.2.-.| | | | |  .] ] ",
"d.k.S.d.d.t.d.d.i.J.i.e.%.%.%.u.d.u.u.w.%.%.%.2.2.-.| | ^ ] F.i.P.K._ i.d.i.i.d.d.t.K.q.7.%.%.w.a.d.e.e.%.%.%.$.2.<.| |  .! k.K.",
"d.i.d.d.d.d.d.d.d.d.d.e.y.w.%.%.w.u.e.w.%.%.%.%.%.0.r.t.H.F.d.d.d.d.i.P.d.d.d.d.d.d.P.y.u.u.%.%.%.e.e.w.w.%.%.%.%.%.r.r.t.F.i.P.",
"w.d.d.e.e.d.e.e.d.d.d.d.d.u.%.u.e.%.%.%.%.%.%.%.%.e.%.w.u.y.d.y.w.e.d.u.w.y.y.w.y.d.d.d.d.d.w.e.u.w.%.%.%.%.%.%.%.7.w.%.e.y.d.d.",
"%.e.w.%.%.%.%.%.d.d.d.y.d.d.a.d.d.e.e.e.e.w.%.%.%.%.%.%.%.%.u.w.%.%.e.%.%.%.%.%.e.d.d.y.d.d.y.d.d.u.e.e.e.e.%.%.%.%.%.%.%.%.w.u.",
"%.%.%.%.%.%.%.%.w.w.7.%.w.w.w.w.7.2.;.-.-.<.2.2.#.%.%.7.w.%.%.%.%.%.%.%.%.%.%.%.%.w.w.%.%.w.w.w.w.3.<.-.-.;.2.2.2.%.%.%.w.%.%.%.",
"2.2.;.1.%.%.%.%.%.%.%.%.%.%.%.2.;.| | | | | | | ;.0.e.d.d.e.w.3.2.$.1.;.2.%.%.%.%.%.%.%.%.%.%.%.<.Q | | | | Q | | 3.w.y.d.y.w.4.",
"Q -.1.Q 1.%.%.<.;.2.%.2.$.$.<.-.{ ;.<.<.-.| Q Q | V.r.d.d.t.t.;.Q -.;.;.-.2.%.2.;.1.%.2.2.%.2.;.| | <.<.1.| | -.| B.>.i.d.i.t.5.",
"2.2.#.<.<.%.<.| { Q -.| ;.<.<.2.2.#.%.%.2.;.#.#.2.<.2.4.0.2.2.2.<.2.$.2.1.2.$.-.| | -.Q Q <.<.<.<.2.%.%.%.;.<.$.2.2.2.2.w.3.2.2.",
"1.;.Q | -.2.Q Q <.;.Q -.<.<.$.%.2.*.2.2.<.#.%.3.M./ } 2.M.} ;.Q -.1.-.| | 1.1.| ;.<.-.Q ;.<.2.%.2.<.<.$.2.2.%.4.>.} / ;.*./ -.-.",
"{ | | | Q | | <.%.%.%.%.%.%.#.-._ _ ! ) ( / u.d.i.S.] ! _ F.( | | | Q | Q | | Q $.%.%.%.%.%.%.<./ _ ( ) _ ! 6.d.p.J.k.] ! G.C.^ ",
">.2.2.2.$.;.| -.;.;.1.2.2.M.C.F.i.p.H.H.i.H.d.d.i.d.H._ t.a.H.i.t.;.2.2.#.2.| Q ;.;.;.2.3.;.M.N.J.p.i.F.i.H.i.d.a.a.i._ G.d.i.H.",
"d.y.7.%.%.;.B.B.6.r.r.r.r.F.a.d.i.,.6.a.d.a.i.>.| >.i.t.e.%.u.s.d.d.e.%.%.2.-.B.D.r.r.r.t.F.t.d.d.r.>.t.d.a.i.t.B.| t.t.t.7.w.s.",
"3.0.3.%.%.2.0.w.e.w.e.w.%.%.%.w.2.<.-.;.V.| | | | | | -.;.2.$.%.2.0.4.%.%.2.3.0.w.e.e.w.w.%.%.7.0.2.;.-.;.B.| | | | | | ;.<.2.%.",
"B.B.<.%.%.%.%.%.%.%.%.w.u.e.%.%.%.%.$.$.1.;.| | Q | | { | | -.;.| B.-.#.%.%.%.%.%.%.%.%.e.e.7.%.%.%.%.$.2.;.-.| | | | | | | Q ;.",
"t.i.0.%.%.%.%.%.%.e.u.d.d.d.u.e.%.2.<.<.;.-.Q 1.$.;.{ | Q ;.1.<.6.d.t.4.%.%.%.%.%.w.e.y.d.d.a.e.w.%.<.<.1.-.-.-.2.2.Q { | -.1.1."
};
