/* XPM */
static char *result[] = {
/* columns rows colors chars-per-pixel */
"64 64 65 1 ",
"  c #7FA55E",
". c #7EAA5E",
"X c #6D966F",
"o c #6E9A6D",
"O c #779F67",
"+ c #799F66",
"@ c #72976F",
"# c #739A6C",
"$ c #7B9A6D",
"% c #648F75",
"& c #669174",
"* c #6B9372",
"= c #729670",
"- c #779870",
"; c #76A663",
": c #79A662",
"> c #7BA861",
", c #73A068",
"< c #97B74F",
"1 c #99B74E",
"2 c #9BB84D",
"3 c #8DAE56",
"4 c #83A75E",
"5 c #84AD5B",
"6 c #8AAE5A",
"7 c #90AF57",
"8 c #93AE5E",
"9 c #9AAF5E",
"0 c #8CB156",
"q c #8AB058",
"w c #93B452",
"e c #9BB652",
"r c #9EB850",
"t c #95B15B",
"y c #9CB15C",
"u c #A1B84F",
"i c #A6AF5F",
"p c #A2B754",
"a c #ACB756",
"s c #A4B851",
"d c #ABB953",
"f c #A3B35C",
"g c #ABB35C",
"h c #B3B956",
"j c #B9BA57",
"k c #B3B55C",
"l c #B9B75C",
"z c #B6B858",
"x c #BCB95A",
"c c #839E6B",
"v c #82A462",
"b c #8AA466",
"n c #83AA61",
"m c #8CAC60",
"M c #85A069",
"N c #8BA169",
"B c #94A666",
"V c #98A766",
"C c #92AC61",
"Z c #9CA964",
"A c #91A468",
"S c #A4AD62",
"D c #A9AF61",
"F c #ABB060",
"G c #C1BA5A",
/* pixels */
"m>fzkpptqw<1111221222221222209yy8>6kkafd60<<<122221221222222<79y",
":;>>>>n>;.>.65q0<22211222106 6w0.:>>>>>>;...5650<212112112<35.0w",
"1.n66..:>..qq0<<12112www21<0<112e0>5q5>>:.>550022222217w12<7<212",
"h6621w<w0<e22221222e5+@@34@#+1uhjsnw2eww6<e222222222w+$*:7###62d",
"xzt2222ddhxzu23 n05+-FFN@@DkSChGxxf<12uuadjxa1w5.574@NkZ$*NkgVex",
"xxhs2djxxxhp66@c=*-c$kGxikxxGllGGGjd12hjxxxd76:$cX*c-BlxlSxxxxlx",
"gxxzdu2u2ue $NMxFAFGFkGzxGlhahGlfzxxhsuu2uuw#c-FxVZxxSxxxGGjahxG",
"mzxzdu22uhgAklahjxxaaly.mah21ef6:fxjhd212dhZSGkdhxjhazkmn9hs2<p9",
">eu2222hhhGGxhu2sxs0.>>;.0220.;>:qrr212uhhjGxhd22hh<.>>;;51215.;",
"..0122sd21sdu2211st.>>>>>..0...w5>6w22uds2udd1221rr5>.;;;..55;.0",
"1<<122<0w1112220q.>>ww>...>;..021<w<22<w0122221wq5.;q<6.6.;>.5.<",
"1110w1q;.121222ur<qq<<02<w50<w02111w0<w..022222ss<0q<<<w1<q50<0w",
"2<q;..;;>qw<22dxzddjdr222w00<e<2220... ;;.0e11sjzddhzde1<100<222",
"w5;;;;;>;;>5qdzxxxxk8505..;>50.50q.;;;:;;.;.6whjGGxxf55q..>;.55.",
"X*.666>o;>0<1sdxxjrqww0.;;;>>;:;o*o5565O,;.ww2dhxxat0<55.;;.;;.;",
"&&X#$v:c*owuhxxxxdr21q..;.;;;,*#X**##>:c#*51djjxGju12<q..>;>;;oo",
"S@$SSNFGZc9dssdzGss212w66>;;,*-VDA*BDBZxkcNaduuhxzss22205.;;;o*M",
"xZkxGxGxxxxds22uhxhd222210qmM$kGGkZxGxxGGxxasu22dzhhu2222<qqb$Zx",
"hxxzzxzzxxxjGa2suu2222212ddhzkxxhxGxhxxhxGGxGz2uusu1u22222hdxkxx",
"2hdsudssxGGGGhdxhddsdu122222sdzd2shs2su2aGxGGGdhjhssdu222222ssax",
"1s121122dhduhhhhdseeer11e11122sr1us12222ddhddhhhzsreey222221122s",
"21w<122212221211w5>;;5q5w2udh21222<w122221222221e0.;;.5.qe2dhs22",
"0q..<12<022221<6>>5.>;;;5yzxxzh65q5.0111w<22221w5;.5.;;.;tpxxxhp",
"5q<q6<<5.5<5w<655012q.0q.58ahtt365ww.w25..w36135.q<<w.50q.6yzfyq",
"<wq5q<5;..;;66<<12221w1e63w1w3w0q<065<w.:5;;.6w122222we1063we37w",
".;>;>5.52<00w11<:+v6+3saZ#Xv#$,:..>;;..;w1w3w1116++6::edaM=+:@$:",
">655q.>0ww121w6vAZ$cAczGGkc&AzMC6>q50.;.www12<3vcZA=BcfGxxS*@kSc",
"ks221q;>nm6w9NSkGxkxGGGgmglBkdxGxfs12<..>mm3tCZgxGklGGxx98xZihdx",
"dzu11qyehzzhdsdhy55ygCt>:n8te1uddhd12<6takhzdssdk74maymm>:68ee2d",
"66w211221e22s212e10q5>;.>;;;.5006661212u2212uu222<<6q.>>;;;;>55w",
"Cyt2222212uhzzs22<<<65..05>>;.5.5yt<2222222djxdu22<<055>qq.;::..",
"zxh122222dhxdhxzu<30qq5<1w..qwdshxju22221uhjhdjxd20qqqq0116:6w2d",
"fyzhhuu1<12u11dds22222222111rdkgg9gzhds2<12uu22dd2222222211<1pkk",
":;m8t8y6>qq0<w<w212e2222211w.nqq>>>ty8tt..q5<<<<<1122222221<6.50",
"6>;.>;;;;;;..533<222222222w7qw2<q.;>>;;; ;;:..50w2221222211wq012",
"s55<<6655qqw<<22222224:v2w::022dde.0<05q.q60<<<1222213 vw15+4122",
"jyq221221sdd221w<2<3#Nc=+#cAMqdxxh8w11122uddu11ww<1<v#A-#,#ANveh",
"xxd22shjzGGhe1:@X+@X$xGgcAxGkDzxxxzr12dhxxGxde3#o#+@&ZGkZcFGxFaG",
"xxxd2uddahd0#+$gNXAiNDxxxxGxjxxxxxxhu2dhadae:$#Bi--DVAxxGlxxzxxG",
"CxGzhu211se:VSZxxkxxxxkifxjsrdxfnkGxjd2222s3cgAkxzxxGxxgfkxhuszk",
"ndddu22uhzzkGxd2dGde7yn:>ws21q5>;tdduu22dhxzzGjssxjutyt>;5uu2wq>",
">6<222ujd2hxhs21she5::::>q0<.>..>>w222uhhusxhd221dd0;;>;:50w0>:5",
"qqq111up<22u112w035:55>>>;>>>>02wqqw1222111u211ewqq>.q.;::;>>;>e",
"111111<.q1221121w5.5<e50w5>.0qq211111115.w212212wq5.0<qqw0.:5w5<",
"12w.50.:>w1122shd2rps2222<ww2<wr11<6.q6.:6<2222dh2rpsu1<12ww<1<1",
"20.:.;;:>>5qwdzGxzzxft<w0q..020w215>;>::;.550whGxjzGkye<005.qww0",
":,;:>>.;::.qwedzxGhyq5..>;>;>.::>,;>.:.;;;>501uhxxzaq5..>;;>>>>>",
"%&O450,Xo;w2shzxGh10<<55>>;;>;,,*&* .65XX,52udjzGxsw<<0q.>;>;;,;",
"c&*cc$BD$*8ahhhGxs122e0.;>>;:o&$c@%-c$ciV*OdhhhxGz1211w5>;:::,**",
"xcVGzkxxlDks212hjhhu212<w.>>,*VkGDckGkkGxgFdu21skxdhu211w0>>;XcF",
"xkGxGxxxxxxhhu12uhds22221ppfSZxxxxxxxGxxxGGhhd112hdsu21212ppFVkG",
"pxjddjddxGGxGhuhd21e22221ssshzGzuhxhshjuzxGxGxsdhs2222222ud1ahxx",
"2du22122jxjhxjhxzdddds22222122ds22d12212dGxjjxhxxhdddd222211e1sh",
"22222222usu2usss2w6550<w<2<ss22r21u22122eup2uussueq555<0w222s221",
"<w5022211212221e5.>>;> :qsdjjdse<2q6<2111112111<w.>>;>.>>eszxhur",
"456.01105w<<1165;6005;..>mSzxgf5.555.<2<601<<1<6>>00q;>.>ntkxkgy",
"0<<q010>:55.50w0ww12e521w07ppwww00<wqw1.;....0w00w11<q02w0wepee0",
"q5.;505>66..0w12w0ww0w2tv+ wv:6>.05>;qq.60..q0w2ww0eww2r7v,33+55",
"..>..>;022222215--XO@+hxkV&X-Zo>.:>:..;.<211212w:$=o$XyzxDc*@Ac#",
"80w<<5;55501w4vVkxDDkSGxkxS-gxDka6ww<0..566w13vbDlkZkDkxkkk$AzzS",
"zzs11qnn9fSai9jGk9ykxkzt:8kidehjzzd21<.n89fffiajGfCkxzkFn>ggassz",
"ep111wsssdssu22s<05mm:>;:::5qw<1epr12<essddss22upw6n8>>>:>>>50wu",
"n>022221121sdd2212<<q6.;..::;>5q>m5e2211222uddu222<1w65;>>:;:;.6",
"gzd222211ddxxxhd1<0q6..q<q;>>qqqtxa222111udhxxhhu20qq5>5<<.;>500"
};
