/* XPM */
static char *result[] = {
/* columns rows colors chars-per-pixel */
"64 64 218 2 ",
"   c #1A2635",
".  c #1B2D3D",
"X  c #1D323C",
"o  c #232B37",
"O  c #332F38",
"+  c #263439",
"@  c #2C3B3B",
"#  c #363637",
"$  c #463A3D",
"%  c #2B413E",
"&  c #39493B",
"*  c #36523D",
"=  c #48473E",
"-  c #46553C",
";  c #4C5A3B",
":  c #4D633C",
">  c #55673C",
",  c #66773D",
"<  c #1D2E41",
"1  c #1C3642",
"2  c #1D3B44",
"3  c #203346",
"4  c #213945",
"5  c #243A4D",
"6  c #253D52",
"7  c #1E454D",
"8  c #1E474C",
"9  c #1F4C50",
"0  c #294646",
"q  c #22434C",
"w  c #244A4D",
"e  c #374B43",
"r  c #2B524E",
"t  c #275849",
"y  c #385748",
"u  c #244353",
"i  c #264555",
"p  c #29465D",
"a  c #264C5B",
"s  c #294B5E",
"d  c #235252",
"f  c #2A5451",
"g  c #275759",
"h  c #24555D",
"j  c #245B5D",
"k  c #345751",
"l  c #356A4A",
"z  c #256757",
"x  c #266C5C",
"c  c #316251",
"v  c #277259",
"b  c #337653",
"n  c #294F60",
"m  c #275560",
"M  c #295362",
"N  c #255C63",
"B  c #295B64",
"V  c #256364",
"C  c #2A6364",
"Z  c #256A64",
"A  c #2B6D64",
"S  c #276569",
"D  c #296669",
"F  c #266C6C",
"G  c #286B6C",
"H  c #2C7364",
"J  c #2B7B64",
"K  c #26756A",
"L  c #26716E",
"P  c #29746B",
"I  c #297C6C",
"U  c #277270",
"Y  c #484842",
"T  c #574642",
"R  c #5C4A45",
"E  c #4A5A42",
"W  c #585941",
"Q  c #425B52",
"!  c #685347",
"~  c #75594A",
"^  c #486748",
"/  c #586745",
"(  c #4A784C",
")  c #5D7343",
"_  c #597749",
"`  c #4F6852",
"'  c #636744",
"]  c #617342",
"[  c #677A49",
"{  c #787B49",
"}  c #607154",
"|  c #805F4C",
" . c #89654F",
".. c #867F4E",
"X. c #2C825F",
"o. c #3A8757",
"O. c #2C8465",
"+. c #2E8E66",
"@. c #2B836B",
"#. c #2C8C6A",
"$. c #348567",
"%. c #2E9469",
"&. c #349467",
"*. c #3D9264",
"=. c #359A66",
"-. c #3A9E64",
";. c #309668",
":. c #329868",
">. c #3DA163",
",. c #4B9C56",
"<. c #6C8445",
"1. c #65834C",
"2. c #6B8A4A",
"3. c #768847",
"4. c #7B9346",
"5. c #76924A",
"6. c #7A954A",
"7. c #668958",
"8. c #748956",
"9. c #6D9358",
"0. c #76995A",
"q. c #729B5C",
"w. c #47A75F",
"e. c #49A55E",
"r. c #4BAA5E",
"t. c #52AF5B",
"y. c #55B25A",
"u. c #59B559",
"i. c #7DA55C",
"p. c #7EAA5E",
"a. c #69BA5A",
"s. c #73B95C",
"d. c #439861",
"f. c #6D966F",
"g. c #6E9A6D",
"h. c #769C65",
"j. c #7A9E66",
"k. c #72976F",
"l. c #749A6C",
"z. c #7A9A6D",
"x. c #648F76",
"c. c #669074",
"v. c #6B9372",
"b. c #739670",
"n. c #44A461",
"m. c #46A862",
"M. c #76A663",
"N. c #79A662",
"B. c #7BA861",
"V. c #7EC25D",
"C. c #82824B",
"Z. c #8B8A4C",
"A. c #849A49",
"S. c #94944F",
"D. c #839650",
"F. c #86A149",
"G. c #8AA34A",
"H. c #8EAC4D",
"J. c #91AD4B",
"K. c #97B64F",
"L. c #99B74E",
"P. c #9BB84D",
"I. c #85A955",
"U. c #8CAE56",
"Y. c #83A65C",
"T. c #84AD5B",
"R. c #8AAE5A",
"E. c #90AF57",
"W. c #93AE5E",
"Q. c #9AAE5E",
"!. c #8DB155",
"~. c #8BB058",
"^. c #8FBA5A",
"/. c #93B452",
"(. c #9BB653",
"). c #9EB850",
"_. c #96B05B",
"`. c #9CB15C",
"'. c #A0B74F",
"]. c #A1B84F",
"[. c #A5A853",
"{. c #AEAA56",
"}. c #B2AF58",
"|. c #A2B654",
" X c #ABB655",
".X c #A4B851",
"XX c #ABB953",
"oX c #A3B25C",
"OX c #ABB35D",
"+X c #A6BD5B",
"@X c #B6B756",
"#X c #B3B956",
"$X c #B3B55C",
"%X c #BAB75B",
"&X c #B6B958",
"*X c #BCB95A",
"=X c #809A67",
"-X c #829D6C",
";X c #83A462",
":X c #8AA466",
">X c #83AA61",
",X c #8BAC60",
"<X c #86A069",
"1X c #8BA169",
"2X c #93A666",
"3X c #98A766",
"4X c #91AD60",
"5X c #9CA964",
"6X c #91A468",
"7X c #A4AD62",
"8X c #A9AF61",
"9X c #ABB060",
"0X c #C1BA5A",
"qX c #87C55C",
"wX c #A3CD5F",
"eX c #A2CE60",
"rX c #ACD060",
"tX c #BAD662",
/* pixels */
",XB.oX&X$X|.|._.~././.L.P.P.P.P.P.P.P.P.P.L.P.P.P.P.P.P._.Q.`.`.W.B.W.$X$XOX.X|.~.!.L.L.L.P.P.P.P.P.P.P.P.P.P.P.P.P.P.P.K.E.5X`.",
"B.M.B.B.B.B.>XB.M.p.p.p.T.T.~.!.K.P.P.P.P.P.P.P.P.P.!.R.B.I./.!.B.B.M.B.B.B.B.B.M.p.p.M.T.T.~.!.!.P.P.P.P.P.P.K.P.P.K.R.T.p.~.K.",
"(.p.>XR.R.p.p.B.B.p.p.~.!.!.K.L.P.P.P.P.L.K././.P.K.!././.P.P.P.(.!.B.T.~.T.B.B.M.p.p.T.~.~.!.P.P.P.P.P.P.K./._./.P./././.P.P.P.",
"#XR.R.P.P./././.~.L.(.P.P.P.P.P.P.P.P.P.T.l.k.k.U.Y.k.l.B.P.(.@X*X.Xp.K.P.(././.~.K.(.P.P.P.P.P.P.P.P.P./.j.l.b.B.E.l.k.h.U.P.].",
"*X&X_.P.P.P.P.XXXX#X*X%X).P.!.B.B./.T.z.z.9X9X1Xb.l.8X$X7X4X@X{.[.*XoXK.P.P.P.XXXXXX*X*XXXP.P.;Xi.R./.;Xk.1X$X5Xz.v.1X$X9X2X`.*X",
"*X*X#X.XP..X*X*X*X*X#X|.T.R.k.-Xb.v.b.-Xz.$X0X*XOX9X*X*X*X%X*XC.S.*X*XXXP.P.#X&X*X*X*XXXE.Y.N.z.N.c.v.-Xz.2X*X*X%X7X*X*X*X0X*X*X",
"OX*X*X#XXXP.].P.P.'.P.i.z.-X-X0X9X6X9X*X9X9X*X*X*X0X*X#XXX#X*XW { $X*X*XXXXXP.].P.].'./.l.1Xl.OX*X3X5X*X$X8X*X%X%X0X0X*XXXXX*X*X",
"T.%X*X*X#X].P.P.'.#XOX2X$X%X$X#X*X*X*XXX#X%X`.B.,X X#X(.(.(.D.3.[ Q.*X*X#XXXP.P.P.XX$X3X7X*X$X+X&X*X*X#XOX#X$X,XB.`.#X.X).P.|.`.",
"B./.P.P.P.P.P.#X#X#X*X0X*XXX.XP..X*X.X~.p.p.M.B.p.!.L.P.U.B./ wXD.[ P.P.P.P.P..X*X#X#X0X*X&XXXP.(.#X#XL.T.B.B.M.B.T.K.P.K.T.B.M.",
">XT.!.L.P.P..XXXP.P..XXX.XP.P.L.L..X_.p.B.B.B.B.B.p.p.~.B.M.] tXwX^ i./.P.P.P.XX].P.P.#XXXP.P.P.P.).).T.M.B.M.M.B.B.>XT.T.M.p.^.",
"(.K./.P.P.P.P.!./.P.P.L.P.P.L.!.T.T.B.B.!.!.p.p.T.M.M.M.T._ D.tXtX_ 5.K.P.P.P./.!.P.P.P.P.P.P.K.!.p.p.M.T.L.R.p.T.B.B.B.p.T.p.L.",
"P.P.P.!./.P.T.M.p.P.P.P.P.P.P.].P./.~.!.P.P./.K.L./.T.~.H._ rXtXtXI.: J.~.K./.B.M.!.P.P.P.P.P.]..XL./.T.L.P.K./.P.K.!.T.!.L.!./.",
"P.L.T.B.p.p.B.B.B.~./.P.P.].XX*X#XXXXX*XXX.XP.P.L.K.!.!.6.2.eXeXV.eX: 7.s.p.B.B.p.p.!.P.P.P..X*X*X+XXX#X&X+XP.P.P.K./.!.K.P.P.P.",
"!.T.B.M.M.M.M.B.M.M.B.T.~.|.*X*X*X*X*X&X4XT.~.T.p.p.M.M.^ /.qXqXV.V.s.y q.M.M.B.B.M.M.p.R./.XX*X*X*X0X*X`.T.R.~.p.p.B.M.p.T.T.p.",
"f.f.B.T.R.T.N.l.M.M.~./.P..XXX*X*X*X|.!./.!.R.p.M.M.M.9.( V.u.a.V.w.u.o.^ T.I.l.g.M.p././.P.XX#X*X*XXX/.!.K.~.T.B.M.M.M.B.M.B.M.",
"c.c.v.h.z.>Xz.N.f.g./.].#X*X*X*X*XXX(.P.P.!.T.p.M.M.i.( ,.u.y.a.qXw.e.y.b 7.N.-Xz.f.p.P.XX&X*X*X*X*X.XP.P.K.T.p.B.B.B.B.M.M.g.f.",
"7Xb.z.7X7X1X$X*X5X<X5XXX.X.XXX*X*X.X.X].P.P.K.T.I.B.7.l y.w.r.a.a.u.b b n.c } {.$X<X6XOXXX.X.X#X*X#X.X.XP.P.L.!.T.p.B.M.M.g.v.<X",
"*X5X$X*X*X*X*X*X*X*X*XXX.XP.P..X#X*X#XXXP.P.P.P.<.( b e.o.b u.y.u.y.t.z t X.t C.*X*X*XXX.X.XP.P.XX*X&XXX.XP.P.P.P.K.,X~.:Xz.5X*X",
"&X*X*X*X&X*X%X*X0X*X*X*X*XXXP..XP..XP.P.P.L.P.K.] t b t 0 ,.d.&.r.-.w.&.w - { }.*X*X*X*X*X*XP.]..X.X].P.).P.P.P.P.P.XXXX&X$X*X*X",
"P.#XXX).).XX.X).*X*X*X*X*X&XXX*X&XXX.X.X.X.XP.P.K.A.; . o.*.I n.>.;.;.-.x / |.P.#X0X0X*X*X*XXX#X*X#X.X.X.X.XP.P.P.P.P.P.)..X#X*X",
"P..XP.P.P.P.P.P.XX#XXX.XXX#X#X#XXX.X(./.(.).(.L.L.J.& z ;.#.#.=.w.%.%.%.+.t A.P..X#X#X.X.X#X#X#X#X.XP.(.(.`.).P.P.P.).P.P.P.P..X",
"P.P./.L.P.P.P.P.P.P.P.P.P.P.P.L./.T.B.p.M.T.T.T.K.3.w #.=.:.#.%.%.%.%.;.%.K - J.P.P.K.P.P.P.P.P.L.~.p.M.M.p.~.T.T.(.P.|.#XXXP.P.",
"!.T.p.p.K.P.L.L./.P.P.P.P.P.(.!.B.B.p.p.M.M.M.p.0.e I =.n.%.%.=.:.:.O.%.=.%.d - A.!.P.P.P.P.P./.T.M.p.p.p.M.M.B.p._.XX*X*X*X#X|.",
"p.!.K.~.T.P./.p.B.~./.T././.T.T.T.!.P.P.~.p.I.1.r J =.r.>.%.:.m.>.d.m.I t.=.+.w f ^ H.~.~.L.!.T.p.R.L.L.K.p.T.!.T.p.T.`.&XoX_.~.",
"K./.!.p.!.P.T.B.p.p.M.M.T.!.K.P.P.P.P.P.H.E l j P ,.u.o.o.=.r.y.u.u.u.*.m.n.m.t 0 1.M.B.p.~.!.P.P.P.P.P.P./.(.P.!.~.U./.P.U._./.",
"p.B.B.B.B.p.M.T.P.K.!././.K.(./.N.z.i.R.h./ @ 4 l ,.l z ;.r.u.y.y.n.u.r.=.e.-.x / /.!.!./.L.L.P.R.z.j.U.B.B.(.XXoX:Xv.j.N.b.h.M.",
"B.T.T.T.!.p.B.!./.K.K.P.K./.R.;X2X5X-X-X6Xj.Z.& * @ V %.d.u.w.>.u.&.d.u.>.%.%.#.f 4./.K.L.K.!.;X:X5X1Xb.6X-XoX*X0X0X7Xv.z.$X7X-X",
"$X.XP.P.L.~.M.p.>XT.T._.`.1X7X$X0X$X$X*X*X*X*XC.1 P ;.n.m.+.=.:.m.n.@.d.m.%.+.%.I d _ I.(.6X5X9X*X*X$X%X0X0X0X*X`.W.*X5X7XXX@X*X",
"#X&X).P.P.~._.`.#X&X&X#XXX.XXX#X`.T.T.`.OX4X5.r K %.:.=.;.n.u.>.:.w.=.#.%.%.v x J @.C E  X|.XXXXOXE.>X,XoX`._.,XB.M.,X_.`./.P.XX",
"T.T./.P.P.K.P.P.).).P.P.P.(.P.P.P.(.!.I.0.y g K @.#.%.@.e.u.u.-.%.%.>.%.+.J %.t . 4 % <.P.P.P.P.P.P.K.~.!.p.B.M.M.M.M.M.i.T.~./.",
"_.`._.P.P.P.P.L.P.).).#X*X&X.XP.P.K.K.) r S L S Z #.I $.t.u.y.=.>.:.%.@.+.z j Z w - A.L.%X*XXX'.P.P.K./.!.T.p.B.~.~.p.M.M.B.p.p.",
"*X*X#XP.P.P.P.P.P..X#X*XXX#X*X#X.X/.~.[ e t 2 7 K K O.y.t.t.-.-.=.%.#.@.I #.v d d t ; {.@XXX#X*XXXP./.!.!.~.~.!.P.P.T.p.R.!.).XX",
"oX`.&X#X#X]..X).(.P.P.].P.P..XXX'.P.P.P.G., w I #.*.r.m.>.:.:.=.:.%.%.@.I I %.#.p @ A.].P.P.)..XXXP.P.P.P.P.P.P.P.P.P./.P.|.$X$X",
"B.M.,X_.`.W._.T.p.T.~.!././.P./.P.K.F.A.[ f A %.;.>.=.n.=.%.%.%.%.:.;.;.%.@.#.%.A 6 E i.K.K.K.L.L.P.P.P.P.P.P.P.P.P.P.(.~.p.T.~.",
"T.B.M.p.M.M.M.M.M.M.M.p.p.T.R.U.K.J.- f z L @.#.#.#.%.#.%.%.%.#.%.=.:.;.>.%.%.+.x C z y q.p.T.~.!.P.P.P.P.P.P.P.P.P.K.U.~.~.P.P.",
".XT.T.L.L.T.~.T.p.!.~./.K.K.P.P.P.K.4.& X 2 h I #.%.#.@.%.%.:.I K >.w.>.>.>.%.%.x d G Z y <.K.L.P.P.L.P.P.E.=XB.!.P.I.N.T.L.P.).",
"*X`.~.P.P.P.P.P.P..XXXXXP.P.K./.K.K./.U.` 3 C %.-.>.%.%.-.>.>.#.I :.y.u.y.y.>.v O.j X 8 k ] P.K./.L.L./.;Xz.1Xz.k.N.l.6X1X;X(.#X",
"*X0X|.P.P..XXX*X*X*X0X#XP.P.N.b.f.0.7.Q i h $.-.>.;.%.n.n.m.;.%.@.%.w.>.r.y.w.O.d x j q 3.J.U.k.g.l.N.k.c.5X0X%X3X-X9X0X*XOXOX*X",
"*X*X*XXXP.].XXXX#XXX.X/.l.z.l.9X8.r u a H #.#.I P %.n.y.=.-.%.;.#.%.:.>.%.=.r.%.M 6 @ ) 9.z.k.2XoXb.z.8X3X6X*X*X0X%X*X*X*X*X*X*X",
"W.*X0X*X#X].P.L.P..X`.N.3X7X7X*XS.% S F I V w a A n.t.=.@.%.A #.;.%.%.%.@.@.>.%.A p & Y.z.$X2X%X*X%X%X*X*X*X*XOXQ.$X*X#XP.].*X$X",
">XXXXXXX).P.P.].#X*X&X$X*X*XXXP. XZ.@ . 1 3 p C =.e.&.H J J B @.>.+.J %.#.L @.#.@.m 5 ' }.0X%X.X].*X*XP._._.W.B.B.T..X].P.!.~.>X",
"M.R.L.P.P.P.XX#XXXP.#X*XXX.XP.F.] Y 6 < 6 h H &.-.$.j H #.H U I >.&.h H #.L L L L S s 4 > A.(.J.P.XXXX^.B.B.M.B.B.T.!./.!.B.M.T.",
"!.T.!.L.P.P.].).L.L.P.P.P.P.P.<.e 3 . p s B C g M s P @.@.I U @.%.%.I S L L F F S F B s j r 0 % 5.!.~.p.p.T.B.B.B.M.N.B.M.p.p.L.",
"P.P.P.P.P.P./.p.R.L.P.P.P.P.K.6.e q m D S p p p n N L #.I U U I @.@.@.L L F S S j u N S G V r ; G.~.p.M./.P./.T./.U.B.B.T.!.T./.",
"P.P./.B.T.!.p.B.p.K.L.P.P.P.G.+ N U D S B 5 m S F F U L F S L U @.L L U F G L F I 9   % * ; 4.XX#XP.).(.XX).K.(.P.P.K./.P.P.L.P.",
"P./.B.M.M.M.M.M.M.p.T.~.E.XX@XC.Y 0 i 3 . u s M B S N F S S F F L U F L F a F I #.@.z 0 e ) #X*X*X*X*X0X&X`./.K.!.!.T.B.T.L./.!.",
"N.h.M.B.B.B.B.M.M.M.p.~.K.P.XX*X{.C.& 1 m B M p p p n F B N S L B N F U L N 8 L @.#.I K r 3.P.#X*X*X*XoX~.T.p.p.B.M.B.M.M.M.B.M.",
"x.x.M.;XY.U.N.g.f.M.K.].|.@X#X*XZ.q N U S n M B S 1 a F F n m G p p M F F L j 8 V V j 8 3.XX#X*X*X*X.X/./.P.!.~.B.B.M.M.B.M.M.M.",
"z.v.v.-X<Xl.3X9Xz.v.W. X#X#X#X*X@X] 0 f j j j d X . p s s 3 m p 6 M 6 i B F D i 1 3   [  X#X#X*X0X#XP.P.P.P.!.T.M.M.B.B.B.M.c.v.",
"*X<X3X0X*XOX*X*X$X8X$XXXP.P.P.#X*X#X[.<.; - > , X g M p 5 3 s 6   N M < 4 u m S U z E [.'.P.P..X*X*XXXXXP.P.P.L.K.!.B.B.M.v.-X8X",
"*X$X%X*X*X0X*X*X*X0X*XXX#X|.P.P..X#X|..XL.K.[ q j F F u . N M < O u U B h 2   4 e W {.@X#X#XP.P.P.XX#X.X.XP.P.P.P.P.+XoXOX5X$X0X",
"|.&X&X#X#X&XXXXX0X*X*X0X0X#X].#XXX].P.P.P.P.J., 0 r @ o 4 j i O R O 7 N d / S.A.[.$X*X*X*X*X].XX#X.XP.P.P.P.L.P.P.P..XP. X$X%X*X",
"P.XX].P.P.P.P.P.*X*X*X#X*X*X#X*X*XXXXXXXXX.XK.P.G.<.> # $ O ! |  .$ O # : J.P.P.XX*X*X@X*X*X#X*X*X#XXXXXXX|.).(.P.P.P.P.P.P.].#X",
"P..XP.P.P.P.P.P.]..XP.P.].'..X].P./.T.T.T.!.K.U.G.<.; $ ~ $ ~ R  .Y T ) 3.K.P.P.P..X.XP.P.]..X.X.X).!.T.T.T./././.L.P.P.|.P.P.P.",
"/./.T.!.P.P.P.P.P.P.P.P.P.P.P.(.T.p.M.B.B.B.p.q.1.3.{ = ~ $ = ! = ! E E <.F.P.P.P.P.P.P.L.L.K.P.!.T.M.B.B.M.B.B.B./..X*X*X&X]..X",
"p.T.~.p.~.L.L.~.R./.P./.K.P.~.T.M.R.!.!.T.M.p.p.9.8.{ ..! ' / { / } 1.1.9.H.P.K.T.R.P./.K.P.K.~.B.B.!.!.~.B.B.T.B.,XW.OX*X$X XQ.",
"!.K.L.~.!.P.!.B.M.p.T.p.T.!./.!.!.K.P.P./.T.K.K.!.G.5.4.3.4.5.<.6.6.5.A.R.K.L.p.B.B.p.p.p.!.!.!.!.K.P.P.K.~.U.P.!./././.|.(././.",
"!.T.p.M.p./.p.B.~.R.p.p.!.!.P.P._.!././././.P.(.;Xj.j./.0.j.Y.q.i.U.p.B.M.~.~.p.T./.T.p.~.!.K.P.K.E.U.P./._.P.'.W.B.z.U.U.j.Y.T.",
"M.p.B.p.p.B.M.!.P.P.P.L.P.P.P.p.z.z.g.l.k.z.#X*X$X3Xv.v.z.5Xl.B.>XM.B.B.p.p.M.p.P.P.P.P.P.P.P.!.j.z.b.k.l.k.Q.@X%XOX-Xv.g.1X<Xl.",
"_.!././.P.T.M.T.~.T.!.K.(.Y.;X3X$X%X8X8X$X7X*X*X$X*X5Xz.9X*X7X$XOX,XK./.L.!.p.p.T.T.T.!.(.R.>X6X8X%XOX5X$XOX}.tX$X$X$Xz.6X*X&X7X",
"*X#X.XK.P.R.>X>X`.`.oXoXoXoX$X0X$X_.`.&X%X&X$X_.N.4X$XOXXXP.#X*X&X*X+XP.L./.p.>XR.oX7XoXOXoXOX*X*XoX4X$X*X&X$X9X,XB.OXOXOX]..X*X",
"(..XK.P././..X.XXXXX.XXXP.P.P..X/.!.T.,X,XB.B.B.B.M.B.>XT./.P.P./..X.XK.P.K.K..X.XXX.XXX'.P.P.]..X/.R.B._.B.B.B.M.M.B.B.R.!.K.P.",
"B.>X!.P.P.P.P.P.P.P.P..X#X.XP.P.P.P.L.(.~.T.p.M.p.B.M.B.M.B.T.R.B.>X>XK.P.P.P.P.P.P.P.P.XX#XP.P.P.P.P.P./.T.p.B.B.B.B.M.M.M.p.R.",
"9X&X.X).P.P.P.P.P..XXX*X*X*X#XXXP.K.!.~.T.T.p.~.L.~.M.M.p.T.!.!.`.*XXXP.P.P.P.(.P.'.XX#X*X*X*XXX].P.!.!.~.T.p.T./.P.p.M.B.T.~.!."
};
