/* XPM */
static char *result[] = {
/* columns rows colors chars-per-pixel */
"64 64 207 2 ",
"   c #171D2E",
".  c #1B212E",
"X  c #1F2B33",
"o  c #24282E",
"O  c #232A32",
"+  c #272936",
"@  c #2E2E32",
"#  c #322E35",
"$  c #2C3334",
"%  c #2A3636",
"&  c #2A3239",
"*  c #2D3C3B",
"=  c #333333",
"-  c #3B3537",
";  c #343C34",
":  c #443B37",
">  c #2D403B",
",  c #39483A",
"<  c #454B33",
"1  c #454839",
"2  c #54463D",
"3  c #564B3D",
"4  c #4B583B",
"5  c #525634",
"6  c #5A5D36",
"7  c #5C5A3D",
"8  c #685B3F",
"9  c #53643D",
"0  c #5C643C",
"q  c #676A3A",
"w  c #796D3E",
"e  c #6A7136",
"r  c #777C38",
"t  c #303742",
"y  c #364C45",
"u  c #394C44",
"i  c #584741",
"p  c #445741",
"a  c #505355",
"s  c #624F41",
"d  c #6C5842",
"f  c #785A49",
"g  c #4C674B",
"h  c #546D46",
"j  c #566C4A",
"k  c #5A7447",
"l  c #4D6759",
"z  c #556D54",
"x  c #5B7C52",
"c  c #5A745A",
"v  c #626442",
"b  c #786742",
"n  c #6C7448",
"m  c #7A7E4D",
"M  c #657654",
"N  c #756764",
"B  c #896C49",
"V  c #916B4E",
"C  c #96794A",
"Z  c #956C51",
"A  c #9F6F54",
"S  c #9E7154",
"D  c #A27E4F",
"F  c #A57556",
"G  c #AD7C57",
"H  c #AD7B59",
"J  c #5E8254",
"K  c #64814B",
"L  c #708F4E",
"P  c #7C9446",
"I  c #7A974B",
"U  c #658853",
"Y  c #799B58",
"T  c #7BA157",
"R  c #7BA25C",
"E  c #7EAA5E",
"W  c #7A8F63",
"Q  c #6D966F",
"!  c #6E9A6D",
"~  c #779F67",
"^  c #799F66",
"/  c #72976F",
"(  c #749A6C",
")  c #7A9A6D",
"_  c #648F76",
"`  c #679174",
"'  c #6B9372",
"]  c #739670",
"[  c #779870",
"{  c #76A663",
"}  c #79A662",
"|  c #7BA861",
" . c #868A3B",
".. c #9CA13D",
"X. c #ABAD3F",
"o. c #B2B93E",
"O. c #C4CA3F",
"+. c #CDD33F",
"@. c #E5E83F",
"#. c #E7EC3E",
"$. c #E8F13D",
"%. c #898545",
"&. c #94884A",
"*. c #809D4C",
"=. c #9A9F4F",
"-. c #868A52",
";. c #8C955B",
":. c #969754",
">. c #A5874B",
",. c #AC8A4E",
"<. c #AA9B45",
"1. c #B69C4C",
"2. c #B88757",
"3. c #B38A54",
"4. c #BB9651",
"5. c #8AA74C",
"6. c #93AA4C",
"7. c #97B64F",
"8. c #99B74E",
"9. c #9BB84D",
"0. c #8CA456",
"q. c #8CAE56",
"w. c #83A75E",
"e. c #84AD5B",
"r. c #8AAE5A",
"t. c #95AA57",
"y. c #93AE5E",
"u. c #9AAF5E",
"i. c #8DB155",
"p. c #8BB058",
"a. c #93B452",
"s. c #9BB653",
"d. c #9EB850",
"f. c #95B05B",
"g. c #9CB15C",
"h. c #A0B74F",
"j. c #A1B84F",
"k. c #B4B24D",
"l. c #A3A254",
"z. c #A2B753",
"x. c #ACB756",
"c. c #A4B851",
"v. c #ABB953",
"b. c #A3B25C",
"n. c #ABB35D",
"m. c #B3B956",
"M. c #B8B857",
"N. c #B3B55C",
"B. c #BAB65B",
"V. c #B6B958",
"C. c #BCB95A",
"Z. c #8B9A60",
"A. c #829D6C",
"S. c #82A462",
"D. c #8AA466",
"F. c #83AA61",
"G. c #8CAC60",
"H. c #85A069",
"J. c #8BA169",
"K. c #94A666",
"L. c #98A766",
"P. c #92AC61",
"I. c #9CA964",
"U. c #91A468",
"Y. c #A4AD62",
"T. c #A9AF61",
"R. c #ABB060",
"E. c #C39556",
"W. c #C49C53",
"Q. c #C4A64F",
"!. c #D5B94E",
"~. c #CDA453",
"^. c #CBAE52",
"/. c #CEB150",
"(. c #C1BA5A",
"). c #D3B450",
"_. c #C5C544",
"`. c #D9C44D",
"'. c #D7C94A",
"]. c #DBD845",
"[. c #DCD449",
"{. c #DEDA56",
"}. c #E2DE47",
"|. c #E3DB49",
" X c #E5E446",
".X c #E6EB44",
"XX c #E8EE43",
"oX c #EAF243",
"OX c #E0E45F",
"+X c #D7DC62",
"@X c #ECF070",
"#X c #787B85",
"$X c #949892",
"%X c #B5B7BB",
"&X c #D1B59E",
"*X c #D9DB9E",
"=X c #ECED83",
"-X c #EFF480",
";X c #F3F799",
":X c #E4D8AA",
">X c #F1F3A7",
",X c #D6D8D8",
"<X c #E4D3CB",
"1X c #F5F8C7",
"2X c #F2F0D5",
"3X c #FBFCE5",
"4X c #FDFDFC",
/* pixels */
"G.| b.V.N.z.z.f.p.a.7.7.8.8.8.9.9.9.9.9.9.8.8.9.9.9.9.9.q.u.g.g.y.| r.N.V.n.z.z.p.i.8.7.8.8.7.9.9.9.9.9.9.s.8.9.9.8.8.9.a.f.g.g.",
"| { | | | | F.| | | | E r.r.r.i.8.9.9.8.9.9.8.8.8.9.i.p.E r.a.i.E } | | | | | F.{ | E | e.r.p.i.a.7.9.9.8.9.9.8.9.9.7.q.e.E i.a.",
"s.e.| r.p.E E | | E | p.p.i.7.8.9.9.9.9.7.7.a.a.9.7.a.a.a.8.8.9.s.i.| e.r.e.{ | | | | e.p.p.i.7.9.9.9.9.8.8.a.s.8.8.a.a.a.7.8.8.",
"m.r.r.9.8.a.a.a.i.7.d.9.9.9.9.9.9.9.9.8.r.~ Q / i.S./ ( S.8.9.m.M.c.F.a.8.d.a.s.p.7.d.9.9.9.9.9.9.9.9.9.a.^ / ' } a.( / ( q.9.v.",
"C.V.s.8.8.8.9.v.v.m.M.B.9.8.a.} | f.w.) [ R.R.J./ / T.N.Y.y.N.C.C.C.z.8.8.8.9.c.x.m.M.V.v.9.d.F.E e.a.S.] J.N.L.) ' J.N.n.K.s.C.",
"C.C.m.j.8.v.M.C.C.C.V.z.e.r./ A.] ' ( A.) N.C.C.n.n.C.C.(.B.C.(.(.(.C.v.9.9.V.V.C.C.M.m.f.w.} [ ^ Q ' A.[ L.C.C.B.T.C.C.(.C.B.C.",
"n.C.(.m.v.j.j.j.9.j.s.R ) J.J.C.R.U.N.(.R.N.C.C.C.(.C.m.x.m.(.B.Y.B.(.V.m.j.j.j.9.9.9.7.( D.] R.C.I.I.C.N.T.C.B.B.(.(.M.x.m.C.(.",
"F.B.C.B.v.j.8.9.j.m.n.U.N.B.N.x.C.C.V.x.x.B.g.| G.n.m.8.8.s.b.r.{ b.C.V.V.v.9.9.9.v.V.I.I.B.V.v.m.C.C.m.x.V.N.G.F.g.m.c.8.9.z.u.",
"| a.d.9.9.9.d.v.m.m.C._.B.m.s.9.c.C.c.i.E F.| | E a.9.9.i.E { { { r.d.9.9.8.9.j.V.m.V._._.N.n.d.d.m.m.7.E | | { { e.9.9.7.E | | ",
"F.E i.7.9.9.c.v.9.9.c.v.z.s.9.d.9.c.p.| | | | | { E E e.| | e.7.r.| e.7.9.9.j.v.c.9.s.x.c.9.s.7.9.d.d.e.| | | | { | E e.E | | i.",
"8.7.7.9.9.9.7.i.a.8.8.9.9.9.9.i.r.E | | i.a.| E E E { | E E i.9.7.7.7.7.8.9.8.a.i.8.d.8.9.9.9.7.p.E | { r.7.e.| r.E { | E E E 9.",
"9.9.8.i.7.d.e.| E 8.9.9.9.9.9.c.d.7.p.p.9.9.i.9.9.a.p.p.9.a.i.9.9.9.7.7.i.8.a.E { i.9.8.9.9.9.c.c.7.a.e.7.9.7.7.9.7.i.r.a.9.p.7.",
"9.8.e.| E E | | | p.a.9.9.d.v.C.V.v.v.V.m.j.9.9.a.a.i.a.d.d.7.9.9.9.7.| { | E { | e.i.d.9.9.c.V.V.v.v.V.V.v.d.9.7.7.a.p.7.9.7.9.",
"i.e.| { { { { | { { | E p.z.V.C.C.(.C.V.p.e.i.e.E E { | e.p.E E i.p.| { { | { { | { | | e.a.V.V.(.C.(.C.g.e.e.p.E E | { | p.E E ",
"Q ' | r.r.e.| ! { { p.7.9.c.v.C.C.V.d.p.a.i.e.E { { { { { { { { ! Q ! e.r.r.e.( ! { E 7.7.d.c.m.C.C.v.a.i.7.p.e.E { { | { { E { ",
"` ` Q ( ) S.A.} Q ! 7.j.V.C.C.C.C.v.d.9.d.i.E E E | { | { { ' ! Q ` ` ( ( | | A.) Q | 9.v.V.C.C.C.V.d.d.7.9.e.E | | { | | { ! ! ",
"Y.! ) T.Y.J.R.(.I.H.u.m.c.c.v.C.C.j.c.j.8.8.8.r.e.E { { { ` [ I.R.J.' K.R.K.L.(.N.A.D.x.v.j.j.V.(.V.d.c.9.9.9.i.E E { { { ! ' J.",
"C.I.N.(.C.C.C.C.C.C.C.c.c.9.9.c.m.C.m.v.9.9.9.8.8.i.p.G.H.) N.C.(.N.Y.C.C.C.C.C.(.(.C.x.c.j.9.9.v.C.V.v.c.9.9.9.9.9.p.f.D.( I.C.",
"m.(.C.B.V.V.B.B.C.C.C.V.C.x.8.j.j.j.8.9.9.9.9.9.9.v.v.m.B.V.C.C.m.B.(.C.V.C.C.M.C.(.C.C.(.M.j.9.d.c.c.9.d.9.9.9.9.9.m.c.C.N.C.C.",
"9.m.x.9.j.v.c.j.C.(.(.(.(.V.v.C.M.v.v.j.c.j.9.9.9.9.9.9.c.z.C.x.9.c.V.j.9.c.j.9.x.(.(.C.(.(.c.V.V.m.c.c.c.c.9.9.7.9.9.9.d.c.x.C.",
"9.c.9.9.9.8.9.9.v.V.v.j.m.m.m.m.v.c.s.s.s.d.d.9.8.8.9.8.8.8.c.c.9.9.v.9.9.8.9.9.v.m.m.c.v.m.m.m.V.v.9.s.a.s.d.d.9.9.9.9.d.9.9.c.",
"9.9.a.8.9.9.9.9.7.7.9.9.8.8.8.8.7.e.| { { e.p.E a.8.c.v.m.9.8.9.8.9.a.a.8.9.9.9.8.8.9.9.8.9.9.8.9.i.E { { { p.e.e.d.d.c.m.c.9.9.",
"p.p.E E 7.8.9.8.a.9.9.7.8.9.8.p.| | E E | { { { | b.V.C.C.M.x.p.e.i.e.E i.8.9.9.a.7.9.9.9.9.8.a.E | E E F.| | { | a.x.C.C.C.V.z.",
"E p.9.e.r.8.7.e.{ p.7.p.a.a.r.e.e.i.9.9.i.| i.i.e.E f.x.m.f.f.r.p.E a.a.E a.9.p.{ E a.p.p.8.p.e.E r.9.9.7.| e.i.e.| e.g.V.b.f.p.",
"a.7.r.E i.8.r.| E E { { r.p.7.8.9.8.9.9.8.a.8.8.p.q.i.9.a.q.a.q.i.a.i.r.e.i.a.E E E R { | p.a.8.9.9.9.9.9.a.8.8.a.r.r.a.s.q.a.a.",
"E E | | { e.{ e.9.7.a.i.7.a.8.a.} ~ } r.^ r.j.N.I.( Q w.( ) { | E E | | R R R R i.s.i.a.a.8.8.8.r.) ^ r.} } d.x.n.H.] { ^ / ) { ",
"| e.E p.i.E { i.a.a.a.9.7.a.r.H.K.I.A.A.U.H.V.C.(.B.A.` K.B.H.P.p.| i.E 9 ; > g 5.a.7.9.8.a.a.S.A.I.U.] K.A.b.C.C.C.Y.' [ N.Y.A.",
"N.c.9.7.8.p.{ | F.F.p.a.g.D.Y.V.(.N.N.(.(.(.(.n.G.n.N.L.N.v.B.(.B.n.d.8.9 e r , p Y w.r.g.P.I.T.(.C.N.B.(.(.(.C.g.u.B.I.b.v.m.C.",
"m.m.d.8.8.p.g.s.V.V.V.V.v.c.v.m.b.F.F.g.n.P.f.| | F.y.g.s.8.9.c.x.V.x.P >  .|.]...0 l.M.x.c.v.v.x.y.e.G.x.g.G.G.| | F.f.b.a.9.v.",
"e.r.7.9.8.d.9.9.d.d.9.9.9.8.9.9.s.8.i.i.e.E { E { { { { E e.i.a.e.e.I % % q Q.].`.w 4 7.h.9.9.9.9.8.7.q.i.E | | { { | { R e.e.a.",
"f.g.f.9.8.9.9.7.8.d.d.m.C.V.j.9.8.8.7.7.r.e.| E i.e.| | { | Y k g j , t %X$X1 <.>.8 @ 6.M.C.v.j.9.8.a.7.i.e.E E p.r.E { { E E E ",
"V.C.m.9.9.9.9.9.9.c.V.V.x.m.C.V.9.7.i.i.p.p.p.a.8.a.| E T q > % q q q O #X,X$X@ @ 4 -.M.m.v.M.C.v.8.a.p.p.p.p.i.8.8.e.E r.i.j.v.",
"b.g.V.m.x.c.c.d.8.8.9.j.8.8.c.v.j.9.9.9.9.9.9.9.9.9.7.7.9 . 6 _.>X2X>XV.0 a k.e % 5.7.j.8.8.d.c.v.9.9.9.9.9.9.9.9.9.8.8.8.c.x.N.",
"| { G.g.f.f.f.e.E r.p.i.a.7.7.s.9.9.9.8.9.8.9.8.7.7.7.*.O ; +.OX3X4X4X;X@.7 o @ * R e.5.a.8.7.7.7.9.9.9.9.8.9.9.8.9.8.8.p.E F.p.",
"r.| { { | { { { { { { E e.E r.q.8.9.9.9.9.9.9.8.6.5.L 1 ; o.@.{.2X&X<X>X#.1.3 o J { { | E E e.i.a.9.9.9.8.9.9.8.9.8.8.t.p.i.d.9.",
"c.E e.7.7.r.p.r.E p.p.a.7.8.9.9.9.9.8.9.8.w.) Y 4 , @ #  .o.5 < N H :X-X$.'.4.@ h p.p.i.8.8.8.8.9.9.9.9.8.t.} S.a.8.e.} e.8.8.9.",
"V.g.p.9.9.8.9.9.8.c.v.v.9.9.8.a.7.8.7.q.( Z.W y < e X.4.,.= : C q 3.^.XX$.'.4.: 9 d.v.x.c.8.9.a.a.7.8.a.S.[ D.) ] } ( U.J.S.s.m.",
"(.(.v.9.9.j.m.M.C.C.C.V.s.a.} / Q { ( ' [ R.v 6 *X1X@X[.,.. : 1.[.].[..X.X).~.8 v B.C.B.v.8.q.! ! ! } / ` I.(.B.I.A.R.(.C.R.x.(.",
"C.(.V.x.9.j.m.v.v.v.c.a./ } ) n.J.' U.n.J.n < +X3X4X=X[.O.6   @ 5 _. XoX|.~.W.s 0 v.v.c.} ) / L.T.[ ) R.L.U.C.C.C.B.(.C.C.V.C.C.",
"f.C.C.C.M.9.9.8.9.j.b.} L.Y.Y.C.C.N.C.C.B.1 6 @X>X;X{.3./.q < %.@ b ^.^.~.2.2.i 9 8.z.0.A.n.U.V.C.N.B.C.C.C.C.n.Y.N.V.m.j.c.B.N.",
"| x.v.v.9.j.9.j.m.V.B.V.C.C.v.9.m.(.x.d.r., C  X#.oX.X1.S - r X.- w ~.G F H Z - n M.C.N.V.C.V.j.c.C.V.c.p.f.u.| { e.c.9.8.a.p.| ",
"| p.8.9.8.9.j.V.v.9.m.V.m.c.8.9.h.m.s.e.{ > C |..XoXoX'.G A B : o O.|.Q.G V # O =.9.c.C.V.v.9.9.9.v.v.i.| { | | | e.i.7.i.| { e.",
"i.r.i.8.9.8.j.c.9.8.9.j.8.9.8.a.q.q.e.| E > C !..XoXoXQ.3.'.'.k.X..X X~.G Z i O P 7.9.h.9.9.9.8.a.p.p.| E p.E { | { { | | | | d.",
"8.8.8.8.8.8.a.E r.8.9.9.8.8.9.8.a.e.R e.9.q 8 ~.!.XX$.[.].oXoXoXoXXX X~.G H S O p a.9.9.9.9.8.9.7.p.e.| i.9.i.e.a.p.E | r.i.e.7.",
"8.d.a.R p.i.E { | a.8.8.9.9.j.V.v.9.d.z.j.I ; >.~.).'.}. XXXoXoXXX X).4.H H f . g r.8.9.9.9.9.v.m.d.d.s.c.c.7.d.9.9.7.7.8.8.7.7.",
"8.a.| | | { { | | | e.p.a.v.V.(.B.V.B.C.z.0.< 3 W.~.~.~.!.`.`.!.!.~.E.2.H Z - X U R E i.i.8.V.C.C.C.V.C.N.g.a.7.i.p.e.| r.7.a.i.",
"} { { | | | { { } } E p.a.9.c.C.C.C.m.g.r.U x % 3 3.~.~.~.~.~.~.~.W.2.A d #   u J { { E i.8.c.V.C.C.V.n.p.e.E | | | { | { { | | ",
"_ _ ~ w.e.r.} ! ! { a.9.c.m.V.C.(.V.8.i.8.I K k * = i d C ,.,.D V 2 i - + + p l c ! E 8.9.v.V.V.(.C.c.7.7.9.i.p.| | { { { { { { ",
") ' ' A.H.( I.R.) ' y.v.m.m.m.(.C.j.9.9.9.7.L x x g , % % & & $ & t y u z c M -.Z.' } c.m.m.V.V.C.V.d.9.9.8.a.e.{ { | { | { ` ' ",
"C.A.L.(.C.n.B.C.N.T.N.c.9.8.9.m.V.m.m.j.8.8.9.5.I U J x z l M m %.m c -.&.:.l.M.C.R.T.v.9.9.9.v.V.C.v.v.9.9.8.8.7.i.{ | } ' A.R.",
"C.N.C.C.(.(.C.(.(.C.C.N.m.j.8.9.j.V.v.c.9.9.9.9.8.s.s.t.;.;.l.l.l.l.l.B.B.C.C.C.(.(.(.V.m.m.9.8.d.v.m.c.c.9.9.9.9.d.z.z.R.I.N.(.",
"c.B.B.x.v.V.v.v.C.(.(.C.(.m.j.m.v.9.8.8.9.9.9.8.9.v.h.c.m.m.C.m.c.x.C.m.c.V.M.j.B.C.(.C.(.V.j.v.m.c.9.9.9.9.8.9.9.9.c.d.x.B.B.B.",
"9.x.9.8.9.9.9.9.C.(.V.V.C.M.B.C.M.v.x.v.x.c.9.8.9.8.9.8.9.9.m.c.7.9.v.9.9.9.9.9.v.C.C.M.B.C.V.C.C.V.v.v.v.v.9.9.9.9.9.9.d.9.c.v.",
"8.j.9.9.9.9.9.9.j.j.j.9.h.c.c.j.j.i.r.e.e.a.a.i.8.9.8.j.j.9.8.8.8.8.j.9.9.8.9.9.9.c.c.9.9.j.j.c.c.9.i.E E r.8.i.7.9.9.9.c.9.9.9.",
"8.a.e.p.8.9.9.9.8.9.8.9.8.8.8.8.r.E | | | | | | e.c.x.B.C.v.j.s.7.8.p.r.7.8.8.8.8.8.8.8.8.8.8.8.i.E | E | { E | | a.c.V.C.m.c.d.",
"E r.p.E i.8.8.i.r.7.8.a.8.8.i.e.{ e.i.i.e.{ E e.R G.b.B.B.n.n.r.E E p.e.E 8.9.a.r.i.8.8.8.8.a.r.| | i.i.p.| | E | F.u.n.C.N.n.g.",
"a.7.7.i.i.9.i.| { E e.E p.a.i.a.i.7.8.9.a.e.a.8.i.a.a.c.z.a.a.a.i.i.7.a.p.7.7.e.| | E E E a.i.a.i.a.8.8.8.r.i.d.a.i.i.a.j.s.a.a.",
"p.e.| { E 7.E | i.r.E E i.i.9.7.a.i.a.a.i.d.d.s.S.^ ^ a.S.} r.| E i.e.| { p.r.| r.i.E E e.i.a.8.a.i.a.7.i.a.9.d.y.| ) r.a.) e.e.",
"{ | | | E | { p.9.9.7.7.9.9.a.e.[ ) Q ) ( ^ m.C.N.L.' ' [ I.! | E { | { E | { E 9.9.9.8.9.9.9.a.} ) ] / ) ! g.V.C.T.A.' Q U.A.( ",
"f.i.a.7.9.e.| e.r.e.i.8.a.S.D.P.N.C.Y.T.R.T.C.C.N.C.Y.[ n.B.T.N.x.r.7.a.8.a.| E e.e.r.a.9.p.F.D.T.C.N.I.N.T.V.C.N.N.N.A.U.B.V.b.",
"V.V.c.9.8.r.| F.g.b.T.z.b.u.M.(.N.u.g.V.B.V.N.u.| P.N.b.v.9.m.V.V.C.v.9.9.7.| F.y.b.g.Y.x.u.N.V.(.T.P.n.C.V.N.R.F.| n.n.n.j.c.M.",
"s.z.d.9.8.7.c.c.v.v.z.c.j.9.9.c.7.i.F.e.G.{ | | { | | w.e.7.8.9.d.s.d.8.9.7.a.c.c.v.v.c.c.9.9.j.z.a.r.e.f.| { | | { | | r.i.8.9.",
"F.F.i.9.8.9.9.9.8.8.9.j.v.v.9.9.9.9.8.d.p.e.| | | | | | | | e.e.| F.| d.9.9.9.9.9.9.9.9.x.m.j.9.9.9.8.8.a.e.e.{ | | | { | { E r.",
"n.V.s.9.9.9.9.8.8.v.m.C.C.B.m.v.8.7.i.p.e.e.E i.8.i.{ { | p.p.i.g.B.x.d.9.9.9.d.9.j.x.m.C.M.M.v.j.9.i.p.r.e.F.e.7.7.| { | e.i.p."
};
