/* XPM */
static char *_d58e98e8d5c4f7fdf8b4ab80197acc3YzyjzZ78hkaV81aO[] = {
/* columns rows colors chars-per-pixel */
"64 64 213 2 ",
"   c #1F2932",
".  c #2F2C34",
"X  c #322E35",
"o  c #2A3234",
"O  c #2C3C3A",
"+  c #373635",
"@  c #353934",
"#  c #333E3A",
"$  c #4D3F3C",
"%  c #3C4435",
"&  c #37453A",
"*  c #484739",
"=  c #444C39",
"-  c #564B3B",
";  c #565933",
":  c #65583E",
">  c #56653C",
",  c #686938",
"<  c #6B773B",
"1  c #777D37",
"2  c #383F41",
"3  c #334141",
"4  c #3C5041",
"5  c #445B44",
"6  c #4F554B",
"7  c #6C5844",
"8  c #755848",
"9  c #4D6749",
"0  c #5C654C",
"q  c #59724A",
"w  c #4D6B5E",
"e  c #506F5B",
"r  c #587557",
"t  c #5D7D51",
"y  c #5C7359",
"u  c #637748",
"i  c #637957",
"p  c #707654",
"a  c #6C6160",
"s  c #6F7473",
"d  c #87694A",
"f  c #956E4F",
"g  c #8B7446",
"h  c #977E48",
"j  c #A67855",
"k  c #788036",
"l  c #5F8252",
"z  c #65804C",
"x  c #758C46",
"c  c #7B9245",
"v  c #71924E",
"b  c #7C9B4E",
"n  c #678753",
"m  c #7A8050",
"M  c #6B9259",
"N  c #789751",
"B  c #7A9B50",
"V  c #729E5F",
"C  c #74A05E",
"Z  c #7DA65C",
"A  c #7EAA5E",
"S  c #5C836D",
"D  c #688E68",
"F  c #6D966F",
"G  c #6E9A6D",
"H  c #779F67",
"J  c #799F66",
"K  c #72976F",
"L  c #739A6C",
"P  c #7A9A6D",
"I  c #648F76",
"U  c #669074",
"Y  c #6B9372",
"T  c #739670",
"R  c #76A663",
"E  c #79A662",
"W  c #7BA861",
"Q  c #8E933B",
"!  c #B0B73D",
"~  c #BDC03F",
"^  c #CED23B",
"/  c #84834C",
"(  c #8F8D4D",
")  c #978F4A",
"_  c #829B4A",
"`  c #86984A",
"'  c #919352",
"]  c #9B9C53",
"[  c #B08F4E",
"{  c #A4994E",
"}  c #B4954D",
"|  c #B99D49",
" . c #AB8753",
".. c #BA8C56",
"X. c #BE9255",
"o. c #8AA44B",
"O. c #89A44E",
"+. c #97B64F",
"@. c #99B74E",
"#. c #9BB84D",
"$. c #8CAE56",
"%. c #83A75E",
"&. c #84AD5B",
"*. c #8AAE5A",
"=. c #90AF57",
"-. c #93AE5E",
";. c #9AAF5E",
":. c #8DB155",
">. c #87B15E",
",. c #8BB159",
"<. c #93B452",
"1. c #9BB653",
"2. c #9DBB53",
"3. c #96B15B",
"4. c #9CB15D",
"5. c #99BA58",
"6. c #A1B94F",
"7. c #A8BF4E",
"8. c #B5B14D",
"9. c #A7AA58",
"0. c #A2B654",
"q. c #ABB756",
"w. c #A4B851",
"e. c #ABB953",
"r. c #A3B35C",
"t. c #ADB15F",
"y. c #ABB45C",
"u. c #A6BB5C",
"i. c #B3B956",
"p. c #B5B957",
"a. c #BABB57",
"s. c #B3B55C",
"d. c #BAB75B",
"f. c #B6B958",
"g. c #BAB959",
"h. c #BCB95A",
"j. c #BDB95A",
"k. c #BEB95A",
"l. c #99896A",
"z. c #839D6B",
"x. c #83A462",
"c. c #8BA566",
"v. c #83AA61",
"b. c #8BAC60",
"n. c #86A069",
"m. c #8BA269",
"M. c #95A666",
"N. c #98A766",
"B. c #91AC63",
"V. c #9CAA64",
"C. c #91A468",
"Z. c #A4AD62",
"A. c #A9AF61",
"S. c #A5B160",
"D. c #ABB060",
"F. c #B1B571",
"G. c #C29655",
"H. c #C2A84E",
"J. c #C9B14D",
"K. c #D4B94E",
"L. c #CCA353",
"P. c #D1A754",
"I. c #D1AC52",
"U. c #C1BA59",
"Y. c #D5B252",
"T. c #AAC14A",
"R. c #ABC34C",
"E. c #B6C64E",
"W. c #B4CB4A",
"Q. c #BBCD4B",
"!. c #BFD24A",
"~. c #A4C254",
"^. c #ABC454",
"/. c #ADC953",
"(. c #BBC555",
"). c #B7CC54",
"_. c #C3CB46",
"`. c #DAC54D",
"'. c #D5CC48",
"]. c #DCCD4B",
"[. c #C6D647",
"{. c #CCDC47",
"}. c #C3D54A",
"|. c #CAD748",
" X c #C7D94B",
".X c #CDDC4A",
"XX c #D1DF47",
"oX c #D3D54E",
"OX c #DADB48",
"+X c #C5C554",
"@X c #CCC954",
"#X c #D3D45E",
"$X c #E2DD47",
"%X c #D5E246",
"&X c #DBE546",
"*X c #DFE945",
"=X c #D6E348",
"-X c #DDE349",
";X c #E2E445",
":X c #E4EC44",
">X c #E8EF43",
",X c #E4E949",
"<X c #E7F043",
"1X c #E9F044",
"2X c #E5E764",
"3X c #E3E175",
"4X c #BABD97",
"5X c #D2B7A5",
"6X c #F1F698",
"7X c #BFC2C6",
"8X c #F6F5CE",
"9X c #F1ECD8",
"0X c #FAFAE6",
/* pixels */
"b.W r.f.s.0.0.3.,.<.<.@.#.#.#.#.#.#.#.#.#.#.#.#.#.#.#.#.<.;.4.4.-.W -.s.s.q.0.0.,.:.<.<.#.#.#.#.#.#.#.#.#.#.#.#.#.#.#.#.<.-.3.4.",
"W R W W W W W W W W W A *.*.,.,.+.#.#.#.#.#.#.#.#.#.:.*.A *.<.:.W W W W W W W W W W W W &.*.*.,.<.#.#.#.#.#.#.#.#.#.<.,.&.A :.<.",
"1.&.A *.*.W W W W A A *.,.,.<.+.#.#.#.#.#.<.<.<.#.@.<.<.<.#.#.#.1.:.W &.,.&.W W W W W &.,.,.:.+.#.#.#.#.#.@.<.<.@.#.<.<.<.@.#.#.",
"i.*.*.#.#.<.<.<.:.1.1.#.#.#.#.#.#.#.#.@.&.P K K $.x.K K E +.#.p.h.0.&.<.#.@.<.<.,.<.1.2.#.#.#.#.#.#.#.#.<.E K F E :.L K L *.#.e.",
"h.f.3.#.#.#.#.e.e.i.h.f.#.#.$.W x.<.&.H K y.A.n.T K A.s.V.-.q.h.h.h.r.<.#.#.#.w.e.e.h.h.e.#.@.%.E *.:.x.K m.s.V.P Y m.s.t.M.1.h.",
"h.h.p.w.#.e.h.h.h.h.p.0.&.*.K z.T Y K z.P s.h.h.t.t.h.h.U.d.h.h.h.h.h.e.#.#.p.h.h.h.h.i.-.&.E P z.Y Y z.K M.h.h.d.Z.h.h.h.h.h.h.",
"y.h.h.p.e.6.#.#.#.6.1.Z P n.n.h.y.M.t.U.A.s.h.h.h.U.h.i.e.p.U.h.r.h.h.h.e.w.#.#.#.#.6.<.K n.K D.h.V.V.h.s.Z.h.h.h.U.U.h.e.e.h.U.",
"v.f.h.h.e.w.#.#.w.i.y.M.s.d.s.e.h.h.h.e.q.h.4.v.b.q.i.#.#.1.r.b.W r.h.h.p.e.#.#.#.e.f.V.V.h.s.e.i.h.h.i.q.f.s.b.v.3.i.w.#.@.0.3.",
"W <.#.#.#.#.#.i.p.i.h.U.h.i.#.#.w.h.w.,.A v.W W W :.@.#.:.A R W W *.2.6.#.#.#.w.p.i.p.U.U.f.e.#.#.p.p.+.A v.W R W &.+.#.<.&.W R ",
"A A :.@.#.#.w.e.#.#.w.e.w.#.#.#.#.w.<.A W W W W W A &.*.W W &.<.*.W *.<.#.#.w.e.e.#.#.e.e.#.#.#.#.#.0.*.W W W W W W A *.&.R W :.",
"@.<.<.#.#.#.@.:.<.#.#.#.#.#.#.:.*.A W W <.<.W &.&.W W W &.A :.#.#.<.<.@.#.#.#.<.:.+.#.#.#.#.#.<.,.&.A R *.<.*.A *.A W R W &.A @.",
"#.#.@.:.<.@.*.W A +.#.#.#.#.#.w.#.<.,.:.#.#.:.@.@.<.*.,.@.<.:.#.#.#.#.<.:.+.<.A R ,.#.#.#.#.#.6.w.<.:.*.<.#.<.<.#.<.,.*.<.#.,.<.",
"#.@.*.W W A W W W ,.<.#.@.#.e.h.p.e.e.h.i.w.#.@.@.<.:.:.@.#.@.#.#.#.<.W W A W W W &.:.<.#.#.w.f.h.e.e.p.f.e.#.#.@.@.<.:.<.#.#.#.",
"<.&.W W R R R W W R W &.,.q.f.h.h.h.h.s.-.&.,.&.A A R R &.,.&.&.:.:.W W R R W W W W R A *.<.i.h.h.h.h.h.r.v.&.,.A A W R W *.*.A ",
"Y Y W *.*.*.W G R W ,.<.@.w.e.h.h.h.1.,.<.:.*.&.W W R R R W W R G Y G *.*.*.*.H H R A <.<.#.w.i.h.h.e.3.:.<.*.*.W R W W W R R W ",
"Y U F L H %.J z.Y G <.6.i.h.h.h.h.e.#.#.#.:.&.A W W R R R R Y G Y U U K L E E z.P Y &.#.e.h.h.h.h.h.#.#.#.<.*.&.W W W W R R G F ",
"Z.T P Z.Z.n.s.h.V.z.;.i.w.w.e.h.h.w.w.#.#.#.<.*.&.W R R R Y P V.t.c.Y M.A.M.M.h.s.n.c.q.e.w.w.i.h.p.w.w.#.#.@.:.&.&.R R R G Y n.",
"h.V.s.h.h.h.h.h.h.h.h.w.w.#.#.w.i.h.i.e.#.#.#.#.#.,.*.b.c.B.a.+X+X(.S.h.h.h.h.h.h.h.h.e.w.w.#.#.e.h.p.i.w.#.#.#.#.<.*.*.c.P V.h.",
"p.h.h.f.h.h.h.h.h.h.h.h.h.e.#.w.6.w.#.#.#.#.#.#.#.i.E.oXOX;X:X:X:X:X-XoX+XU.h.p.h.h.h.h.h.h.#.#.w.w.6.#.#.#.#.#.#.6.i.e.h.s.h.h.",
"#.i.e.#.#.e.w.6.h.h.h.h.h.p.e.h.f.e.w.w.w.w.#.#.W.XX:X>X:X&X;X&X&X&X:X>X:X-X_.6.e.h.h.h.h.h.e.p.h.i.w.w.w.w.#.#.#.#.#.#.6.w.e.h.",
"#.w.#.#.#.#.#.#.i.p.e.w.i.p.i.i.e.w.1.1.1.1.#.W.:X>X:XXXQ.R.R.R.T.R.Q.[.:X:X:X}.e.p.i.w.e.p.p.p.p.w.1.1.1.1.#.#.#.#.#.#.#.#.#.w.",
"#.#.<.+.#.#.#.#.#.#.#.#.#.#.#.#.<.*.W R R :. X:X*X}.R.i.i.2.#.#.#.#.<.<.6.Q.&X:X%XR.#.#.#.#.#.#.+.,.A R R W ,.&.*.@.#.w.i.w.#.#.",
",.*.&.&.<.#.#.<.<.#.#.#.#.#.@.:.W W &.&.>.}.:X=X^.r.f.h.h.h.i.*.&.:.&.A ,.#.R.%X:X&XR.#.#.#.#.<.&.W A &.A W W R R 3.q.h.h.h.p.r.",
"&.,.+.*.*.#.<.&.W ,.<.*.<.<.*.&.&.<.#.#.Q.:X.X2.&.&.-.q.q.3.-.*.*.&.<.<.&.<.#.5.).>X.X<.,.@.:.&.A *.+.#.<.A &.:.*.&.&.4.p.r.3.*.",
"<.<.,.&.,.#.*.W &.A W R *.:.<.#.#.#.#.W.:X*XW.@.*.$.$.+.O.b b B b +.<.*.*.<.<.W :.=X:X/.&.,.<.#.#.#.#.#.#.<.+.#.<.*.$.<.@.$.<.:.",
"A W W W W &.W &.@.<.:.<.+.@.#.<.E H *.&X:X/.w.q.V.P F i O # # # & 5 M W R A A W <.R.&X:XR.#.#.#.*.J J *.E E 1.e.y.n.Y J E K P W ",
"W *.*.*.,.A W ,.<.<.+.#.@.<.*.n.C.V.).:X.XB.h.h.U.s.y 6 g } } } [ 7 & 9 B &.R &.<.<.!.:X{.2.<.x.n.V.C.T C.z.r.h.h.h.Z.Y P s.Z.n.",
"s.0.#.#.#.*.R E v.v.*.3.;.n.Z.s.U.h.OX:XoXh.U.y.*.' @ } `.$X;X`.I.P. .$ % x W R W b.5.:X&X4.V.D.h.h.s.d.h.h.U.h.3.-.h.V.Z.i.i.h.",
"i.p.w.#.#.*.3.4.i.f.f.f.e.w.e.i.r.5.&X&Xi.B.-.v.V 4 : ].>X<X>X>X;XK.L.j .   q ;.r.f.a.-X>XE.w.e.q.-.&.b.y.4.-.b.W W b.3.1.@.#.e.",
"*.*.<.#.#.@.#.#.#.#.#.#.#.#.#.#.#.!.>X.X,.A V l 9 o 8.>XOX'.:X;X>X$XL.d X * @ c @.#.#.[.>XXX#.#.#.@.<.,.*.A A R W W R R W &.*.<.",
"-.4.<.#.#.#.#.#.#.#.w.i.h.f.w.#.#.}.1XQ.*.n 5 o ; @ ^ 2X .* < ! >X`.X.f d j 8 % o.#.#.E.:X-Xe.#.#.#.<.<.:.&.&.W *.,.W W W W A A ",
"h.h.i.#.#.#.#.#.#.w.p.h.e.e.h.p.6.}.1XW.b = g # F.% #X8X5Xa X J.Q - H.I...j j X c 6.e.+X:X&Xh.h.e.#.<.:.:.,.,.:.@.#.*.W *.:.0.e.",
"r.;.f.i.i.6.6.#.<.#.#.6.#.#.w.e.w.[.1XQ._ % _.0 7X6 4X0X9Xl.+ - * ; k >X`...j + x +.#.E.:X%Xw.e.e.#.#.#.#.#.#.#.#.#.@.+.#.0.s.s.",
"W W b.;.-.-.3.*.W *.*.:.<.<.<.<.#.}.1XQ._ = %X( s 2 u 2X/ | ) , 1 , , 1X].G.d o M &.*.w.:X%X<.<.@.#.#.#.#.#.#.#.#.#.@.+.,.W &.,.",
"*.W R W W R R R W R R W A A ,.:.#.}.>X[.+.> ! Q % c = % = #X;XJ., @ % _.].G.7 5 C R W ~.:X.X*.,.<.#.#.#.#.#.#.#.#.#.@.:.,.:.@.#.",
"w.&.*.+.<.*.,.*.&.,.,.<.+.+.#.#.#.W.:X&X#.n = Q < <.M   p 8X3XH. .{ ~ OXI.X.* v A ,.<..X>XQ.@.#.#.#.#.#.@.$.E E <.#.&.E %.@.#.#.",
"h.4.*.#.#.@.#.#.1.w.e.e.#.#.@.<.<.7.&X:Xu.z.0 3 r K z.6 s 0X6X>X;XOX;XK.P.g > +.1.#.E.:X:XR.#.<.<.+.@.<.W P C.P K E K C.n.x.1.p.",
"h.U.0.#.#.w.e.h.h.h.h.p.1.@.E K F E ).:X).h.d.9.z.m.d./ , 2X,X>X>X;XK.L.g = 0.i.h.h.@X:XXX#.:.K K L E K Y V.U.s.V.z.D.U.h.t.q.h.",
"h.h.h.e.#.w.e.e.e.e.w.=.L J P D.m.Y u.,X-Xh.h.h.d.h.h.9.= , `.$X].Y.P.g @ x q.e.e.a.&X:X^.J F M.Z.K P D.V.C.h.h.h.d.h.h.h.h.h.h.",
"-.h.h.h.p.w.#.#.#.6.1.E N.Z.Z.h.h.s.h.oX:X-X(.r.r.d.h.0._ % - h ) h : - ] q.@.@.6.{.:X Xc.D.M.s.h.s.d.h.h.h.h.y.r.s.h.i.#.6.f.f.",
"W q.e.e.w.#.#.w.i.h.d.s.h.h.e.#.e.U.e.2. X:X}.W W <.w.#.+.N q 3 O & u ` w.#.#.#._.1X;Xh.d.U.p.w.w.h.h.w.<.3.-.W R &.6.#.#.:.*.v.",
"W *.+.#.#.#.w.p.e.#.i.h.i.w.#.#.w.i.1.&.,.=X:X X:.,.:.<.&.R Z Z V C :.@.#.#.7..X:X:XQ.h.p.e.#.#.#.e.e.:.W W W W W *.:.<.:.W W &.",
":.*.:.@.#.#.0.1.#.#.#.6.#.#.#.<.:.:.&.W *.2.=X:X.X5.v.A W W :.@.<.*.*.<.#.R.{.:X&XW.#.#.#.#.#.<.:.,.*.W A *.A W W R R W W W A +.",
"#.#.#.@.@.#.<.A *.@.#.#.#.#.#.<.<.*.W &.@.#.5. X:X:X}./.~.:.,.+.o._ #.T.{.*X>X X2.<.#.#.#.#.#.@.<.,.&.W :.#.:.*.<.,.A W *.<.&.<.",
"#.#.<.A *.:.W W W <.#.#.#.#.6.i.w.#.1.0.w.#.#.6.[.*X:X:X*XXX{.|._._.&X:X:X&X!.>.W *.#.#.#.#.#.e.i.#.#.1.w.#.#.@.#.#.<.<.@.#.<.1.",
"#.<.W W W W W W W A *.:.:.e.h.h.h.f.h.U.r.3.+.<.:.2./..X&X>X:X:X>X>X&X[.6._ n C W W &.,.:.1.p.h.h.h.f.U.f.3.<.+.:.:.&.A *.<.<.:.",
"E R W W W W R R W W A *.<.0.e.h.h.h.s.4.*.&.A W W R W v.:.2.O.o.o._ N n l t t V W W W &.,.1.w.p.h.h.h.q.*.*.A A W W W W W W W W ",
"I I H %.&.:.E Y G R <.#.w.p.p.h.h.p.@.<.#.<.*.*.W W R W W R t r w w e t t z z D F H &.#.6.e.p.h.h.h.w.<.<.#.,.*.A W W W W W R R ",
"z.Y Y z.z.L M.A.P Y -.e.p.i.f.h.h.w.#.#.#.<.,.A W W W W R G S y i e w y i y i 9.M.Y J 0.i.i.i.h.h.p.#.#.#.@.<.&.W W W W W R Y Y ",
"h.z.N.h.h.t.h.h.s.A.s.e.#.#.#.i.h.i.i.w.#.#.#.<.<.&.W W H Y M.] ( m y / ( ' t.h.h.t.D.q.6.#.#.w.f.h.e.e.#.#.#.@.<.:.W W R F z.D.",
"h.s.h.h.h.h.h.h.h.h.h.e.p.w.#.#.w.i.e.w.#.#.#.#.#.0.r.q.Z.V.h.h.s.] ] 9.s.h.h.h.h.h.U.p.i.i.#.#.#.e.e.w.w.#.#.#.#.#.r.r.y.V.s.h.",
"w.h.h.e.e.h.e.e.h.h.h.h.h.i.#.i.e.#.#.#.#.#.#.#.#.e.#.w.i.p.h.p.w.e.h.i.w.p.p.w.p.h.h.h.h.h.w.e.i.w.#.#.#.#.#.#.#.6.w.#.e.p.h.h.",
"#.e.w.#.#.#.#.#.h.h.h.p.h.h.f.h.h.e.e.e.e.w.#.#.#.#.#.#.#.#.i.w.#.#.e.#.#.#.#.#.e.h.h.p.h.h.p.h.h.i.e.e.e.e.#.#.#.#.#.#.#.#.w.i.",
"#.#.#.#.#.#.#.#.w.w.6.#.w.w.w.w.6.<.*.&.&.:.<.<.+.#.#.6.w.#.#.#.#.#.#.#.#.#.#.#.#.w.w.#.#.w.w.w.w.1.:.&.&.*.<.<.<.#.#.#.w.#.#.#.",
"<.<.*.,.#.#.#.#.#.#.#.#.#.#.#.<.*.W W W W W W W *.0.e.h.h.e.w.1.<.@.,.*.<.#.#.#.#.#.#.#.#.#.#.#.:.A W W W W A W W 1.w.p.h.p.w.2.",
"A &.,.A ,.#.#.:.*.<.#.<.@.@.:.&.R *.:.:.&.W A A W b.r.h.h.y.y.*.A &.*.*.&.<.#.<.*.,.#.<.<.#.<.*.W W :.:.,.W W &.W v.-.s.h.s.y.3.",
"<.<.+.:.:.#.:.W R A &.W *.:.:.<.<.+.#.#.<.*.+.+.<.:.<.1.0.<.<.<.:.<.@.<.,.<.@.&.W W &.A A :.:.:.:.<.#.#.#.*.:.@.<.<.<.<.w.1.<.<.",
",.*.A W &.<.A A :.*.A &.:.:.@.#.<.$.<.<.:.+.#.1.x.J E <.x.E *.A &.,.&.W W ,.,.W *.:.&.A *.:.<.#.<.:.:.@.<.<.#.2.-.E J *.$.J &.&.",
"R W W W A W W :.#.#.#.#.#.#.+.&.P P F L K J i.h.s.N.Y F P V.K W W W A W A W W A @.#.#.#.#.#.#.:.J P K L P F 4.h.d.A.z.Y F C.n.H ",
"-.<.<.<.@.*.W &.*.*.,.<.<.x.n.V.s.d.Z.Z.s.Z.h.h.s.h.Z.P t.f.Z.s.y.*.<.:.+.<.W A *.*.*.<.1.*.x.c.A.d.s.V.s.Z.s.h.f.f.s.P C.h.s.Z.",
"h.p.6.#.#.*.v.v.4.r.r.r.r.V.f.h.s.;.4.f.h.f.s.-.W -.s.y.e.#.i.g.h.h.e.#.#.<.&.v.B.r.r.r.y.V.q.h.h.r.-.y.h.f.s.y.v.W y.y.q.6.w.g.",
"1.0.1.#.#.<.0.w.e.w.e.w.#.#.#.w.<.:.&.*.b.W W W W W W &.*.<.@.#.1.0.1.#.#.<.1.0.w.e.e.w.w.#.#.6.0.<.*.&.*.v.W W W W W W *.:.<.#.",
"v.v.:.#.#.#.#.#.#.#.#.w.i.e.#.#.#.#.@.@.,.*.W W A W W R W W &.*.W v.&.+.#.#.#.#.#.#.#.#.e.e.6.#.#.#.#.@.<.*.&.W W W W W W W A *.",
"q.s.0.#.#.#.#.#.#.e.i.h.h.h.i.e.#.<.:.:.*.&.A ,.@.,.R W A *.,.:.4.h.q.1.#.#.#.#.#.w.e.p.h.h.f.e.w.#.:.:.,.&.&.&.<.<.A R W &.,.,."
};
