/* XPM */
static char *_45bcdec8fbe4d1cb5f252e4e8765af7Jr7ETudBP3V2Qd5c[] = {
/* columns rows colors chars-per-pixel */
"64 64 218 2 ",
"   c #161C2D",
".  c #1E242E",
"X  c #1F2732",
"o  c #23282F",
"O  c #373A2F",
"+  c #242531",
"@  c #232C32",
"#  c #2C2B33",
"$  c #322D35",
"%  c #273133",
"&  c #2D3632",
"*  c #2C3A37",
"=  c #343434",
"-  c #343B34",
";  c #3B3836",
":  c #493F3A",
">  c #3A453A",
",  c #3F523F",
"<  c #454935",
"1  c #4C453B",
"2  c #52453C",
"3  c #4A593B",
"4  c #54553A",
"5  c #56663D",
"6  c #6B673A",
"7  c #6D7336",
"8  c #777B38",
"9  c #363942",
"0  c #5B4841",
"q  c #455D43",
"w  c #575B41",
"e  c #634D45",
"r  c #6A5643",
"t  c #7A5C49",
"y  c #4A6145",
"u  c #556844",
"i  c #59774C",
"p  c #4D6C5F",
"a  c #567357",
"s  c #5B7C52",
"d  c #5C7359",
"f  c #626A42",
"g  c #796642",
"h  c #637C4C",
"j  c #737346",
"k  c #667956",
"l  c #565965",
"z  c #5B7A64",
"x  c #6F7279",
"c  c #88684B",
"v  c #906B4E",
"b  c #887644",
"n  c #98794B",
"m  c #996E53",
"M  c #9E7353",
"N  c #A37555",
"B  c #AD7C57",
"V  c #7B8037",
"C  c #5D8155",
"Z  c #6A8449",
"A  c #718744",
"S  c #748A44",
"D  c #7C884A",
"F  c #7E9646",
"G  c #7F9847",
"H  c #658754",
"J  c #6B8452",
"K  c #7A8550",
"L  c #7A8456",
"P  c #6A9259",
"I  c #759C5C",
"U  c #7DA153",
"Y  c #7BA55D",
"T  c #7EAA5E",
"R  c #5E8365",
"E  c #6C9464",
"W  c #6D966F",
"Q  c #6E9A6C",
"!  c #779F67",
"~  c #799E66",
"^  c #72976F",
"/  c #739A6C",
"(  c #7A9A6D",
")  c #648F76",
"_  c #669074",
"`  c #6B9372",
"'  c #739670",
"]  c #76A663",
"[  c #79A662",
"{  c #7BA861",
"}  c #84883B",
"|  c #8E953B",
" . c #93963C",
".. c #9BA13C",
"X. c #A8AE3C",
"o. c #BDC43E",
"O. c #C8CF3E",
"+. c #87864C",
"@. c #9D814A",
"#. c #978C4A",
"$. c #839749",
"%. c #979A4E",
"&. c #868955",
"*. c #8E9755",
"=. c #9B9853",
"-. c #AB9149",
";. c #B78A56",
":. c #AB9952",
">. c #B19C53",
",. c #BD9951",
"<. c #82A14E",
"1. c #8AA34B",
"2. c #8DAC4D",
"3. c #91AC4B",
"4. c #97B64F",
"5. c #99B74E",
"6. c #9BB84D",
"7. c #8CAE56",
"8. c #83A75E",
"9. c #87A85B",
"0. c #84AD5B",
"q. c #8AAE5A",
"w. c #9CA557",
"e. c #91AD56",
"r. c #93AE5E",
"t. c #9BAE5D",
"y. c #8DB155",
"u. c #8BB058",
"i. c #93B452",
"p. c #9BB552",
"a. c #9EB850",
"s. c #96B15B",
"d. c #9CB15C",
"f. c #BBA848",
"g. c #A2B54E",
"h. c #AAB24F",
"j. c #A1B84F",
"k. c #BCB844",
"l. c #A5A456",
"z. c #ADAB56",
"x. c #ADA55C",
"c. c #B4AD52",
"v. c #BBAD52",
"b. c #B7A458",
"n. c #A3B653",
"m. c #ACB554",
"M. c #A4B851",
"N. c #ABB953",
"B. c #A3B25C",
"V. c #ABB35D",
"C. c #B3B355",
"Z. c #BBB456",
"A. c #B3B956",
"S. c #B9B957",
"D. c #B3B55C",
"F. c #BBB65B",
"G. c #B6B958",
"H. c #BCB95A",
"J. c #BDB95A",
"K. c #BEB95A",
"L. c #8B9C65",
"P. c #839D6B",
"I. c #9C9D62",
"U. c #AB9268",
"Y. c #83A462",
"T. c #8BA465",
"R. c #83AA61",
"E. c #8BAC60",
"W. c #86A069",
"Q. c #8BA169",
"!. c #94A666",
"~. c #98A766",
"^. c #92AE60",
"/. c #9CA964",
"(. c #91A468",
"). c #9EA27C",
"_. c #A6A760",
"`. c #A4AD62",
"'. c #A9AF61",
"]. c #ABB060",
"[. c #C49B53",
"{. c #C99E54",
"}. c #C7AF4E",
"|. c #CFBA4D",
" X c #D4B64F",
".X c #D5BC4E",
"XX c #C8A651",
"oX c #CCA553",
"OX c #C4AE57",
"+X c #D0A654",
"@X c #D1A953",
"#X c #C2B357",
"$X c #C1BA5A",
"%X c #C3C540",
"&X c #D9C54C",
"*X c #DAC84B",
"=X c #D8D943",
"-X c #DDD349",
";X c #E1DB47",
":X c #DCE342",
">X c #E3E345",
",X c #E7EC44",
"<X c #E8EF43",
"1X c #E9E048",
"2X c #E9F143",
"3X c #F4FB43",
"4X c #E9EF58",
"5X c #EAF058",
"6X c #EBEE6A",
"7X c #B1B4BA",
"8X c #EDF190",
"9X c #D8D5B9",
"0X c #EBEDAC",
"qX c #E4D4C6",
"wX c #F0EACB",
"eX c #F6F7C9",
"rX c #FBFCEC",
"tX c #FCFCF6",
/* pixels */
"E.{ B.G.D.n.n.s.u.i.i.5.6.6.6.6.6.6.6.6.6.6.6.6.6.6.6.6.i.t.d.d.r.{ r.D.D.V.n.n.u.y.i.i.6.6.6.6.6.6.6.6.6.6.6.6.6.6.6.6.i.r.s.d.",
"{ ] { { { { { { { { { T q.q.u.u.4.6.6.6.6.6.6.6.6.6.y.q.T q.i.y.{ { { { { { { { { { { { 0.q.q.u.i.6.6.6.6.6.6.6.6.6.i.u.0.T y.i.",
"p.0.T q.q.{ { { { T T q.u.u.i.4.6.6.6.6.6.i.i.i.6.5.i.i.i.6.6.6.a.y.{ 0.u.0.{ { { { { 0.u.u.y.4.6.6.6.6.6.5.i.i.5.6.i.i.i.5.6.6.",
"A.q.q.6.6.i.i.i.y.p.p.6.6.6.6.6.6.6.6.5.9.( ^ ^ 7.Y.^ ^ [ 4.6.G.H.n.0.i.6.5.i.i.u.i.p.a.6.6.6.6.6.6.6.6.i.[ ^ W [ y./ ^ / 7.6.N.",
"H.G.s.6.6.6.6.N.N.A.H.G.6.6.7.{ Y.i.9.! ^ V.].W.' ^ '.D./.r.m.H.H.H.B.i.6.6.6.M.N.N.H.H.N.6.5.8.[ q.y.Y.^ Q.D./.( ` Q.D.V.!.p.H.",
"H.H.G.M.6.N.H.H.H.H.G.n.9.q.^ P.' ` ^ P.( D.H.H.V.V.H.H.$XF.H.H.H.H.H.N.6.6.G.H.H.H.H.A.e.9.[ ( P.` ` P.^ !.H.H.F.`.H.H.H.H.H.H.",
"V.H.H.G.N.j.6.6.6.j.p.Y ( W.W.H.V.!.V.$X'.D.H.H.H.$XH.A.N.G.$XH.B.H.H.H.N.M.6.6.6.6.j.i.^ W.^ ].H././.H.D.`.H.H.H.$X$XH.N.N.H.$X",
"R.G.H.H.N.M.6.6.M.A.V.!.D.F.D.N.H.H.H.N.m.H.d.R.E.N.A.6.6.a.B.E.{ B.H.H.G.N.6.6.6.N.G././.H.D.N.A.H.H.A.m.G.D.E.R.s.A.M.6.5.n.s.",
"{ i.6.6.6.6.6.A.G.A.H.$XH.A.6.6.M.H.M.u.T R.{ { { y.5.6.y.T ] { { q.a.j.6.6.6.M.G.A.G.$X$XG.N.6.6.G.G.4.T R.{ ] { 0.4.6.i.0.{ ] ",
"T T y.5.6.6.M.N.6.6.M.N.M.6.6.6.6.M.i.T { { { { { T 0.q.{ { 0.i.q.{ q.i.6.6.M.N.N.6.6.N.N.6.6.6.6.6.n.q.{ { { { { { T q.0.] { y.",
"5.i.i.6.6.6.5.y.i.6.6.6.6.6.6.y.q.T { { i.i.{ 0.0.{ { { 0.T y.6.6.i.i.5.6.6.6.i.y.4.6.6.6.6.6.i.u.0.T ] q.i.q.T q.T { ] { 0.T 5.",
"6.6.5.y.i.5.q.{ T 4.6.6.6.6.6.M.6.i.u.y.6.6.y.5.5.i.q.u.5.i.y.6.6.6.6.i.y.4.i.T ] u.6.6.6.6.6.j.M.i.y.q.i.6.i.i.6.i.u.q.i.6.u.i.",
"6.5.q.{ { T { { { u.i.6.5.6.N.H.G.N.N.H.A.M.6.5.5.i.y.y.5.6.5.6.6.6.i.{ { T { { { 0.y.i.6.6.M.G.H.N.N.G.G.N.6.6.5.5.i.y.i.6.6.6.",
"i.0.{ { ] ] ] { { ] { 0.u.N.G.H.H.H.H.D.r.0.u.0.T T ] ] 0.u.0.0.y.y.{ { ] ] { { { { ] T q.i.A.H.H.H.H.H.B.R.0.u.T T { ] { q.q.T ",
"` ` { q.q.q.{ Q ] { u.i.5.M.N.H.H.H.a.u.i.y.q.0.] { ] ] ] ] { ] Q ` Q q.q.q.q.! ! ] T i.i.6.M.A.H.H.N.s.y.i.q.q.{ ] { { { ] ] { ",
"` _ W / ! 8.~ P.` Q i.j.A.H.H.H.H.N.6.6.6.y.0.Y ] { ] { { ] ` ^ ` _ _ ^ / [ [ P.( ` 0.6.N.H.H.H.H.H.6.6.6.i.q.0.{ { { { ] ] Q W ",
"`.' ( `.`.W.D.H./.P.t.A.M.M.N.H.H.M.M.6.6.5.2.i H { { 9.9.I._._.V.Q.` !.'.!.!.H.D.W.T.m.N.M.M.A.H.G.M.M.6.6.5.y.0.0.] ] ] Q ` W.",
"H./.D.H.H.H.H.H.H.H.H.M.M.6.6.M.A.H.A.N.6.5.5 4 1 h *.b.b.x.OX#X$XD./.H.H.H.H.H.H.H.H.N.M.M.6.6.N.H.G.A.M.6.6.6.6.i.q.q.T.( /.H.",
"G.H.H.G.H.H.H.H.H.H.H.H.H.N.6.M.j.M.6.6.5.5 7 f.b + + 4 c.D.F.H.A.H.H.H.G.H.#XS.H.H.H.H.H.H.6.6.M.M.j.6.6.6.6.6.6.j.A.N.H.D.H.H.",
"6.A.N.6.6.N.M.j.H.H.H.H.H.G.N.H.G.N.M.M.D - %X1Xb . 4 o < f j %.4.M.G.M.6.M.N.v.Z.H.H.H.H.H.N.G.H.A.M.M.M.M.6.6.6.6.6.6.j.M.N.H.",
"6.M.6.6.6.6.6.6.A.G.N.M.A.G.A.A.N.M.p.e.3 } >Xf.O x &.= g g g - 3 1.M.5.6.5.5.g.v.#XG.M.N.G.G.G.G.M.a.p.p.a.6.6.6.6.6.6.6.6.6.M.",
"6.6.i.4.6.6.6.6.6.6.6.6.6.6.6.6.i.q.{ H < =X..> x 7X9 #.&X@XoXn 1 & Z i.5.6.5.6.g.c.h.5.6.6.6.6.4.u.T ] ] { u.0.q.5.6.M.A.M.6.6.",
"u.q.0.0.i.6.6.i.i.6.6.6.6.6.5.y.{ { 0.K & 7 %   x l 7 >X,X>X.X@X,.2 @ i 7.5.6.6.i.p.v.m.6.5.5.i.0.{ T 0.T { { ] ] s.V.H.H.H.G.B.",
"0.u.4.q.q.6.i.0.{ u.i.q.i.i.q.0.0.i.g.%.u u Z u % f 8X8X4X<X,X-X&X[.t - y <.6.u.{ T i.z.t.5.y.0.T q.4.6.i.T 0.y.q.0.0.d.G.B.s.7.",
"i.i.u.0.u.6.q.{ 0.T { ] q.y.i.6.6.6.g.g.4.i.4.Z @ ).tXtXwX6X2X<X<X-X;.m : 3 2.{ { 0.{ 9.x.e.i.6.6.6.6.6.6.i.4.6.i.7.7.i.5.7.i.y.",
"T { { { { 0.{ 0.5.i.y.i.4.5.6.i.[ ! [ q.~ q.5.w O 0XtXqXU.+.:X2X<X,XoX;.m # i { i.5.i.i.z.g.6.6.q.~ ~ q.[ [ p.N.V.W.` ~ [ ^ ( { ",
"{ q.q.q.u.T { u.i.i.4.6.5.i.q.W.!./.( P.Q.P.C.w 6 5X0X9Xe + < o.<X,X X{.B t > Y i.i.i.6.h.c.i.Y.W./.(.' (.P.B.H.H.H.`.` ( D.`.W.",
"D.n.6.6.6.7.] [ R.R.q.s.t.W.`.D.$XG.D.H.H.H.Z.w 7 O.3XK   # 7 =X,X2X&X{.B B 1 s Y 9.q.7.d.x._.].H.H.D.F.H.H.$XH.s.r.H./.`.A.A.H.",
"A.G.M.6.6.q.s.d.A.G.G.G.N.M.N.A.d.9.R.d.B.^.r.H X | 3X7 : @.-.>X,X<X-XoXB B r u B.D.G.G.N.C.C.N.V.r.0.E.V.d.r.E.{ { E.s.a.5.6.N.",
"q.q.i.6.6.5.6.6.6.6.6.6.6.6.6.6.m.6.i.y.0.T ] P * < >X} + ; = - 6 @XXX;.B M $ @ A 5.5.6.6.m.c.5.6.5.i.u.q.T T ] { ] ] ] { 0.q.i.",
"r.d.i.6.6.6.6.6.6.6.M.A.H.G.M.g.c.5.i.i.q.0.I > 4 } -X Xf.X.. = ; @.{.;.B c 2 = & 1.6.M.H.H.v.j.6.6.i.i.y.0.0.{ q.u.{ { { { T T ",
"H.H.A.6.6.6.6.6.6.M.G.H.N.N.H.S.c.p.y.y.u.7.q u 9XeX5X-X>X<X .} = 8 >X&X;.B B t + 5 m.H.A.N.OXH.N.6.i.y.y.u.u.y.5.6.q.{ q.y.n.N.",
"B.t.G.A.A.j.j.6.i.6.6.j.6.6.M.N.c.6.6.6.5.3.> I.rXrX6X,.,.k.8 > @ ..2X>XoXB B N # 3 5.j.6.6.c.N.N.6.6.6.6.6.6.6.6.6.5.4.6.n.D.D.",
"{ { E.t.r.r.s.q.{ q.q.y.i.i.i.p.c.6.6.6.5.F @ w.eX8X<X>XXXm v 6 V <X<X;XoXB B c + , q.q.i.p.c.p.5.6.6.6.6.6.6.6.6.6.5.4.u.{ 0.u.",
"q.{ ] { { ] ] ] { ] ] { T T u.y.c.h.6.6.5.F %  .5X<X<X<X|.B |.:X=X2X<X&X{.B N ; @ C ] { T r.z.y.i.6.6.6.6.6.6.6.6.6.5.y.u.y.5.6.",
"M.0.q.4.i.q.u.q.0.u.u.i.4.4.6.6.h.h.5.6.4.I > b -X2X<X<X>X}.,X,X2X<X&XoX[.B e . y 9.7.i.4.m.n.6.6.6.6.6.5.7.[ [ i.6.9.[ 8.5.6.6.",
"H.d.q.6.6.5.6.6.a.M.N.N.6.6.5.i.n.c.p.7./ W.k 1 XX-X,X<X<X<X<X<X-X XoX[.M 0 - A 3.6.N.N.M.c.g.i.i.4.5.i.{ ( (.( ^ [ ^ (.W.Y.p.G.",
"H.H.n.6.6.M.N.H.H.H.H.G.p.5.[ ^ ^ l.L.` ( H.z.4 c oX X.X;X;X*X XoXoX{.m $ & $.A.H.H.H.H.M.a.7.^ ^ / [ ^ ` /.$XD./.P.].$XH.V.V.H.",
"H.H.H.N.6.M.N.N.N.N.M.e./ ~ ( ].Q.P.x.'.W.'.H.#.= g ,.+X@X@X+X+X@X,.r + & $.m.N.N.N.N.M.[ ( W !.`.^ ( ]./.(.H.H.H.F.H.H.H.H.H.H.",
"r.H.H.H.G.M.6.6.6.j.p.[ ~.`.`.H.H.D.OX#XH.H.D.t.K > 1 n @.@.@.n r ; < +.=.N.6.6.6.6.M.q.P.].!.D.H.D.F.H.H.H.H.V.B.D.H.A.6.j.G.G.",
"{ N.N.N.a.6.6.M.A.H.F.D.H.H.N.6.N.$XC.c.t.d.R.{ { 7.5 -     @ * q Z n.N.M.6.6.6.N.G.H.D.F.$XG.M.M.H.H.M.i.s.r.{ ] 0.j.6.6.y.q.R.",
"{ q.4.6.6.6.M.G.N.6.A.H.A.M.6.6.M.A.n.t.x.{ { { T q.7.1.H s P Y Y Y i.5.6.6.g.N.G.j.M.H.G.N.6.6.6.N.N.y.{ { { { { q.y.i.y.{ { 0.",
"y.q.y.5.6.6.n.a.6.6.6.j.6.6.6.i.y.y.0.{ e.q.{ { { ] { { { { u.5.i.q.q.i.6.5.6.M.5.6.6.6.6.6.6.i.y.u.q.{ T q.T { { ] ] { { { T 4.",
"6.6.6.5.5.6.i.T q.5.6.6.6.6.6.i.i.q.{ 0.5.5.q.s.i.q.{ { y.9.U $.G G G $.2.3.5.7.T i.6.6.6.6.6.5.i.u.0.{ y.6.y.q.i.u.T { q.i.0.i.",
"6.6.i.T q.y.{ { { i.6.6.6.6.j.A.M.6.p.n.M.6.a.m.h.6.i.i.1.S A A A A A H H D =.w.{ q.6.6.6.6.6.N.A.6.6.a.M.6.6.5.6.6.i.i.5.6.i.p.",
"6.i.{ { { { { { { T q.y.y.N.H.H.H.G.H.$XB.s.5.p.c.b.z.*.D A Z Z A A D K =.:.=.H I { 0.u.y.p.G.H.H.H.G.$XG.s.i.4.y.y.0.T q.i.i.y.",
"[ ] { { { { ] ] { { T q.i.n.N.H.H.H.D.d.q.0.T { { Y.w.>.>.:.:.:.:.:.>.:.&.H s s P { { 0.u.p.M.G.H.H.H.V.q.q.T T { { { { { { { { ",
") ) ! 8.0.y.[ ` Q ] i.6.M.G.G.H.H.G.5.i.6.i.q.q.{ { ] J J &.&.&.&.L k k s Z h a R ! 0.6.j.N.G.H.H.H.M.i.i.6.u.q.T { { { { { ] ] ",
"P.` ` P.P./ !.'.( ` e.N.A.A.G.H.H.M.6.6.6.i.u.T { { { P s a p d k a p d k d d *.!.` ~ M.A.A.A.H.H.G.6.6.6.5.i.0.{ { { { { ] ` ` ",
"H.P.~.H.H.V.H.H.D.'.D.N.6.6.6.A.H.A.A.M.6.6.6.i.i.0.{ [ E z L +.+.K d +.#.&.w.F.H.V.].m.j.6.6.M.G.H.N.N.6.6.6.5.i.y.{ { ] W P.].",
"H.D.H.H.H.H.H.H.H.H.H.N.G.M.6.6.M.A.N.M.6.6.6.6.6.n.B.V.`./.Z.l.l.l.=.l.Z.H.H.H.H.H.$XG.A.A.6.6.6.N.N.M.M.6.6.6.6.6.B.B.V./.D.H.",
"M.H.H.N.N.H.N.N.H.H.H.H.H.A.6.A.N.6.6.6.6.6.6.6.6.N.6.M.A.G.H.G.M.N.H.A.M.G.G.M.G.H.H.H.H.H.M.N.A.M.6.6.6.6.6.6.6.j.M.6.N.G.H.H.",
"6.N.M.6.6.6.6.6.H.H.H.G.H.H.G.H.H.N.N.N.N.M.6.6.6.6.6.6.6.6.A.M.6.6.N.6.6.6.6.5.N.H.H.G.H.H.G.H.H.A.N.N.N.N.6.6.6.6.6.6.6.6.M.A.",
"6.6.6.6.6.6.6.6.M.M.j.6.M.M.M.M.j.i.q.0.0.y.i.i.4.6.6.j.M.6.6.6.6.6.6.6.6.6.6.5.6.M.M.6.6.M.M.M.M.p.y.0.0.q.i.i.i.6.6.6.M.6.6.6.",
"i.i.q.u.6.6.6.6.6.6.6.6.6.6.6.i.q.{ { { { { { { q.n.N.H.H.N.M.p.i.5.u.q.i.6.6.6.6.6.6.6.6.6.6.6.y.T { { { { T { { p.M.G.H.G.M.a.",
"T 0.u.T u.6.6.y.q.i.6.i.5.5.y.0.] q.y.y.0.{ T T { E.B.H.H.V.V.q.T 0.q.q.0.i.6.i.q.u.6.i.i.6.i.q.{ { y.y.u.{ { 0.{ R.r.D.H.D.V.s.",
"i.i.4.y.y.6.y.{ ] T 0.{ q.y.y.i.i.4.6.6.i.q.4.4.i.y.i.a.n.i.i.i.y.i.5.i.u.i.5.0.{ { 0.T T y.y.y.y.i.6.6.6.q.y.5.i.i.i.i.M.p.i.i.",
"u.q.T { 0.i.T T y.q.T 0.y.y.5.6.i.7.i.i.y.4.6.p.Y.~ [ i.Y.[ q.T 0.u.0.{ { u.u.{ q.y.0.T q.y.i.6.i.y.y.5.i.i.6.a.r.[ ~ 7.7.~ 9.0.",
"] { { { T { { y.6.6.6.6.6.6.4.9.( ( W / ^ ~ A.H.D.~.` W ( /.^ { { { T { T { { T 5.6.6.6.6.6.6.y.~ ( ^ / ( W d.H.F.'.P.` W (.W.! ",
"r.i.i.i.5.q.{ 0.q.q.u.i.i.Y.W./.D.F.`.`.D.`.H.H.D.H.`.( V.G.`.D.V.q.i.y.4.i.{ T q.q.q.i.p.7.Y.T.'.F.D./.D.`.D.H.G.G.D.( (.H.D.`.",
"H.G.j.6.6.q.R.R.d.B.B.B.B./.G.H.D.t.d.G.H.G.D.r.{ r.D.B.N.6.G.S.H.H.N.6.6.i.0.R.^.B.B.B.V./.V.H.H.B.r.V.H.G.D.V.R.{ V.V.V.j.M.S.",
"a.n.p.6.6.i.n.M.N.M.N.M.6.6.6.M.i.y.0.q.E.{ { { { { { 0.q.i.5.6.p.n.a.6.6.i.p.n.M.N.M.M.M.6.6.j.n.i.q.0.q.R.{ { { { { { q.y.i.6.",
"R.R.y.6.6.6.6.6.6.6.6.M.A.N.6.6.6.6.5.5.u.q.{ { T { { ] { { 0.q.{ R.0.4.6.6.6.6.6.6.6.6.N.N.j.6.6.6.6.5.i.q.0.{ { { { { { { T q.",
"V.D.n.6.6.6.6.6.6.N.A.H.H.H.A.N.6.i.y.y.q.0.T u.5.u.] { T q.u.y.d.H.V.a.6.6.6.6.6.M.N.G.H.H.G.N.M.6.y.y.u.0.0.0.i.i.T ] { 0.u.u."
};
