/* XPM */
static char *_0593861dfcb49f3c7055daa7d45f14bFEtjlWCD7CGOfFTq[] = {
/* columns rows colors chars-per-pixel */
"64 64 207 2 ",
"   c #131A2D",
".  c #19212D",
"X  c #1F2330",
"o  c #252934",
"O  c #2B2C33",
"+  c #2D2C31",
"@  c #293435",
"#  c #333433",
"$  c #333B33",
"%  c #3C3B35",
"&  c #3B3539",
"*  c #443F37",
"=  c #493E3C",
"-  c #344336",
";  c #3C4534",
":  c #3B4A3B",
">  c #474738",
",  c #454B38",
"<  c #51443C",
"1  c #544B3D",
"2  c #475338",
"3  c #59563B",
"4  c #695A3E",
"5  c #55653D",
"6  c #6B6F37",
"7  c #67763B",
"8  c #74753B",
"9  c #3C5249",
"0  c #504B42",
"q  c #445A44",
"w  c #6F5F40",
"e  c #735F42",
"r  c #4D664C",
"t  c #586F45",
"y  c #4E6552",
"u  c #4D6C5E",
"i  c #516D5A",
"p  c #5A7C51",
"a  c #577758",
"s  c #5C7459",
"d  c #6C6F47",
"f  c #776941",
"g  c #6D7443",
"h  c #637841",
"j  c #617E4D",
"k  c #727348",
"l  c #637858",
"z  c #707858",
"x  c #5B606C",
"c  c #65676E",
"v  c #85624C",
"b  c #896D49",
"n  c #8A7047",
"m  c #977B4A",
"M  c #926A50",
"N  c #9B7252",
"B  c #A77757",
"V  c #AB7957",
"C  c #7F853A",
"Z  c #5E8154",
"A  c #6E8644",
"S  c #6F8846",
"D  c #64824C",
"F  c #698448",
"G  c #718744",
"H  c #768B45",
"J  c #7E9646",
"K  c #7F9847",
"L  c #74924D",
"P  c #658855",
"I  c #768451",
"U  c #6B935B",
"Y  c #799B52",
"T  c #719C5D",
"R  c #7CA45C",
"E  c #7EAA5E",
"W  c #6D966F",
"Q  c #6E9A6D",
"!  c #7E9463",
"~  c #779F67",
"^  c #799F66",
"/  c #72976F",
"(  c #749A6C",
")  c #7A9A6D",
"_  c #648F76",
"`  c #669074",
"'  c #6B9372",
"]  c #739670",
"[  c #779870",
"{  c #76A663",
"}  c #79A662",
"|  c #7BA861",
" . c #858D3A",
".. c #94983B",
"X. c #9FA63C",
"o. c #AFB43D",
"O. c #B9C03E",
"+. c #C5CA3F",
"@. c #E3EA3C",
"#. c #85864C",
"$. c #829A48",
"%. c #8D9B4C",
"&. c #919150",
"*. c #939B58",
"=. c #A6884C",
"-. c #A69A44",
";. c #B4964D",
":. c #B48656",
">. c #B98C55",
",. c #BD9354",
"<. c #BE9B50",
"1. c #84A24C",
"2. c #8BA54A",
"3. c #8CAB4D",
"4. c #91AD4B",
"5. c #97B64F",
"6. c #99B74E",
"7. c #9BB84D",
"8. c #81A353",
"9. c #87A850",
"0. c #8CAE56",
"q. c #83A75E",
"w. c #84AD5B",
"e. c #8AAE5A",
"r. c #9AA55A",
"t. c #93AE5E",
"y. c #9AAF5E",
"u. c #8DB155",
"i. c #8BB058",
"p. c #93B452",
"a. c #9BB652",
"s. c #9EB850",
"d. c #96B15B",
"f. c #9CB15C",
"g. c #ADAF49",
"h. c #BBA34B",
"j. c #A2B54F",
"k. c #A1B84F",
"l. c #A4A154",
"z. c #A4AB58",
"x. c #A2B754",
"c. c #ACB756",
"v. c #A4B851",
"b. c #ABB953",
"n. c #A3B25C",
"m. c #ABB35C",
"M. c #ADB15F",
"N. c #B3B656",
"B. c #B3B956",
"V. c #B5B957",
"C. c #BABA57",
"Z. c #B3B55C",
"A. c #BAB75B",
"S. c #B6B958",
"D. c #BCB95A",
"F. c #BEB95A",
"G. c #829D6C",
"H. c #B28A6F",
"J. c #BE9B60",
"K. c #83A462",
"L. c #8AA466",
"P. c #83AA61",
"I. c #8BAC60",
"U. c #85A069",
"Y. c #8BA269",
"T. c #94A666",
"R. c #98A766",
"E. c #91AD60",
"W. c #9CA964",
"Q. c #91A468",
"!. c #A4AD62",
"~. c #A9AF61",
"^. c #ABB060",
"/. c #C49755",
"(. c #C49B53",
"). c #C7AC4F",
"_. c #D5BA4E",
"`. c #C0A250",
"'. c #CCA453",
"]. c #CEA952",
"[. c #D2AB54",
"{. c #C1BA5A",
"}. c #D2B150",
"|. c #BDC24C",
" X c #C6C941",
".X c #CBCD45",
"XX c #D6C94A",
"oX c #DBCB4B",
"OX c #DAD945",
"+X c #DFD449",
"@X c #D4C754",
"#X c #E2DA48",
"$X c #E4E445",
"%X c #E6EC43",
"&X c #E8EF43",
"*X c #E8E849",
"=X c #E9F143",
"-X c #F0F659",
";X c #EBF162",
":X c #EEF26B",
">X c #EEF37D",
",X c #E1E490",
"<X c #DFCFAE",
"1X c #F3F6A5",
"2X c #C0C2CA",
"3X c #F6F4C3",
"4X c #FAF8E8",
/* pixels */
"I.| n.S.Z.x.x.d.i.p.p.6.7.7.7.7.7.7.7.7.7.7.7.7.7.7.7.7.p.y.f.f.t.| t.Z.Z.m.x.x.i.u.p.p.7.7.7.7.7.7.7.7.7.7.7.7.7.7.7.7.p.t.d.f.",
"| { | | | | | | | | | E e.e.i.i.5.7.7.7.7.7.7.7.7.7.u.e.E e.p.u.| | | | | | | | | | | | w.e.e.i.p.7.7.7.7.7.7.7.7.7.p.i.w.E u.p.",
"a.w.E e.e.| | | | E E e.i.i.p.5.7.7.7.7.7.p.p.p.7.6.p.p.p.7.7.7.s.u.| w.i.w.| | | | | w.i.i.u.5.7.7.7.7.7.6.p.p.6.7.p.p.p.6.7.7.",
"B.e.e.7.7.p.p.p.u.a.a.7.7.7.7.7.7.7.7.6.w.) / / 0.K./ / } 5.7.V.D.v.w.p.7.6.p.p.i.p.a.s.7.7.7.7.7.7.7.7.p.} / W } u.( / ( e.7.b.",
"D.S.d.7.7.7.7.b.b.B.D.S.7.7.0.| K.p.w.~ / M.^.U.] / ~.Z.W.t.c.D.D.D.n.p.7.7.7.v.b.b.D.D.b.7.6.q.} e.u.K./ Y.Z.W.) ' Y.Z.M.T.a.D.",
"D.D.V.v.7.b.D.D.D.D.V.x.w.e./ G.] ' / G.) Z.D.D.M.M.D.D.{.A.D.D.D.D.D.b.7.7.V.D.D.D.D.B.t.w.} ) G.' ' G./ T.D.D.A.!.D.D.D.D.D.D.",
"m.D.D.V.b.k.7.7.7.k.a.R ) U.U.D.m.T.M.{.~.Z.D.D.D.{.D.B.b.V.{.D.n.D.D.D.b.v.7.7.7.7.k.p./ U./ ^.D.R.W.D.Z.!.D.D.D.{.{.D.b.b.D.{.",
"P.S.D.D.b.v.7.7.v.B.m.T.Z.A.Z.b.D.D.D.b.c.D.f.P.I.c.B.7.7.s.n.I.| n.D.D.V.b.7.7.7.b.S.W.W.D.Z.b.B.D.D.B.c.S.Z.I.P.d.B.v.7.6.x.d.",
"| p.7.7.7.7.7.B.V.B.D.{.D.B.7.7.v.D.v.i.E P.| | | u.6.7.u.E { | | e.s.k.7.7.7.v.V.B.V.{.{.S.b.7.7.V.V.5.E P.| { | w.5.7.p.w.| { ",
"E E u.6.7.7.v.b.7.7.v.b.v.7.7.7.7.v.p.E | | | | | E w.e.| | w.p.e.| e.p.7.7.v.b.b.7.7.b.b.7.7.7.7.7.x.e.| | | | | | E e.w.{ | u.",
"6.p.p.7.7.7.6.u.p.7.7.7.7.7.7.u.e.E | | p.p.| w.w.| | | w.E u.7.7.p.p.6.7.7.7.p.u.5.7.7.7.7.7.p.i.w.E { e.p.e.E e.E | { | w.E 6.",
"7.7.6.u.p.6.e.| E 5.7.7.7.7.7.v.7.p.i.u.7.7.u.6.6.p.e.i.6.p.u.7.7.7.7.p.u.5.p.E { i.7.7.7.7.7.k.v.p.u.e.p.7.p.p.7.p.i.e.p.7.i.p.",
"7.6.e.| | E | | | i.p.7.6.7.b.D.V.b.b.D.B.v.7.6.6.p.u.u.6.7.6.7.7.7.p.| | E | | | w.u.p.7.7.v.S.D.b.b.V.S.b.7.7.6.6.p.u.p.7.7.7.",
"p.w.| | { { { | | { | w.i.c.S.D.D.D.D.Z.t.w.i.w.E E { { w.i.w.w.u.u.| | { { | | | | { E e.p.B.D.D.D.D.D.n.P.w.i.E E | { | e.e.E ",
"' ' | e.e.e.| Q { | i.p.6.v.b.D.D.D.a.i.p.u.e.w.| | | { { | | { Q ' Q e.e.e.e.~ ~ { E p.p.7.v.B.D.D.b.d.u.p.e.e.| { | | | { { | ",
"' ` W ( ~ q.^ G.' Q p.k.B.D.D.D.D.b.7.7.7.u.w.E | | { { { { ' Q ' ` ` / ( } } G.) ' w.7.b.D.D.D.D.D.7.7.7.p.e.w.| | | | { { Q W ",
"!.] ) !.!.U.Z.D.W.G.y.B.v.v.b.D.D.v.v.7.7.7.p.e.w.| { { { ' [ R.M.Y.' T.~.T.T.D.Z.U.L.c.b.v.v.B.D.V.v.v.7.7.6.u.w.w.{ { { Q ' U.",
"D.W.Z.D.D.D.D.D.D.D.D.v.v.7.7.v.B.D.B.b.7.7.7.7.7.i.e.I.U.) Z.D.{.Z.W.D.D.D.D.D.D.D.D.b.v.v.7.7.b.D.V.B.v.7.7.7.7.p.e.e.L.) W.D.",
"V.D.D.S.D.D.D.D.D.D.D.D.D.b.7.v.k.v.7.7.7.7.7.7.7.b.b.B.A.Z.D.D.V.D.D.D.N.A.A.N.D.D.D.D.D.D.7.7.v.v.k.7.7.7.7.7.7.k.B.b.D.Z.D.D.",
"7.B.b.7.7.b.v.k.D.D.D.D.D.V.b.D.S.b.v.v.v.v.7.7.7.7.7.7.v.v.D.b.7.v.V.v.2.%.%.$.z.D.D.D.D.D.b.V.D.B.v.v.v.v.7.7.7.7.7.7.k.v.b.D.",
"7.v.7.7.7.7.7.7.V.V.b.v.B.V.B.B.b.v.a.a.a.s.7.7.7.7.7.7.7.7.k.7.7.7.v.7.5 ;  ., , #.N.v.b.V.V.V.V.v.s.a.a.a.7.7.7.7.7.7.7.7.7.v.",
"7.7.p.5.7.7.7.7.7.7.7.7.7.7.7.7.p.e.| { { w.e.w.u.7.v.b.b.7.7.7.7.7.p.p.2.2 o.OXX.$ A 5.6.7.7.7.5.i.E { { | i.w.e.6.7.v.B.v.7.7.",
"i.e.w.w.p.7.7.p.p.7.7.7.7.7.6.u.| | w.w.| | | { w.f.S.D.D.D.B.e.w.u.w.E Y ; 3 h.$X=.3 2.7.7.7.p.w.| E w.E | | { { d.m.D.D.D.V.n.",
"w.i.5.e.e.7.p.w.| i.p.e.p.p.e.w.w.p.7.7.i.| u.u.w.w.t.c.Z.d.t.e.8.R 3.9.2 o o # f ;.3 Y e.6.u.w.E e.5.7.p.E w.u.e.w.w.f.V.n.d.e.",
"p.p.i.w.i.7.e.| w.E | { e.u.p.7.7.7.7.7.7.p.7.5.e.0.0.6.p.e.3.F : $ - $ . x 2Xz + O q T | i.p.7.7.7.7.7.7.p.5.7.p.e.0.p.6.0.p.u.",
"E | | | | w.| w.6.p.u.p.5.6.7.p.} ~ } e.^ e.v.c.*.i 9 q 9 y r $  .+..X|.C 8 c d , @ 1.u.p.7.7.7.e.^ ^ e.} } a.b.m.U.' ^ } / ) | ",
"| e.e.e.i.E | i.p.p.5.7.6.p.e.U.T.W.) G.Y.G.N.g > , g 8 8 * % o.&X@.1X4X1X$X;.* o h p.7.7.p.u.K.U.R.Q.] Q.G.n.D.D.D.!.' ) Z.!.U.",
"Z.x.7.7.7.e.{ } P.P.e.d.y.U.!.Z.{.S.Z.D.{.A.k ; g.,X3X-X*X(.-... .g.3X4X4X;X#X;.$ P w.e.f.T.W.^.D.D.Z.A.D.D.{.D.d.t.D.W.!.B.B.A.",
"B.V.v.7.7.e.d.f.B.S.S.S.b.v.b.B.f.w.P.f.n.I % -.:X4X4X>X$Xh.> < # & H.H.<X-X$X].4 g Z.S.b.v.v.b.c.t.w.I.m.f.t.I.| | I.d.a.6.7.b.",
"e.e.p.7.7.6.7.7.7.7.7.7.7.7.7.7.6.6.p.u.R : m oX*X;X;X@X+X X# 4 =.6 m >.J.$X$X[.w h 6.6.7.7.7.7.7.6.p.i.e.E E { | | { { | w.e.p.",
"t.f.p.7.7.7.7.7.7.7.v.B.D.S.v.7.7.6.p.p.j < '.#X&X%X%X<.=..X..% 8 &XoXOXXX$X$X[.w h 7.v.D.D.b.7.7.7.p.p.u.w.w.| e.i.| | | | E E ",
"D.D.B.7.7.7.7.7.7.v.V.D.b.b.D.V.k.p.u.i.t 1 [.+X&X&X%X).v 2  Xh.% -.$X=X&X&XXX'.f G c.D.B.b.D.D.b.7.p.u.u.i.i.u.6.7.e.| e.u.v.b.",
"n.y.S.B.B.k.k.7.p.7.7.k.7.7.v.b.v.7.7.6.7 1 [._.%X=XOX>.N + 6 -.> n XX$X$X$X}.;., 1.7.k.7.7.v.b.b.7.7.7.7.7.7.7.7.7.6.5.7.x.Z.Z.",
"| | I.y.t.t.d.e.| e.e.u.p.p.p.p.7.7.6.6.h > <.].+X=XOX`.oX-.o   3 `.,.(.}.].,.3 9 R e.e.p.5.p.p.6.7.7.7.7.7.7.7.7.7.6.5.i.| w.i.",
"e.| { | | { { { | { { | E E i.u.6.7.6.6.H $ m '.]._.$X&X&X$X XO.OX#X>.V :.:.M @ U { { | E E e.i.p.7.7.7.7.7.7.7.7.7.6.u.i.u.6.7.",
"v.w.e.5.p.e.i.e.w.i.i.p.5.5.7.7.7.7.7.6.p.t < <.'.'.oX&X=X&X=X=X&X+X(.V B v & : R i.i.u.5.p.6.7.7.7.7.7.6.0.} } p.7.w.} q.6.7.7.",
"D.f.e.7.7.6.7.7.s.v.b.b.7.7.6.p.p.6.p.0.( ! q 1 <.'.]._.+X$X&X&X#X].>.B < o - $.a.7.b.b.v.7.7.p.p.5.6.p.| ) Q.) / } / Q.U.K.a.V.",
"D.{.x.7.7.v.b.D.D.D.D.V.a.6.} / W } ( ' ) A.N.k > b '.'.'.}._._.].>.V V v X g N.D.D.D.D.v.5.0./ / ( } / ' W.{.Z.W.G.^.{.D.M.m.D.",
"D.D.D.b.7.v.b.b.b.b.v.0.( ^ ) ^.Y.' T.^.U.~.D.A.#.# e =.(.(././.:.V V V v o H b.b.b.b.v.} ~ W T.!./ ) ^.R.Q.D.D.D.A.D.D.D.D.D.D.",
"t.D.D.D.V.v.7.7.7.k.a.} R.!.!.D.A.Z.D.D.D.D.Z.n.n.*.3 # 1 v v N V V M 0 O , 4.6.7.7.v.e.G.^.T.Z.D.Z.A.D.D.D.D.m.n.Z.D.B.7.k.S.S.",
"| c.b.b.s.7.7.v.B.D.A.Z.D.D.b.7.b.{.b.a.d.f.P.{ | p.j.J t - @ & = = o . 5 2.6.7.b.V.D.Z.A.{.V.v.v.D.D.v.p.d.t.| { w.k.7.7.u.e.P.",
"| e.5.7.7.7.v.V.b.7.B.D.B.v.7.7.v.B.s.w.| | | | | i.u.p.w.T T D p p F H 4.6.k.b.V.k.v.D.V.b.7.7.7.b.b.u.| | | | | e.u.p.u.| | w.",
"u.e.u.6.7.7.v.s.7.7.7.k.7.7.7.p.u.u.w.| w.w.| | | { | | | | e.6.p.e.e.p.6.7.7.v.6.7.7.7.7.7.7.p.u.i.e.| E e.E | | { { | | | E 5.",
"7.7.7.6.6.7.p.E e.6.7.7.7.7.7.p.p.e.| w.6.6.e.p.p.e.| T 8.L L K K K $.3.4.6.7.e.E p.7.7.7.7.7.6.p.i.w.| u.7.u.e.p.i.E | e.p.w.p.",
"7.7.p.E e.u.| | | p.7.7.7.7.k.B.v.7.a.x.v.7.6.7.6.2.L S G G S G G G S D D L Y | | e.7.7.7.7.7.b.B.7.7.a.v.7.7.6.7.7.p.p.6.7.p.a.",
"7.p.| | | | | | | E e.u.u.b.D.D.D.S.D.{.n.d.6.p.8.D p j F S F F G G D p p p p U | | w.i.u.a.V.D.D.D.S.{.S.d.p.5.u.u.w.E e.p.p.u.",
"} { | | | | { { | | E e.p.v.b.D.D.D.Z.f.e.w.E R P p p p p p p p p a p p p p p Z { | | w.i.a.v.V.D.D.D.m.e.e.E E | | | | | | | | ",
"_ _ ~ q.w.u.} ' Q { p.7.v.V.V.D.D.V.6.p.7.p.e.w.P p p p p p a a u u i p p D j a W ~ w.7.k.b.V.D.D.D.v.p.p.7.i.e.E | | | | | { { ",
"G.' ' G.G.( T.~.) ' t.b.V.V.S.D.D.v.7.7.7.p.i.E T Z p p p i u s l s u s l s l r.T.' ^ v.B.B.B.D.D.V.7.7.7.6.p.w.| | | | | { ' ' ",
"D.G.R.D.D.M.D.D.Z.~.Z.b.7.7.7.B.D.B.B.v.7.7.7.p.p.R U P a i z #.#.I s #.&.l.z.D.D.M.^.c.k.7.7.v.S.D.b.b.7.7.7.6.p.u.| | { W G.^.",
"D.Z.D.D.D.D.D.D.D.D.D.b.V.v.7.7.v.B.b.v.7.7.7.7.7.a.n.n.r.*.l.l.l.l.l.A.A.D.D.D.D.D.{.V.B.B.7.7.7.b.b.v.v.7.7.7.7.7.n.n.m.R.Z.{.",
"v.D.D.b.b.D.b.b.D.D.D.D.D.B.7.B.b.7.7.7.7.7.7.7.7.b.7.v.B.V.D.V.v.b.D.B.v.V.V.v.V.D.D.D.D.D.v.b.B.v.7.7.7.7.7.7.7.k.v.7.b.V.D.D.",
"7.b.v.7.7.7.7.7.D.D.D.V.D.D.S.D.D.b.b.b.b.v.7.7.7.7.7.7.6.7.B.v.7.7.b.7.7.7.7.7.b.D.D.V.D.D.V.D.D.B.b.b.b.b.7.7.7.7.7.7.7.7.v.B.",
"7.7.7.7.7.7.7.7.v.v.k.7.v.v.v.v.k.p.e.w.w.u.p.p.5.7.7.k.v.7.7.7.7.7.7.7.7.7.7.7.7.v.v.7.7.v.v.v.v.a.u.w.w.e.p.p.p.7.7.7.v.7.7.7.",
"p.p.e.i.7.7.7.7.7.7.7.7.7.7.7.p.e.| | | | | | | e.v.b.D.D.b.v.a.p.6.i.e.p.7.7.7.7.7.7.7.7.7.7.7.u.E | | | | E | | a.v.V.D.V.v.s.",
"E w.i.E i.7.7.u.e.p.7.p.6.6.u.w.{ e.u.u.w.| E E | I.n.D.D.m.m.e.E w.e.e.w.p.7.p.e.i.7.p.p.7.p.e.| | u.u.i.| | w.| P.t.Z.D.Z.m.d.",
"p.p.5.u.u.7.u.| { E w.| e.u.u.p.p.5.7.7.p.e.5.5.p.u.p.s.v.p.p.p.u.p.6.p.i.p.6.w.| | w.E E u.u.u.u.p.7.7.7.e.u.6.p.p.p.p.v.a.p.p.",
"i.e.E | w.p.E E u.e.E w.u.u.6.7.p.0.p.p.u.5.7.a.K.^ } p.K.} e.E w.i.w.| | i.i.| e.u.w.E e.u.p.7.p.u.u.6.p.p.7.s.t.} ^ e.0.^ w.w.",
"{ | | | E | | u.7.7.7.7.7.7.5.w.) ) W ( / ^ B.D.Z.R.' W ) R./ | | | E | E | | E 6.7.7.7.7.7.7.u.^ ) / ( ) W f.D.A.~.G.' W Q.U.~ ",
"t.p.p.p.6.e.| w.e.e.i.p.p.K.U.R.Z.A.!.!.Z.!.D.D.Z.D.!.) M.S.!.Z.m.e.p.p.5.p.| E e.e.e.p.a.e.K.L.~.A.Z.W.Z.!.Z.D.S.S.Z.) Q.D.Z.!.",
"D.V.k.7.7.e.P.P.f.n.n.n.n.W.S.D.Z.y.f.S.D.S.Z.t.| t.Z.m.b.7.B.C.D.D.b.7.7.p.w.P.E.n.n.n.m.W.c.D.D.n.t.m.D.S.Z.m.P.| m.m.m.k.v.C.",
"a.x.a.7.7.p.v.v.b.v.b.v.7.7.7.v.p.u.w.e.I.| | | | | | w.e.p.6.7.p.x.s.7.7.p.a.v.v.b.b.v.v.7.7.k.v.p.e.w.e.P.| | | | | | e.u.p.7.",
"P.P.u.7.7.7.7.7.7.7.7.v.B.b.7.7.7.7.6.6.i.e.| | E | | { | | w.e.| P.w.5.7.7.7.7.7.7.7.7.b.b.k.7.7.7.7.6.p.e.w.| | | | | | | E e.",
"c.Z.x.7.7.7.7.7.7.b.B.D.D.D.B.b.7.p.u.u.e.w.E i.6.e.{ | E e.i.u.f.D.c.s.7.7.7.7.7.v.b.V.D.D.S.b.v.7.u.u.i.w.w.w.p.p.E { | w.i.i."
};
