/* XPM */
static char *_b270d0e033946bc8869bac0b1c24d28W1w95uX0kYbujiWz[] = {
/* columns rows colors chars-per-pixel */
"64 64 209 2 ",
"   c #161D2D",
".  c #1E2330",
"X  c #23242F",
"o  c #232531",
"O  c #252A33",
"+  c #2B2C33",
"@  c #2D3534",
"#  c #2B3339",
"$  c #2C3939",
"%  c #313532",
"&  c #363C37",
"*  c #3A3C34",
"=  c #413D35",
"-  c #463C3B",
";  c #374438",
":  c #3C4B3C",
">  c #464B32",
",  c #4D433C",
"<  c #464A38",
"1  c #534A3A",
"2  c #4E5737",
"3  c #59563A",
"4  c #675A3F",
"5  c #5E6637",
"6  c #5A6B3D",
"7  c #646837",
"8  c #6D7336",
"9  c #737937",
"0  c #363E44",
"q  c #374644",
"w  c #3B5242",
"e  c #3E4150",
"r  c #435A46",
"t  c #575A48",
"y  c #675442",
"u  c #4C674A",
"i  c #526B49",
"p  c #58744A",
"a  c #4D6759",
"s  c #536D57",
"d  c #587654",
"f  c #666642",
"g  c #7B6A42",
"h  c #6F7046",
"j  c #657C40",
"k  c #637F4C",
"l  c #787B4D",
"z  c #65615A",
"x  c #6A7753",
"c  c #545A62",
"v  c #84664A",
"b  c #857A47",
"n  c #977A49",
"m  c #936A51",
"M  c #AC7B57",
"N  c #AC7B58",
"B  c #B07C59",
"V  c #5D8455",
"C  c #6D8646",
"Z  c #65824C",
"A  c #69854B",
"S  c #758847",
"D  c #70914F",
"F  c #6B965A",
"G  c #7DA45A",
"H  c #7EAA5E",
"J  c #798C60",
"K  c #6D966F",
"L  c #6E9A6D",
"P  c #769D65",
"I  c #799E66",
"U  c #72976F",
"Y  c #7F9768",
"T  c #739A6C",
"R  c #7A9A6D",
"E  c #648F76",
"W  c #679174",
"Q  c #6B9372",
"!  c #739670",
"~  c #779870",
"^  c #76A663",
"/  c #79A662",
"(  c #7BA861",
")  c #8B8B3B",
"_  c #91973A",
"`  c #9FA53B",
"'  c #AEB03E",
"]  c #CED03F",
"[  c #87874B",
"{  c #95894B",
"}  c #829749",
"|  c #8A8C51",
" . c #8B985B",
".. c #9A9D55",
"X. c #A3874B",
"o. c #AE8D4E",
"O. c #B08E4E",
"+. c #A09C40",
"@. c #B9954F",
"#. c #B48356",
"$. c #B48855",
"%. c #A19F54",
"&. c #BB9751",
"*. c #89A54A",
"=. c #8BA64A",
"-. c #92AC4D",
";. c #97B64F",
":. c #99B74E",
">. c #9BB84D",
",. c #8CAE56",
"<. c #83A75E",
"1. c #84AD5B",
"2. c #8AAE5A",
"3. c #97A854",
"4. c #93AE5E",
"5. c #9AAF5E",
"6. c #8DB156",
"7. c #8BB058",
"8. c #93B452",
"9. c #9BB653",
"0. c #9EB850",
"q. c #95B05C",
"w. c #9CB15C",
"e. c #B6A447",
"r. c #A1B84F",
"t. c #BAB842",
"y. c #A4A153",
"u. c #AAAC55",
"i. c #A5A858",
"p. c #A2B653",
"a. c #ABB656",
"s. c #A4B851",
"d. c #ABB953",
"f. c #A3B35C",
"g. c #ADB15F",
"h. c #ABB45C",
"j. c #B3B956",
"k. c #B5B957",
"l. c #B9B957",
"z. c #B3B55C",
"x. c #BAB75B",
"c. c #B6B958",
"v. c #BCB95A",
"b. c #BDB95A",
"n. c #BEB95A",
"m. c #839D6C",
"M. c #889F6A",
"N. c #979C72",
"B. c #B99168",
"V. c #82A462",
"C. c #8AA466",
"Z. c #83AA61",
"A. c #8CAC60",
"S. c #85A069",
"D. c #8BA169",
"F. c #94A566",
"G. c #98A766",
"H. c #92AC61",
"J. c #9CA964",
"K. c #91A468",
"L. c #A4AD62",
"P. c #A9AF61",
"I. c #ABB060",
"U. c #B5BA6D",
"Y. c #C29655",
"T. c #C59A54",
"R. c #C5AA4D",
"E. c #C8B34A",
"W. c #D1B54F",
"Q. c #D5BC4E",
"!. c #CCA453",
"~. c #CEA852",
"^. c #D3AA54",
"/. c #C1BA59",
"(. c #D2B250",
"). c #C6C942",
"_. c #D4C849",
"`. c #DCCB4B",
"'. c #CFD740",
"]. c #D9D647",
"[. c #DBD348",
"{. c #E3CC4F",
"}. c #E1DE47",
"|. c #E1DA48",
" X c #DFE442",
".X c #DDE05E",
"XX c #E3E445",
"oX c #E6EC44",
"OX c #E8EF44",
"+X c #EAF144",
"@X c #ECF348",
"#X c #EBF04F",
"$X c #DBDA60",
"%X c #D9E06B",
"&X c #EAED6F",
"*X c #EFF37F",
"=X c #B7A89B",
"-X c #9D9EA5",
";X c #ACAEB6",
":X c #C49F86",
">X c #D2B8A7",
",X c #D1D2AA",
"<X c #E3D4B5",
"1X c #F4F6AC",
"2X c #F2F3B4",
"3X c #C2C4C7",
"4X c #F9FAD1",
"5X c #F8F7E8",
"6X c #FEFDFE",
/* pixels */
"A.( f.c.z.p.p.q.7.8.8.:.>.>.>.>.>.>.>.>.>.>.>.>.>.>.>.>.8.5.w.w.4.( 4.z.z.h.p.p.7.6.8.8.>.>.>.>.>.>.>.>.>.>.>.>.>.>.>.>.8.4.q.w.",
"( ^ ( ( ( ( ( ( ( ( ( H 2.2.7.7.;.>.>.>.>.>.>.>.>.>.6.2.H 2.8.6.( ( ( ( ( ( ( ( ( ( ( ( 1.2.2.7.8.>.>.>.>.>.>.>.>.>.8.7.1.H 6.8.",
"9.1.H 2.2.( ( ( ( H H 2.7.7.8.;.>.>.>.>.>.8.8.8.>.:.8.8.8.>.>.>.0.6.( 1.7.1.( ( ( ( ( 1.7.7.6.;.>.>.>.>.>.:.8.8.:.>.8.8.8.:.>.>.",
"j.2.2.>.>.8.8.8.6.9.9.>.>.>.>.>.>.>.>.:.1.R U U ,.V.U U / ;.>.k.v.p.1.8.>.:.8.8.7.8.9.0.>.>.>.>.>.>.>.>.8.^ U K / 6.T U T 2.>.d.",
"v.c.q.>.>.>.>.d.d.j.v.c.>.>.,.( V.8.1.P U g.I.S.! U P.z.J.4.a.v.v.v.f.8.>.>.>.s.d.d.v.v.d.>.:.<./ 2.6.V.U D.z.J.R Q D.z.g.F.9.v.",
"v.v.k.s.>.d.v.v.v.v.k.p.1.2.U m.! Q U m.R z.v.v.g.g.v.v./.x.v.v.v.v.v.d.>.>.k.v.v.v.v.j.4.1./ R m.Q Q m.U G.v.v.x.L.v.v.v.v.v.v.",
"h.v.v.k.d.r.>.>.>.r.9.G R S.S.v.h.F.g./.P.z.v.v.v./.v.j.d.k./.v.f.v.v.v.d.s.>.>.>.>.r.8.U S.U I.v.G.J.v.z.L.v.v.v././.v.d.d.v./.",
"Z.c.v.v.d.s.>.>.s.j.h.F.z.x.z.d.v.v.v.d.a.v.w.Z.A.a.j.>.>.0.f.A.( f.v.v.k.d.>.>.>.d.c.J.J.v.z.d.j.v.v.j.a.c.z.A.Z.q.j.s.>.:.p.q.",
"( 8.>.>.>.>.>.j.k.j.v./.v.j.>.>.s.v.s.7.H Z.( ( ( 6.:.>.6.H ^ ( ( 2.0.r.>.>.>.s.k.j.k././.c.d.>.>.k.k.;.H Z.( ^ ( 1.;.>.8.1.( ^ ",
"H H 6.:.>.>.s.d.>.>.s.d.s.>.>.>.>.s.8.H ( ( ( ( ( H 1.2.( ( 1.8.2.( 2.8.>.>.s.d.d.>.>.d.d.>.>.>.>.>.p.2.( ( ( ( ( ( H 2.1.^ ( 6.",
":.8.8.>.>.>.:.6.8.>.>.>.>.>.>.6.2.H ( ( 8.8.( 1.1.( ( ( 1.H 6.>.>.8.8.:.>.>.>.8.6.;.>.>.>.>.>.8.7.1.H ^ 2.8.2.H 2.H ( ^ ( 1.H :.",
">.>.:.6.8.:.2.( H ;.>.>.>.>.>.s.>.8.7.6.>.>.6.:.:.8.2.7.:.8.6.>.>.>.>.8.6.;.8.H ^ 7.>.>.>.>.>.r.s.8.6.2.8.>.8.8.>.8.7.2.8.>.7.8.",
">.:.2.( ( H ( ( ( 7.8.>.:.>.d.v.k.d.d.v.j.s.>.:.:.8.6.6.:.>.:.>.>.>.8.( ( H ( ( ( 1.6.8.>.>.s.c.v.d.d.k.c.d.>.>.:.:.8.6.8.>.>.>.",
"8.1.( ( ^ ^ ^ ( ( ^ ( 1.7.a.c.v.v.v.v.z.4.1.7.1.H H ^ ^ 1.7.1.1.6.6.( ( ^ ^ ( ( ( ( ^ H 2.8.j.v.v.v.v.v.f.Z.1.7.H H ( ^ ( 2.2.H ",
"Q Q ( 2.2.2.( L ^ ( 7.8.:.s.d.v.v.v.9.7.8.6.2.1.( ( ( ^ ^ ( ( ^ L Q L 2.2.2.2.T T ^ H 8.8.>.s.j.v.v.d.q.6.8.2.2.( ^ ( ( ( ^ ^ ( ",
"W W K T P <.I m.Q L 8.r.j.v.v.v.v.d.>.>.>.6.1.H ( ( ^ ^ ^ ^ Q L Q W W U T / / m.R Q 1.>.d.v.v.v.v.v.>.>.>.8.2.1.( ( ( ( ^ ^ L K ",
"L.! R L.L.S.z.v.J.m.5.j.s.s.d.v.v.s.s.>.>.>.8.2.1.( ^ ^ ^ Q ~ G.g.D.Q G.P.G.G.v.z.S.C.a.d.s.s.j.v.k.s.s.>.>.:.6.1.1.^ ^ ^ L Q S.",
"v.J.z.v.v.v.v.v.v.v.v.s.s.>.>.s.j.v.j.d.>.>.>.>.>.7.2.A.S.R z.v./.z.J.v.v.v.v.v.v.v.v.d.s.s.>.>.d.v.k.j.s.>.>.>.>.8.2.2.C.R J.v.",
"k.v.v.c.v.v.v.v.v.v.v.v.v.d.>.s.r.s.>.>.>.>.>.>.>.d.d.j.x.z.v.v.k.v.v.v.k.v.v.k.v.v.v.v.v.v.>.>.s.s.r.>.>.>.>.>.>.r.j.d.v.z.v.v.",
">.j.d.>.>.d.s.r.v.v.v.v.v.k.d.v.c.d.s.s.s.s.>.>.>.>.>.>.s.s.v.d.>.s.k.s.>.s.d.>.d.v.v.v.v.v.d.k.v.j.s.s.s.s.>.>.>.>.>.>.r.s.d.v.",
">.s.>.>.>.>.>.>.j.k.d.s.j.k.j.j.d.s.9.9.9.0.>.>.>.>.>.>.>.>.r.>.>.>.s.>.>.>.>.>.s.k.j.s.d.k.k.k.k.s.0.9.9.9.>.>.>.>.>.>.>.>.>.s.",
">.>.8.;.>.>.>.>.>.>.>.>.>.>.>.>.8.2.( ^ ^ 1.2.1.6.>.s.d.d.>.>.>.>.>.8.8.:.>.>.>.>.>.>.>.>.>.>.>.;.7.H ^ ^ ( 7.1.2.:.>.s.j.s.>.>.",
"7.2.1.1.8.>.>.8.8.>.>.>.>.>.:.6.( ( 1.1.( ( ( ^ 1.f.c.v.v.v.j.2.1.6.1.H 7.>.>.>.8.8.>.>.>.>.>.8.1.( H 1.H ( ( ^ ^ q.h.v.v.v.k.f.",
"1.7.;.2.2.>.8.1.( 7.8.2.8.8.2.1.1.8.>.>.7.( 6.6.1.1.4.a.z.q.q.7.2.1.8.8.1.8.>.7.( H 8.7.7.:.6.1.H 2.;.>.8.H 1.6.2.1.1.w.k.f.q.2.",
"8.8.7.1.7.>.2.( 1.H ( ^ 2.6.8.>.>.>.>.>.>.8.>.;.2.,.6.>.8.,.8.7.6.8.8.2.2.8.8.( ( 1.( ^ ( 7.8.>.>.>.>.>.>.8.;.>.8.2.,.8.:.,.8.6.",
"H ( ( ( ( 1.( 1.:.8.6.8.;.:.>.8./ P / 2.I 2.s.a.G.R K V.U R ^ ( ( H ( ( ( H H ( 8.:.8.6.8.>.>.>.2.I I 2./ / 9.d.h.S.Q I / U R ( ",
"( 2.2.2.7.H ( 7.8.8.;.>.:.8.2.S.F.J.R m.D.m.v.v./.x.m.W G.x.m.H.4.( 7.1.6.2.^ 1.8.8.8.>.>.8.6.V.S.G.K.! K.m.f.v.v.v.L.Q R z.L.S.",
"z.p.>.>.>.2.^ / Z.Z.2.q.5.S.L.z./.c.z.v.v.v./.h.A.h.x.G.z.d.x.v.v.f.s.:.>.;.( ^ ( Z.2.2.w.F.J.I.v.v.z.x.v.v./.v.q.4.v.J.L.j.j.v.",
"j.k.s.>.>.2.q.w.j.c.c.c.d.s.d.j.w.1.Z.w.h.H.4.Z.^ Z.4.w.9.:.s.d.d.c.d.>.>.8.4.w.f.c.c.c.d.p.s.d.a.4.1.A.h.w.4.A.( ( A.q.9.:.>.d.",
"2.2.8.>.>.:.>.>.>.>.>.>.>.>.>.>.:.:.8.6.1.H ( ^ ( ^ ^ ^ ( 2.6.8.2.2.2.:.>.>.>.>.>.>.>.>.>.>.>.>.>.:.8.7.2.H H ^ ( ( ^ ^ ( 1.2.8.",
"4.w.8.>.>.>.>.>.>.>.s.j.v.c.s.>.>.:.8.8.2.1.( H 6.1.( ( ^ ( H H Z.f.q.;.>.>.>.>.>.>.>.s.v.v.d.>.>.>.8.8.6.1.1.( 2.7.( ( ( ( H H ",
"v.v.j.>.>.>.>.>.>.s.k.v.d.d.v.k.r.8.6.6.7.7.7.8.>.8.H 1.7.8.d.s.d.v.v.s.>.>.>.>.>.r.d.v.j.d.v.v.d.>.8.6.6.7.7.6.:.>.2.( 2.6.p.d.",
"f.5.c.j.j.r.r.>.8.>.>.r.>.>.s.d.s.>.>.>.>.>.>.>.>.>.;.>.>.a.z.z.a.4.f.l.j.d.r.r.8.>.>.r.>.>.s.d.d.>.>.>.>.>.>.>.>.>.:.;.>.p.z.z.",
"( ( A.5.4.4.q.2.( 2.2.6.8.8.8.8.>.>.>.>.>.>.>.>.>.>.;.8.1.Z.Z i i u i  .4.4.4.4.( 1.2.2.8.;.8.8.:.>.>.>.>.>.>.>.>.>.:.;.7.( 1.7.",
"2.( ^ ( ( ^ ^ ^ ( ^ ^ ( H H 7.6.:.>.>.>.>.>.>.>.>.>.8.2.D : ; 7 5 5 5 6 : V F V V F w : F H 1.7.8.>.>.>.>.>.>.>.>.>.:.6.7.6.:.>.",
"s.1.2.;.8.2.7.2.1.7.7.8.;.;.>.>.>.>.>.>.8.<./ <.>.8./ P < 8 ).+X@X@X&X%XN.q ; 0 c & 3 _ & *.;.>.>.>.>.>.:.,./ / 8.>.1./ <.:.>.>.",
"v.w.2.>.>.:.>.>.0.s.d.d.>.>.:.8.8.:.8.,.U S.M.Q I U m.x 2 _.' 5 _ %X5X5X5X,X7 e 3Xc ) [.9 6 ;.8.8.;.:.8.( R K.R U ^ U K.S.V.9.k.",
"v./.p.>.>.s.d.v.v.v.v.k.9.:.^ U K / T Q R v.x.i.Y J h * { X.X = g t =X:X>X5X.X7 -X;X, R.).* k U U T ^ U Q J./.z.J.m.I./.v.g.h.v.",
"v.v.v.d.>.s.d.d.d.d.s.,.T I R I.D.Q F.I.S.L.[ < < 7 , y Q.'.* * ~.t.E.B.<X1X+X_.z %X7 +.{.n q K.L.U R I.G.K.v.v.v.x.v.v.v.v.v.v.",
"4.v.v.v.k.s.>.>.>.r.9./ G.L.L.v.v.z.v.v.u.f < L.U.$XQ.~.|.oX> % 3 t.OX].#X#XoX`.4 ) _ = v @.f i.v.z.x.v.v.v.v.h.f.z.v.j.>.r.c.c.",
"( a.d.d.0.>.>.s.j.v.x.z.v.v.d.>.d./.a.-.; % v.5X6X2X] Q.]. X' ] 2 @ e.}.+XOXoXQ.O.o . < O 1 f -.s.v.v.s.8.q.4.( ^ 1.r.>.>.6.2.Z.",
"( 2.;.>.>.>.s.k.d.>.j.v.j.s.>.>.s.j.0.p O ` *X4X1X&X&.$.b 8 8 ).).% n ^.[.}.Q.~.n + i i.[ : 2 -.>.d.d.6.( ( ( ( ( 2.6.8.6.( ( 1.",
"6.2.6.:.>.>.p.0.>.>.>.r.>.>.>.8.6.6.1.r 1 (.oXOXOXOXXXR.m +   > = % t.`.!.Y.!.T.m * j 0.:.-.-.;.6.7.2.( H 2.H ( ( ^ ^ ( ( ( H ;.",
">.>.>.:.:.>.8.H 2.:.>.>.>.>.>.8.8.2.H r 4 ^.}.+XOXOX[.@.M g > > > ` +XOXW.#.#.M B , j :.>.:.:.:.8.7.1.( 6.>.6.2.8.7.H ( 2.8.1.8.",
">.>.8.H 2.6.( ( ( 8.>.>.>.>.r.j.s.>.9.S , &.(.`.XXOXXX_.[.oX X X XoXOXoX(.#.N N N , j ;.:.>.>.d.j.>.>.9.s.>.>.:.>.>.8.8.:.>.8.9.",
">.8.( ( ( ( ( ( ( H 2.6.6.d.v.v.v.a...[ @ g !.!.(._.}.XXoXoXoXoXoXoX|.Q.T.M N N v + u A G 8.k.v.v.v.c./.c.q.8.;.6.6.1.H 2.8.8.6.",
"^ ^ ( ( ( ( ^ ^ ( ( H 2.8.p.d.v.v.y.S S i @ 1 o.^.~.~.~.Q.Q.Q.Q.Q.Q.!.Y.#.N m y + $ p k A *.p.k.v.v.v.h.2.2.H H ( ( ( ( ( ( ( ( ",
"E E P <.1.6.^ Q L ^ 8.>.s.k.k.v.v.3.C C C p ; * 3 n o.O.o.o.O.o.o.X.m m v - O O q s k C S 3.k.l.v.v.s.8.8.>.7.2.H ( ( ( ( ( ^ ^ ",
"m.Q Q m.m.T G.P.R Q 4.d.k.j.c.v.v.p.*.S C C Z p w w $ @ @ # # # % # # # & q r l x s d } u.j.j.v.v.k.>.>.>.:.8.1.( ( ( ( ( ^ Q Q ",
"v.m.G.v.v.g.v.v.z.P.z.d.>.>.>.j.v.j.d.p.*.*.} S S Z d p s a x l b l s l [ | | { %...i.a.r.>.>.s.c.v.d.d.>.>.>.:.8.6.( ( ^ K m.I.",
"v.z.v.v.v.v.v.v.v.v.v.d.k.s.>.>.s.j.d.s.>.>.:.;.;.9.3... . .y.y.y.%...y.u.x.x.x.v.v.v.k.j.j.>.>.>.d.d.s.s.>.>.>.>.>.f.f.h.G.z./.",
"s.v.v.d.d.v.d.d.v.v.v.v.v.j.>.j.d.>.>.>.>.>.>.>.>.d.>.s.j.k.v.k.s.d.v.j.s.k.k.s.k.v.v.v.v.v.s.d.j.s.>.>.>.>.>.>.>.r.s.>.d.k.v.v.",
">.d.s.>.>.>.>.>.v.v.v.k.v.v.c.v.v.d.d.d.d.s.>.>.>.>.>.>.>.>.j.s.>.>.d.>.>.>.>.>.d.v.v.k.v.v.k.v.v.j.d.d.d.d.>.>.>.>.>.>.>.>.s.j.",
">.>.>.>.>.>.>.>.s.s.r.>.s.s.s.s.r.8.2.1.1.6.8.8.;.>.>.r.s.>.>.>.>.>.>.>.>.>.>.>.>.s.s.>.>.s.s.s.s.9.6.1.1.2.8.8.8.>.>.>.s.>.>.>.",
"8.8.2.7.>.>.>.>.>.>.>.>.>.>.>.8.2.( ( ( ( ( ( ( 2.p.d.v.v.d.s.9.8.:.7.2.8.>.>.>.>.>.>.>.>.>.>.>.6.H ( ( ( ( H ( ( 9.s.k.v.k.s.0.",
"H 1.7.H 7.>.>.6.2.8.>.8.:.:.6.1.^ 2.6.6.1.( H H ( A.f.v.v.h.h.2.H 1.2.2.1.8.>.8.2.7.>.8.8.>.8.2.( ( 6.6.7.( ( 1.( Z.4.z.v.z.h.q.",
"8.8.;.6.6.>.6.( ^ H 1.( 2.6.6.8.8.;.>.>.8.2.;.;.8.6.8.0.p.8.8.8.6.8.:.8.7.8.:.1.( ( 1.H H 6.6.6.6.8.>.>.>.2.6.:.8.8.8.8.s.9.8.8.",
"7.2.H ( 1.8.H H 6.2.H 1.6.6.:.>.8.,.8.8.6.;.>.9.V.I / 8.V./ 2.H 1.7.1.( ( 7.7.( 2.6.1.H 2.6.8.>.8.6.6.:.8.8.>.0.4./ I 2.,.I 1.1.",
"^ ( ( ( H ( ( 6.>.>.>.>.>.>.;.1.R R K T U I j.v.z.G.Q K R G.U ( ( ( H ( H ( ( H :.>.>.>.>.>.>.6.I R U T R K w.v.x.P.m.Q K K.S.T ",
"4.8.8.8.:.2.( 1.2.2.7.8.8.V.S.G.z.x.L.L.z.L.v.v.z.v.L.R g.c.L.z.h.2.8.8.;.8.( H 2.2.2.8.9.2.V.C.P.x.z.J.z.L.z.v.c.c.z.R K.v.z.L.",
"v.k.r.>.>.2.Z.Z.w.f.f.f.f.J.c.v.z.5.w.c.v.c.z.4.( 4.z.f.d.>.k.l.v.v.d.>.>.8.1.Z.H.f.f.f.h.J.a.v.v.f.4.h.v.c.z.h.Z.( h.h.h.r.s.l.",
"9.p.9.>.>.8.p.s.d.s.d.s.>.>.>.s.8.6.1.2.A.( ( ( ( ( ( 1.2.8.:.>.8.p.0.>.>.8.9.p.s.d.s.s.s.>.>.r.p.8.2.1.2.Z.( ( ( ( ( ( 2.6.8.>.",
"Z.Z.6.>.>.>.>.>.>.>.>.s.j.d.>.>.>.>.:.:.7.2.( ( H ( ( ^ ( ( 1.2.( Z.1.;.>.>.>.>.>.>.>.>.d.d.r.>.>.>.>.:.8.2.1.( ( ( ( ( ( ( H 2.",
"a.z.p.>.>.>.>.>.>.d.j.v.v.v.j.d.>.8.6.6.2.1.H 7.:.7.^ ( H 2.7.6.w.v.a.0.>.>.>.>.>.s.d.k.v.v.c.d.s.>.6.6.7.1.1.1.8.8.H ^ ( 1.7.7."
};
