/* XPM */
static char *ef1492d704d941d3a116f128ca3f15720V39dENUWdisyjjW[] = {
/* columns rows colors chars-per-pixel */
"64 64 203 2 ",
"   c #161B2D",
".  c #1E2531",
"X  c #262D34",
"o  c #2B2B32",
"O  c #2B3432",
"+  c #293336",
"@  c #2D3D3C",
"#  c #343335",
"$  c #333B33",
"%  c #393937",
"&  c #393D38",
"*  c #453B39",
"=  c #394337",
"-  c #34453C",
";  c #464739",
":  c #564A3D",
">  c #42563E",
",  c #4B5A3B",
"<  c #575939",
"1  c #665A3D",
"2  c #4D603E",
"3  c #58673C",
"4  c #676C39",
"5  c #717739",
"6  c #373D41",
"7  c #384E46",
"8  c #564F4B",
"9  c #445D46",
"0  c #485847",
"q  c #654F44",
"w  c #6D5446",
"e  c #785D47",
"r  c #765948",
"t  c #516847",
"y  c #55764F",
"u  c #4C6651",
"i  c #567257",
"p  c #5A7C52",
"a  c #7A6742",
"s  c #657B43",
"d  c #64794B",
"f  c #777C4B",
"g  c #667554",
"h  c #617759",
"j  c #585A66",
"k  c #597760",
"l  c #8A664E",
"z  c #897747",
"x  c #927748",
"c  c #9D7A4F",
"v  c #986D53",
"b  c #9D7452",
"n  c #A67755",
"m  c #AC7A57",
"M  c #B07F57",
"N  c #7A8138",
"B  c #5F8152",
"V  c #688349",
"C  c #738945",
"Z  c #7A9449",
"A  c #628352",
"S  c #668B57",
"D  c #6A9259",
"F  c #7C9D52",
"G  c #729E5E",
"H  c #7CA258",
"J  c #7BA35C",
"K  c #7EAA5E",
"L  c #5C8062",
"P  c #6D966F",
"I  c #6E9A6D",
"U  c #779F67",
"Y  c #799F66",
"T  c #72976F",
"R  c #749A6C",
"E  c #7A9A6D",
"W  c #648F76",
"Q  c #679174",
"!  c #6B9372",
"~  c #739670",
"^  c #779870",
"/  c #76A663",
"(  c #79A662",
")  c #7BA861",
"_  c #868A39",
"`  c #898F3C",
"'  c #97993F",
"]  c #9EA23D",
"[  c #A6AC3D",
"{  c #B5B93F",
"}  c #888C4D",
"|  c #928742",
" . c #85964D",
".. c #92904E",
"X. c #8B9359",
"o. c #999B52",
"O. c #A8884D",
"+. c #AD914B",
"@. c #B48357",
"#. c #B18C51",
"$. c #A29F54",
"%. c #BE9653",
"&. c #85A24C",
"*. c #8AA74C",
"=. c #92AE4D",
"-. c #97B64F",
";. c #99B74E",
":. c #9BB84D",
">. c #80A557",
",. c #8CAE56",
"<. c #83A75E",
"1. c #84AD5B",
"2. c #8AAE5A",
"3. c #96AB57",
"4. c #93AE5E",
"5. c #9AAF5E",
"6. c #8DB155",
"7. c #8BB058",
"8. c #93B452",
"9. c #9BB653",
"0. c #9EB850",
"q. c #95B05B",
"w. c #9CB15C",
"e. c #BCA44B",
"r. c #A1B84F",
"t. c #B0B043",
"y. c #A4A053",
"u. c #A6A956",
"i. c #A3B653",
"p. c #ABB756",
"a. c #A4B851",
"s. c #ABB953",
"d. c #A3B25C",
"f. c #ADB15F",
"g. c #ABB45C",
"h. c #B3B257",
"j. c #B3B956",
"k. c #B5B957",
"l. c #BABA57",
"z. c #B3B55C",
"x. c #BAB75B",
"c. c #B6B958",
"v. c #BCB95A",
"b. c #BEB95A",
"n. c #829D6C",
"m. c #889F6A",
"M. c #BE9478",
"N. c #82A462",
"B. c #8AA466",
"V. c #83AA61",
"C. c #8CAC60",
"Z. c #85A069",
"A. c #8BA269",
"S. c #94A666",
"D. c #98A766",
"F. c #92AC61",
"G. c #9CA964",
"H. c #91A468",
"J. c #A4AD62",
"K. c #A9AF61",
"L. c #ABB060",
"P. c #C49C53",
"I. c #C49855",
"U. c #C1A84D",
"Y. c #CCB44E",
"T. c #D7BF4E",
"R. c #C1A250",
"E. c #CCA453",
"W. c #CDAB51",
"Q. c #D1AC52",
"!. c #C1BA5A",
"~. c #D5B551",
"^. c #CFB96D",
"/. c #BFC36F",
"(. c #C8C843",
"). c #D5C44B",
"_. c #DBCA4B",
"`. c #CBD240",
"'. c #DAD446",
"]. c #DDD349",
"[. c #E2DD46",
"{. c #E3E445",
"}. c #E6EB44",
"|. c #E8EF44",
" X c #E4E849",
".X c #E9F043",
"XX c #EBF24B",
"oX c #E4E35E",
"OX c #DBCD64",
"+X c #797C83",
"@X c #94969D",
"#X c #B8AF9D",
"$X c #A6A9AD",
"%X c #EEF289",
"&X c #F6F885",
"*X c #F1F49B",
"=X c #DBC7B8",
"-X c #F2F3B8",
";X c #F5F6C5",
":X c #EEE5DF",
">X c #F9FAD4",
",X c #EAE6E4",
"<X c #FAFBE8",
/* pixels */
"C.) d.c.z.i.i.q.7.8.8.;.:.:.:.:.:.:.:.:.:.:.:.:.:.:.:.:.8.5.w.w.4.) 4.z.z.g.i.i.7.6.8.8.:.:.:.:.:.:.:.:.:.:.:.:.:.:.:.:.8.4.q.w.",
") / ) ) ) ) ) ) ) ) ) K 2.2.7.7.-.:.:.:.:.:.:.:.:.:.6.2.K 2.8.6.) ) ) ) ) ) ) ) ) ) ) ) 1.2.2.7.8.:.:.:.:.:.:.:.:.:.8.7.1.K 6.8.",
"9.1.K 2.2.) ) ) ) K K 2.7.7.8.-.:.:.:.:.:.8.8.8.:.;.8.8.8.:.:.:.0.6.) 1.7.1.) ) ) ) ) 1.7.7.6.-.:.:.:.:.:.;.8.8.;.:.8.8.8.;.:.:.",
"j.2.2.:.:.8.8.8.6.9.9.:.:.:.:.:.:.:.:.;.1.E T T ,.N.T T ( -.:.k.v.i.1.8.:.;.8.8.7.8.9.0.:.:.:.:.:.:.:.:.8./ T P ( 6.R T R 2.:.s.",
"v.c.q.:.:.:.:.s.s.j.v.c.:.:.,.) N.8.1.U T f.L.Z.~ T K.z.G.4.p.v.v.v.d.8.:.:.:.a.s.s.v.v.s.:.;.<.( 2.6.N.T A.z.G.E ! A.z.f.S.9.v.",
"v.v.k.a.:.s.v.v.v.v.k.i.1.2.T n.~ ! T n.E z.v.v.f.f.v.v.!.x.v.v.v.v.v.s.:.:.k.v.v.v.v.j.4.1.( E n.! ! n.T D.v.v.x.J.v.v.v.v.v.v.",
"g.v.v.k.s.r.:.:.:.r.9.K E Z.Z.v.g.S.f.!.K.z.v.v.v.!.v.j.s.k.!.v.d.v.v.v.s.a.:.:.:.:.r.8.T Z.T L.v.D.G.v.z.J.v.v.v.!.!.v.s.s.v.!.",
"V.c.v.v.s.a.:.:.a.j.g.S.z.x.z.s.v.v.v.s.p.v.w.V.C.p.j.:.:.0.d.C.) d.v.v.k.s.:.:.:.s.c.G.G.v.z.s.j.v.v.j.p.c.z.C.V.q.j.a.:.;.i.q.",
") 8.:.:.:.:.:.j.k.j.v.!.v.j.:.:.a.v.a.7.K V.) ) ) 6.;.:.6.K / ) ) 2.0.r.:.:.:.a.k.j.k.!.!.c.s.:.:.k.k.-.K V.) / ) 1.-.:.8.1.) / ",
"K K 6.;.:.:.a.s.:.:.a.s.a.:.:.:.:.a.8.K ) ) ) ) ) K 1.2.) ) 1.8.2.) 2.8.:.:.a.s.s.:.:.s.s.:.:.:.:.:.i.2.) ) ) ) ) ) K 2.1./ ) 6.",
";.8.8.:.:.:.;.6.8.:.:.:.:.:.:.6.2.K ) ) 8.8.) 1.1.) ) ) 1.K 6.:.:.8.8.;.:.:.:.8.6.-.:.:.:.:.:.8.7.1.K / 2.8.2.K 2.K ) / ) 1.K ;.",
":.:.;.6.8.;.2.) K -.:.:.:.:.:.a.:.8.7.6.:.:.6.;.;.8.2.7.;.8.6.:.:.:.:.8.6.-.8.K / 7.:.:.:.:.:.r.a.8.6.2.8.:.8.8.:.8.7.2.8.:.7.8.",
":.;.2.) ) K ) ) ) 7.8.:.;.:.s.v.k.s.s.v.j.a.:.;.;.8.6.6.;.:.;.:.:.:.8.) ) K ) ) ) 1.6.8.:.:.a.c.v.s.s.k.c.s.:.:.;.;.8.6.8.:.:.:.",
"8.1.) ) / / / ) ) / ) 1.7.p.c.v.v.v.v.z.4.1.7.1.K K / / 1.7.1.1.6.6.) ) / / ) ) ) ) / K 2.8.j.v.v.v.v.v.d.V.1.7.K K ) / ) 2.2.K ",
"! ! ) 2.2.2.) I / ) 7.8.;.a.s.v.v.v.9.7.8.6.2.1.) ) ) / / ) ) / I ! I 2.2.2.2.U U / K 8.8.:.a.j.v.v.s.q.6.8.2.2.) / ) ) ) / / ) ",
"Q Q P R U <.Y n.! I 8.r.j.v.v.v.v.s.:.:.:.6.1.K ) ) / / / / ! I ! Q Q T R ( ( n.E ! 1.:.s.v.v.v.v.v.:.:.:.8.2.1.) ) ) ) / / I P ",
"J.~ E J.J.Z.z.v.G.n.5.j.a.a.s.v.v.a.a.:.:.:.8.2.1.) / / / ! ^ D.f.A.! D.K.D.D.v.z.Z.B.p.s.a.a.j.v.k.a.a.:.:.;.6.1.1./ / / I ! Z.",
"v.G.z.v.v.v.v.v.v.v.v.a.a.:.:.a.j.v.j.s.:.:.:.:.:.7.2.C.Z.E z.v.!.z.G.v.v.v.v.v.v.v.v.s.a.a.:.:.s.v.k.j.a.:.:.:.:.8.2.2.B.E G.v.",
"k.v.v.c.v.v.v.v.v.v.v.v.v.s.:.a.r.a.:.:.:.:.:.:.:.s.s.j.x.z.v.v.k.v.v.v.k.v.v.k.v.v.v.v.v.v.:.:.a.a.r.:.:.:.:.:.:.r.j.s.v.z.v.v.",
":.j.s.:.:.s.a.r.v.v.v.v.v.k.s.v.c.s.a.a.a.a.:.:.:.:.:.:.a.a.v.s.:.a.k.a.:.a.s.:.s.v.v.v.v.v.s.k.v.j.a.a.a.a.:.:.:.:.:.:.r.a.s.v.",
":.a.:.:.:.:.:.:.k.k.s.a.j.k.j.j.s.a.9.9.9.0.:.:.:.:.:.:.:.:.r.:.:.:.a.:.:.:.:.:.a.k.j.a.s.k.k.k.k.a.0.9.9.9.:.:.:.:.:.:.:.:.:.a.",
":.:.8.-.:.:.:.:.:.:.:.:.:.:.:.:.8.2.) / / 1.2.1.6.:.a.s.s.:.:.:.:.:.8.8.;.:.:.:.:.:.:.:.:.:.:.:.-.7.K / / ) 7.1.2.;.:.a.j.a.:.:.",
"7.2.1.1.8.:.:.8.8.:.:.:.:.:.;.6.) ) 1.1.) ) ) / 1.d.c.v.v.v.j.2.1.6.1.K 2.:.;.:.8.8.:.:.:.:.:.8.1.) K 1.K ) ) / / q.g.v.v.v.k.d.",
"1.7.-.2.2.:.8.1.) 7.8.2.8.8.2.1.1.8.:.:.7.) 6.6.1.1.4.p.z.q.q.2.H t 2 s J ,.;.2.) K 8.7.7.;.6.1.K 2.-.:.8.K 1.6.2.1.1.w.k.d.q.2.",
"8.8.7.1.7.:.2.) 1.K ) / 2.6.8.:.:.:.:.:.:.8.:.-.2.,.6.:.8.,.8.2.F $ 3 = $ , s D ) K ) / ) 7.8.:.:.:.:.:.:.8.-.:.8.2.,.8.;.,.8.6.",
"K ) ) ) ) 1.) 1.;.8.6.8.-.;.:.8.( U ( 2.Y 2.a.p.D.E P N.T E / ) G - N (.(.e.a > &.;.8.6.8.:.:.:.2.Y Y 2.( ( 9.s.g.Z.! Y ( T E ) ",
") 2.2.2.7.K ) 7.8.8.-.:.;.8.2.Z.S.G.E n.A.n.v.v.!.x.n.Q D.x.n.F.4.B $ | Y.Q.O.# Z 8.8.:.:.8.6.N.Z.D.H.~ H.n.d.v.v.v.J.! E z.J.Z.",
"z.i.:.:.:.2./ ( V.V.2.q.5.Z.J.z.!.c.z.v.v.v.!.g.C.g.x.D.z.s.x.v.x. .8 j : a % 9 J V.2.2.w.S.G.L.v.v.z.x.v.v.!.v.q.4.v.G.J.j.j.x.",
"j.k.a.:.:.2.q.w.j.c.c.c.s.a.s.j.w.1.V.w.g.F.4.V./ ) 4.w.9.;.i.a.i.4 +X,X$Xf O d d.c.c.c.s.a.a.s.p.4.1.C.g.w.4.C.) ) C.q.9.;.:.s.",
"2.2.8.:.:.;.:.:.:.:.:.:.:.:.:.:.;.;.8.6.1.K ) / ) / / / ) >.Z , = O 6 @X$Xo.$ 3 -.;.:.:.:.:.:.:.:.;.8.7.2.K K / ) ) / / ) 1.2.8.",
"4.w.8.:.:.:.:.:.:.:.a.j.v.c.a.:.:.;.8.8.2.1.) K 6.1.) ) / 9 + 4 z./.t.5 <   O &.;.:.:.a.v.v.s.:.:.:.8.8.6.1.1.) 2.7.) ) ) ) K K ",
"v.v.j.:.:.:.:.:.:.a.k.v.s.s.v.k.r.8.6.6.7.7.7.8.:.8.K K F $ `  X>X<X>X;XOX: $ *.;.r.s.v.j.s.v.v.s.:.8.6.6.7.7.6.;.:.2.) 2.6.i.s.",
"d.5.c.j.j.r.r.:.8.:.:.r.:.:.a.s.a.:.:.:.:.:.:.:.:.;.-.-.C < {.XX<X:X:X;X XR.; 3 =.-.:.r.:.:.a.s.s.:.:.:.:.:.:.:.:.:.;.-.:.i.z.z.",
") ) C.5.4.4.q.2.) 2.2.6.8.8.8.8.:.:.:.:.:.:.:.:.;.=.V , X ] `.' #XM.=X*X|.T.x 0 J 1.2.2.8.-.8.8.;.:.:.:.:.:.:.:.:.:.;.-.7.) 1.7.",
"2.) / ) ) / / / ) / / ) K K 7.6.;.:.:.:.:.:.:.:.=.2 O < a +.$ # % v ^.XX.X].x 7 G / / ) K K 2.7.8.:.:.:.:.:.:.:.:.:.;.6.7.6.;.:.",
"a.1.2.-.8.2.7.2.1.7.7.8.-.-.:.:.:.:.:.:.8.<.( <.C X ` {.~.1   x | O.R.}..X_.x > J 2.7.6.-.8.;.:.:.:.:.:.;.,.( ( 8.:.1.( <.;.:.:.",
"v.w.2.:.:.;.:.:.0.a.s.s.:.:.;.8.8.;.8.,.R Z.m.k $ } -X%X[.a   1 '.{.'.}.{.Q.x , =.:.s.s.a.:.:.8.8.-.;.8.) E H.E T / T H.Z.N.9.k.",
"v.!.i.:.:.a.s.v.v.v.v.k.9.;./ T P ( R ! E v.h.; 5 &X<X*X'.' $   ; { {.}._.E.z < h.v.v.v.a.-.,.T T R / T ! G.!.z.G.n.L.!.v.f.g.v.",
"v.v.v.s.:.a.s.s.s.s.a.,.R Y E L.A.! S.L.Z.K.o.o ] &X*XoX#.t._ _ ; < E.W.P.@.e < u.s.s.a.( U P D.J.T E L.D.H.v.v.v.x.v.v.v.v.v.v.",
"4.v.v.v.k.a.:.:.:.r.9.( D.J.J.v.v.z.v.v.v.x.o.& U.}.|.|.U.* & ] = 1 W.@.m m w 3 -.;.a.2.n.L.S.z.v.z.x.v.v.v.v.g.d.z.v.j.:.r.c.c.",
") p.s.s.0.:.:.a.j.v.x.z.v.v.s.:.s.!.s.9.q.q.D & e.}.|.|.[.c q # X [ {.E.M r X Z s.k.v.z.x.!.k.a.a.v.v.a.8.q.4.) / 1.r.:.:.6.2.V.",
") 2.-.:.:.:.a.k.s.:.j.v.j.a.:.:.a.j.0.1.) / S & %.]..X.XY.R.'.).{ {.|.W.m l # } j.r.a.v.k.s.:.:.:.s.s.6.) ) ) ) ) 2.6.8.6.) ) 1.",
"6.2.6.;.:.:.i.0.:.:.:.r.:.:.:.8.6.6.1.) 1.1.D = +.~.}.|.).'..X|..X|.}.W.@.m q 3 -.;.:.:.:.:.:.8.6.7.2.) K 2.K ) ) / / ) ) ) K -.",
":.:.:.;.;.:.8.K 2.;.:.:.:.:.:.8.8.2.) 1.;.;.1.> 1 Q._.{..X.X.X.X.X.X].P.m m w > J 8.:.:.:.:.:.;.8.7.1.) 6.:.6.2.8.7.K ) 2.8.1.8.",
":.:.8.K 2.6.) ) ) 8.:.:.:.:.r.j.a.:.9.i.a.:.-.s # #.E.~.).[.{.{.[.).W.%.m v # y / 2.:.:.:.:.:.s.j.:.:.9.a.:.:.;.:.:.8.8.;.:.8.9.",
":.8.) ) ) ) ) ) ) K 2.6.6.s.v.v.v.c.v.!.d.q.&.V - ; P.E.E.E.E.E.E.E.I.m b * X p G ) 1.7.6.9.k.v.v.v.c.!.c.q.8.-.6.6.1.K 2.8.8.6.",
"/ / ) ) ) ) / / ) ) K 2.8.i.s.v.v.v.j.w.2.J A p y - : c I.I.E.E.I.@.n r # . 9 p S ) ) 1.7.9.a.k.v.v.v.g.2.2.K K ) ) ) ) ) ) ) ) ",
"W W U <.1.6./ ! I / 8.:.a.k.k.v.v.k.;.8.:.,.V A p y - + : l c b v e % . @ t d i L U 1.:.r.s.k.v.v.v.a.8.8.:.7.2.K ) ) ) ) ) / / ",
"n.! ! n.n.R D.K.E ! 4.s.k.k.c.v.v.a.:.:.:.8.H B p p p t @ + + + # @ 7 0 h i h X.S.! Y a.k.j.j.v.v.k.:.:.:.;.8.1.) ) ) ) ) / ! ! ",
"v.n.D.v.v.f.v.v.z.K.z.s.:.:.:.j.v.j.j.a.:.:.;.*. .A A p i u g f z f h } ..o.u.x.v.f.L.p.r.:.:.a.c.v.s.s.:.:.:.;.8.6.) ) / P n.L.",
"v.z.v.v.v.v.v.v.v.v.v.s.k.a.:.:.a.j.s.a.:.:.:.:.;.9.d.3.X.X.y.y.$.$.u.x.x.v.v.v.v.v.!.k.k.j.:.:.:.s.s.a.a.:.:.:.:.:.d.d.g.D.z.!.",
"a.v.v.s.s.v.s.s.v.v.v.v.v.j.:.j.s.:.:.:.:.:.:.:.:.s.:.a.j.k.v.k.a.s.v.j.a.k.c.a.k.v.v.v.v.v.a.s.j.a.:.:.:.:.:.:.:.r.a.:.s.k.v.v.",
":.s.a.:.:.:.:.:.v.v.v.k.v.v.c.v.v.s.s.s.s.a.:.:.:.:.:.:.:.:.j.a.:.:.s.:.:.:.:.;.s.v.v.k.v.v.k.v.v.j.s.s.s.s.:.:.:.:.:.:.:.:.a.j.",
":.:.:.:.:.:.:.:.a.a.r.:.a.a.a.a.r.8.2.1.1.6.8.8.-.:.:.r.a.:.:.:.:.:.:.:.:.:.:.:.:.a.a.:.:.a.a.a.a.9.6.1.1.2.8.8.8.:.:.:.a.:.:.:.",
"8.8.2.7.:.:.:.:.:.:.:.:.:.:.:.8.2.) ) ) ) ) ) ) 2.i.s.v.v.s.a.9.8.;.7.2.8.:.:.:.:.:.:.:.:.:.:.:.6.K ) ) ) ) K ) ) 9.a.k.v.k.a.0.",
"K 1.7.K 7.:.:.6.2.8.:.8.;.;.6.1./ 2.6.6.1.) K K ) C.d.v.v.g.g.2.K 1.2.2.1.8.:.8.2.7.:.8.8.:.8.2.) ) 6.6.7.) ) 1.) V.4.z.v.z.g.q.",
"8.8.-.6.6.:.6.) / K 1.) 2.6.6.8.8.-.:.:.8.2.-.-.8.6.8.0.i.8.8.8.6.8.;.8.7.8.;.1.) ) 1.K K 6.6.6.6.8.:.:.:.2.6.;.8.8.8.8.a.9.8.8.",
"7.2.K ) 1.8.K K 6.2.K 1.6.6.;.:.8.,.8.8.6.-.:.9.N.Y ( 8.N.( 2.K 1.7.1.) ) 7.7.) 2.6.1.K 2.6.8.:.8.6.6.;.8.8.:.0.4.( Y 2.,.Y 1.1.",
"/ ) ) ) K ) ) 6.:.:.:.:.:.:.-.1.E E P R T Y j.v.z.D.! P E D.T ) ) ) K ) K ) ) K ;.:.:.:.:.:.:.6.Y E T R E P w.v.x.K.n.! P H.Z.U ",
"4.8.8.8.;.2.) 1.2.2.7.8.8.N.Z.D.z.x.J.J.z.J.v.v.z.v.J.E f.c.J.z.g.2.8.8.-.8.) K 2.2.2.8.9.2.N.B.K.x.z.G.z.J.z.v.c.c.z.E H.v.z.J.",
"v.k.r.:.:.2.V.V.w.d.d.d.d.G.c.v.z.5.w.c.v.c.z.4.) 4.z.g.s.:.j.l.v.v.s.:.:.8.1.V.F.d.d.d.g.G.p.v.v.d.4.g.v.c.z.g.V.) g.g.g.r.a.l.",
"9.i.9.:.:.8.i.a.s.a.s.a.:.:.:.a.8.6.1.2.C.) ) ) ) ) ) 1.2.8.;.:.8.i.0.:.:.8.9.i.a.s.s.a.a.:.:.r.i.8.2.1.2.V.) ) ) ) ) ) 2.6.8.:.",
"V.V.6.:.:.:.:.:.:.:.:.a.j.s.:.:.:.:.;.;.7.2.) ) K ) ) / ) ) 1.2.) V.1.-.:.:.:.:.:.:.:.:.s.s.r.:.:.:.:.;.8.2.1.) ) ) ) ) ) ) K 2.",
"p.z.i.:.:.:.:.:.:.s.j.v.v.v.j.s.:.8.6.6.2.1.K 7.;.2./ ) K 2.7.6.w.v.p.0.:.:.:.:.:.a.s.k.v.v.c.s.a.:.6.6.7.1.1.1.8.8.K / ) 1.7.7."
};
