/* XPM */
static char *_4546a68fad74adcdb241facf53a152182W54wqP38fqbdxO[] = {
/* columns rows colors chars-per-pixel */
"64 64 216 2 ",
"   c #171D2E",
".  c #24282E",
"X  c #232A32",
"o  c #272936",
"O  c #2E2E32",
"+  c #322E35",
"@  c #2C3334",
"#  c #2A3636",
"$  c #2A3239",
"%  c #2D3C3B",
"&  c #333333",
"*  c #3B3537",
"=  c #343C34",
"-  c #443B37",
";  c #2D403B",
":  c #39483A",
">  c #454B33",
",  c #454839",
"<  c #54463D",
"1  c #564B3D",
"2  c #4B583B",
"3  c #525634",
"4  c #5A5D36",
"5  c #5C5A3D",
"6  c #685B3F",
"7  c #53643D",
"8  c #5C643C",
"9  c #676A3A",
"0  c #796D3E",
"q  c #6A7136",
"w  c #777C38",
"e  c #303742",
"r  c #364C45",
"t  c #394C44",
"y  c #584741",
"u  c #445741",
"i  c #455D44",
"p  c #505355",
"a  c #624F41",
"s  c #6C5842",
"d  c #785A49",
"f  c #4C674B",
"g  c #556C48",
"h  c #5A7447",
"j  c #4D6759",
"k  c #556D54",
"l  c #5B7C52",
"z  c #5A745A",
"x  c #626442",
"c  c #786742",
"v  c #6C7448",
"b  c #7A7E4D",
"n  c #657654",
"m  c #756764",
"M  c #896C49",
"N  c #916B4E",
"B  c #96794A",
"V  c #956C51",
"C  c #9F6F54",
"Z  c #9E7154",
"A  c #A27E4F",
"S  c #A57556",
"D  c #AD7C57",
"F  c #AD7B59",
"G  c #B07E57",
"H  c #5E8254",
"J  c #64814B",
"K  c #708F4E",
"L  c #7C9446",
"P  c #7A974B",
"I  c #658853",
"U  c #799B58",
"Y  c #7BA157",
"T  c #7BA25C",
"R  c #7EAA5E",
"E  c #7A8F63",
"W  c #6E9A67",
"Q  c #6D966F",
"!  c #6E9A6D",
"~  c #779F67",
"^  c #799F66",
"/  c #72976F",
"(  c #749A6C",
")  c #7A9A6D",
"_  c #648F76",
"`  c #679174",
"'  c #6B9372",
"]  c #739670",
"[  c #779870",
"{  c #76A663",
"}  c #79A662",
"|  c #7BA861",
" . c #868A3B",
".. c #9CA13D",
"X. c #ABAD3F",
"o. c #B2B93E",
"O. c #C4CA3F",
"+. c #CDD33F",
"@. c #E6EA3E",
"#. c #E8F13D",
"$. c #898545",
"%. c #94884A",
"&. c #809D4C",
"*. c #9A9F4F",
"=. c #868A52",
"-. c #8C955B",
";. c #969754",
":. c #A5874B",
">. c #AC8A4E",
",. c #AA9B45",
"<. c #B69C4C",
"1. c #B88757",
"2. c #B38A54",
"3. c #BB9651",
"4. c #8AA74C",
"5. c #93AA4C",
"6. c #97B64F",
"7. c #99B74E",
"8. c #9BB84D",
"9. c #8CA456",
"0. c #8CAE56",
"q. c #83A75E",
"w. c #84AD5B",
"e. c #8AAE5A",
"r. c #95AA57",
"t. c #93AE5E",
"y. c #9AAF5E",
"u. c #8DB155",
"i. c #8BB058",
"p. c #93B452",
"a. c #9BB653",
"s. c #9EB850",
"d. c #95B05B",
"f. c #9CB15C",
"g. c #ACAA41",
"h. c #A0B74F",
"j. c #A1B84F",
"k. c #B4B24D",
"l. c #A3A254",
"z. c #A2B753",
"x. c #ACB756",
"c. c #A4B851",
"v. c #ABB953",
"b. c #A3B25C",
"n. c #ADB15F",
"m. c #ABB45C",
"M. c #B3B956",
"N. c #B5B957",
"B. c #B8B857",
"V. c #B3B55C",
"C. c #BAB65B",
"Z. c #B6B958",
"A. c #BCB95A",
"S. c #BDB95A",
"D. c #BEB95A",
"F. c #8B9A60",
"G. c #829D6C",
"H. c #82A462",
"J. c #8AA466",
"K. c #83AA61",
"L. c #8CAC60",
"P. c #85A069",
"I. c #8BA169",
"U. c #94A666",
"Y. c #98A766",
"T. c #92AC61",
"R. c #9CA964",
"E. c #91A468",
"W. c #A4AD62",
"Q. c #A9AF61",
"!. c #ABB060",
"~. c #C39556",
"^. c #C49C53",
"/. c #C4A64F",
"(. c #D5B94E",
"). c #C2A650",
"_. c #CDA453",
"`. c #CBAE52",
"'. c #CEB150",
"]. c #C1BA5A",
"[. c #D3B450",
"{. c #C5C544",
"}. c #D6C34C",
"|. c #D9C44D",
" X c #D7C94A",
".X c #DBD845",
"XX c #DCD449",
"oX c #DEDA56",
"OX c #E2DE47",
"+X c #E3DB49",
"@X c #DDE440",
"#X c #E5E446",
"$X c #E6EB44",
"%X c #E8EE43",
"&X c #EAF243",
"*X c #E0E45F",
"=X c #D7DC62",
"-X c #EAEF63",
";X c #EBF061",
":X c #ECF070",
">X c #787B85",
",X c #949892",
"<X c #B5B7BB",
"1X c #D1B59E",
"2X c #D9DB9E",
"3X c #ECED83",
"4X c #EFF480",
"5X c #F3F799",
"6X c #E4D8AA",
"7X c #F1F3A7",
"8X c #D6D8D8",
"9X c #E4D3CB",
"0X c #F5F8C7",
"qX c #F2F0D5",
"wX c #FBFCE5",
"eX c #FDFDFC",
/* pixels */
"L.| b.Z.V.z.z.d.i.p.p.7.8.8.8.8.8.8.8.8.8.8.8.8.8.8.8.8.p.y.f.f.t.| t.V.V.m.z.z.i.u.p.p.8.8.8.8.8.8.8.8.8.8.8.8.8.8.8.8.p.t.d.f.",
"| { | | | | | | | | | R e.e.i.i.6.8.8.8.8.8.8.8.8.8.u.e.R e.p.u.| | | | | | | | | | | | w.e.e.i.p.8.8.8.8.8.8.8.8.8.p.i.w.R u.p.",
"a.w.R e.e.| | | | R R e.i.i.p.6.8.8.8.8.8.p.p.p.8.7.p.p.p.8.8.8.s.u.| w.i.w.| | | | | w.i.i.u.6.8.8.8.8.8.7.p.p.7.8.p.p.p.7.8.8.",
"M.e.e.8.8.p.p.p.u.a.a.8.8.8.8.8.8.8.8.7.w.) / / 0.H./ / } 6.8.N.A.z.w.p.8.7.p.p.i.p.a.s.8.8.8.8.8.8.8.8.p.{ / Q } u.( / ( e.8.v.",
"A.Z.d.8.8.8.8.v.v.M.A.Z.8.8.0.| H.p.w.~ / n.!.P.] / Q.V.R.t.x.A.A.A.b.p.8.8.8.c.v.v.A.A.v.8.7.q.} e.u.H./ I.V.R.) ' I.V.n.U.a.A.",
"A.A.N.c.8.v.A.A.A.A.N.z.w.e./ G.] ' / G.) V.A.A.n.n.A.A.].C.A.A.A.A.A.v.8.8.N.A.A.A.A.M.t.w.} ) G.' ' G./ Y.A.A.C.W.A.A.A.A.A.A.",
"m.A.A.N.v.j.8.8.8.j.a.R ) P.P.A.m.U.n.].Q.V.A.A.A.].A.M.v.N.].A.b.A.A.A.v.c.8.8.8.8.j.p./ P./ !.A.Y.R.A.V.W.A.A.A.].].A.v.v.A.].",
"K.Z.A.A.v.c.8.8.c.M.m.U.V.C.V.v.A.A.A.v.x.A.f.K.L.x.M.8.8.s.b.L.| b.A.A.N.v.8.8.8.v.Z.R.R.A.V.v.M.A.A.M.x.Z.V.L.K.d.M.c.8.7.z.d.",
"| p.8.8.8.8.8.M.N.M.A.].A.M.8.8.c.A.c.i.R K.| | | u.7.8.u.R { | | e.s.j.8.8.8.c.N.M.N.].].Z.v.8.8.N.N.6.R K.| { | w.6.8.p.w.| { ",
"R R u.7.8.8.c.v.8.8.c.v.c.8.8.8.8.c.p.R | | | | | R w.e.| | w.p.e.| e.p.8.8.c.v.v.8.8.v.v.8.8.8.8.8.z.e.| | | | | | R e.w.{ | u.",
"7.p.p.8.8.8.7.u.p.8.8.8.8.8.8.u.e.R | | p.p.| w.w.| | | w.R u.8.8.p.p.7.8.8.8.p.u.6.8.8.8.8.8.p.i.w.R { e.p.e.R e.R | { | w.R 7.",
"8.8.7.u.p.7.e.| R 6.8.8.8.8.8.c.8.p.i.u.8.8.u.7.7.p.e.i.7.p.u.8.8.8.8.p.u.6.p.R { i.8.8.8.8.8.j.c.p.u.e.p.8.p.p.8.p.i.e.p.8.i.p.",
"8.7.e.| | R | | | i.p.8.7.8.v.A.N.v.v.A.M.c.8.7.7.p.u.u.7.8.7.8.8.8.p.| | R | | | w.u.p.8.8.c.Z.A.v.v.N.Z.v.8.8.7.7.p.u.p.8.8.8.",
"p.w.| | { { { | | { | w.i.x.Z.A.A.A.A.V.t.w.i.w.R R { { w.i.w.w.u.u.| | { { | | | | { R e.p.M.A.A.A.A.A.b.K.w.i.R R | { | e.e.R ",
"' ' | e.e.e.| ! { | i.p.7.c.v.A.A.A.a.i.p.u.e.w.| | | { { | | { ! ' ! e.e.e.e.( ( { R p.p.8.c.M.A.A.v.d.u.p.e.e.| { | | | { { | ",
"` ` Q ( ~ q.^ G.' ! p.j.M.A.A.A.A.v.8.8.8.u.w.R | | { { { { ' ! ' ` ` / ( } } G.) ' w.8.v.A.A.A.A.A.8.8.8.p.e.w.| | | | { { ! Q ",
"W.] ) W.W.P.V.A.R.G.y.M.c.c.v.A.A.c.c.8.8.8.p.e.w.| { { { ' [ Y.n.I.' Y.Q.Y.Y.A.V.P.J.x.v.c.c.M.A.N.c.c.8.8.7.u.w.w.{ { { ! ' P.",
"A.R.V.A.A.A.A.A.A.A.A.c.c.8.8.c.M.A.M.v.8.8.8.8.8.i.e.L.P.) V.A.].V.R.A.A.A.A.A.A.A.A.v.c.c.8.8.v.A.N.M.c.8.8.8.8.p.e.e.J.) R.A.",
"N.A.A.Z.A.A.A.A.A.A.A.A.A.v.8.c.j.c.8.8.8.8.8.8.8.v.v.M.C.V.A.A.N.A.A.A.N.A.A.N.A.A.A.A.A.A.8.8.c.c.j.8.8.8.8.8.8.j.N.v.A.V.A.A.",
"8.M.v.8.8.v.c.j.A.A.A.A.A.N.v.A.Z.v.c.c.c.c.8.8.8.8.8.8.c.c.A.v.8.c.N.c.8.c.v.8.v.A.A.A.A.A.v.N.A.M.c.c.c.c.8.8.8.8.8.8.j.c.v.A.",
"8.c.8.8.8.8.8.8.N.N.v.c.M.N.M.M.v.c.a.a.a.s.8.8.8.8.8.8.8.8.j.8.8.8.c.8.8.8.8.8.c.N.M.c.v.N.N.N.N.c.s.a.a.a.8.8.8.8.8.8.8.8.8.c.",
"8.8.p.6.8.8.8.8.8.8.8.8.8.8.8.8.p.e.| { { w.e.w.u.8.c.v.v.8.8.8.8.8.p.p.7.8.8.8.8.8.8.8.8.8.8.8.6.i.R { { | i.w.e.7.8.c.M.c.8.8.",
"i.e.w.w.p.8.8.p.p.8.8.8.8.8.7.u.| | w.w.| | | { w.b.Z.A.A.A.M.e.w.u.w.R i.8.8.8.p.p.8.8.8.8.8.p.w.| R w.R | | { { d.m.A.A.A.N.b.",
"w.i.6.e.e.8.p.w.| i.p.e.p.p.e.w.w.p.8.8.i.| u.u.w.w.t.x.V.d.d.i.e.w.p.p.w.p.8.i.| R p.i.i.7.u.w.R e.6.8.p.R w.u.e.w.w.f.N.b.d.e.",
"p.p.i.w.i.8.e.| w.R | { e.u.p.8.8.8.8.8.8.p.8.6.e.0.u.8.p.0.p.i.u.p.p.e.e.p.p.| | w.| { | i.p.8.8.8.8.8.8.p.6.8.p.e.0.p.7.0.p.u.",
"R | | | | w.| w.7.p.u.p.6.7.8.p.} ~ } e.^ e.c.x.Y.) Q H./ ) { | | R | | { T T | p.7.p.u.p.8.8.8.e.^ ^ e.} } a.v.m.P.' ^ } / ) | ",
"| e.e.e.i.R | i.p.p.6.8.7.p.e.P.U.R.) G.I.G.A.A.].C.G.` Y.C.G.T.t.| i.w.g # % g 4.p.p.8.8.p.u.H.P.Y.E.] E.G.b.A.A.A.W.' ) V.W.P.",
"V.z.8.8.8.e.{ } K.K.e.d.y.P.W.V.].Z.V.A.A.A.].m.L.m.C.Y.V.v.C.A.A.b.c.7.7 q w > u U w.e.f.U.R.!.A.A.V.C.A.A.].A.d.t.A.R.W.M.M.A.",
"M.N.c.8.8.e.d.f.M.Z.Z.Z.v.c.v.M.f.w.K.f.m.T.t.K.{ K.t.f.a.7.c.v.v.Z.x.L =  .+X.X..5 l.Z.v.c.c.v.x.t.w.L.m.f.t.L.| | L.d.a.7.8.v.",
"e.e.p.8.8.7.8.8.8.8.8.8.8.8.8.8.7.7.p.u.w.R | { | { { { | e.u.u.e.e.U # o 9 /.XX}.c 2 5.8.8.8.8.8.7.p.i.e.R R { | | { { | w.e.p.",
"t.f.p.8.8.8.8.8.8.8.c.M.A.Z.c.8.8.7.p.p.e.w.| R u.w.| | { | U h f g t e <X,X, ,.:.6 @ 5.A.A.v.8.8.8.p.p.u.w.w.| e.i.| | | | R R ",
"A.A.M.8.8.8.8.8.8.c.N.A.v.v.A.N.j.p.u.u.i.i.i.p.8.p.R R Y h = @ 9 9 8 X >X8X,X& & 2 =.B.M.v.A.A.v.8.p.u.u.i.i.u.7.8.e.| e.u.z.v.",
"b.y.Z.M.M.j.j.8.p.8.8.j.8.8.c.v.c.8.8.8.8.8.8.8.8.8.6.6.7   3 {.7XqX7XZ.4 p N.q @ 4.8.j.8.8.c.v.v.8.8.8.8.8.8.8.8.8.7.6.8.z.V.V.",
"| | L.y.t.t.d.e.| e.e.u.p.p.p.p.8.8.8.8.8.8.8.8.7.7.6.&.X & +.;XwXeXeX5X@.6 . @ % T e.e.p.6.p.6.7.8.8.8.8.8.8.8.8.8.7.6.i.| w.i.",
"e.| { | | { { { | { { | R R i.u.7.8.8.8.8.8.8.8.5.4.K : = o.@X*XqX1X9X5X@.<.< X H { { | R R e.i.p.8.8.8.8.8.8.8.8.8.7.u.i.u.7.8.",
"c.w.e.6.p.e.i.e.w.i.i.p.6.6.8.8.8.8.8.8.p.q.{ U 2 : X & $.X.3 2 m F 6X4X#. X3.O g e.e.u.6.6.7.8.8.8.8.8.7.0.} } p.8.w.} q.7.8.8.",
"A.f.e.8.8.7.8.8.s.c.v.v.8.8.7.p.p.7.p.0.( P.E r > q g.3.>.& - B 9 2.`.$X&X X3.* 7 8.v.v.c.8.8.p.p.6.7.p.| ) E.) / { / E.P.H.a.N.",
"A.].z.8.8.c.v.A.A.A.A.N.a.7.{ / Q } ( ' ) n.5 4 2X0X:XXX>.. - <..X#XXX$X#X[._.s x A.A.A.c.6.0./ / ( { / ' R.].V.R.G.!.].A.n.m.A.",
"A.A.A.v.8.c.v.v.v.v.c.0.( ^ ) !.I.' U.Q.P.v > =XwXeX3XXX{.4   O 3 {.$X&XXX_.~.a 8 v.v.c.} ~ Q Y.W./ ) !.Y.E.A.A.A.C.A.A.A.A.A.A.",
"t.A.A.A.N.c.8.8.8.j.a.} Y.W.W.A.C.V.A.A.C., 4 -X0X5XoX2.'.q > $.O c `.`._.1.D y 7 7.z.e.G.!.U.V.A.V.C.A.A.A.A.m.b.V.A.M.8.j.Z.Z.",
"| x.v.v.s.8.8.c.M.A.C.V.A.A.v.8.v.].v.a.t.: B #X#.#.$X).V * w g.* 0 _.D S F V & v N.A.V.C.].N.c.c.A.A.c.p.d.t.| { w.j.8.8.u.e.K.",
"| e.6.8.8.8.c.N.v.8.M.A.M.c.8.8.c.M.s.w.{ ; B +X%X%X&X XD C M - X O.OX^.D N + X *.h.c.A.N.v.8.8.8.v.v.u.| | | | | e.u.p.u.| | w.",
"u.e.u.7.8.8.z.s.8.8.8.j.8.8.8.p.u.u.w.| w.: B |.$X%X&X/.2.}. Xk.X.$X#X_.G V < X L 8.8.8.8.8.8.p.u.i.e.| R e.R | | { { | | | R 6.",
"8.8.8.7.7.8.p.R e.7.8.8.8.8.8.p.p.e.| w.6.h 6 _.(.$X&XXX.X&X&X&X&X&XOX_.D F Z o i p.8.8.8.8.8.7.p.i.w.| u.8.u.e.p.i.R | e.p.w.p.",
"8.8.p.R e.u.| | | p.8.8.8.8.j.M.c.8.a.z.z.&.= :._.[.|.OX$X%X%X%X$XOX[.~.D D d   f e.7.8.8.8.8.v.M.8.8.a.c.8.8.7.8.8.p.p.7.8.p.a.",
"8.p.| | | | | | | R e.u.u.v.A.A.A.Z.A.].b.9.: 1 ^._._._.[.|.}.}.(._.^.1.F V * X I | w.i.u.a.N.A.A.A.Z.].Z.d.p.6.u.u.w.R e.p.p.u.",
"{ { | | | | { { | | R e.p.z.v.A.A.A.V.f.e.K h # < >._._._._._._._.~.1.S s +   t l { | w.i.a.c.N.A.A.A.m.e.e.R R | | | | | | | | ",
"_ _ ~ q.w.u.{ ' ! { p.8.c.N.N.A.A.N.7.p.7.P J h % @ < s B >.>.A N < y * X $ u j z W w.8.j.v.N.A.A.A.c.p.p.8.i.e.R | | | | | { { ",
"G.' ' G.G.( Y.Q.) ' t.v.N.N.Z.A.A.c.8.8.8.5.K l l i t # $ $ $ $ @ % r t k k n =.F.' ^ c.N.M.M.A.A.N.8.8.8.7.p.w.| | | | | { ' ' ",
"A.G.Y.A.A.n.A.A.V.Q.V.v.8.8.8.M.A.M.M.c.8.8.6.4.P I I l k j n b $.b z =.%.;.l.B.A.n.!.x.j.8.8.c.Z.A.v.v.8.8.8.7.p.u.| | { Q G.!.",
"A.V.A.A.A.A.A.A.A.A.A.v.N.c.8.8.c.M.v.c.8.8.8.8.7.a.b.r.-.-.l.l.l.l.l.C.C.A.A.A.A.A.].N.M.M.8.8.8.v.v.c.c.8.8.8.8.8.b.b.m.Y.V.].",
"c.A.A.v.v.A.v.v.A.A.A.A.A.M.8.M.v.8.8.8.8.8.8.8.8.v.8.c.M.N.A.N.c.v.A.M.c.N.N.c.N.A.A.A.A.A.c.v.M.c.8.8.8.8.8.8.8.j.c.8.v.N.A.A.",
"8.v.c.8.8.8.8.8.A.A.A.N.A.A.Z.A.A.v.v.v.v.c.8.8.8.8.8.8.8.8.M.c.8.8.v.8.8.8.8.8.v.A.A.N.A.A.N.A.A.M.v.v.v.v.8.8.8.8.8.8.8.8.c.M.",
"8.8.8.8.8.8.8.8.c.c.j.8.c.c.c.c.j.p.e.w.w.u.p.p.6.8.8.j.c.8.8.8.8.8.8.8.8.8.8.8.8.c.c.8.8.c.c.c.c.a.u.w.w.e.p.p.p.8.8.8.c.8.8.8.",
"p.p.e.i.8.8.8.8.8.8.8.8.8.8.8.p.e.| | | | | | | e.z.v.A.A.v.c.a.p.7.i.e.p.8.8.8.8.8.8.8.8.8.8.8.u.R | | | | R | | a.c.N.A.N.c.s.",
"R w.i.R i.8.8.u.e.p.8.p.7.7.u.w.{ e.u.u.w.| R R | L.b.A.A.m.m.e.R w.e.e.w.p.8.p.e.i.8.p.p.8.p.e.| | u.u.i.| | w.| K.t.V.A.V.m.d.",
"p.p.6.u.u.8.u.| { R w.| e.u.u.p.p.6.8.8.p.e.6.6.p.u.p.s.z.p.p.p.u.p.7.p.i.p.7.w.| | w.R R u.u.u.u.p.8.8.8.e.u.7.p.p.p.p.c.a.p.p.",
"i.e.R | w.p.R R u.e.R w.u.u.7.8.p.0.p.p.u.6.8.a.H.^ } p.H.} e.R w.i.w.| | i.i.| e.u.w.R e.u.p.8.p.u.u.7.p.p.8.s.t.} ^ e.0.^ w.w.",
"{ | | | R | | u.8.8.8.8.8.8.6.w.) ) Q ( / ^ M.A.V.Y.' Q ) Y./ | | | R | R | | R 7.8.8.8.8.8.8.u.^ ) / ( ) Q f.A.C.Q.G.' Q E.P.( ",
"t.p.p.p.7.e.| w.e.e.i.p.p.H.P.Y.V.C.W.W.V.W.A.A.V.A.W.) n.Z.W.V.m.e.p.u.6.p.| R e.e.e.p.a.e.H.J.Q.C.V.R.V.W.V.A.Z.Z.V.) E.A.V.W.",
"A.N.j.8.8.e.K.K.f.b.b.b.b.R.Z.A.V.y.f.Z.A.Z.V.t.| t.V.m.v.8.M.B.A.A.v.8.8.p.w.K.T.b.b.b.m.R.x.A.A.b.t.m.A.Z.V.m.K.| m.m.m.j.c.B.",
"a.z.a.8.8.p.z.c.v.c.v.c.8.8.8.c.p.u.w.e.L.| | | | | | w.e.p.7.8.a.z.s.8.8.p.a.z.c.v.c.c.c.8.8.j.z.p.e.w.e.K.| | | | | | e.u.p.8.",
"K.K.u.8.8.8.8.8.8.8.8.c.M.v.8.8.8.8.7.7.i.e.| | R | | { | | w.e.| K.w.6.8.8.8.8.8.8.8.8.v.v.j.8.8.8.8.7.p.e.w.| | | | | | | R e.",
"x.V.z.8.8.8.8.8.8.v.M.A.A.A.M.v.8.p.u.u.e.w.R i.7.e.{ | R e.i.u.f.A.x.s.8.8.8.8.8.c.v.N.A.A.Z.v.c.8.u.u.i.w.w.w.p.p.R { | w.i.i."
};
